<svg width="18" height="18" viewBox="0 0 18 18" fill="none" xmlns="http://www.w3.org/2000/svg">
<path d="M13.9219 4.5V11.8125C13.9219 11.9244 13.8774 12.0317 13.7983 12.1108C13.7192 12.1899 13.6119 12.2344 13.5 12.2344C13.3881 12.2344 13.2808 12.1899 13.2017 12.1108C13.1226 12.0317 13.0781 11.9244 13.0781 11.8125V5.51953L4.79531 13.7953C4.71699 13.8736 4.61077 13.9176 4.5 13.9176C4.38924 13.9176 4.28301 13.8736 4.20469 13.7953C4.12637 13.717 4.08237 13.6108 4.08237 13.5C4.08237 13.3892 4.12637 13.283 4.20469 13.2047L12.4805 4.92188H6.1875C6.07561 4.92188 5.96831 4.87743 5.88919 4.79831C5.81007 4.71919 5.76563 4.61189 5.76563 4.5C5.76563 4.38811 5.81007 4.28081 5.88919 4.20169C5.96831 4.12257 6.07561 4.07813 6.1875 4.07812H13.5C13.6119 4.07813 13.7192 4.12257 13.7983 4.20169C13.8774 4.28081 13.9219 4.38811 13.9219 4.5Z" fill="#DAC5A7"/>
</svg>
