<svg width="14" height="16" viewBox="0 0 14 16" fill="none" xmlns="http://www.w3.org/2000/svg">
<path d="M12.9532 7.07812C12.9109 7.12256 12.8599 7.15794 12.8035 7.18211C12.7471 7.20629 12.6864 7.21875 12.625 7.21875C12.5637 7.21875 12.503 7.20629 12.4466 7.18211C12.3902 7.15794 12.3392 7.12256 12.2969 7.07812L7.4688 2.25781V14.875C7.4688 14.9993 7.41941 15.1185 7.33151 15.2065C7.2436 15.2944 7.12437 15.3438 7.00005 15.3438C6.87573 15.3438 6.7565 15.2944 6.66859 15.2065C6.58069 15.1185 6.5313 14.9993 6.5313 14.875V2.25781L1.70317 7.07812C1.61615 7.16515 1.49812 7.21404 1.37505 7.21404C1.25198 7.21404 1.13395 7.16515 1.04692 7.07812C0.9599 6.9911 0.911011 6.87307 0.911011 6.75C0.911011 6.62693 0.9599 6.5089 1.04692 6.42188L6.67192 0.796875C6.71425 0.752438 6.76515 0.71706 6.82156 0.692887C6.87796 0.668715 6.93868 0.65625 7.00005 0.65625C7.06141 0.65625 7.12214 0.668715 7.17854 0.692887C7.23495 0.71706 7.28585 0.752438 7.32817 0.796875L12.9532 6.42188C12.9976 6.4642 13.033 6.5151 13.0572 6.57151C13.0813 6.62791 13.0938 6.68863 13.0938 6.75C13.0938 6.81137 13.0813 6.87209 13.0572 6.92849C13.033 6.9849 12.9976 7.0358 12.9532 7.07812Z" fill="#DAC5A7"/>
</svg>
