<svg width="10" height="11" viewBox="0 0 10 11" fill="none" xmlns="http://www.w3.org/2000/svg">
<path d="M9.92185 1V8.3125C9.92185 8.42439 9.8774 8.53169 9.79828 8.61081C9.71917 8.68993 9.61186 8.73438 9.49997 8.73438C9.38808 8.73438 9.28078 8.68993 9.20166 8.61081C9.12254 8.53169 9.0781 8.42439 9.0781 8.3125V2.01953L0.795284 10.2953C0.716962 10.3736 0.610735 10.4176 0.499971 10.4176C0.389208 10.4176 0.282981 10.3736 0.204659 10.2953C0.126337 10.217 0.0823364 10.1108 0.0823364 10C0.0823364 9.88924 0.126337 9.78301 0.204659 9.70469L8.48044 1.42188H2.18747C2.07558 1.42188 1.96828 1.37743 1.88916 1.29831C1.81004 1.21919 1.7656 1.11189 1.7656 1C1.7656 0.888112 1.81004 0.780806 1.88916 0.701689C1.96828 0.622572 2.07558 0.578125 2.18747 0.578125H9.49997C9.61186 0.578125 9.71917 0.622572 9.79828 0.701689C9.8774 0.780806 9.92185 0.888112 9.92185 1Z" fill="#0E0E0E"/>
</svg>
