<svg width="78" height="15" viewBox="0 0 78 15" fill="none" xmlns="http://www.w3.org/2000/svg">
<path d="M15.1875 7.375C15.1875 3.36133 11.9355 0.109375 7.92188 0.109375C3.9082 0.109375 0.65625 3.36133 0.65625 7.375C0.65625 11.0078 3.29297 14.0254 6.7793 14.5527V9.48438H4.93359V7.375H6.7793V5.79297C6.7793 3.97656 7.86328 2.95117 9.50391 2.95117C10.3242 2.95117 11.1445 3.09766 11.1445 3.09766V4.88477H10.2363C9.32812 4.88477 9.03516 5.44141 9.03516 6.02734V7.375H11.0566L10.7344 9.48438H9.03516V14.5527C12.5215 14.0254 15.1875 11.0078 15.1875 7.375ZM37.3652 3.53711C37.1895 2.83398 36.6328 2.27734 35.959 2.10156C34.6992 1.75 29.7188 1.75 29.7188 1.75C29.7188 1.75 24.709 1.75 23.4492 2.10156C22.7754 2.27734 22.2188 2.83398 22.043 3.53711C21.6914 4.76758 21.6914 7.4043 21.6914 7.4043C21.6914 7.4043 21.6914 10.0117 22.043 11.2715C22.2188 11.9746 22.7754 12.502 23.4492 12.6777C24.709 13 29.7188 13 29.7188 13C29.7188 13 34.6992 13 35.959 12.6777C36.6328 12.502 37.1895 11.9746 37.3652 11.2715C37.7168 10.0117 37.7168 7.4043 37.7168 7.4043C37.7168 7.4043 37.7168 4.76758 37.3652 3.53711ZM28.0781 9.77734V5.03125L32.2383 7.4043L28.0781 9.77734ZM50.5781 4.00586C48.7031 4.00586 47.209 5.5293 47.209 7.375C47.209 9.25 48.7031 10.7441 50.5781 10.7441C52.4238 10.7441 53.9473 9.25 53.9473 7.375C53.9473 5.5293 52.4238 4.00586 50.5781 4.00586ZM50.5781 9.57227C49.377 9.57227 48.3809 8.60547 48.3809 7.375C48.3809 6.17383 49.3477 5.20703 50.5781 5.20703C51.7793 5.20703 52.7461 6.17383 52.7461 7.375C52.7461 8.60547 51.7793 9.57227 50.5781 9.57227ZM54.8555 3.88867C54.8555 3.44922 54.5039 3.09766 54.0645 3.09766C53.625 3.09766 53.2734 3.44922 53.2734 3.88867C53.2734 4.32812 53.625 4.67969 54.0645 4.67969C54.5039 4.67969 54.8555 4.32812 54.8555 3.88867ZM57.082 4.67969C57.0234 3.625 56.7891 2.6875 56.0273 1.92578C55.2656 1.16406 54.3281 0.929688 53.2734 0.871094C52.1895 0.8125 48.9375 0.8125 47.8535 0.871094C46.7988 0.929688 45.8906 1.16406 45.0996 1.92578C44.3379 2.6875 44.1035 3.625 44.0449 4.67969C43.9863 5.76367 43.9863 9.01562 44.0449 10.0996C44.1035 11.1543 44.3379 12.0625 45.0996 12.8535C45.8906 13.6152 46.7988 13.8496 47.8535 13.9082C48.9375 13.9668 52.1895 13.9668 53.2734 13.9082C54.3281 13.8496 55.2656 13.6152 56.0273 12.8535C56.7891 12.0625 57.0234 11.1543 57.082 10.0996C57.1406 9.01562 57.1406 5.76367 57.082 4.67969ZM55.6758 11.2422C55.4707 11.8281 55.002 12.2676 54.4453 12.502C53.5664 12.8535 51.5156 12.7656 50.5781 12.7656C49.6113 12.7656 47.5605 12.8535 46.7109 12.502C46.125 12.2676 45.6855 11.8281 45.4512 11.2422C45.0996 10.3926 45.1875 8.3418 45.1875 7.375C45.1875 6.4375 45.0996 4.38672 45.4512 3.50781C45.6855 2.95117 46.125 2.51172 46.7109 2.27734C47.5605 1.92578 49.6113 2.01367 50.5781 2.01367C51.5156 2.01367 53.5664 1.92578 54.4453 2.27734C55.002 2.48242 55.4414 2.95117 55.6758 3.50781C56.0273 4.38672 55.9395 6.4375 55.9395 7.375C55.9395 8.3418 56.0273 10.3926 55.6758 11.2422ZM76.4473 4.32812C77.0332 3.88867 77.5605 3.36133 77.9707 2.74609C77.4434 2.98047 76.8281 3.15625 76.2129 3.21484C76.8574 2.83398 77.3262 2.24805 77.5605 1.51562C76.9746 1.86719 76.3008 2.13086 75.627 2.27734C75.041 1.66211 74.25 1.31055 73.3711 1.31055C71.6719 1.31055 70.2949 2.6875 70.2949 4.38672C70.2949 4.62109 70.3242 4.85547 70.3828 5.08984C67.834 4.94336 65.5488 3.71289 64.0254 1.86719C63.7617 2.30664 63.6152 2.83398 63.6152 3.41992C63.6152 4.47461 64.1426 5.41211 64.9922 5.96875C64.4941 5.93945 63.9961 5.82227 63.5859 5.58789V5.61719C63.5859 7.11133 64.6406 8.3418 66.0469 8.63477C65.8125 8.69336 65.5195 8.75195 65.2559 8.75195C65.0508 8.75195 64.875 8.72266 64.6699 8.69336C65.0508 9.92383 66.1934 10.8027 67.541 10.832C66.4863 11.6523 65.168 12.1504 63.7324 12.1504C63.4688 12.1504 63.2344 12.1211 63 12.0918C64.3477 12.9707 65.959 13.4688 67.7168 13.4688C73.3711 13.4688 76.4473 8.81055 76.4473 4.73828C76.4473 4.5918 76.4473 4.47461 76.4473 4.32812Z" fill="#DFEEB6"/>
</svg>
