<svg width="35" height="37" viewBox="0 0 35 37" fill="none" xmlns="http://www.w3.org/2000/svg">
<path d="M0 0.255371V36.7447H35V0.255371H0ZM3.18182 3.57259H31.8182V33.4275H3.18182V3.57259ZM10.9311 6.89312C10.1516 6.89312 9.37045 7.20162 8.77545 7.82028L7.25614 9.40425C6.8482 9.82517 6.56365 10.3585 6.43574 10.9418C6.30784 11.5251 6.34187 12.1343 6.53386 12.6982L6.60227 12.9139C6.86477 13.7498 7.48045 15.7003 9.48659 18.7986C10.4602 20.3046 11.5866 21.7128 12.8243 22.97L13.1966 23.3598C14.4172 24.6615 15.7609 25.8313 17.2073 26.8511C20.1823 28.9426 22.0564 29.5829 22.8566 29.8582L23.065 29.9328C23.606 30.1328 24.1905 30.168 24.75 30.0344C25.3095 29.9007 25.821 29.6037 26.2245 29.1782L27.7439 27.5959C28.3198 26.9938 28.6364 26.1993 28.6364 25.3518C28.6364 24.5026 28.3198 23.7014 27.7455 23.1027L25.9159 21.1986C24.7641 19.9994 22.7564 19.9994 21.6045 21.1986L18.8889 24.0298C17.6545 23.1493 16.5066 22.1437 15.462 21.0278L15.0643 20.6131C13.9989 19.5276 13.0391 18.3348 12.1991 17.0521L14.9148 14.2208C15.4907 13.6221 15.8057 12.8193 15.8057 11.9718C15.8057 11.1259 15.4907 10.3298 14.9148 9.72768L13.082 7.82028C12.7998 7.52566 12.4644 7.29209 12.0953 7.13298C11.7262 6.97386 11.3306 6.89235 10.9311 6.89312Z" fill="#010326"/>
</svg>
