<svg width="10" height="10" viewBox="0 0 10 10" fill="none" xmlns="http://www.w3.org/2000/svg">
<path d="M9.37514 1V7.5C9.37514 7.59946 9.33563 7.69484 9.2653 7.76517C9.19498 7.83549 9.09959 7.875 9.00014 7.875C8.90068 7.875 8.8053 7.83549 8.73497 7.76517C8.66465 7.69484 8.62514 7.59946 8.62514 7.5V1.90625L1.26264 9.2625C1.19302 9.33212 1.09859 9.37123 1.00014 9.37123C0.901681 9.37123 0.807257 9.33212 0.737637 9.2625C0.668018 9.19288 0.628906 9.09846 0.628906 9C0.628906 8.90154 0.668018 8.80712 0.737637 8.7375L8.09389 1.375H2.50014C2.40068 1.375 2.3053 1.33549 2.23497 1.26516C2.16465 1.19484 2.12514 1.09946 2.12514 1C2.12514 0.900544 2.16465 0.805161 2.23497 0.734835C2.3053 0.664509 2.40068 0.625 2.50014 0.625H9.00014C9.09959 0.625 9.19498 0.664509 9.2653 0.734835C9.33563 0.805161 9.37514 0.900544 9.37514 1Z" fill="#DAC5A7"/>
</svg>
