<svg width="32" height="32" viewBox="0 0 32 32" fill="none" xmlns="http://www.w3.org/2000/svg">
<g filter="url(#filter0_d_1240_222)">
<path fill-rule="evenodd" clip-rule="evenodd" d="M16.315 2C18.745 2 19.099 2.013 20.123 2.06C21.187 2.109 21.914 2.278 22.55 2.525C23.2175 2.77587 23.8222 3.16936 24.322 3.678C24.8306 4.17777 25.2241 4.7825 25.475 5.45C25.722 6.086 25.891 6.813 25.94 7.877C25.988 8.944 26 9.284 26 12V12.08C26 14.723 25.988 15.067 25.94 16.123C25.891 17.187 25.722 17.914 25.475 18.55C25.2241 19.2175 24.8306 19.8222 24.322 20.322C23.8222 20.8306 23.2175 21.2241 22.55 21.475C21.914 21.722 21.187 21.891 20.123 21.94C19.056 21.988 18.716 22 16 22H15.92C13.277 22 12.933 21.988 11.877 21.94C10.813 21.891 10.086 21.722 9.45 21.475C8.7825 21.2241 8.17777 20.8306 7.678 20.322C7.16936 19.8222 6.77587 19.2175 6.525 18.55C6.278 17.914 6.109 17.187 6.06 16.123C6.013 15.099 6 14.744 6 12.315V11.685C6 9.255 6.013 8.901 6.06 7.877C6.109 6.813 6.278 6.086 6.525 5.45C6.77587 4.7825 7.16936 4.17777 7.678 3.678C8.17777 3.16936 8.7825 2.77587 9.45 2.525C10.086 2.278 10.813 2.109 11.877 2.06C12.901 2.013 13.256 2 15.685 2H16.315ZM16.234 3.802H15.766C13.31 3.802 12.982 3.813 11.959 3.86C10.984 3.905 10.455 4.067 10.102 4.204C9.635 4.386 9.302 4.602 8.952 4.952C8.602 5.302 8.386 5.635 8.204 6.102C8.067 6.455 7.904 6.984 7.86 7.959C7.813 8.982 7.802 9.31 7.802 11.766V12.234C7.802 14.69 7.813 15.018 7.86 16.041C7.905 17.016 8.067 17.545 8.204 17.898C8.386 18.364 8.603 18.698 8.952 19.048C9.302 19.398 9.635 19.614 10.102 19.796C10.455 19.933 10.984 20.096 11.959 20.14C13.013 20.188 13.329 20.198 16 20.198H16.08C18.677 20.198 18.997 20.188 20.04 20.14C21.016 20.095 21.545 19.933 21.898 19.796C22.364 19.614 22.698 19.398 23.048 19.048C23.398 18.698 23.614 18.365 23.796 17.898C23.933 17.545 24.096 17.016 24.14 16.041C24.188 14.986 24.198 14.671 24.198 12V11.92C24.198 9.323 24.188 9.003 24.14 7.96C24.095 6.984 23.933 6.455 23.796 6.102C23.6358 5.66757 23.3802 5.2746 23.048 4.952C22.7254 4.61986 22.3324 4.36426 21.898 4.204C21.545 4.067 21.016 3.904 20.041 3.86C19.018 3.813 18.69 3.802 16.234 3.802ZM16 6.865C16.6743 6.865 17.3421 6.99782 17.9651 7.25588C18.5881 7.51394 19.1542 7.89218 19.631 8.36901C20.1078 8.84584 20.4861 9.41191 20.7441 10.0349C21.0022 10.6579 21.135 11.3257 21.135 12C21.135 12.6743 21.0022 13.3421 20.7441 13.9651C20.4861 14.5881 20.1078 15.1542 19.631 15.631C19.1542 16.1078 18.5881 16.4861 17.9651 16.7441C17.3421 17.0022 16.6743 17.135 16 17.135C14.6381 17.135 13.332 16.594 12.369 15.631C11.406 14.668 10.865 13.3619 10.865 12C10.865 10.6381 11.406 9.33201 12.369 8.36901C13.332 7.40601 14.6381 6.865 16 6.865ZM16 8.667C15.116 8.667 14.2683 9.01815 13.6432 9.64321C13.0182 10.2683 12.667 11.116 12.667 12C12.667 12.884 13.0182 13.7317 13.6432 14.3568C14.2683 14.9818 15.116 15.333 16 15.333C16.884 15.333 17.7317 14.9818 18.3568 14.3568C18.9818 13.7317 19.333 12.884 19.333 12C19.333 11.116 18.9818 10.2683 18.3568 9.64321C17.7317 9.01815 16.884 8.667 16 8.667ZM21.338 5.462C21.6563 5.462 21.9615 5.58843 22.1865 5.81347C22.4116 6.03852 22.538 6.34374 22.538 6.662C22.538 6.98026 22.4116 7.28548 22.1865 7.51053C21.9615 7.73557 21.6563 7.862 21.338 7.862C21.0197 7.862 20.7145 7.73557 20.4895 7.51053C20.2644 7.28548 20.138 6.98026 20.138 6.662C20.138 6.34374 20.2644 6.03852 20.4895 5.81347C20.7145 5.58843 21.0197 5.462 21.338 5.462Z" fill="#9CA3AF"/>
</g>
<defs>
<filter id="filter0_d_1240_222" x="0" y="0" width="32" height="32" filterUnits="userSpaceOnUse" color-interpolation-filters="sRGB">
<feFlood flood-opacity="0" result="BackgroundImageFix"/>
<feColorMatrix in="SourceAlpha" type="matrix" values="0 0 0 0 0 0 0 0 0 0 0 0 0 0 0 0 0 0 127 0" result="hardAlpha"/>
<feOffset dy="4"/>
<feGaussianBlur stdDeviation="2"/>
<feComposite in2="hardAlpha" operator="out"/>
<feColorMatrix type="matrix" values="0 0 0 0 0 0 0 0 0 0 0 0 0 0 0 0 0 0 0.25 0"/>
<feBlend mode="normal" in2="BackgroundImageFix" result="effect1_dropShadow_1240_222"/>
<feBlend mode="normal" in="SourceGraphic" in2="effect1_dropShadow_1240_222" result="shape"/>
</filter>
</defs>
</svg>
