<svg width="167" height="32" viewBox="0 0 167 32" fill="none" xmlns="http://www.w3.org/2000/svg">
<g clip-path="url(#clip0_20304_1367)">
<mask id="mask0_20304_1367" style="mask-type:luminance" maskUnits="userSpaceOnUse" x="0" y="0" width="167" height="32">
<path d="M166.799 0H0V31.999H166.799V0Z" fill="white"/>
</mask>
<g mask="url(#mask0_20304_1367)">
<path fill-rule="evenodd" clip-rule="evenodd" d="M65.818 25.0303C59.6541 29.5793 50.7176 31.9984 43.0219 31.9984C32.2371 31.9984 22.5249 28.0117 15.175 21.3752C14.5986 20.8536 15.1126 20.1421 15.8062 20.5456C23.7353 25.1598 33.5421 27.9389 43.6692 27.9389C50.5012 27.9389 58.0117 26.5205 64.9222 23.5893C65.9645 23.148 66.8386 24.2763 65.818 25.0303Z" fill="#F79C34"/>
<path fill-rule="evenodd" clip-rule="evenodd" d="M68.3837 22.1004C67.5946 21.0912 63.1723 21.6223 61.185 21.8604C60.5831 21.9332 60.4895 21.4069 61.0319 21.026C64.5604 18.5474 70.3426 19.2627 71.0144 20.0934C71.691 20.9296 70.8358 26.727 67.5304 29.4928C67.0211 29.9181 66.5372 29.6913 66.7631 29.13C67.5077 27.2712 69.1727 23.1116 68.3837 22.1004Z" fill="#F79C34"/>
<path fill-rule="evenodd" clip-rule="evenodd" d="M61.3248 3.51917V1.11142C61.3267 0.744775 61.6026 0.500977 61.9353 0.501922L72.7285 0.500977C73.0735 0.500977 73.3513 0.75139 73.3513 1.10858V3.17331C73.3475 3.52011 73.0555 3.9718 72.5386 4.68902L66.9473 12.672C69.0224 12.6238 71.2176 12.9347 73.1037 13.994C73.5289 14.2331 73.6433 14.5874 73.6763 14.9342V17.5036C73.6763 17.8579 73.2889 18.2671 72.8807 18.0545C69.5592 16.3139 65.1509 16.1239 61.477 18.0753C61.1018 18.2756 60.7097 17.8712 60.7097 17.5168V15.0741C60.7097 14.6838 60.7172 14.0148 61.1113 13.4195L67.588 4.12677L61.9485 4.12583C61.6036 4.12583 61.3267 3.88014 61.3248 3.51917Z" fill="black"/>
<path fill-rule="evenodd" clip-rule="evenodd" d="M21.9542 18.5604H18.6705C18.3577 18.5405 18.1082 18.3062 18.0827 18.0057L18.0855 1.15239C18.0855 0.81599 18.369 0.546678 18.7196 0.546678L21.7775 0.545733C22.0969 0.561797 22.3539 0.803706 22.3737 1.11176V3.31162H22.4361C23.2327 1.18358 24.7342 0.19043 26.7574 0.19043C28.8108 0.19043 30.0988 1.18358 31.0182 3.31162C31.8148 1.18358 33.6234 0.19043 35.554 0.19043C36.9336 0.19043 38.4352 0.758348 39.3546 2.03498C40.3969 3.45431 40.1833 5.51053 40.1833 7.31918L40.1795 17.9547C40.1795 18.2901 39.897 18.5604 39.5464 18.5604H36.2674C35.9367 18.5396 35.6778 18.2788 35.6778 17.9556L35.6768 9.02104C35.6768 8.31232 35.7383 6.53959 35.5842 5.86583C35.3395 4.73 34.6043 4.4106 33.6546 4.4106C32.8571 4.4106 32.0293 4.94261 31.692 5.79307C31.3546 6.64542 31.3858 8.06285 31.3858 9.02104V17.9547C31.3858 18.2901 31.1023 18.5604 30.7527 18.5604H27.4727C27.1429 18.5396 26.8831 18.2788 26.8831 17.9556L26.8793 9.02104C26.8793 7.14152 27.1864 4.37658 24.8571 4.37658C22.4966 4.37658 22.5892 7.07065 22.5892 9.02104L22.5873 17.9547C22.5873 18.2901 22.3038 18.5604 21.9542 18.5604Z" fill="black"/>
<path fill-rule="evenodd" clip-rule="evenodd" d="M82.6724 3.63101C80.2514 3.63101 80.0983 6.92796 80.0983 8.98513C80.0983 11.0423 80.0681 15.4401 82.6431 15.4401C85.1869 15.4401 85.3098 11.8937 85.3098 9.7307C85.3098 8.31232 85.2474 6.60951 84.8184 5.26201C84.4508 4.09121 83.7147 3.63101 82.6724 3.63101ZM82.6431 0.19043C87.5162 0.19043 90.1517 4.37658 90.1517 9.69574C90.1517 14.8363 87.2403 18.9157 82.6431 18.9157C77.8607 18.9157 75.2554 14.7305 75.2554 9.51809C75.2554 4.26886 77.8909 0.19043 82.6431 0.19043Z" fill="black"/>
<path fill-rule="evenodd" clip-rule="evenodd" d="M96.4725 18.5604H93.2001C92.8722 18.5396 92.6114 18.2788 92.6114 17.9556L92.6057 1.09664C92.6341 0.787642 92.9062 0.546678 93.2369 0.546678L96.2825 0.545733C96.5698 0.560852 96.806 0.755513 96.8665 1.01727V3.5951H96.9279C97.8483 1.28941 99.1344 0.19043 101.402 0.19043C102.874 0.19043 104.315 0.72244 105.234 2.17673C106.092 3.52423 106.092 5.79307 106.092 7.42501V18.0302C106.056 18.3289 105.788 18.5604 105.463 18.5604H102.172C101.867 18.5415 101.622 18.3175 101.587 18.0302V8.88024C101.587 7.03569 101.802 4.33973 99.5332 4.33973C98.7366 4.33973 98.0005 4.87174 97.6329 5.68724C97.1727 6.71629 97.1113 7.74441 97.1113 8.88024V17.9547C97.1056 18.2901 96.8221 18.5604 96.4725 18.5604Z" fill="black"/>
<path fill-rule="evenodd" clip-rule="evenodd" d="M56.0302 18.5183C55.8138 18.7129 55.501 18.7262 55.2553 18.5948C54.1649 17.6886 53.9693 17.27 53.373 16.4063C51.571 18.2423 50.2943 18.7933 47.9593 18.7933C45.1953 18.7933 43.0446 17.0867 43.0446 13.6754C43.0446 11.0097 44.4895 9.19723 46.5466 8.30897C48.3279 7.52655 50.8159 7.3848 52.721 7.17124V6.74507C52.721 5.9617 52.7824 5.03942 52.3212 4.36378C51.9215 3.75901 51.1542 3.51048 50.4786 3.51048C49.2256 3.51048 48.1134 4.15211 47.8393 5.48166C47.7817 5.77743 47.5662 6.07131 47.2695 6.08643L44.086 5.74152C43.8176 5.6801 43.519 5.46465 43.5955 5.05454C44.3184 1.24731 47.7184 0.0604488 50.8084 0.0283203H51.0522C52.634 0.0481644 54.6543 0.481899 55.8847 1.66215C57.4826 3.15518 57.3276 5.14526 57.3276 7.31393V12.429C57.3276 13.9683 57.9674 14.643 58.5674 15.4717C58.7781 15.7713 58.8244 16.1256 58.557 16.3449C57.8861 16.9071 56.6945 17.9418 56.0397 18.5258L56.0302 18.5183ZM52.721 10.5126C52.721 11.7921 52.7512 12.858 52.1067 13.9957C51.5842 14.9189 50.7545 15.4878 49.8332 15.4878C48.5745 15.4878 47.8374 14.5287 47.8374 13.1065C47.8374 10.3094 50.3453 9.80105 52.721 9.80105V10.5126Z" fill="black"/>
<path fill-rule="evenodd" clip-rule="evenodd" d="M12.9866 18.5183C12.7693 18.7129 12.4556 18.7262 12.2108 18.5948C11.1194 17.6886 10.9238 17.27 10.3285 16.4063C8.52551 18.2423 7.24982 18.7933 4.91484 18.7933C2.15084 18.7933 0.00012207 17.0867 0.00012207 13.6754C0.00012207 11.0097 1.44307 9.19723 3.50213 8.30897C5.28337 7.52655 7.77144 7.3848 9.67552 7.17124V6.74507C9.67552 5.9617 9.73789 5.03942 9.27675 4.36378C8.87704 3.75901 8.10879 3.51048 7.43409 3.51048C6.18108 3.51048 5.06697 4.15211 4.79483 5.48166C4.73813 5.77743 4.52174 6.07131 4.22407 6.08643L1.04146 5.74152C0.772151 5.6801 0.473545 5.46465 0.551031 5.05454C1.27203 1.24731 4.67293 0.0604488 7.76388 0.0283203H8.00768C9.58953 0.0481644 11.6098 0.481899 12.8402 1.66215C14.4372 3.15518 14.2831 5.14526 14.2831 7.31393V12.429C14.2831 13.9683 14.9229 14.643 15.5229 15.4717C15.7317 15.7713 15.7799 16.1256 15.5125 16.3449C14.8416 16.9071 13.6491 17.9418 12.9942 18.5258L12.9866 18.5183ZM9.67552 10.5126C9.67552 11.7921 9.70671 12.858 9.0613 13.9957C8.53969 14.9189 7.71002 15.4878 6.78774 15.4878C5.52906 15.4878 4.79199 14.5287 4.79199 13.1065C4.79199 10.3094 7.30085 9.80105 9.67552 9.80105V10.5126Z" fill="black"/>
<path fill-rule="evenodd" clip-rule="evenodd" d="M150.979 24.6059C150.979 24.1788 150.979 23.7951 150.979 23.368C150.979 23.0156 151.152 22.7727 151.519 22.7944C152.205 22.8918 153.176 22.9891 153.865 22.8474C154.764 22.6603 155.41 22.0224 155.791 21.1483C156.329 19.918 156.685 18.9258 156.91 18.2747L150.079 1.35245C149.964 1.06518 149.93 0.532227 150.503 0.532227H152.891C153.347 0.532227 153.532 0.821383 153.634 1.10487L158.586 14.8502L163.314 1.10487C163.41 0.823273 163.604 0.532227 164.056 0.532227H166.308C166.878 0.532227 166.845 1.06424 166.732 1.35245L159.956 18.8029C159.079 21.1257 157.911 24.8252 155.28 25.4677C153.961 25.8126 152.297 25.6879 151.32 25.2787C151.073 25.1549 150.979 24.8242 150.979 24.6059Z" fill="black"/>
<path fill-rule="evenodd" clip-rule="evenodd" d="M147.793 17.5289C147.793 17.8436 147.535 18.1016 147.218 18.1016H145.534C145.171 18.1016 144.922 17.8389 144.876 17.5289L144.707 16.3827C143.933 17.0376 142.983 17.613 141.953 18.0137C139.972 18.7829 137.689 18.9105 135.754 17.7217C134.355 16.8627 133.612 15.1835 133.612 13.4514C133.612 12.1115 134.025 10.7829 134.941 9.81809C136.162 8.49988 137.933 7.85258 140.072 7.85258C141.363 7.85258 143.212 8.00472 144.556 8.44412V6.13749C144.556 3.79211 143.569 2.77722 140.966 2.77722C138.976 2.77722 137.453 3.07772 135.335 3.73636C134.995 3.74769 134.797 3.48972 134.797 3.17505V1.85967C134.797 1.54406 135.066 1.23884 135.358 1.14623C136.871 0.486652 139.014 0.0755965 141.293 0C144.263 0 147.793 0.669974 147.793 5.23789V17.5289ZM144.556 14.1611V10.6808C143.426 10.3718 141.556 10.2433 140.832 10.2433C139.689 10.2433 138.437 10.5136 137.783 11.2176C137.294 11.7335 137.073 12.4744 137.073 13.1906C137.073 14.1167 137.394 15.0456 138.142 15.5048C139.011 16.0954 140.36 16.0236 141.627 15.6636C142.845 15.3177 143.989 14.7063 144.556 14.1611Z" fill="black"/>
<path fill-rule="evenodd" clip-rule="evenodd" d="M122.964 2.82955C126.701 2.82955 127.718 5.76741 127.718 9.13146C127.739 11.3994 127.322 13.4216 126.148 14.5791C125.269 15.4457 124.287 15.6819 122.809 15.6819C121.494 15.6819 119.764 14.9959 118.471 14.0405V4.4218C119.817 3.38801 121.534 2.82955 122.964 2.82955ZM117.898 25.2099H115.643C115.327 25.2099 115.069 24.9519 115.069 24.6372C115.069 16.8036 115.069 8.96892 115.069 1.13524C115.069 0.820569 115.327 0.562596 115.643 0.562596H117.369C117.732 0.562596 117.981 0.825294 118.027 1.13524L118.208 2.36652C119.825 0.931129 121.907 0.0107422 123.89 0.0107422C129.446 0.0107422 131.272 4.58811 131.272 9.34785C131.272 14.4402 128.478 18.5319 123.752 18.5319C121.762 18.5319 119.902 17.7976 118.471 16.522V24.6372C118.471 24.9519 118.213 25.2099 117.898 25.2099Z" fill="black"/>
</g>
</g>
<defs>
<clipPath id="clip0_20304_1367">
<rect width="166.799" height="31.999" fill="white"/>
</clipPath>
</defs>
</svg>
