<svg width="78" height="32" viewBox="0 0 78 32" fill="none" xmlns="http://www.w3.org/2000/svg">
<path fill-rule="evenodd" clip-rule="evenodd" d="M14.0842 4.12539C13.181 5.20637 11.7355 6.05886 10.2901 5.93701C10.1094 4.47551 10.8169 2.92279 11.6452 1.96387C12.5484 0.852488 14.1294 0.0608155 15.4093 0C15.5598 1.52232 14.9727 3.01422 14.0842 4.12539ZM15.3941 6.22631C14.1208 6.15222 12.9589 6.61347 12.0203 6.98608C11.4165 7.22591 10.9049 7.42892 10.5158 7.42892C10.0792 7.42892 9.5466 7.21499 8.94872 6.97473C8.16519 6.66016 7.26944 6.3004 6.33001 6.31754C4.17706 6.34816 2.17443 7.58117 1.07525 9.54483C-1.18327 13.4726 0.488083 19.2877 2.67123 22.4846C3.74043 24.0677 5.02012 25.8033 6.70647 25.7423C7.44846 25.7141 7.9821 25.4851 8.53436 25.2481C9.17014 24.9753 9.83076 24.692 10.8621 24.692C11.8578 24.692 12.4895 24.968 13.0957 25.2329C13.6722 25.4849 14.226 25.7267 15.0478 25.7119C16.7946 25.6815 17.8935 24.1288 18.9627 22.5454C20.1163 20.8462 20.6232 19.1879 20.7003 18.9363L20.7092 18.9072C20.7092 18.9072 20.6932 18.8986 20.6679 18.8871C20.2823 18.7085 17.3346 17.3442 17.3064 13.6856C17.2781 10.6149 19.6443 9.05894 20.0169 8.81397C20.0396 8.79898 20.0548 8.78892 20.0617 8.78378C18.5561 6.53082 16.2072 6.28713 15.3941 6.22631ZM27.4846 25.5445V1.81162H36.2928C40.84 1.81162 44.017 4.97788 44.017 9.60586C44.017 14.2336 40.7797 17.4305 36.1724 17.4305H31.1284V25.5445H27.4846ZM31.1284 4.91706H35.3292C38.4911 4.91706 40.2978 6.62204 40.2978 9.62106C40.2978 12.6201 38.4911 14.3403 35.3142 14.3403H31.1284V4.91706ZM56.0471 22.6977C55.0835 24.5549 52.9605 25.7271 50.672 25.7271C47.2841 25.7271 44.9202 23.6872 44.9202 20.6122C44.9202 17.5676 47.209 15.817 51.4399 15.5581L55.987 15.284V13.9749C55.987 12.0415 54.7372 10.9911 52.5089 10.9911C50.672 10.9911 49.3319 11.9503 49.0608 13.4115H45.7785C45.8839 10.3365 48.7448 8.09874 52.6143 8.09874C56.7848 8.09874 59.4952 10.3061 59.4952 13.7312V25.5445H56.1225V22.6977H56.0471ZM51.6506 22.911C49.7084 22.911 48.4737 21.967 48.4737 20.5207C48.4737 19.0291 49.6632 18.1611 51.9367 18.0243L55.987 17.7654V19.1051C55.987 21.3276 54.1199 22.911 51.6506 22.911ZM70.6823 26.4732C69.2218 30.629 67.5505 31.999 63.997 31.999C63.7262 31.999 62.8227 31.9686 62.6118 31.9078V29.061C62.8377 29.0915 63.3949 29.1219 63.681 29.1219C65.2919 29.1219 66.1954 28.4368 66.7524 26.6558L67.0836 25.6053L60.9104 8.32702H64.7198L69.0109 22.3476H69.0863L73.3774 8.32702H77.0814L70.6823 26.4732Z" fill="black"/>
</svg>
