<svg width="81" height="32" viewBox="0 0 81 32" fill="none" xmlns="http://www.w3.org/2000/svg">
<path d="M38.1108 15.6361V25.0128H35.1338V1.85123H43.0253C44.929 1.81072 46.7686 2.53304 48.1356 3.85618C49.5195 5.10168 50.2992 6.88386 50.2688 8.74367C50.3093 10.617 49.5296 12.4127 48.1356 13.6615C46.7551 14.9779 45.0505 15.6361 43.0253 15.6327L38.1108 15.6361ZM38.1108 4.70339V12.7907H43.0996C44.2067 12.8245 45.2733 12.389 46.0429 11.5925C47.6057 10.0736 47.6428 7.57243 46.1205 6.00964C46.0935 5.98264 46.0699 5.95564 46.0429 5.93201C45.2834 5.11856 44.2101 4.67301 43.0996 4.70339H38.1108ZM57.1275 8.64916C59.3282 8.64916 61.0632 9.23647 62.3357 10.4111C63.6082 11.5857 64.2427 13.1991 64.2427 15.2446V25.0128H61.3973V22.8121H61.269C60.0371 24.6246 58.3966 25.5292 56.3512 25.5292C54.6061 25.5292 53.1446 25.0128 51.97 23.9766C50.8291 23.0146 50.1811 21.5902 50.2081 20.0949C50.2081 18.4545 50.8291 17.1516 52.0679 16.1829C53.3066 15.2142 54.9605 14.7281 57.033 14.7281C58.7983 14.7281 60.2564 15.0522 61.3973 15.6969V15.0151C61.4041 13.9957 60.9518 13.0304 60.1687 12.3823C59.3822 11.6735 58.3561 11.2853 57.2963 11.2988C55.6356 11.2988 54.3192 12.0009 53.3505 13.4016L50.7312 11.7511C52.1691 9.68202 54.3023 8.64916 57.1275 8.64916ZM53.2762 20.1624C53.2729 20.932 53.6408 21.6543 54.2618 22.1033C54.92 22.6197 55.7369 22.8965 56.574 22.8796C57.8296 22.8762 59.0346 22.3767 59.9223 21.489C60.9079 20.5607 61.4007 19.4739 61.4007 18.2216C60.4725 17.4824 59.1797 17.1111 57.519 17.1111C56.3107 17.1111 55.3014 17.4014 54.4947 17.9854C53.6813 18.5794 53.2762 19.2984 53.2762 20.1624ZM80.5794 9.16559L70.6457 31.9998H67.5742L71.2601 24.0103L64.7254 9.16559H67.959L72.6811 20.5506H72.7452L77.3391 9.16559H80.5794Z" fill="black"/>
<path d="M26.0846 13.6103C26.0846 12.7024 26.0103 11.7978 25.8551 10.9033H13.3055V16.0271H20.4916C20.1946 17.681 19.236 19.1425 17.8352 20.0707V23.3988H22.1253C24.6366 21.0867 26.0846 17.6608 26.0846 13.6103Z" fill="#4285F4"/>
<path d="M13.3056 26.6151C16.8969 26.6151 19.9212 25.4371 22.1253 23.4018L17.8353 20.0737C16.6404 20.8838 15.1046 21.3462 13.3056 21.3462C9.8357 21.3462 6.88903 19.0071 5.83592 15.8545H1.4176V19.2838C3.67571 23.7798 8.2763 26.6151 13.3056 26.6151Z" fill="#34A853"/>
<path d="M5.83596 15.8548C5.27903 14.2042 5.27903 12.4119 5.83596 10.7614V7.33203H1.41764C-0.472548 11.0922 -0.472548 15.524 1.41764 19.2841L5.83596 15.8548Z" fill="#FBBC04"/>
<path d="M13.3056 5.26972C15.2025 5.23934 17.0353 5.95491 18.4091 7.26454L22.2097 3.46728C19.7997 1.20581 16.61 -0.0363197 13.3056 0.000809008C8.27629 0.000809008 3.67571 2.83947 1.4176 7.33205L5.83592 10.7614C6.88903 7.60883 9.8357 5.26972 13.3056 5.26972Z" fill="#EA4335"/>
</svg>
