<svg width="52" height="32" viewBox="0 0 52 32" fill="none" xmlns="http://www.w3.org/2000/svg">
<path d="M18.8457 3.42188H32.8135V28.5766H18.8457V3.42188Z" fill="#FF5F00"/>
<path d="M19.7325 15.9995C19.7325 10.8886 22.1269 6.35535 25.8072 3.42203C23.1025 1.2888 19.6882 0 15.9635 0C7.13902 0 0 7.15523 0 15.9995C0 24.8436 7.13902 31.999 15.9633 31.999C19.688 31.999 23.1023 30.7102 25.8072 28.5768C22.1269 25.688 19.7325 21.1104 19.7325 15.9995Z" fill="#EB001B"/>
<path d="M51.6584 16.0005C51.6584 24.8446 44.5194 32 35.6951 32C31.9704 32 28.5561 30.7112 25.8512 28.5778C29.576 25.6447 31.9262 21.1114 31.9262 16.0005C31.9262 10.8896 29.5315 6.35633 25.8512 3.42301C28.5559 1.28978 31.9704 0.000976562 35.6951 0.000976562C44.5194 0.000976562 51.6586 7.20075 51.6586 16.0005H51.6584Z" fill="#F79E1B"/>
</svg>
