<svg width="121" height="32" viewBox="0 0 121 32" fill="none" xmlns="http://www.w3.org/2000/svg">
<g clip-path="url(#clip0_20304_1319)">
<path d="M44.8093 6.54395H38.1778C37.7239 6.54395 37.338 6.87363 37.2672 7.32162L34.5851 24.3267C34.5318 24.6622 34.7917 24.9647 35.132 24.9647H38.298C38.7518 24.9647 39.1377 24.635 39.2085 24.1861L39.9319 19.5996C40.0017 19.1506 40.3886 18.8209 40.8414 18.8209H42.9408C47.3091 18.8209 49.8302 16.707 50.4887 12.5181C50.7854 10.6854 50.5013 9.24544 49.6431 8.23699C48.7006 7.12962 47.0289 6.54395 44.8093 6.54395ZM45.5744 12.7547C45.2117 15.1342 43.3936 15.1342 41.6356 15.1342H40.6349L41.3369 10.6902C41.3786 10.4216 41.6113 10.2238 41.8829 10.2238H42.3415C43.539 10.2238 44.6687 10.2238 45.2524 10.9065C45.6006 11.3137 45.7072 11.9188 45.5744 12.7547Z" fill="#253B80"/>
<path d="M64.6323 12.6785H61.4566C61.1861 12.6785 60.9524 12.8764 60.9107 13.145L60.7701 14.0332L60.548 13.7112C59.8605 12.7134 58.3275 12.3799 56.7973 12.3799C53.2881 12.3799 50.2909 15.0377 49.7071 18.7661C49.4036 20.6259 49.8351 22.4043 50.8901 23.6445C51.8579 24.7848 53.2425 25.26 54.89 25.26C57.7176 25.26 59.2855 23.4419 59.2855 23.4419L59.1439 24.3242C59.0906 24.6617 59.3505 24.9642 59.6889 24.9642H62.5494C63.0042 24.9642 63.3882 24.6345 63.4599 24.1856L65.1762 13.3166C65.2305 12.982 64.9716 12.6785 64.6323 12.6785ZM60.2057 18.8592C59.8993 20.6735 58.4594 21.8914 56.6228 21.8914C55.7007 21.8914 54.9637 21.5956 54.4905 21.0351C54.0212 20.4785 53.8428 19.6863 53.9921 18.8039C54.2781 17.0052 55.7424 15.7475 57.5508 15.7475C58.4526 15.7475 59.1856 16.0472 59.6685 16.6125C60.1524 17.1836 60.3444 17.9807 60.2057 18.8592Z" fill="#253B80"/>
<path d="M81.5453 12.6787H78.3541C78.0496 12.6787 77.7636 12.83 77.591 13.0831L73.1896 19.5663L71.324 13.3361C71.2067 12.9463 70.8469 12.6787 70.4397 12.6787H67.3038C66.9227 12.6787 66.658 13.0511 66.7792 13.4098L70.2942 23.7252L66.9896 28.3902C66.7297 28.7577 66.9915 29.2629 67.4405 29.2629H70.6278C70.9303 29.2629 71.2135 29.1155 71.3851 28.8673L81.9991 13.5466C82.2531 13.18 81.9923 12.6787 81.5453 12.6787Z" fill="#253B80"/>
<path d="M92.1107 6.54395H85.4782C85.0254 6.54395 84.6394 6.87363 84.5686 7.32162L81.8865 24.3267C81.8332 24.6622 82.0931 24.9647 82.4315 24.9647H85.835C86.1511 24.9647 86.4217 24.7339 86.4711 24.4198L87.2323 19.5996C87.3021 19.1506 87.689 18.8209 88.1419 18.8209H90.2402C94.6096 18.8209 97.1297 16.707 97.7891 12.5181C98.0868 10.6854 97.8007 9.24544 96.9426 8.23699C96.001 7.12962 94.3303 6.54395 92.1107 6.54395ZM92.8758 12.7547C92.5141 15.1342 90.696 15.1342 88.937 15.1342H87.9373L88.6403 10.6902C88.682 10.4216 88.9128 10.2238 89.1852 10.2238H89.6439C90.8405 10.2238 91.9711 10.2238 92.5548 10.9065C92.9029 11.3137 93.0086 11.9188 92.8758 12.7547Z" fill="#179BD7"/>
<path d="M111.933 12.6785H108.759C108.486 12.6785 108.255 12.8764 108.214 13.145L108.073 14.0332L107.85 13.7112C107.163 12.7134 105.631 12.3799 104.101 12.3799C100.591 12.3799 97.5952 15.0377 97.0114 18.7661C96.7089 20.6259 97.1384 22.4043 98.1934 23.6445C99.1631 24.7848 100.546 25.26 102.193 25.26C105.021 25.26 106.589 23.4419 106.589 23.4419L106.447 24.3242C106.394 24.6617 106.654 24.9642 106.994 24.9642H109.854C110.307 24.9642 110.692 24.6345 110.763 24.1856L112.481 13.3166C112.533 12.982 112.273 12.6785 111.933 12.6785ZM107.506 18.8592C107.202 20.6735 105.76 21.8914 103.923 21.8914C103.003 21.8914 102.264 21.5956 101.791 21.0351C101.322 20.4785 101.145 19.6863 101.293 18.8039C101.58 17.0052 103.043 15.7475 104.851 15.7475C105.753 15.7475 106.486 16.0472 106.969 16.6125C107.455 17.1836 107.647 17.9807 107.506 18.8592Z" fill="#179BD7"/>
<path d="M115.677 7.01035L112.955 24.3267C112.901 24.6622 113.161 24.9647 113.5 24.9647H116.236C116.691 24.9647 117.077 24.635 117.147 24.1861L119.831 7.18198C119.884 6.84647 119.624 6.54297 119.286 6.54297H116.222C115.951 6.54394 115.718 6.74175 115.677 7.01035Z" fill="#179BD7"/>
<path d="M7.04564 28.2699L7.55278 25.0487L6.42312 25.0225H1.02885L4.77759 1.25304C4.78923 1.18128 4.82704 1.11437 4.88231 1.06686C4.93758 1.01935 5.00837 0.993164 5.08207 0.993164H14.1775C17.1971 0.993164 19.2809 1.62151 20.3689 2.86171C20.8789 3.44351 21.2038 4.0515 21.3608 4.72057C21.5257 5.42261 21.5286 6.26137 21.3676 7.28437L21.356 7.35903V8.01453L21.866 8.30349C22.2956 8.53136 22.6369 8.7922 22.8987 9.09086C23.3351 9.5883 23.6173 10.2205 23.7365 10.9701C23.8597 11.741 23.819 12.6583 23.6173 13.6968C23.3845 14.8914 23.0083 15.9319 22.5002 16.7832C22.0328 17.5677 21.4375 18.2183 20.7306 18.7226C20.0557 19.2016 19.2538 19.5652 18.3471 19.7979C17.4686 20.0268 16.4669 20.1422 15.3683 20.1422H14.6604C14.1543 20.1422 13.6627 20.3245 13.2767 20.6512C12.8898 20.9848 12.6338 21.4405 12.5553 21.939L12.502 22.2289L11.606 27.9063L11.5653 28.1148C11.5546 28.1807 11.5362 28.2137 11.509 28.236C11.4848 28.2563 11.4499 28.2699 11.4159 28.2699H7.04564Z" fill="#253B80"/>
<path d="M22.3489 7.43457C22.3218 7.60814 22.2908 7.78559 22.2559 7.96789C21.0564 14.1262 16.9527 16.2537 11.7117 16.2537H9.04317C8.40222 16.2537 7.86211 16.7191 7.76223 17.3514L6.39597 26.0163L6.00908 28.4725C5.94411 28.8875 6.2641 29.2618 6.68299 29.2618H11.4159C11.9764 29.2618 12.4525 28.8545 12.5408 28.3018L12.5873 28.0613L13.4784 22.4062L13.5356 22.0959C13.6229 21.5413 14.1 21.134 14.6605 21.134H15.3683C19.9539 21.134 23.5436 19.2723 24.5928 13.8848C25.031 11.6342 24.8041 9.75499 23.6444 8.43333C23.2934 8.03479 22.858 7.70414 22.3489 7.43457Z" fill="#179BD7"/>
<path d="M21.0942 6.93346C20.9109 6.88013 20.7218 6.83165 20.5279 6.78801C20.333 6.74535 20.1332 6.70753 19.9277 6.67456C19.2082 6.5582 18.4198 6.50293 17.5753 6.50293H10.4463C10.2707 6.50293 10.104 6.54269 9.95463 6.61444C9.62592 6.7725 9.38156 7.08376 9.32241 7.46484L7.80585 17.0704L7.76221 17.3506C7.86209 16.7184 8.4022 16.2529 9.04315 16.2529H11.7117C16.9527 16.2529 21.0564 14.1245 22.2558 7.96713C22.2917 7.78483 22.3218 7.60738 22.3489 7.43381C22.0454 7.27285 21.7167 7.13515 21.3628 7.01782C21.2755 6.98873 21.1853 6.96061 21.0942 6.93346Z" fill="#222D65"/>
<path d="M9.32238 7.46547C9.38153 7.08439 9.62588 6.77313 9.9546 6.61604C10.1049 6.54429 10.2707 6.50453 10.4462 6.50453H17.5752C18.4198 6.50453 19.2081 6.5598 19.9276 6.67616C20.1332 6.70913 20.333 6.74695 20.5279 6.78961C20.7218 6.83325 20.9109 6.88173 21.0941 6.93506C21.1853 6.96221 21.2755 6.99034 21.3637 7.01846C21.7176 7.13579 22.0464 7.27445 22.3499 7.43444C22.7067 5.15863 22.347 3.6091 21.1164 2.20599C19.7599 0.661314 17.3115 0 14.1785 0H5.08299C4.44301 0 3.89708 0.465441 3.79818 1.09863L0.00968584 25.1125C-0.0649786 25.5876 0.301556 26.0162 0.780572 26.0162H6.39592L7.80581 17.071L9.32238 7.46547Z" fill="#253B80"/>
</g>
<defs>
<clipPath id="clip0_20304_1319">
<rect width="120.239" height="31.999" fill="white"/>
</clipPath>
</defs>
</svg>
