<svg width="72" height="32" viewBox="0 0 72 32" fill="none" xmlns="http://www.w3.org/2000/svg">
<g clip-path="url(#clip0_20304_1663)">
<mask id="mask0_20304_1663" style="mask-type:luminance" maskUnits="userSpaceOnUse" x="-6" y="-6" width="84" height="40">
<path d="M-5.71588 -5.67163H77.538V33.6445H-5.71588V-5.67163Z" fill="white"/>
</mask>
<g mask="url(#mask0_20304_1663)">
<path d="M25.4273 22.9765H23.8638V18.9636H25.4273C26.6448 18.9636 27.4718 19.8589 27.4718 20.9625C27.4718 22.0816 26.6448 22.9765 25.4273 22.9765ZM25.5775 17.0843H21.8193V27.9736H23.8638V24.856H25.5624C27.8473 24.856 29.5311 23.1258 29.5311 20.9625C29.5311 18.8147 27.8473 17.0843 25.5775 17.0843Z" fill="black"/>
<path d="M34.7342 26.3023C33.231 26.3023 32.074 25.109 32.074 23.5877C32.074 22.0812 33.231 20.9028 34.7342 20.9028C36.2374 20.9028 37.365 22.1108 37.365 23.5877C37.365 25.0943 36.2374 26.3023 34.7342 26.3023ZM37.26 20.2911C36.6285 19.5453 35.5911 19.0675 34.434 19.0675C32.2089 19.0675 30.0745 20.7236 30.0745 23.6174C30.0745 26.4668 32.284 28.1523 34.4036 28.1523C35.5611 28.1523 36.6134 27.6451 37.26 26.8397V27.9731H39.2892V19.2467H37.26V20.2911Z" fill="black"/>
<path d="M44.7168 25.1232L42.2666 19.2462H40.1018L43.7097 27.5398L41.8605 32H43.9202L49.1665 19.2462H47.0318L44.7168 25.1232Z" fill="black"/>
<path d="M59.4475 8.31812H59.3911L57.032 0.322805H53.222V10.4033H55.7467L55.6049 2.13206H55.6613L58.1953 10.4033H61.8502V0.322805H59.3083L59.4475 8.31812Z" fill="#00A2FF"/>
<path d="M13.2659 1.2672L13.3232 1.2663L14.6916 10.5088H17.4491L15.5571 0.323605H10.9905L9.08783 10.5088H11.8622L13.2659 1.2672Z" fill="#00A2FF"/>
<path d="M26.5 0.323605L25.2341 8.11185H25.1756L23.9115 0.323605H19.7248L19.4985 10.5088H22.0677L22.1318 1.35261H22.1885L23.903 10.5088H26.5076L28.2228 1.35352L28.2795 1.35261L28.3436 10.5088H30.9112L30.6849 0.323605H26.5Z" fill="#00A2FF"/>
<path d="M3.73054 10.9082C5.58782 10.9082 7.11474 10.2797 7.3588 8.57923C7.48368 7.7002 7.3919 7.1243 7.34784 6.90998C6.91451 4.77698 3.02028 4.14081 2.72964 2.94801C2.68078 2.74116 2.69266 2.52662 2.71868 2.41266C2.79128 2.08574 3.01434 1.72869 3.65611 1.72869C4.25747 1.72869 4.60975 2.09662 4.60975 2.65167V3.28263H7.17136V2.56513C7.17136 0.346714 5.16294 -0.000139236 3.71022 -0.000139236C1.88605 -0.000139236 0.393602 0.599775 0.121688 2.26087C0.0472596 2.71511 0.037214 3.12177 0.145203 3.63469C0.590403 5.71649 4.23807 6.31799 4.76683 7.63654C4.86728 7.8828 4.83532 8.19862 4.78715 8.38983C4.70359 8.72921 4.47117 9.07538 3.78716 9.07538C3.14539 9.07538 2.7559 8.70655 2.7559 8.15172L2.75339 7.16463H0.000913163L0 7.94964C0 10.222 1.80157 10.9082 3.73054 10.9082Z" fill="#00A2FF"/>
<path d="M36.1214 2.97314C36.0716 2.76969 36.0842 2.55764 36.1086 2.44436C36.1815 2.12084 36.4027 1.76719 37.0369 1.76719C37.634 1.76719 37.9819 2.13013 37.9819 2.68088V3.30436H40.5184V2.59524C40.5184 0.398804 38.5294 0.0558014 37.091 0.0558014C35.2863 0.0558014 33.8082 0.648239 33.5395 2.29347C33.4653 2.74341 33.455 3.146 33.5632 3.65302C34.0025 5.71534 37.6148 6.3105 38.1383 7.61613C38.2365 7.86081 38.2059 8.17187 38.1577 8.36217C38.075 8.69747 37.8454 9.03912 37.168 9.03912C36.5319 9.03912 36.1458 8.6755 36.1458 8.12497L36.1442 7.14875H33.4187L33.418 7.92628C33.418 10.1757 35.2027 10.8545 37.1123 10.8545C38.9508 10.8545 40.4627 10.2328 40.704 8.54885C40.8273 7.67889 40.7371 7.1091 40.693 6.89546C40.2634 4.7833 36.4079 4.15416 36.1214 2.97314Z" fill="#00A2FF"/>
<path d="M50.3615 0.322148H47.7636V7.85733C47.7645 7.98805 47.7608 8.13645 47.7392 8.24632C47.6882 8.49689 47.4688 8.98444 46.7551 8.98444H46.7549C46.0405 8.98444 45.82 8.49689 45.7702 8.24632C45.7483 8.13645 45.7431 7.98805 45.7456 7.85733V0.322148H43.1495V7.62511C43.1445 7.81293 43.1641 8.19603 43.1732 8.29549C43.3531 10.1965 44.8675 10.8125 46.7551 10.8125C48.6419 10.8125 50.1562 10.1965 50.3352 8.29549C50.3455 8.19603 50.3649 7.81293 50.3615 7.62511V0.322148Z" fill="#00A2FF"/>
<path d="M68.1865 4.78854V6.2736H69.2388V7.75277C69.2406 7.88168 69.2356 8.02418 69.2143 8.13904C69.168 8.41159 68.9086 8.87851 68.1653 8.87851C67.423 8.87851 67.1639 8.41159 67.1157 8.13927C67.0961 8.02441 67.0911 7.8819 67.0918 7.75277V3.09641C67.0918 2.93057 67.1039 2.74842 67.1333 2.6143C67.1899 2.36305 67.4096 1.87528 68.1559 1.87528C68.9408 1.87528 69.1358 2.38978 69.1822 2.6143C69.2127 2.76111 69.2153 3.00329 69.2143 3.00239V3.5733H71.8031V3.23392C71.8013 3.23392 71.8123 2.88775 71.7794 2.56332C71.5901 0.653249 69.9965 0.0465374 68.1765 0.0465374C66.3553 0.0465374 64.8023 0.65914 64.5735 2.56332C64.5523 2.73347 64.5302 3.05291 64.5302 3.23392L64.5295 7.51896C64.5302 7.71086 64.5354 7.85087 64.5651 8.18956C64.7366 10.045 66.3553 10.707 68.1755 10.707C69.9947 10.707 71.6157 10.0448 71.7853 8.18956C71.8164 7.85087 71.8207 7.71086 71.8225 7.51896V4.78854H68.1865Z" fill="#00A2FF"/>
</g>
</g>
<defs>
<clipPath id="clip0_20304_1663">
<rect width="71.8222" height="32" fill="white"/>
</clipPath>
</defs>
</svg>
