<svg width="100" height="32" viewBox="0 0 100 32" fill="none" xmlns="http://www.w3.org/2000/svg">
<path d="M49.0692 0.574954L42.4506 31.5265H34.4409L41.0694 0.574954H49.0692ZM82.7633 20.5595L86.9763 8.93488L89.405 20.5595H82.7633ZM91.6949 31.5265H99.1032L92.6399 0.574954H85.8033C85.7934 0.574954 85.7801 0.574954 85.7702 0.574954C84.2535 0.574954 82.9516 1.50347 82.4031 2.82189L82.3932 2.84502L70.382 31.5265H78.7882L80.4602 26.9005H90.7333L91.6949 31.5265ZM70.7951 21.4219C70.8281 13.2503 59.4976 12.8009 59.5769 9.14966C59.6033 8.03941 60.6574 6.85646 62.9704 6.55577C63.4 6.51281 63.8956 6.48638 64.3979 6.48638C66.7473 6.48638 68.9744 7.02168 70.957 7.97993L70.8678 7.94028L72.2721 1.3746C70.0483 0.512171 67.4742 0.00991296 64.7845 0H64.7812C56.864 0 51.2963 4.21301 51.2467 10.2368C51.1971 14.691 55.2218 17.1726 58.2585 18.6595C61.381 20.1762 62.4285 21.151 62.412 22.5024C62.3922 24.5841 59.9271 25.4961 57.6207 25.5325C57.515 25.5358 57.3861 25.5358 57.2606 25.5358C54.3825 25.5358 51.673 24.8121 49.3071 23.5334L49.3963 23.5763L47.9457 30.3568C50.5429 31.3976 53.5531 31.999 56.7054 31.999C56.755 31.999 56.8046 31.999 56.8541 31.999H56.8475C65.2603 31.999 70.762 27.8455 70.7917 21.412L70.7951 21.4219ZM37.6263 0.574954L24.6535 31.5265H16.1879L9.80392 6.82012C9.68166 5.61734 8.94479 4.61283 7.92045 4.11058L7.90063 4.10066C5.62726 2.9838 2.9838 2.07511 0.218085 1.50347L0 1.46712L0.191651 0.571648H13.8187C15.6757 0.571648 17.2188 1.92972 17.5063 3.70414L17.5096 3.72397L20.8833 21.6367L29.2168 0.568343L37.6263 0.574954Z" fill="#1434CB"/>
</svg>
