<svg width="159" height="32" viewBox="0 0 159 32" fill="none" xmlns="http://www.w3.org/2000/svg">
<g clip-path="url(#clip0_20304_1383)">
<path d="M35.3615 7.29868H43.2901V8.92403H40.3797V17.0812H38.2769V8.92403H35.3615V7.29868ZM46.5052 17.0812V12.7842H50.2283V17.0812H52.3311V7.29868H50.2029V11.1589H46.5052V7.29868H44.4024V17.0812H46.5052ZM54.0377 17.0812H60.7474V15.4559H56.1405V12.8401H60.3156V11.2148H56.1405V8.92403H60.6001V7.29868H54.0377V17.0812ZM69.1382 14.6585H69.1128L67.6094 7.29868H65.4405L67.8278 17.0812H70.2099L72.1096 9.63004H72.1349L73.8974 17.0812H76.2237L78.7176 7.29868H76.7113L75.1368 14.6585H75.1114L73.4048 7.29868H71.0378L69.1382 14.6585ZM79.4287 12.195C79.4287 15.08 80.8915 17.2895 84.132 17.2895C87.3675 17.2895 88.8354 15.0851 88.8354 12.195C88.8354 9.31005 87.3726 7.10059 84.132 7.10059C80.8915 7.09552 79.4287 9.30497 79.4287 12.195ZM81.6635 12.195C81.6635 10.5138 82.0597 8.6142 84.132 8.6142C86.2044 8.6142 86.6005 10.5138 86.6005 12.195C86.6005 13.8712 86.2044 15.7708 84.132 15.7708C82.0597 15.7708 81.6635 13.8712 81.6635 12.195ZM92.3197 13.1398H94.5444C95.2352 13.1652 95.3673 13.9118 95.4231 14.4553C95.5146 15.3391 95.6111 16.2178 95.7888 17.0812H98.105C97.7139 16.5378 97.6326 15.3899 97.5361 14.7651C97.3583 13.409 97.3583 12.4185 95.7482 12.2458V12.2204C96.9571 11.9665 97.7799 11.1233 97.7799 9.84845C97.7799 7.8574 96.058 7.31392 94.3768 7.29868H90.2169V17.0812H92.3197V13.1398ZM92.3197 8.92403H94.0771C95.0016 8.93927 95.54 9.30497 95.54 10.1684C95.54 11.037 94.9965 11.4941 94.0771 11.5094H92.3197V8.92403ZM105.724 17.0812V15.4559H101.483V7.29868H99.3849V17.0812H105.724ZM106.862 17.0812H110.193C113.241 17.1066 115.141 15.593 115.141 12.19C115.141 8.78689 113.241 7.26821 110.193 7.29868H106.862V17.0812ZM108.964 8.92403H110.051C112.545 8.89864 112.911 10.6306 112.911 12.19C112.911 13.7442 112.545 15.4813 110.051 15.4559H108.964V8.92403ZM124.161 17.0812C125.665 17.1879 128.103 16.487 128.103 14.5467C128.103 13.1144 127.183 12.2611 125.949 12.002V11.9766C126.924 11.6516 127.671 10.9049 127.671 9.83829C127.671 7.92851 125.883 7.1971 124.136 7.30376H120.464V17.0863H124.161V17.0812ZM122.556 15.4559V12.8553H124.197C125.187 12.8553 125.863 13.0331 125.863 14.1556C125.863 15.2832 125.187 15.4559 124.197 15.4559H122.556ZM122.556 11.23V8.92403H124.197C125.076 8.92403 125.563 9.28974 125.563 10.077C125.563 10.8643 125.076 11.23 124.197 11.23H122.556ZM130.759 17.0812L131.491 15.0089H135.366L136.072 17.0812H138.185L134.787 7.29868H132.293L128.753 17.0812H130.759ZM132.034 13.3836L133.466 9.20847H133.497L134.838 13.3836H132.034ZM148.095 17.0812V7.29868H146.129V14.9683L146.104 14.9988L142.375 7.30376H139.262V17.0863H141.227V8.9799L141.253 8.94943L145.113 17.0812H148.095ZM151.919 7.29868H149.822V17.0812H151.919V12.0935H151.945L155.348 17.0812H157.963L154.063 11.677L157.654 7.29868H155.2L151.95 11.5297H151.924V7.29868H151.919Z" fill="black"/>
<path d="M29.7134 9.50334C29.3426 9.66079 29.1699 10.0874 29.3274 10.4582C30.069 12.2106 30.4448 14.0797 30.4448 15.9996C30.4448 17.178 30.2975 18.3208 30.0232 19.418C29.8099 20.1087 29.429 20.7487 28.9058 21.3277C28.916 21.0789 28.9261 20.83 28.9261 20.576C28.9312 17.7723 28.1592 14.8162 26.7217 12.0328C27.7731 11.1287 28.4436 10.0113 28.6772 8.76177C28.7484 8.36559 28.4893 7.98465 28.0931 7.90846C27.697 7.83228 27.316 8.0964 27.2449 8.49257C27.0925 9.32049 26.6608 10.0773 25.9903 10.7223C25.7821 10.377 25.5637 10.0367 25.3351 9.69635C24.0552 7.81704 22.5314 6.19169 20.8654 4.89649C23.0647 5.03871 25.0964 5.57711 26.737 6.49136C26.996 6.63866 27.3363 6.63358 27.5751 6.43041C27.8849 6.17137 27.9255 5.70917 27.6665 5.39933C25.3148 2.11308 21.2464 0.299805 16.2078 0.299805C7.5528 0.299805 0.507935 7.34467 0.507935 15.9996C0.507935 17.4929 0.721262 18.9354 1.11236 20.3017C1.13776 20.3932 1.15807 20.4846 1.18347 20.576C1.18855 20.5963 1.19871 20.6116 1.20379 20.6268C3.18468 27.0266 9.15783 31.6944 16.2027 31.6944C19.4636 31.6944 22.4908 30.6938 25.005 28.9872C25.0304 28.972 25.0558 28.9618 25.0761 28.9466C25.2285 28.845 25.3707 28.7383 25.5129 28.6266C28.3979 26.4933 30.5362 23.395 31.4302 19.8091C31.481 19.6465 31.5267 19.4738 31.5622 19.3062C31.5724 19.2656 31.5724 19.2249 31.5775 19.1843C31.7908 18.1532 31.9025 17.0866 31.9025 15.9946C31.9025 13.8765 31.486 11.8195 30.6683 9.88428C30.5159 9.51857 30.0842 9.34588 29.7134 9.50334ZM24.1313 10.5243C24.3701 10.8798 24.5986 11.2353 24.817 11.6011C23.6488 12.2766 22.1759 12.6778 20.581 12.7947C20.4438 10.2754 20.1492 7.84751 19.6718 5.83107C21.3327 7.06532 22.8565 8.66019 24.1313 10.5243ZM21.9625 2.7937C22.6939 3.08829 23.4203 3.46415 24.111 3.93652C23.0088 3.66224 21.8355 3.49463 20.6165 3.43368C21.1143 3.10861 21.5765 2.88512 21.9625 2.7937ZM20.0324 2.18927C19.6261 2.40768 19.2045 2.68196 18.7779 3.00702C18.5849 2.57529 18.3817 2.19435 18.1633 1.86928C18.7474 1.93531 19.3772 2.0369 20.0324 2.18927ZM13.0891 12.8505C14.1355 13.3229 15.2783 13.6937 16.477 13.9527C17.3862 14.1457 18.2903 14.2524 19.1842 14.2829C19.1994 14.8314 19.2096 15.3952 19.2096 15.9743C19.2096 19.4129 18.9353 22.2674 18.5391 24.4972C17.2338 24.4413 15.8878 24.2686 14.5367 23.9842C12.7285 23.5931 11.0219 23.0242 9.47274 22.2928C9.98067 20.0071 10.9254 17.2339 12.4288 14.161C12.6371 13.714 12.8606 13.2772 13.0891 12.8505ZM10.5394 9.47794C9.93495 8.90907 9.47782 8.32496 9.16799 7.73069C10.5343 6.90786 12.0479 6.2374 13.6631 5.7498C14.6231 5.46028 15.5932 5.24696 16.5633 5.09966C15.1615 6.66406 13.7698 8.65511 12.4898 10.9052C11.7584 10.4836 11.1032 10.0062 10.5394 9.47794ZM19.1232 12.815C18.3512 12.7845 17.5589 12.688 16.7817 12.5204C15.7253 12.2969 14.7196 11.9718 13.7952 11.5655C15.1564 9.18335 16.6497 7.11103 18.1176 5.56695C18.5747 7.37515 18.9607 9.80301 19.1232 12.815ZM16.1875 1.76262C16.4363 1.7677 16.7411 2.06229 17.0611 2.64132C16.8986 2.57021 16.736 2.50418 16.5735 2.44323C15.9132 2.18927 15.258 1.99626 14.6129 1.85404C15.131 1.79309 15.6541 1.76262 16.1875 1.76262ZM8.76673 5.35362C8.92927 4.59682 9.3864 3.92128 10.0873 3.35749C11.7889 2.84957 13.7748 2.97147 15.8573 3.73335C14.9837 3.88573 14.105 4.0889 13.2364 4.34794C11.6263 4.83046 10.1076 5.49076 8.71594 6.29835C8.69055 5.97836 8.70578 5.66345 8.76673 5.35362ZM7.40043 4.82538C7.38011 4.90157 7.35979 4.97268 7.34455 5.05395C7.19726 5.74472 7.21249 6.44565 7.38519 7.14658C5.81571 8.22845 4.4494 9.5135 3.35737 10.9509C3.02722 11.3877 2.73263 11.8347 2.46343 12.2867C3.27103 9.29509 5.03351 6.69453 7.40043 4.82538ZM7.63407 27.3568C5.19605 25.513 3.37769 22.9074 2.51422 19.8954C2.39232 19.418 2.31105 18.9354 2.28058 18.4478C2.76818 19.1386 3.36245 19.8192 4.06846 20.4744C5.1351 21.4598 6.4049 22.3436 7.81692 23.1004C7.53249 24.7156 7.45122 26.1784 7.63407 27.3568ZM5.06399 19.3976C3.82466 18.2497 2.97135 17.0409 2.53454 15.832C2.87993 14.481 3.5453 13.1248 4.52559 11.8296C5.45509 10.5954 6.61315 9.4881 7.9439 8.53321C8.32484 9.22398 8.86324 9.89952 9.54385 10.5395C10.194 11.149 10.9457 11.6976 11.7889 12.1801C11.5552 12.6169 11.3317 13.0639 11.1133 13.5159C9.81813 16.1723 8.76165 19.0167 8.13691 21.602C6.98393 20.957 5.94269 20.2154 5.06399 19.3976ZM16.2179 30.2265C16.1824 30.2265 16.1468 30.2316 16.1164 30.2367C13.9425 30.2214 11.8854 29.7237 10.0416 28.8348C10.001 28.7993 9.95019 28.7688 9.8994 28.7434C9.08672 28.3472 8.76165 26.539 9.18323 23.7759C10.7425 24.4769 12.439 25.0305 14.2218 25.4114C15.5729 25.7009 16.9189 25.8787 18.2395 25.9447C17.5944 28.7536 16.7665 30.2265 16.2179 30.2265ZM24.6291 27.4685C22.8108 28.8094 20.6622 29.7288 18.3309 30.0792C18.915 29.0685 19.3874 27.6463 19.7429 25.9752C21.8051 25.9498 23.7606 25.6502 25.4926 25.066C25.9294 24.9187 26.3408 24.7562 26.737 24.5784C26.2595 25.7568 25.5535 26.7371 24.6291 27.4685ZM27.2906 22.6433C26.6354 23.0445 25.8837 23.395 25.0304 23.6794C23.5218 24.1873 21.8254 24.4616 20.0223 24.5073C20.454 21.9119 20.6622 18.8999 20.6622 15.9692C20.6622 15.4003 20.6572 14.8264 20.6369 14.2575C22.4552 14.1356 24.1364 13.6632 25.5129 12.8709C26.7878 15.3952 27.4735 18.0567 27.4684 20.5659C27.4684 21.2973 27.4074 21.9931 27.2906 22.6433Z" fill="url(#paint0_radial_20304_1383)"/>
</g>
<defs>
<radialGradient id="paint0_radial_20304_1383" cx="0" cy="0" r="1" gradientUnits="userSpaceOnUse" gradientTransform="translate(30.4795 6.16699) scale(26.0204 26.0205)">
<stop stop-color="white"/>
<stop offset="0.0598" stop-color="#EBF8FD"/>
<stop offset="0.1829" stop-color="#B6E7F7"/>
<stop offset="0.3589" stop-color="#60CCEE"/>
<stop offset="0.544" stop-color="#00ADE4"/>
</radialGradient>
<clipPath id="clip0_20304_1383">
<rect width="158.471" height="31.999" fill="white"/>
</clipPath>
</defs>
</svg>
