<svg width="70" height="72" viewBox="0 0 70 72" fill="none" xmlns="http://www.w3.org/2000/svg">
<g clip-path="url(#clip0_1193_22)">
<path d="M68.3484 0.873904C67.9592 0.470943 67.4674 0.191949 66.9308 0.0697232C66.3943 -0.0525018 65.8354 -0.0128778 65.3198 0.183938L1.8615 24.1827C1.31422 24.3986 0.84305 24.7825 0.51056 25.2835C0.178071 25.7845 0 26.3788 0 26.9875C0 27.5963 0.178071 28.1906 0.51056 28.6916C0.84305 29.1926 1.31422 29.5765 1.8615 29.7924L29.5524 41.3118L40.6287 70.1103C40.8368 70.6545 41.1935 71.1234 41.6549 71.4592C42.1162 71.7951 42.6619 71.9831 43.2248 72.0002C43.8077 71.9878 44.3733 71.7919 44.847 71.4385C45.3207 71.0851 45.6804 70.5906 45.8785 70.0203L68.9542 4.02374C69.1507 3.49299 69.1981 2.91508 69.0909 2.35739C68.9836 1.7997 68.7261 1.28521 68.3484 0.873904ZM43.2248 60.6008L35.1771 39.6019L48.9937 25.2326L44.9266 21.0029L30.9946 35.4921L10.9187 27.0025L61.4834 8.01353L43.2248 60.6008Z" fill="white"/>
</g>
<defs>
<clipPath id="clip0_1193_22">
<rect width="69.147" height="72" fill="white"/>
</clipPath>
</defs>
</svg>
