<svg width="1920" height="694" viewBox="0 0 1920 694" fill="none" xmlns="http://www.w3.org/2000/svg">
<g opacity="0.3">
<path d="M-3.47766 693.403H379.204C415.29 518.847 538.822 210.52 744.262 373.663C949.701 536.806 1195.76 356.039 1293.11 245.263L1479.41 693.403H1920" stroke="white"/>
<path d="M-3.47766 683.263H379.204C415.29 508.707 538.822 200.38 744.262 363.523C949.701 526.666 1195.76 345.899 1293.11 235.123L1479.41 683.263H1920" stroke="white"/>
<path d="M-3.47766 673.123H379.204C415.29 498.566 538.822 190.239 744.262 353.383C949.701 516.526 1195.76 335.759 1293.11 224.983L1479.41 673.123H1920" stroke="white"/>
<path d="M-3.47766 662.983H379.204C415.29 488.426 538.822 180.099 744.262 343.242C949.701 506.386 1195.76 325.619 1293.11 214.843L1479.41 662.983H1920" stroke="white"/>
<path d="M-3.47766 652.843H379.204C415.29 478.286 538.822 169.959 744.262 333.102C949.701 496.245 1195.76 315.479 1293.11 204.703L1479.41 652.843H1920" stroke="white"/>
<path d="M-3.47766 642.702H379.204C415.29 468.146 538.822 159.819 744.262 322.962C949.701 486.105 1195.76 305.339 1293.11 194.562L1479.41 642.702H1920" stroke="white"/>
<path d="M-3.47766 632.562H379.204C415.29 458.006 538.822 149.679 744.262 312.822C949.701 475.965 1195.76 295.199 1293.11 184.422L1479.41 632.562H1920" stroke="white"/>
<path d="M-3.47766 622.422H379.204C415.29 447.866 538.822 139.539 744.262 302.682C949.701 465.825 1195.76 285.058 1293.11 174.282L1479.41 622.422H1920" stroke="white"/>
<path d="M-3.47766 612.282H379.204C415.29 437.726 538.822 129.399 744.262 292.542C949.701 455.685 1195.76 274.918 1293.11 164.142L1479.41 612.282H1920" stroke="white"/>
<path d="M-3.47766 602.142H379.204C415.29 427.585 538.822 119.258 744.262 282.402C949.701 445.545 1195.76 264.778 1293.11 154.002L1479.41 602.142H1920" stroke="white"/>
<path d="M-3.47766 592.002H379.204C415.29 417.445 538.822 109.118 744.262 272.261C949.701 435.405 1195.76 254.638 1293.11 143.862L1479.41 592.002H1920" stroke="white"/>
<path d="M-3.47766 581.862H379.204C415.29 407.305 538.822 98.9782 744.262 262.121C949.701 425.264 1195.76 244.498 1293.11 133.722L1479.41 581.862H1920" stroke="white"/>
<path d="M-3.47766 571.721H379.204C415.29 397.165 538.822 88.8381 744.262 251.981C949.701 415.124 1195.76 234.358 1293.11 123.582L1479.41 571.721H1920" stroke="white"/>
<path d="M-3.47766 561.581H379.204C415.29 387.025 538.822 78.6979 744.262 241.841C949.701 404.984 1195.76 224.218 1293.11 113.441L1479.41 561.581H1920" stroke="white"/>
<path d="M-3.47766 551.441H379.204C415.29 376.885 538.822 68.5578 744.262 231.701C949.701 394.844 1195.76 214.077 1293.11 103.301L1479.41 551.441H1920" stroke="white"/>
<path d="M-3.47766 541.301H379.204C415.29 366.745 538.822 58.4176 744.262 221.561C949.701 384.704 1195.76 203.937 1293.11 93.1611L1479.41 541.301H1920" stroke="white"/>
<path d="M-3.47766 531.161H379.204C415.29 356.605 538.822 48.2775 744.262 211.421C949.701 374.564 1195.76 193.797 1293.11 83.021L1479.41 531.161H1920" stroke="white"/>
<path d="M-3.47766 521.021H379.204C415.29 346.464 538.822 38.1374 744.262 201.281C949.701 364.424 1195.76 183.657 1293.11 72.8809L1479.41 521.021H1920" stroke="white"/>
<path d="M-3.47766 510.881H379.204C415.29 336.324 538.822 27.9972 744.262 191.14C949.701 354.283 1195.76 173.517 1293.11 62.7407L1479.41 510.881H1920" stroke="white"/>
<path d="M-3.47766 500.741H379.204C415.29 326.184 538.822 17.8571 744.262 181C949.701 344.143 1195.76 163.377 1293.11 52.6006L1479.41 500.741H1920" stroke="white"/>
<path d="M-3.47766 490.6H379.204C415.29 316.044 538.822 7.71696 744.262 170.86C949.701 334.003 1195.76 153.237 1293.11 42.4604L1479.41 490.6H1920" stroke="white"/>
<path d="M-3.47766 480.46H379.204C415.29 305.904 538.822 -2.42317 744.262 160.72C949.701 323.863 1195.76 143.096 1293.11 32.3203L1479.41 480.46H1920" stroke="white"/>
<path d="M-3.47766 470.32H379.204C415.29 295.764 538.822 -12.5633 744.262 150.58C949.701 313.723 1195.76 132.956 1293.11 22.1802L1479.41 470.32H1920" stroke="white"/>
<path d="M-3.47766 460.18H379.204C415.29 285.624 538.822 -22.7034 744.262 140.44C949.701 303.583 1195.76 122.816 1293.11 12.04L1479.41 460.18H1920" stroke="white"/>
<path d="M-3.47766 450.04H379.204C415.29 275.483 538.822 -32.8436 744.262 130.3C949.701 293.443 1195.76 112.676 1293.11 1.8999L1479.41 450.04H1920" stroke="white"/>
</g>
</svg>
