<svg width="34" height="34" viewBox="0 0 34 34" fill="none" xmlns="http://www.w3.org/2000/svg">
<path d="M25.8277 13.984C25.1245 12.9925 24.259 12.1268 23.2674 11.4237C23.1078 11.31 22.8988 11.2914 22.7216 11.3753L20.9576 12.2096C20.6106 12.0398 20.2531 11.8916 19.888 11.7661L19.2315 9.78781V9.78757C19.158 9.56607 18.9508 9.41663 18.7174 9.41663H15.2831C15.0498 9.41663 14.8426 9.56607 14.769 9.78781L14.1048 11.7898L13.066 12.2205L11.279 11.3754C11.1022 11.2922 10.8942 11.3103 10.7346 11.4228C9.74318 12.1257 8.87725 12.9912 8.17383 13.9824C8.06018 14.1425 8.04156 14.3512 8.12523 14.5287L8.9706 16.3157L8.53993 17.3545L6.53842 18.0185V18.0188C6.31668 18.0923 6.16699 18.2995 6.16699 18.5329V21.9672C6.16699 22.2005 6.31668 22.4078 6.53842 22.4813L8.53993 23.1453L8.9706 24.1841L8.12523 25.9714C8.0418 26.1482 8.05993 26.3564 8.17286 26.516C8.87604 27.5074 9.74153 28.3731 10.7332 29.0763C10.8954 29.1921 11.1087 29.209 11.2874 29.1203L12.9071 28.3187L12.4269 27.348L11.1029 28.0031C10.4011 27.4704 9.77535 26.8448 9.24235 26.1433L10.0527 24.4305C10.118 24.2922 10.1218 24.1328 10.0633 23.9914L9.44596 22.5018C9.38575 22.3565 9.26533 22.2445 9.11589 22.195L7.25026 21.5762V18.9239L9.11589 18.3051C9.26533 18.2555 9.38576 18.1436 9.44596 17.9982L10.0633 16.5087C10.1218 16.3672 10.118 16.2079 10.0527 16.0695L9.24284 14.3578C9.77653 13.6541 10.4038 13.0266 11.107 12.4924L12.8198 13.3025C12.9581 13.3682 13.1177 13.3721 13.2589 13.3133L14.7485 12.6957C14.8935 12.6355 15.0055 12.5151 15.0553 12.3659L15.6741 10.5H18.3264L18.9452 12.3659C19.0003 12.5313 19.1314 12.6602 19.2975 12.7124C19.7804 12.8626 20.2483 13.0565 20.6957 13.2921C20.8466 13.3719 21.0265 13.3757 21.1808 13.3025L22.8926 12.4929C23.5962 13.0266 24.224 13.6536 24.7582 14.3568L23.9478 16.0696C23.8748 16.2238 23.8789 16.4035 23.959 16.5544C24.194 17.0017 24.3879 17.4697 24.5381 17.9523C24.5901 18.1189 24.719 18.25 24.8846 18.3049L26.7503 18.9239V21.5762L24.8846 22.195C24.719 22.2499 24.5901 22.3812 24.5381 22.5476C24.3879 23.0302 24.194 23.4984 23.959 23.9457C23.8789 24.0964 23.8748 24.2763 23.9478 24.4306L24.7577 26.1424V26.1421C24.2252 26.8441 23.5999 27.4704 22.8989 28.0036L21.5737 27.348L21.0935 28.3187L22.7132 29.1203C22.8914 29.2086 23.1037 29.1921 23.266 29.0773C24.2574 28.3743 25.1233 27.5088 25.8268 26.5176C25.9404 26.3575 25.959 26.1489 25.8754 25.9714L25.0411 24.2076C25.2108 23.8603 25.3588 23.5029 25.4843 23.1375L27.4621 22.4812C27.6839 22.4077 27.8336 22.2005 27.8336 21.9671V18.5328C27.8336 18.2995 27.6839 18.0923 27.4621 18.0187L25.4843 17.3624V17.3627C25.3588 16.997 25.2108 16.6396 25.0411 16.2924L25.8754 14.5286C25.9588 14.3518 25.9407 14.1436 25.8277 13.984L25.8277 13.984Z" fill="#006D77"/>
<path d="M14.2917 31.0833V32.7083C14.2917 32.8519 14.3488 32.9898 14.4504 33.0913C14.5519 33.1929 14.6898 33.25 14.8334 33.25H19.1667C19.3104 33.25 19.4482 33.1929 19.5498 33.0913C19.6513 32.9898 19.7084 32.8519 19.7084 32.7083V31.0833C19.852 31.0833 19.9899 31.0262 20.0914 30.9247C20.193 30.8231 20.2501 30.6853 20.2501 30.5416V29.7316C20.289 27.6909 20.9839 25.7169 22.2322 24.1021C23.059 22.9883 23.5037 21.6373 23.5001 20.2499C23.502 18.1468 22.4866 16.1729 20.7746 14.9515C19.0628 13.7303 16.8656 13.4126 14.8777 14.0989C12.89 14.7854 11.3568 16.3908 10.7632 18.4082C10.1695 20.4257 10.5883 22.6059 11.8876 24.2595C13.1291 25.9072 13.7847 27.9225 13.7501 29.9854V30.5416C13.7501 30.6852 13.8071 30.8231 13.9087 30.9246C14.0102 31.0262 14.1481 31.0833 14.2917 31.0833V31.0833ZM18.6251 32.1666H15.3751V31.0833H18.6251V32.1666ZM12.7393 23.5897C11.803 22.4027 11.4081 20.8771 11.6506 19.3848C11.8448 18.2228 12.4099 17.1552 13.2614 16.3411C14.1128 15.5271 15.2049 15.0104 16.3743 14.8684C17.7794 14.7045 19.1928 15.0969 20.3125 15.9619C21.4318 16.8266 22.1684 18.0954 22.3645 19.4963C22.5606 20.8974 22.2005 22.3195 21.3614 23.4584C19.9744 25.2592 19.2049 27.459 19.1667 29.7319V30.0003H17.5417V25.6123C18.4265 25.4316 19.1629 24.822 19.5058 23.9865C19.8484 23.1513 19.7524 22.2 19.2495 21.4501C18.7465 20.7003 17.903 20.2502 17.0001 20.2502C16.0971 20.2502 15.2537 20.7002 14.7507 21.4501C14.2477 22.2 14.1517 23.1513 14.4944 23.9865C14.8373 24.822 15.5736 25.4316 16.4584 25.6123V30.0003H14.8334V29.9858C14.8675 27.6798 14.1305 25.4288 12.7393 23.5898L12.7393 23.5897ZM17.0001 24.5836C16.5691 24.5836 16.1556 24.4124 15.851 24.1077C15.5463 23.803 15.3751 23.3895 15.3751 22.9586C15.3751 22.5278 15.5463 22.1142 15.851 21.8096C16.1557 21.5049 16.5692 21.3337 17.0001 21.3337C17.4309 21.3337 17.8445 21.5049 18.1491 21.8096C18.4538 22.1143 18.625 22.5278 18.625 22.9586C18.6245 23.3896 18.4531 23.8026 18.1486 24.1073C17.844 24.4117 17.4309 24.5832 17 24.5837L17.0001 24.5836Z" fill="#006D77"/>
<path d="M12.6667 2.40304V5.05529C12.6672 5.49346 12.8416 5.91372 13.1516 6.2235C13.4613 6.5335 13.8816 6.70785 14.3198 6.70833H15.6268L16.5493 8.09221C16.6499 8.24287 16.8189 8.3333 17 8.3333C17.1811 8.3333 17.3502 8.24287 17.4507 8.09221L18.3733 6.70833H19.6802C20.1184 6.70785 20.5387 6.5335 20.8485 6.2235C21.1585 5.91373 21.3328 5.49345 21.3333 5.05529V2.40304C21.3328 1.96487 21.1585 1.54461 20.8485 1.23484C20.5387 0.924831 20.1184 0.750483 19.6802 0.75H14.3197C13.8815 0.750484 13.4612 0.924831 13.1515 1.23484C12.8415 1.5446 12.6671 1.96488 12.6666 2.40304H12.6667ZM13.7501 2.40304C13.7503 2.08844 14.0052 1.83357 14.3198 1.83333H19.6804C19.995 1.83357 20.2498 2.08844 20.2501 2.40304V5.05529C20.2498 5.36989 19.995 5.62476 19.6804 5.62501H18.0834C17.9023 5.62501 17.7333 5.71544 17.6327 5.86609L17.0001 6.81522L16.3674 5.86634V5.8661C16.2669 5.71545 16.0978 5.62501 15.9167 5.62501H14.3197C14.0051 5.62477 13.7503 5.3699 13.75 5.0553L13.7501 2.40304Z" fill="#006D77"/>
<path d="M28.375 0.75C27.082 0.75 25.842 1.26362 24.9279 2.1779C24.0136 3.09198 23.5 4.332 23.5 5.625C23.5 6.918 24.0136 8.15802 24.9279 9.07211C25.842 9.98644 27.082 10.5 28.375 10.5C29.668 10.5 30.908 9.98638 31.8221 9.07211C32.7364 8.15802 33.25 6.918 33.25 5.625C33.2485 4.33249 32.7344 3.0934 31.8206 2.17938C30.9065 1.26554 29.6675 0.751486 28.375 0.75ZM28.375 9.41667C27.3693 9.41667 26.4049 9.01719 25.694 8.30603C24.9828 7.59512 24.5833 6.63077 24.5833 5.625C24.5833 4.61923 24.9828 3.65494 25.694 2.94397C26.4049 2.2328 27.3692 1.83333 28.375 1.83333C29.3808 1.83333 30.3451 2.23281 31.056 2.94397C31.7672 3.65488 32.1667 4.61923 32.1667 5.625C32.1655 6.63021 31.7657 7.59413 31.0548 8.3048C30.3441 9.01571 29.3802 9.41543 28.375 9.41667Z" fill="#006D77"/>
<path d="M5.625 10.5C6.918 10.5 8.15802 9.98638 9.07211 9.07211C9.98644 8.15802 10.5 6.918 10.5 5.625C10.5 4.332 9.98638 3.09198 9.07211 2.1779C8.15802 1.26356 6.918 0.75 5.625 0.75C4.332 0.75 3.09198 1.26362 2.1779 2.1779C1.26356 3.09198 0.75 4.332 0.75 5.625C0.751451 6.91751 1.26555 8.1566 2.17938 9.07062C3.09347 9.98446 4.33249 10.4985 5.625 10.5ZM5.625 1.83333C6.6307 1.83333 7.59506 2.23281 8.30603 2.94397C9.0172 3.65488 9.41667 4.61923 9.41667 5.625C9.41667 6.63077 9.01719 7.59506 8.30603 8.30603C7.59512 9.0172 6.63077 9.41667 5.625 9.41667C4.61923 9.41667 3.65494 9.01719 2.94397 8.30603C2.2328 7.59512 1.83333 6.63077 1.83333 5.625C1.83454 4.61979 2.23427 3.65587 2.9452 2.9452C3.65587 2.23429 4.61979 1.83457 5.625 1.83333Z" fill="#006D77"/>
<path d="M28.375 5.08335C28.0759 5.08335 27.8333 4.84081 27.8333 4.54169C27.8333 4.24256 28.0759 4.00002 28.375 4.00002H29.4583V2.91669H28.375C27.7944 2.91669 27.258 3.22645 26.9676 3.72919C26.6775 4.23192 26.6775 4.85146 26.9676 5.35419C27.2581 5.85692 27.7944 6.16669 28.375 6.16669C28.6741 6.16669 28.9166 6.40923 28.9166 6.70835C28.9166 7.00748 28.6741 7.25002 28.375 7.25002H27.2916V8.33335H28.375C28.9556 8.33335 29.4919 8.02359 29.7823 7.52085C30.0725 7.01812 30.0725 6.39858 29.7823 5.89585C29.4919 5.39312 28.9556 5.08335 28.375 5.08335Z" fill="#006D77"/>
<path d="M14.8334 2.91669H17V4.00002H14.8334V2.91669Z" fill="#006D77"/>
<path d="M18.0834 2.91669H19.1667V4.00002H18.0834V2.91669Z" fill="#006D77"/>
<path d="M3.45837 5.625H4.54171V7.25H3.45837V5.625Z" fill="#006D77"/>
<path d="M5.08325 4.54169H6.16659V7.25002H5.08325V4.54169Z" fill="#006D77"/>
<path d="M6.70837 3.45831H7.79171V7.24998H6.70837V3.45831Z" fill="#006D77"/>
<path d="M31.0834 11.0417H32.1667V12.125H31.0834V11.0417Z" fill="#006D77"/>
<path d="M31.0834 13.2083H32.1667V14.2916H31.0834V13.2083Z" fill="#006D77"/>
<path d="M31.0834 15.375H32.1667V16.4583H31.0834V15.375Z" fill="#006D77"/>
<path d="M31.0834 17.5417H32.1667V18.625H31.0834V17.5417Z" fill="#006D77"/>
<path d="M31.0834 19.7083H32.1667V20.7916H31.0834V19.7083Z" fill="#006D77"/>
<path d="M28.9167 19.7083H30.0001V20.7916H28.9167V19.7083Z" fill="#006D77"/>
<path d="M1.83337 11.0417H2.91671V12.125H1.83337V11.0417Z" fill="#006D77"/>
<path d="M1.83337 13.2083H2.91671V14.2916H1.83337V13.2083Z" fill="#006D77"/>
<path d="M1.83337 15.375H2.91671V16.4583H1.83337V15.375Z" fill="#006D77"/>
<path d="M1.83337 17.5417H2.91671V18.625H1.83337V17.5417Z" fill="#006D77"/>
<path d="M1.83337 19.7083H2.91671V20.7916H1.83337V19.7083Z" fill="#006D77"/>
<path d="M4 19.7083H5.08333V20.7916H4V19.7083Z" fill="#006D77"/>
<path d="M16.4583 22.4167H17.5416V23.5H16.4583V22.4167Z" fill="#006D77"/>
</svg>
