<svg width="20" height="17" viewBox="0 0 20 17" fill="none" xmlns="http://www.w3.org/2000/svg">
<path d="M18 0.609863H2C0.9 0.609863 0.00999999 1.50986 0.00999999 2.60986L0 14.6099C0 15.7099 0.9 16.6099 2 16.6099H18C19.1 16.6099 20 15.7099 20 14.6099V2.60986C20 1.50986 19.1 0.609863 18 0.609863ZM17.6 4.85986L10.53 9.27986C10.21 9.47986 9.79 9.47986 9.47 9.27986L2.4 4.85986C2.29973 4.80357 2.21192 4.72752 2.14189 4.63632C2.07186 4.54511 2.02106 4.44064 1.99258 4.32923C1.96409 4.21783 1.9585 4.1018 1.97616 3.98817C1.99381 3.87454 2.03434 3.76568 2.09528 3.66816C2.15623 3.57065 2.23632 3.48652 2.33073 3.42086C2.42513 3.3552 2.53187 3.30937 2.6445 3.28616C2.75712 3.26295 2.87328 3.26283 2.98595 3.28581C3.09863 3.30879 3.20546 3.3544 3.3 3.41986L10 7.60986L16.7 3.41986C16.7945 3.3544 16.9014 3.30879 17.014 3.28581C17.1267 3.26283 17.2429 3.26295 17.3555 3.28616C17.4681 3.30937 17.5749 3.3552 17.6693 3.42086C17.7637 3.48652 17.8438 3.57065 17.9047 3.66816C17.9657 3.76568 18.0062 3.87454 18.0238 3.98817C18.0415 4.1018 18.0359 4.21783 18.0074 4.32923C17.9789 4.44064 17.9281 4.54511 17.8581 4.63632C17.7881 4.72752 17.7003 4.80357 17.6 4.85986Z" fill="#FF7A03"/>
</svg>
