<svg width="33" height="33" viewBox="0 0 33 33" fill="none" xmlns="http://www.w3.org/2000/svg">
<path d="M16.3072 2.70557C13.3908 2.70901 10.595 3.86904 8.5328 5.93119C6.47064 7.99335 5.31061 10.7892 5.30717 13.7056C5.30368 16.0888 6.08215 18.4073 7.52317 20.3056C7.52317 20.3056 7.82317 20.7006 7.87217 20.7576L16.3072 30.7056L24.7462 20.7526C24.7902 20.6996 25.0912 20.3056 25.0912 20.3056L25.0922 20.3026C26.5325 18.4052 27.3106 16.0877 27.3072 13.7056C27.3037 10.7892 26.1437 7.99335 24.0815 5.93119C22.0194 3.86904 19.2235 2.70901 16.3072 2.70557ZM16.3072 17.7056C15.516 17.7056 14.7427 17.471 14.0849 17.0314C13.4271 16.5919 12.9144 15.9672 12.6117 15.2363C12.3089 14.5054 12.2297 13.7011 12.384 12.9252C12.5384 12.1493 12.9193 11.4365 13.4787 10.8771C14.0382 10.3177 14.7509 9.93677 15.5268 9.78242C16.3027 9.62808 17.107 9.7073 17.8379 10.01C18.5688 10.3128 19.1935 10.8255 19.633 11.4833C20.0726 12.1411 20.3072 12.9144 20.3072 13.7056C20.3058 14.766 19.884 15.7827 19.1341 16.5325C18.3843 17.2824 17.3676 17.7042 16.3072 17.7056Z" fill="white"/>
</svg>
