<svg width="20" height="21" viewBox="0 0 20 21" fill="none" xmlns="http://www.w3.org/2000/svg">
<path d="M13.2475 14.7199L14.9275 13.0399C15.1538 12.8164 15.44 12.6635 15.7516 12.5995C16.0631 12.5356 16.3865 12.5636 16.6825 12.6799L18.73 13.4974C19.0291 13.6188 19.2856 13.826 19.4671 14.093C19.6486 14.3599 19.747 14.6746 19.75 14.9974V18.7474C19.7482 18.967 19.7021 19.1839 19.6143 19.3852C19.5265 19.5865 19.3989 19.7679 19.2391 19.9186C19.0793 20.0692 18.8907 20.186 18.6847 20.2618C18.4786 20.3377 18.2593 20.371 18.04 20.3599C3.69248 19.4674 0.797478 7.31739 0.249978 2.66739C0.224563 2.43905 0.247784 2.2079 0.318114 1.98918C0.388445 1.77045 0.50429 1.56909 0.658029 1.39835C0.811768 1.2276 0.999916 1.09135 1.2101 0.998542C1.42028 0.905736 1.64772 0.858484 1.87748 0.859894H5.49998C5.82324 0.860851 6.13881 0.958494 6.40612 1.14027C6.67344 1.32204 6.88025 1.57962 6.99998 1.87989L7.81748 3.92739C7.93767 4.2222 7.96833 4.54588 7.90564 4.858C7.84295 5.17013 7.68968 5.45687 7.46498 5.68239L5.78498 7.36239C5.78498 7.36239 6.75248 13.9099 13.2475 14.7199Z" fill="#FF7A03"/>
</svg>
