<svg width="18" height="15" viewBox="0 0 18 15" fill="none" xmlns="http://www.w3.org/2000/svg">
<path d="M17.1797 2.44535C17.1444 2.36028 17.0848 2.2875 17.0084 2.23609C16.932 2.18468 16.8421 2.15692 16.75 2.15628H14.2813C13.9761 1.59583 13.5273 1.12674 12.9808 0.797214C12.4343 0.467687 11.81 0.28961 11.1719 0.281284C10.2132 0.277116 9.29184 0.652914 8.60954 1.32643C7.92723 1.99995 7.53953 2.91634 7.53127 3.87503V4.55472C4.21877 3.76566 1.48439 1.07035 1.45314 1.04691C1.39292 0.987453 1.31771 0.945411 1.23552 0.925247C1.15332 0.905083 1.0672 0.907548 0.986294 0.932381C0.905387 0.957214 0.832712 1.00349 0.775982 1.06629C0.719253 1.1291 0.680585 1.20609 0.664082 1.2891C-0.0156053 5.00785 1.10158 7.49222 2.15627 8.92191C2.71565 9.68742 3.40279 10.3508 4.18752 10.8828C2.97658 12.3516 0.984395 13.1172 0.960957 13.125C0.894396 13.1495 0.834389 13.1891 0.785607 13.2406C0.736825 13.2921 0.700585 13.3541 0.679707 13.4219C0.657538 13.4881 0.65094 13.5584 0.660425 13.6275C0.669911 13.6966 0.695225 13.7626 0.734395 13.8203C0.81252 13.9375 1.57814 14.9688 4.25002 14.9688C9.69533 14.9688 14.25 10.7578 14.6875 5.3516L17.0781 2.95316C17.1459 2.88967 17.1921 2.80659 17.2103 2.71553C17.2285 2.62448 17.2178 2.53001 17.1797 2.44535ZM13.8985 4.81253C13.8172 4.89361 13.7697 5.0025 13.7656 5.11722C13.4453 10.1172 9.26565 14.0313 4.25002 14.0313C3.16408 14.0313 2.46877 13.8438 2.05471 13.6563C2.93752 13.211 4.38283 12.336 5.26565 11.0078C5.30082 10.9528 5.32448 10.8912 5.33522 10.8267C5.34596 10.7623 5.34356 10.6963 5.32815 10.6328C5.31149 10.5679 5.28131 10.5072 5.23957 10.4547C5.19784 10.4021 5.14549 10.359 5.08596 10.3282C5.07033 10.3282 3.89846 9.71878 2.88283 8.32816C1.67189 6.67191 1.19533 4.64847 1.46096 2.31253C2.60158 3.28128 5.06252 5.10941 7.92189 5.58597C7.98919 5.59875 8.0585 5.59638 8.12476 5.57901C8.19102 5.56164 8.25259 5.52972 8.30496 5.48558C8.35734 5.44143 8.39922 5.38616 8.42756 5.32379C8.45589 5.26143 8.46997 5.19353 8.46877 5.12503V3.87503C8.47496 3.16705 8.76109 2.49029 9.26464 1.99259C9.7682 1.49488 10.4483 1.21669 11.1563 1.21878C11.6678 1.22617 12.1665 1.38028 12.5931 1.66281C13.0197 1.94533 13.3561 2.34438 13.5625 2.81253C13.5982 2.89675 13.6581 2.96846 13.7346 3.01854C13.8111 3.06863 13.9008 3.09482 13.9922 3.09378H15.6172L13.8985 4.81253Z" fill="#DAC5A7"/>
</svg>
