<?xml version="1.0" standalone="no"?>
<!DOCTYPE svg PUBLIC "-//W3C//DTD SVG 20010904//EN"
 "http://www.w3.org/TR/2001/REC-SVG-20010904/DTD/svg10.dtd">
<svg version="1.0" xmlns="http://www.w3.org/2000/svg"
 width="150.000000pt" height="40.000000pt" viewBox="0 0 150.000000 40.000000"
 preserveAspectRatio="xMidYMid meet">

<g transform="translate(0.000000,40.000000) scale(0.100000,-0.100000)"
fill="#000000" stroke="none">
<path d="M250 302 c0 -4 9 -8 20 -8 11 0 20 4 20 8 0 4 -9 8 -20 8 -11 0 -20
-4 -20 -8z"/>
<path d="M492 198 l2 -113 3 108 c3 86 7 107 18 107 11 0 15 -12 15 -41 0 -22
4 -38 8 -35 5 3 6 22 3 43 -5 29 -11 39 -29 41 -22 3 -22 2 -20 -110z"/>
<path d="M1010 299 c0 -5 5 -7 10 -4 6 3 10 2 10 -4 0 -5 -6 -12 -12 -14 -8
-3 -6 -6 5 -6 11 -1 17 6 17 19 0 11 -7 20 -15 20 -8 0 -15 -5 -15 -11z"/>
<path d="M1247 293 c-4 -3 -7 -15 -7 -25 0 -10 -4 -18 -10 -18 -5 0 -10 -7
-10 -15 0 -8 4 -15 10 -15 5 0 11 -30 13 -67 l3 -68 2 72 c1 49 -2 73 -10 76
-10 4 -10 6 0 6 6 1 12 12 12 25 0 13 6 27 13 29 6 3 7 6 1 6 -6 1 -14 -2 -17
-6z"/>
<path d="M128 283 c6 -2 18 -2 25 0 6 3 1 5 -13 5 -14 0 -19 -2 -12 -5z"/>
<path d="M185 260 c21 -24 26 -25 19 -6 -3 8 -13 17 -22 21 -13 5 -13 2 3 -15z"/>
<path d="M258 273 c6 -2 18 -2 25 0 6 3 1 5 -13 5 -14 0 -19 -2 -12 -5z"/>
<path d="M871 263 c-1 -14 5 -23 14 -23 8 0 15 -4 15 -10 0 -5 -7 -10 -15 -10
-24 0 -20 -91 5 -113 17 -14 20 -14 20 -2 0 8 -7 15 -15 15 -11 0 -15 12 -15
45 0 33 4 45 15 45 8 0 15 9 15 20 0 11 -6 20 -14 20 -8 0 -17 8 -19 18 -4 13
-5 11 -6 -5z"/>
<path d="M80 190 l0 -70 33 1 c30 2 30 2 5 6 -27 4 -28 7 -28 63 0 56 1 59 28
63 25 4 25 4 -5 6 l-33 1 0 -70z"/>
<path d="M1260 250 c0 -5 8 -11 18 -13 16 -4 16 -5 0 -6 -16 -1 -18 -11 -16
-73 l2 -73 3 68 c3 50 8 67 18 67 22 0 18 27 -5 33 -11 3 -20 1 -20 -3z"/>
<path d="M162 223 c10 -26 10 -40 0 -65 -10 -30 -10 -31 3 -14 8 11 15 32 15
46 0 14 -7 35 -15 46 -13 17 -13 16 -3 -13z"/>
<path d="M258 243 c6 -2 18 -2 25 0 6 3 1 5 -13 5 -14 0 -19 -2 -12 -5z"/>
<path d="M394 240 c21 -4 42 -13 47 -21 6 -10 9 -10 9 -2 0 17 -34 33 -67 32
-23 -1 -22 -3 11 -9z"/>
<path d="M580 243 c14 -3 32 -10 40 -16 13 -11 13 -10 1 6 -7 9 -25 16 -40 16
l-26 -2 25 -4z"/>
<path d="M696 242 c-2 -4 11 -6 30 -4 19 2 34 6 34 8 0 8 -59 4 -64 -4z"/>
<path d="M810 230 c0 -11 4 -20 9 -20 6 0 12 -24 14 -52 l3 -53 2 57 c1 37 -2
58 -10 61 -10 4 -9 8 2 16 13 9 13 11 -2 11 -11 0 -18 -8 -18 -20z"/>
<path d="M1017 242 c7 -4 13 -39 16 -82 l3 -75 2 83 c2 72 0 82 -15 82 -12 0
-14 -3 -6 -8z"/>
<path d="M1072 166 l2 -81 3 78 c2 46 8 75 13 72 6 -4 10 -18 11 -33 l0 -27
10 24 c7 18 15 22 34 19 14 -3 22 -1 19 4 -4 6 -17 8 -31 5 -16 -3 -21 -1 -15
5 5 5 22 8 38 6 28 -3 29 -4 35 -78 l5 -75 2 71 c2 85 -4 93 -76 92 l-52 -1 2
-81z"/>
<path d="M1330 230 c-11 -11 -20 -28 -19 -37 0 -13 3 -11 10 7 6 13 15 28 22
32 20 13 65 9 81 -8 9 -8 16 -11 16 -5 0 15 -34 31 -64 31 -14 0 -35 -9 -46
-20z"/>
<path d="M213 190 c0 -25 2 -35 4 -22 2 12 2 32 0 45 -2 12 -4 2 -4 -23z"/>
<path d="M1375 223 c11 -3 26 -12 33 -21 6 -9 12 -11 12 -6 0 17 -23 34 -44
33 -21 -1 -21 -1 -1 -6z"/>
<path d="M541 206 c-7 -8 -11 -32 -10 -53 2 -21 -1 -44 -5 -51 -5 -8 0 -12 16
-11 13 0 17 3 11 6 -20 8 -15 22 6 16 10 -3 21 -1 24 4 3 5 -4 9 -16 9 -19 -1
-22 4 -22 39 0 33 4 40 25 46 22 6 23 7 4 8 -12 1 -27 -5 -33 -13z"/>
<path d="M664 206 c-3 -8 -4 -29 -2 -48 3 -29 4 -27 8 15 5 48 3 58 -6 33z"/>
<path d="M707 213 c-18 -18 -5 -33 29 -33 29 0 35 3 30 16 -3 9 -6 18 -6 20 0
2 -5 4 -11 4 -8 0 -8 -5 1 -15 11 -13 8 -15 -15 -15 -20 0 -26 4 -21 15 6 16
3 19 -7 8z"/>
<path d="M633 170 c0 -25 2 -35 4 -22 2 12 2 32 0 45 -2 12 -4 2 -4 -23z"/>
<path d="M390 190 l-25 -8 28 -1 c15 -1 27 4 27 9 0 6 -1 10 -2 9 -2 -1 -14
-5 -28 -9z"/>
<path d="M452 162 c-1 -27 4 -49 13 -58 13 -14 15 -14 15 0 0 9 -4 16 -9 16
-6 0 -12 19 -14 43 l-4 42 -1 -43z"/>
<path d="M592 170 c0 -19 2 -27 5 -17 2 9 2 25 0 35 -3 9 -5 1 -5 -18z"/>
<path d="M1173 145 c0 -33 2 -45 4 -27 2 18 2 45 0 60 -2 15 -4 0 -4 -33z"/>
<path d="M1442 168 c-1 -23 -10 -46 -22 -58 -11 -11 -16 -20 -10 -20 19 0 41
49 37 82 l-4 33 -1 -37z"/>
<path d="M1332 165 c0 -16 2 -22 5 -12 2 9 2 23 0 30 -3 6 -5 -1 -5 -18z"/>
<path d="M390 166 c0 -2 7 -7 16 -10 8 -3 12 -2 9 4 -6 10 -25 14 -25 6z"/>
<path d="M360 149 c0 -5 5 -7 10 -4 6 3 10 8 10 11 0 2 -4 4 -10 4 -5 0 -10
-5 -10 -11z"/>
<path d="M701 149 c-1 -9 6 -22 14 -29 13 -11 20 -11 40 0 14 7 23 16 20 19
-3 2 -11 -1 -17 -7 -19 -19 -38 -14 -48 11 -6 15 -9 17 -9 6z"/>
<path d="M1311 139 c-1 -9 9 -24 22 -35 22 -19 22 -19 6 1 -9 11 -19 27 -22
35 -5 13 -6 13 -6 -1z"/>
<path d="M1407 131 c-4 -17 -3 -21 5 -13 5 5 8 16 6 23 -3 8 -7 3 -11 -10z"/>
<path d="M184 118 l-19 -23 23 19 c21 18 27 26 19 26 -2 0 -12 -10 -23 -22z"/>
<path d="M403 128 c4 -13 -2 -22 -21 -34 -15 -8 -18 -12 -7 -8 11 4 28 7 37 8
13 0 14 4 6 21 -14 27 -23 34 -15 13z"/>
<path d="M367 119 c7 -7 15 -10 18 -7 3 3 -2 9 -12 12 -14 6 -15 5 -6 -5z"/>
<path d="M778 108 c-10 -10 -14 -18 -9 -18 10 0 36 29 30 34 -2 1 -12 -6 -21
-16z"/>
<path d="M320 111 c0 -10 19 -25 25 -20 1 2 -3 10 -11 17 -8 7 -14 8 -14 3z"/>
<path d="M609 103 c-13 -16 -12 -17 4 -4 16 13 21 21 13 21 -2 0 -10 -8 -17
-17z"/>
<path d="M682 104 c10 -10 20 -16 22 -13 3 3 -5 11 -17 18 -21 13 -21 12 -5
-5z"/>
<path d="M138 93 c7 -3 16 -2 19 1 4 3 -2 6 -13 5 -11 0 -14 -3 -6 -6z"/>
</g>
</svg>
