<svg width="64" height="62" viewBox="0 0 64 62" fill="none" xmlns="http://www.w3.org/2000/svg">
<path d="M33.729 30.1452C33.479 29.1452 33.3332 28.3327 33.0623 27.541C30.354 19.541 25.9998 12.416 21.0415 5.6452C20.4582 4.85353 19.729 4.10353 18.9165 3.60353C18.479 3.3327 17.604 3.37437 17.104 3.6452C16.729 3.85353 16.4582 4.66603 16.5415 5.12437C16.6873 5.99937 16.9998 6.8952 17.4373 7.68687C20.3123 12.916 23.2082 18.1244 26.1457 23.3119C27.2498 25.2494 28.4165 27.166 29.5623 29.0827C29.9373 29.7285 30.354 30.3535 30.7915 30.9369C31.2707 31.6035 31.9998 31.9994 32.729 31.5619C33.2082 31.2702 33.729 31.0619 33.729 30.1452Z" fill="#CD4631"/>
<path d="M4.22939 61.1667C5.22939 61 6.39606 60.875 7.52106 60.625C11.9586 59.625 16.3961 58.625 20.8127 57.5833C21.7711 57.3542 22.7086 56.9583 23.5627 56.5C24.7086 55.8958 25.1044 55.0417 24.9169 54.1042C24.7294 53.1667 23.9794 52.5833 22.6669 52.5625C21.7711 52.5417 20.8127 52.5625 19.9586 52.7708C14.3544 54.1875 8.75023 55.6458 3.1669 57.125C2.5419 57.2917 1.89606 57.5833 1.4169 58C0.208563 59.0208 0.583563 60.625 2.12523 61.0208C2.7294 61.1667 3.41689 61.1042 4.22939 61.1667Z" fill="#CD4631"/>
<path d="M62.7708 5.31213C62.6875 4.33297 62.4791 3.3538 62.2291 2.39547C62 1.5413 61.4166 0.937135 60.4791 0.853802C59.6875 0.791302 58.8333 1.58297 58.7083 2.62464C58.5416 4.02047 58.3958 5.43714 58.4583 6.83297C58.6458 11.0413 58.9166 15.2705 59.2083 19.4788C59.3125 20.8746 59.5 22.2705 59.7291 23.6663C59.8125 24.1455 59.9791 24.6455 60.25 25.0205C60.9791 26.083 62.3125 25.9996 62.8333 24.8538C63.125 24.208 63.25 23.4163 63.25 22.708C63.3541 20.3746 63.0416 8.77047 62.7708 5.31213Z" fill="#CD4631"/>
</svg>
