<svg width="150" height="28" viewBox="0 0 150 28" fill="none" xmlns="http://www.w3.org/2000/svg">
<g clip-path="url(#clip0_36308_16820)">
<path d="M9.05964 11.7658L14.8953 6.32842L20.734 11.7687L24.1296 8.60472L14.8953 0L5.66406 8.60184L9.05964 11.7658Z" fill="#C38E0C"/>
<path d="M6.66114 13.9999L3.26562 10.8359L-0.130057 14L3.26546 17.164L6.66114 13.9999Z" fill="#C38E0C"/>
<path d="M9.05876 16.2341L14.8944 21.6715L20.7329 16.2314L24.1303 19.3937L24.1287 19.3954L14.8944 27.9999L5.66295 19.3983L5.6582 19.3939L9.05876 16.2341Z" fill="#C38E0C"/>
<path d="M26.5242 17.1651L29.9199 14.001L26.5244 10.837L23.1287 14.0011L26.5242 17.1651Z" fill="#C38E0C"/>
<path d="M18.3388 13.9978H18.3402L14.8946 10.7871L12.3482 13.1598H12.348L12.0556 13.4325L11.452 13.9949L11.4473 13.9993L11.452 14.004L14.8946 17.2117L18.3402 14.0011L18.3419 13.9993L18.3388 13.9978Z" fill="#C38E0C"/>
<path d="M35.2129 6.78516H42.5981C44.431 6.78516 45.8171 7.22348 46.7565 8.10011C47.4834 8.77904 47.8468 9.62052 47.8468 10.6243V10.6668C47.8468 11.0909 47.7905 11.4658 47.6773 11.7909C47.5644 12.1164 47.4134 12.4094 47.2247 12.6711C47.0365 12.9329 46.8177 13.1627 46.569 13.3604C46.32 13.5585 46.0525 13.7284 45.7661 13.8695C46.6874 14.195 47.4127 14.6366 47.9415 15.1953C48.47 15.7541 48.7347 16.5284 48.7347 17.518V17.5602C48.7347 18.2392 48.5946 18.833 48.3143 19.3423C48.034 19.8511 47.6325 20.2755 47.1096 20.615C46.5868 20.9544 45.9581 21.2088 45.2233 21.3786C44.4885 21.5482 43.6742 21.6329 42.7806 21.6329H35.2129V6.78516ZM41.8597 12.7878C42.6339 12.7878 43.2486 12.6644 43.7036 12.4167C44.1588 12.1693 44.3864 11.7697 44.3864 11.2183V11.1759C44.3864 10.6812 44.189 10.303 43.7945 10.0411C43.3998 9.77952 42.8307 9.6486 42.0873 9.6486H38.6272V12.7878H41.8597ZM42.7932 18.7697C43.5671 18.7697 44.1738 18.6392 44.6143 18.3774C45.0543 18.1158 45.2745 17.7091 45.2745 17.1575V17.1153C45.2745 16.6204 45.0695 16.228 44.6598 15.9379C44.25 15.6484 43.5899 15.5033 42.6793 15.5033H38.6272V18.7699L42.7932 18.7697Z" fill="#C38E0C"/>
<path d="M53.1328 6.78516H56.6387V21.6334H53.1328V6.78516Z" fill="#C38E0C"/>
<path d="M61.9492 6.78516H65.1813L72.6481 15.9275V6.78516H76.1082V21.6334H73.1263L65.4091 12.1943V21.6334H61.9492V6.78516Z" fill="#C38E0C"/>
<path d="M86.7224 6.67871H89.9547L96.7843 21.6329H93.1191L91.6621 18.3028H84.9239L83.4671 21.6329H79.8926L86.7224 6.67871ZM90.4101 15.4177L88.2929 10.6028L86.1763 15.4177H90.4101Z" fill="#C38E0C"/>
<path d="M100.568 6.78418H103.801L111.267 15.9265V6.78418H114.728V21.6324H111.746L104.028 12.1933V21.6324H100.568V6.78418Z" fill="#C38E0C"/>
<path d="M127.344 21.8874C126.175 21.8874 125.091 21.6892 124.089 21.2936C123.087 20.8979 122.222 20.3568 121.494 19.6708C120.765 18.985 120.196 18.1754 119.787 17.2421C119.377 16.3086 119.172 15.3117 119.172 14.2511V14.2088C119.172 13.1482 119.377 12.155 119.787 11.2286C120.196 10.3024 120.765 9.48926 121.494 8.78932C122.222 8.08938 123.095 7.53761 124.111 7.13468C125.128 6.73174 126.252 6.53027 127.481 6.53027C128.224 6.53027 128.903 6.58711 129.518 6.6999C130.132 6.81335 130.69 6.96859 131.191 7.16652C131.692 7.36467 132.154 7.60506 132.58 7.88769C133.004 8.17076 133.399 8.4817 133.763 8.82116L131.533 11.218C130.91 10.695 130.277 10.2845 129.632 9.98773C128.986 9.69095 128.262 9.54233 127.458 9.54233C126.79 9.54233 126.171 9.66264 125.603 9.90303C125.034 10.1434 124.544 10.4756 124.134 10.8998C123.725 11.3239 123.406 11.8155 123.178 12.3739C122.951 12.9328 122.837 13.5301 122.837 14.1664V14.2086C122.837 14.8448 122.951 15.4462 123.178 16.0114C123.406 16.5773 123.72 17.072 124.123 17.4962C124.525 17.9204 125.011 18.2565 125.579 18.504C126.149 18.7517 126.775 18.8751 127.458 18.8751C128.369 18.8751 129.138 18.7196 129.768 18.4085C130.398 18.0977 131.024 17.6734 131.646 17.1357L133.877 19.2358C133.467 19.646 133.042 20.0138 132.603 20.3386C132.162 20.6642 131.68 20.9433 131.157 21.1768C130.633 21.4099 130.06 21.587 129.438 21.7069C128.816 21.827 128.118 21.8874 127.344 21.8874Z" fill="#C38E0C"/>
<path d="M138.004 6.78516H150.001V9.69129H141.464V12.7033H148.976V15.6093H141.464V18.7275H150.115V21.6334H138.004V6.78516Z" fill="#C38E0C"/>
</g>
<defs>
<clipPath id="clip0_36308_16820">
<rect width="150" height="28" rx="4" fill="white"/>
</clipPath>
</defs>
</svg>
