<svg width="147" height="17" viewBox="0 0 147 17" fill="none" xmlns="http://www.w3.org/2000/svg">
<g clip-path="url(#clip0_36308_16974)">
<path fill-rule="evenodd" clip-rule="evenodd" d="M130.462 14.5925C131.252 15.4307 135.587 19.4479 142.393 14.7856C147.314 10.9431 147.191 2.61222 146.718 0.0964609C146.554 0.462588 140.838 13.0131 130.462 14.5925ZM146.718 0.0943315C146.657 0.0693651 140.326 -0.796102 134.067 3.24582C130.181 5.75572 129.667 9.42924 129.844 11.8771C138.943 10.8562 146.511 0.382148 146.718 0.0943315Z" fill="#97C554"/>
<path fill-rule="evenodd" clip-rule="evenodd" d="M146.718 0.0943315C146.657 0.0693651 140.326 -0.796103 134.067 3.24582C130.181 5.75572 129.667 9.42924 129.844 11.8771C138.943 10.8562 146.511 0.382148 146.718 0.0943315Z" fill="#709B30"/>
<path fill-rule="evenodd" clip-rule="evenodd" d="M10.2493 14.1024H3.16167V10.3175H10.2493C12.0212 10.3175 12.9264 11.1672 12.9264 12.2679C12.9264 13.33 12.0404 14.1024 10.2493 14.1024ZM10.0182 8.2899H3.16167V5.10363H10.0182C11.8864 5.10363 12.6182 5.7602 12.6182 6.6678C12.6182 7.49816 11.7708 8.2899 10.0182 8.2899ZM11.8286 9.25543C14.8138 9.15888 15.8924 7.67196 15.8924 6.04986C15.8924 4.27328 14.4864 2.80566 11.0582 2.80566H0.0993652V16.3618H11.3856C14.1975 16.3618 16.2969 15.1838 16.2969 12.6541C16.2969 10.8582 15.122 9.33267 11.8286 9.25543ZM19.9137 2.80566V16.3618H22.9761V2.80566H19.9137ZM35.3947 5.37398H42.1356V2.80566H25.5914V5.37398H32.3324V16.3618H35.3947V5.37398ZM44.751 2.80566V16.3618H47.8133V11.0706H54.9972V8.84991H47.8133V5.14226H59.4847V2.80566H44.751ZM61.9653 2.80566V16.3618H65.0276V2.80566H61.9653ZM72.2076 6.10779L82.3575 16.3618H85.8242V2.80566H82.8004V12.5769L73.055 2.80566H69.1645V16.3618H72.2076V6.10779ZM89.9611 2.80566V16.3618H104.945V14.0831H93.0234V10.3561H100.169V8.25128H93.0234V5.14226H104.945V2.80566H89.9611ZM125.453 2.80566H121.408L116.247 7.5754L111.124 2.80566H107.021L114.225 9.48716L106.752 16.3618H110.796L116.208 11.3603L121.601 16.3618H125.723L118.231 9.46785L125.453 2.80566Z" fill="#01131D"/>
</g>
<defs>
<clipPath id="clip0_36308_16974">
<rect width="147" height="17" rx="4" fill="white"/>
</clipPath>
</defs>
</svg>
