<svg width="95" height="31" viewBox="0 0 95 31" fill="none" xmlns="http://www.w3.org/2000/svg">
<path d="M13.3263 16.2411H7.66226L1.86789 10.4605C1.49096 10.0844 1.48903 9.4728 1.86405 9.09484L9.29495 1.5957H15.1297L13.3657 3.31755L6.88908 9.77938L13.2834 16.2412M10.9981 9.79433H16.6622L22.4566 15.575C22.8334 15.951 22.8354 16.5626 22.4603 16.9406L15.0294 24.4393H9.19469L10.9587 22.7174L17.4353 16.2556L11.041 9.79374M55.6182 14.2743V11.0806H52.8926V6.5753H49.1417V11.0806H46.8137V14.2743H49.1417V19.5021C49.1417 22.4087 49.7119 24.5447 53.2663 24.4787L55.4975 24.4347V21.4403H54.3903C52.8105 21.4403 52.8984 20.5155 52.8984 18.798L52.8923 14.2744H55.6177L55.6182 14.2743ZM93.4171 14.2743V11.0806H90.6915V6.5753H86.9406V11.0806H84.6127V14.2743H86.9406V19.5021C86.9406 22.4087 87.5108 24.5447 91.0652 24.4787L93.2964 24.4347V21.4403H92.1893C90.6094 21.4403 90.6975 20.5155 90.6975 18.798L90.6912 14.2744H93.4166L93.4171 14.2743ZM66.3199 12.5953C65.8733 12.0566 65.3498 11.6391 64.7593 11.3504C64.0546 11.0081 63.2299 10.8348 62.3083 10.8348C61.1799 10.8348 60.1683 11.1143 59.303 11.6647C58.4386 12.2145 57.7529 12.9917 57.266 13.9731C56.7809 14.9521 56.5342 16.1015 56.5342 17.3908C56.5342 18.6801 56.7934 19.7619 57.3049 20.7477C57.8174 21.7367 58.528 22.5245 59.4166 23.0905C60.307 23.6576 61.3223 23.9453 62.4349 23.9453C63.2749 23.9453 64.0422 23.7627 64.7143 23.4022C65.2465 23.1169 65.6922 22.7395 66.0437 22.2784V23.7325C66.0437 24.6336 65.8077 25.3254 65.3437 25.7864C64.8782 26.2474 64.1707 26.4801 63.2397 26.4801C62.4378 26.4801 61.807 26.2977 61.3656 25.937C61.0045 25.6422 60.6892 25.255 60.6156 24.4352H56.9751C57.0088 25.5822 57.3444 26.3551 57.8179 27.0322C58.3492 27.7911 59.0964 28.3845 60.0406 28.7941C60.9758 29.1992 62.0608 29.4048 63.2652 29.4048C65.287 29.4048 66.8966 28.8946 68.048 27.8896C69.2066 26.8787 69.7941 25.4635 69.7941 23.6836V11.0801H66.3201L66.3199 12.5953ZM65.6551 19.1648C65.4156 19.661 65.0777 20.0502 64.6492 20.3194C64.2214 20.5888 63.705 20.7259 63.1137 20.7259C62.2588 20.7259 61.5943 20.4339 61.081 19.8324C60.5694 19.2343 60.3103 18.4127 60.3103 17.3903C60.3103 16.3678 60.5694 15.5462 61.081 14.9472C61.5877 14.3539 62.2718 14.0536 63.1137 14.0536C63.9554 14.0536 64.6992 14.3582 65.2222 14.9607C65.7502 15.568 66.018 16.3939 66.018 17.4138C66.018 18.0747 65.8959 18.6631 65.655 19.1641L65.6551 19.1648ZM45.6401 6.5753H41.7063V9.79406H45.6401V6.5753ZM82.858 13.0888C82.2603 12.3744 81.5113 11.8144 80.6315 11.4239C79.7526 11.0338 78.7641 10.8349 77.6949 10.8349C76.3843 10.8349 75.2021 11.1338 74.1799 11.7227C73.1554 12.3135 72.3423 13.1342 71.7626 14.1633C71.1827 15.1915 70.8889 16.3848 70.8889 17.7089C70.8889 19.033 71.1741 20.3049 71.736 21.3491C72.2996 22.3966 73.1096 23.2181 74.1435 23.793C75.1752 24.3646 76.3871 24.6547 77.7454 24.6547C79.4128 24.6547 80.8282 24.2338 81.9533 23.4029C83.0368 22.6037 83.782 21.476 84.188 20.0644H80.3864C80.1864 20.5447 79.9047 20.9537 79.5013 21.2419C79.0244 21.5817 78.4084 21.754 77.67 21.754C77.0297 21.754 76.481 21.5975 76.0393 21.2896C75.5956 20.9816 75.2566 20.5264 75.034 19.9351C74.9004 19.5837 74.8057 19.1796 74.7499 18.7302H84.2545L84.2731 18.6115C84.4428 17.5345 84.4001 16.514 84.1443 15.5786C83.888 14.6406 83.4554 13.8031 82.8581 13.0887L82.858 13.0888ZM74.8099 16.258C74.868 15.9862 74.9464 15.7033 75.0459 15.4455C75.2777 14.8465 75.6122 14.3855 76.041 14.0775C76.4681 13.7695 76.9993 13.6141 77.6205 13.6141C78.3989 13.6141 79.0378 13.8675 79.5195 14.3661C79.9762 14.8407 80.2354 15.4889 80.2906 16.2579H74.8102L74.8099 16.258ZM45.5625 11.0806H41.7865V24.4348H45.5625V11.0806ZM37.5768 15.0893C38.2676 14.6954 38.8211 14.205 39.224 13.6267C39.6832 12.9682 39.9163 12.2161 39.9163 11.3926C39.9163 9.85078 39.3422 8.64726 38.2109 7.81519C37.0931 6.99263 35.5552 6.57604 33.6382 6.57604H26.7069V24.4352H33.9152C35.9339 24.4352 37.5503 23.9639 38.719 23.0338C39.897 22.0959 40.495 20.7824 40.495 19.129C40.495 18.1226 40.2138 17.2565 39.6599 16.5556C39.1629 15.929 38.4632 15.4361 37.5772 15.0891L37.5768 15.0893ZM30.4579 9.79485H33.3368C34.2397 9.79485 34.9214 9.97057 35.3643 10.3162C35.8018 10.6575 36.0143 11.1059 36.0143 11.6867C36.0143 12.2674 35.8018 12.7385 35.3643 13.0813C34.9215 13.4269 34.2397 13.6026 33.3368 13.6026H30.4579V9.79485ZM35.8778 20.6113C35.3786 21.0129 34.6167 21.216 33.6133 21.216H30.4579V16.8455H33.6133C34.6161 16.8455 35.379 17.042 35.88 17.4277C36.3766 17.8124 36.6181 18.3202 36.6181 18.9821C36.6181 19.6781 36.3757 20.211 35.8777 20.6117L35.8778 20.6113Z" fill="#03AAC1"/>
</svg>
