<svg width="127" height="32" viewBox="0 0 127 32" fill="none" xmlns="http://www.w3.org/2000/svg">
<g clip-path="url(#clip0_36308_16900)">
<path d="M55.3984 28.614V26.2717C55.3984 25.7291 55.5572 25.3222 55.8535 25.0614C56.5309 24.5501 57.4781 24.5345 58.166 25.0301C58.4359 25.2492 58.5893 25.5726 58.5893 25.9326C58.6052 26.0109 58.5734 26.1048 58.5258 26.183C58.4782 26.23 58.3988 26.2456 58.3353 26.2456C58.1766 26.2456 58.0972 26.183 58.0813 26.0578C58.0813 25.9796 58.0654 25.917 58.0496 25.8387C58.0337 25.7604 58.0019 25.6822 57.9543 25.6039C57.9067 25.51 57.8432 25.4318 57.7797 25.3692C57.6844 25.2909 57.5733 25.244 57.4622 25.2127C57.3193 25.1657 57.1606 25.1501 57.0071 25.1501C56.2663 25.1501 55.9064 25.5361 55.9064 26.2978V28.6401C55.9064 29.4174 56.2821 29.7878 57.0389 29.7878C57.2294 29.7878 57.3987 29.7565 57.5733 29.6939C57.7003 29.647 57.8114 29.5531 57.8908 29.4435C57.9543 29.3496 57.9861 29.2557 58.0337 29.1618C58.0654 29.0523 58.0813 28.9584 58.0972 28.8488C58.1131 28.7236 58.1924 28.6454 58.3512 28.6454C58.4306 28.6454 58.4941 28.661 58.5417 28.708C58.5893 28.7862 58.6052 28.8645 58.6052 28.9584C58.6052 29.3131 58.4464 29.6418 58.166 29.8609C57.8379 30.1269 57.4251 30.2469 57.0018 30.2313C56.5785 30.2469 56.1657 30.1061 55.8535 29.8452C55.5519 29.5479 55.3984 29.1462 55.3984 28.6036V28.614Z" fill="#424242"/>
<path d="M59.2401 29.2342C59.2401 28.8325 59.3988 28.5664 59.6952 28.4099C59.9915 28.2534 60.436 28.1751 61.0181 28.1751H61.4097V28.003C61.4097 27.7526 61.3303 27.5074 61.1874 27.2883C61.0287 27.0848 60.78 26.9648 60.5101 26.9909C60.3196 26.9909 60.1344 27.0222 59.9597 27.1005C59.801 27.1787 59.7058 27.21 59.6899 27.21C59.6264 27.21 59.5787 27.1787 59.547 27.1318C59.5152 27.0848 59.4994 27.0222 59.4994 26.9596C59.4994 26.8657 59.6105 26.7718 59.8275 26.6936C60.0444 26.6153 60.2984 26.5684 60.5365 26.5684C61.0075 26.5684 61.3726 26.7092 61.5896 26.9701C61.8277 27.2674 61.9335 27.6378 61.9177 28.0082V29.9645C61.9177 30.0271 61.8859 30.0741 61.8542 30.1054C61.8065 30.1523 61.743 30.168 61.6795 30.168C61.616 30.168 61.5684 30.1523 61.5208 30.1054C61.4732 30.0741 61.4573 30.0115 61.4573 29.9645V29.6411C61.1133 30.0271 60.7323 30.2306 60.309 30.2306C60.0391 30.2462 59.7745 30.1523 59.5523 29.9802C59.3142 29.7767 59.2083 29.5002 59.2242 29.2185L59.2401 29.2342ZM59.7428 29.1872C59.7269 29.3594 59.8063 29.5263 59.9333 29.6515C60.0762 29.7611 60.2508 29.8237 60.4201 29.808C60.6741 29.808 60.907 29.7141 61.1133 29.5419C61.3356 29.3698 61.4414 29.1872 61.4414 29.015V28.5351H61.1239C60.9493 28.5351 60.78 28.5351 60.6053 28.5508C60.4625 28.5664 60.3196 28.5977 60.1979 28.629C60.0709 28.6603 59.9598 28.7229 59.8804 28.8325C59.7693 28.942 59.7375 29.0672 59.7375 29.1872H59.7428Z" fill="#424242"/>
<path d="M62.9707 31.7334V26.7826C62.9707 26.7357 63.0025 26.6887 63.0342 26.6574C63.0818 26.6261 63.1453 26.5948 63.2088 26.6105C63.2723 26.6105 63.3358 26.6261 63.3835 26.6731C63.4311 26.7044 63.447 26.7513 63.447 26.7983V27.1374C63.5422 26.9652 63.6851 26.8243 63.8544 26.72C64.0449 26.6105 64.2619 26.5479 64.4682 26.5479C64.8281 26.5479 65.1932 26.6887 65.4472 26.9652C65.7171 27.2313 65.8547 27.586 65.8547 27.9564V28.7807C65.8547 29.151 65.7118 29.511 65.4472 29.7718C65.2091 30.0536 64.8651 30.2048 64.5 30.2048C64.2777 30.2048 64.0608 30.1422 63.8862 30.0327C63.7115 29.9388 63.5687 29.7823 63.4787 29.6153V31.7125C63.4787 31.7595 63.447 31.8064 63.3993 31.8377C63.3517 31.8847 63.2882 31.9003 63.2247 31.9003C63.1612 31.9003 63.0977 31.8847 63.0501 31.8377C63.0025 31.8221 62.9707 31.7908 62.9707 31.7282V31.7334ZM63.4575 29.0311C63.4575 29.1719 63.5528 29.3284 63.7433 29.511C63.9179 29.6832 64.1507 29.7771 64.3889 29.7771C64.6429 29.7771 64.8757 29.6675 65.0503 29.4797C65.2408 29.2919 65.3361 29.0624 65.3361 28.7963V27.972C65.3361 27.7216 65.225 27.4921 65.0503 27.3043C64.7064 26.9339 64.119 26.9182 63.7433 27.2573L63.7274 27.273C63.5369 27.4608 63.4417 27.706 63.4417 27.9564L63.4575 29.0258V29.0311Z" fill="#424242"/>
<path d="M66.7964 25.4628C66.7329 25.4002 66.7012 25.3219 66.7012 25.2437C66.7012 25.1654 66.7329 25.0715 66.7964 25.0246C66.8599 24.962 66.9552 24.9307 67.0345 24.9307C67.1298 24.9307 67.2092 24.962 67.2727 25.0246C67.3362 25.0872 67.3679 25.1654 67.3679 25.2437C67.3679 25.3219 67.3362 25.4158 67.2727 25.4628C67.2092 25.5254 67.1298 25.5567 67.0345 25.5567C66.9552 25.5567 66.8599 25.5254 66.7964 25.4628ZM66.7964 29.9806V26.7826C66.7964 26.7357 66.8282 26.6887 66.8599 26.6574C66.9075 26.6261 66.971 26.5948 67.0345 26.6105C67.098 26.6105 67.1615 26.6261 67.2092 26.6574C67.2568 26.6887 67.2885 26.7357 67.2885 26.7826V29.9806C67.2885 30.0432 67.2568 30.0901 67.2092 30.1214C67.1615 30.1684 67.098 30.184 67.0345 30.184C66.971 30.184 66.9075 30.1684 66.8599 30.1214C66.8282 30.0901 66.7964 30.0432 66.7964 29.9806Z" fill="#424242"/>
<path d="M68.3574 29.0624V25.0872C68.3574 25.0402 68.3892 24.9776 68.4368 24.962C68.4844 24.9307 68.5479 24.915 68.6114 24.915C68.6749 24.915 68.7384 24.9307 68.7861 24.962C68.8337 24.9933 68.8654 25.0402 68.8654 25.0872V26.5949H69.855C69.9026 26.5949 69.9502 26.6105 69.982 26.6575C70.0137 26.7044 70.0296 26.7514 70.0296 26.7983C70.0296 26.8453 70.0137 26.9079 69.982 26.9392C69.9502 26.9861 69.9026 27.0018 69.855 27.0018H68.8654V29.0363C68.8496 29.2241 68.8972 29.4067 69.0242 29.5476C69.1829 29.6571 69.384 29.7197 69.5745 29.6884H69.7968C69.8603 29.6884 69.9079 29.7197 69.9555 29.751C70.0031 29.798 70.019 29.8449 70.019 29.9075C70.019 29.9701 70.0031 30.0327 69.9555 30.0797C69.9079 30.1266 69.8603 30.1579 69.7968 30.1579H69.5745C68.7702 30.1892 68.3627 29.8189 68.3627 29.0728L68.3574 29.0624Z" fill="#424242"/>
<path d="M70.5329 29.2342C70.5329 28.8325 70.6917 28.5664 70.988 28.4099C71.2844 28.2534 71.7289 28.1751 72.3109 28.1751H72.7025V28.003C72.7025 27.7526 72.6232 27.5074 72.4803 27.2883C72.3215 27.0848 72.0569 26.9648 71.8029 26.9909C71.6124 26.9909 71.4272 27.0222 71.2526 27.1005C71.1732 27.1474 71.078 27.1787 70.9827 27.21C70.9192 27.21 70.8716 27.1787 70.8399 27.1318C70.8081 27.0848 70.7922 27.0222 70.7922 26.9596C70.7922 26.8657 70.9034 26.7718 71.1203 26.6936C71.3373 26.6153 71.5754 26.5684 71.8294 26.5684C72.3004 26.5684 72.6655 26.7092 72.8824 26.9701C73.1206 27.2674 73.2264 27.6378 73.2105 28.0082V29.9645C73.2105 30.0271 73.1788 30.0741 73.147 30.1054C73.0994 30.1523 73.0359 30.168 72.9724 30.168C72.9089 30.168 72.8613 30.1523 72.8137 30.1054C72.766 30.0741 72.7502 30.0115 72.7502 29.9645V29.6411C72.4062 30.0271 72.0252 30.2306 71.586 30.2306C71.3161 30.2462 71.0515 30.1523 70.8293 29.9802C70.5912 29.7767 70.4853 29.5002 70.5118 29.2185L70.5329 29.2342ZM71.0198 29.1872C71.0039 29.3594 71.0833 29.5263 71.2103 29.6515C71.3532 29.7611 71.5278 29.808 71.6971 29.808C71.9511 29.808 72.1998 29.7141 72.3903 29.5419C72.6126 29.3698 72.7184 29.1872 72.7184 29.015V28.5351H72.4009C72.2263 28.5351 72.0569 28.5351 71.8823 28.5508C71.7394 28.5664 71.5966 28.5977 71.4749 28.629C71.3479 28.6603 71.2367 28.7229 71.1574 28.8325C71.0462 28.942 71.0145 29.0672 71.0145 29.1872H71.0198Z" fill="#424242"/>
<path d="M74.3105 29.9813V24.5923C74.3105 24.5454 74.3423 24.4984 74.3741 24.4671C74.4217 24.4358 74.4852 24.4045 74.5487 24.4202C74.6122 24.4202 74.6757 24.4358 74.7233 24.4671C74.7709 24.4984 74.8027 24.5454 74.8027 24.5923V29.9813C74.8027 30.0283 74.7709 30.0909 74.7233 30.1222C74.6757 30.1691 74.6122 30.1848 74.5487 30.1848C74.4852 30.1848 74.4217 30.1691 74.3741 30.1222C74.3423 30.0909 74.3105 30.0439 74.3105 29.9813Z" fill="#424242"/>
<path d="M77.6504 28.6139V26.2715C77.6504 25.7133 77.7933 25.3064 78.0896 25.0456C78.4071 24.7795 78.8146 24.6439 79.2379 24.6595C79.6612 24.6439 80.074 24.7691 80.4021 25.0299C80.6878 25.2647 80.8413 25.6038 80.8413 25.9637C80.8571 26.0889 80.7778 26.1985 80.6508 26.2141H80.5873C80.4285 26.2141 80.3333 26.1515 80.3333 26.0263C80.2539 25.4212 79.8941 25.1238 79.2485 25.1238C78.5235 25.1238 78.1637 25.5099 78.1637 26.2715V28.6139C78.1637 28.9999 78.2589 29.2973 78.4494 29.4851C78.9204 29.8711 79.5818 29.8711 80.0581 29.4851C80.2486 29.2973 80.3438 29.0051 80.3438 28.6139V27.7113H79.3226C79.2749 27.7113 79.2114 27.6957 79.1797 27.6487C79.1479 27.6018 79.1321 27.5548 79.1321 27.4922C79.1321 27.4296 79.1479 27.3827 79.1797 27.3357C79.2114 27.2888 79.2591 27.2731 79.3226 27.2731H80.6772C80.8042 27.2731 80.8677 27.3357 80.8677 27.4766V28.6086C80.8677 29.1668 80.7248 29.5738 80.4444 29.8346C79.7671 30.3458 78.8093 30.3458 78.1319 29.8346C77.8038 29.5685 77.661 29.1668 77.661 28.6086L77.6504 28.6139Z" fill="#424242"/>
<path d="M81.8354 29.9799V26.782C81.8354 26.7351 81.8671 26.6881 81.8989 26.6568C81.9465 26.6255 82.01 26.5942 82.0735 26.6099C82.137 26.6099 82.2005 26.6255 82.2481 26.6725C82.2957 26.7038 82.3116 26.7507 82.3116 26.7977V27.1681C82.4069 26.9959 82.5497 26.8446 82.7191 26.7351C82.9096 26.6099 83.1107 26.5473 83.3329 26.5629H83.6028C83.6504 26.5629 83.7139 26.5942 83.7457 26.6255C83.7774 26.6725 83.8092 26.7194 83.8092 26.782C83.8092 26.8446 83.7933 26.8916 83.7457 26.9385C83.7139 26.9855 83.6663 27.0011 83.6028 27.0011H83.3329C83.063 27.0011 82.8143 27.1107 82.6238 27.3141C82.4175 27.5332 82.3063 27.8097 82.3063 28.1071V29.9695C82.3063 30.0164 82.2746 30.0791 82.227 30.1104C82.1793 30.1573 82.1158 30.173 82.0523 30.173C81.9888 30.173 81.9253 30.1573 81.8777 30.1104C81.8618 30.0947 81.8301 30.0477 81.8301 29.9851L81.8354 29.9799Z" fill="#424242"/>
<path d="M84.2176 28.8012V27.9769C84.2176 27.6065 84.3764 27.2465 84.6409 26.9857C84.9055 26.7249 85.2707 26.5684 85.6622 26.5684C86.0538 26.5684 86.4189 26.7092 86.6835 26.9857C86.9693 27.2518 87.1227 27.6065 87.1227 27.9769V28.8012C87.1227 29.5941 86.4613 30.2306 85.6569 30.2306C84.8526 30.2306 84.207 29.5941 84.207 28.8012H84.2176ZM84.7044 28.8012C84.7044 29.0516 84.7997 29.2968 84.9902 29.4846C85.1648 29.6724 85.3977 29.7819 85.6517 29.7819C85.9215 29.7819 86.1544 29.6724 86.329 29.4846C86.5195 29.2968 86.6147 29.0672 86.6147 28.8012V27.9769C86.6147 27.7265 86.5036 27.497 86.329 27.3091C86.1544 27.1213 85.9057 27.0118 85.6517 27.0118C85.3977 27.0118 85.1489 27.1213 84.9902 27.3091C84.8156 27.4813 84.7044 27.7265 84.7044 27.9769V28.8012Z" fill="#424242"/>
<path d="M88.0273 28.8171V26.7982C88.0273 26.7512 88.0591 26.7043 88.0908 26.673C88.1385 26.626 88.202 26.6104 88.2813 26.6104C88.3448 26.6104 88.4083 26.626 88.456 26.673C88.5036 26.7043 88.5353 26.7512 88.5353 26.7982V28.8171C88.5353 29.0675 88.6306 29.3127 88.8211 29.4848C89.1651 29.8552 89.7365 29.8709 90.1123 29.5474C90.1281 29.5318 90.1599 29.5161 90.1758 29.4848C90.3504 29.3127 90.4615 29.0675 90.4615 28.8171V26.7982C90.4615 26.7512 90.4933 26.6886 90.5409 26.673C90.5885 26.6417 90.652 26.626 90.7155 26.626C90.779 26.626 90.8425 26.6417 90.8901 26.673C90.9378 26.7043 90.9695 26.7512 90.9695 26.7982V28.8171C90.9695 29.1875 90.8108 29.5474 90.5303 29.8083C89.9641 30.3665 89.0328 30.3665 88.4665 29.7926C88.1808 29.5422 88.0432 29.1875 88.0432 28.8171H88.0273Z" fill="#424242"/>
<path d="M91.9805 31.7334V26.7826C91.9805 26.7357 92.0122 26.6887 92.044 26.6574C92.0916 26.6261 92.1551 26.5948 92.2186 26.6105C92.2821 26.6105 92.3456 26.6261 92.3932 26.6731C92.4408 26.7044 92.4567 26.7513 92.4567 26.7983V27.1374C92.552 26.9652 92.6948 26.8243 92.8642 26.72C93.0547 26.6105 93.2558 26.5479 93.478 26.5479C93.8378 26.5479 94.203 26.6887 94.457 26.9652C94.7268 27.2313 94.8644 27.586 94.8644 27.9564V28.7807C94.8644 29.151 94.7215 29.511 94.457 29.7718C94.2188 30.0536 93.8749 30.2048 93.5098 30.2048C93.2875 30.2048 93.0705 30.1422 92.8959 30.0327C92.7213 29.9388 92.5784 29.7823 92.4885 29.6153V31.7125C92.4885 31.7595 92.4567 31.8064 92.4091 31.8377C92.3615 31.8847 92.298 31.9003 92.2345 31.9003C92.171 31.9003 92.1075 31.8847 92.0598 31.8377C92.0122 31.8221 91.9805 31.7908 91.9805 31.7282V31.7334ZM92.4832 29.0311C92.4832 29.1719 92.5784 29.3284 92.7689 29.511C92.9435 29.6832 93.1764 29.7771 93.4304 29.7771C93.6844 29.7771 93.9172 29.6675 94.0918 29.4797C94.2823 29.2919 94.3776 29.0624 94.3776 28.7963V27.972C94.3776 27.7216 94.2665 27.4921 94.0918 27.3043C93.7479 26.9339 93.1605 26.9182 92.7848 27.2573L92.7689 27.273C92.5784 27.4608 92.4832 27.706 92.4832 27.9564V29.0258V29.0311Z" fill="#424242"/>
<path d="M97.5684 29.9807V24.8421C97.5684 24.7169 97.6477 24.6543 97.8224 24.6543C97.997 24.6543 98.0764 24.7169 98.0764 24.8421V27.0906H100.283V24.8421C100.283 24.7169 100.362 24.6543 100.537 24.6543C100.712 24.6543 100.791 24.7169 100.791 24.8421V29.9807C100.791 30.0433 100.759 30.0902 100.712 30.1215C100.6 30.1998 100.458 30.1998 100.352 30.1215C100.304 30.0902 100.272 30.0276 100.272 29.9807V27.5288H98.0658V29.9807C98.0658 30.0433 98.034 30.0902 97.9864 30.1215C97.9388 30.1528 97.8753 30.1685 97.8118 30.1685C97.7483 30.1685 97.6848 30.1528 97.6371 30.1215C97.5895 30.0902 97.5578 30.0433 97.5736 29.9807H97.5684Z" fill="#424242"/>
<path d="M101.79 28.8012V27.9769C101.79 27.6065 101.949 27.2465 102.213 26.9857C102.478 26.7249 102.843 26.5684 103.235 26.5684C103.626 26.5684 103.991 26.7092 104.256 26.9857C104.542 27.2518 104.695 27.6065 104.695 27.9769V28.8012C104.663 29.5941 104.002 30.2149 103.197 30.1836C102.425 30.168 101.811 29.5472 101.779 28.8012H101.79ZM102.293 28.8012C102.293 29.0516 102.388 29.2968 102.578 29.4846C102.753 29.6724 102.986 29.7819 103.256 29.7819C103.526 29.7819 103.758 29.6724 103.933 29.4689C104.124 29.2811 104.219 29.0516 104.219 28.7855V27.9769C104.219 27.7265 104.108 27.497 103.933 27.3091C103.758 27.1213 103.51 27.0118 103.256 27.0118C103.002 27.0118 102.753 27.1213 102.578 27.3091C102.404 27.4813 102.293 27.7265 102.293 27.9769V28.8012Z" fill="#424242"/>
<path d="M105.695 29.9813V24.5923C105.695 24.5454 105.727 24.4984 105.759 24.4671C105.806 24.4358 105.87 24.4045 105.933 24.4202C105.997 24.4202 106.06 24.4358 106.108 24.4671C106.156 24.4984 106.187 24.5454 106.187 24.5923V29.9813C106.187 30.0283 106.156 30.0909 106.108 30.1222C106.06 30.1691 105.997 30.1848 105.933 30.1848C105.87 30.1848 105.806 30.1691 105.759 30.1222C105.727 30.0909 105.695 30.0439 105.695 29.9813Z" fill="#424242"/>
<path d="M107.203 28.801V27.9767C107.203 27.6063 107.346 27.2464 107.611 26.9855C107.865 26.7195 108.209 26.5682 108.59 26.5682C109.013 26.5682 109.394 26.7873 109.595 27.142V24.5962C109.595 24.5493 109.627 24.4867 109.674 24.471C109.722 24.4397 109.801 24.4084 109.865 24.4241C109.928 24.4241 109.992 24.4397 110.039 24.471C110.087 24.5023 110.103 24.5493 110.103 24.5962V29.9696C110.103 30.0165 110.071 30.0791 110.039 30.1104C109.992 30.1574 109.928 30.173 109.865 30.173C109.801 30.173 109.754 30.1417 109.706 30.1104C109.658 30.0791 109.627 30.0322 109.627 29.9696V29.6305C109.531 29.8026 109.389 29.9435 109.203 30.0478C109.018 30.1522 108.796 30.22 108.574 30.22C108.214 30.22 107.865 30.0635 107.626 29.787C107.357 29.5366 107.203 29.1818 107.203 28.8114V28.801ZM107.706 28.801C107.706 29.0514 107.817 29.2966 107.992 29.4844C108.166 29.6722 108.399 29.7818 108.653 29.7818C108.907 29.7818 109.124 29.6879 109.299 29.5157C109.489 29.3279 109.584 29.1766 109.584 29.0358V27.982C109.6 27.7159 109.489 27.4707 109.299 27.2986C108.939 26.9438 108.351 26.9595 108.007 27.2986C108.007 27.2986 107.992 27.3142 107.992 27.3299C107.817 27.502 107.706 27.7472 107.706 27.9976V28.8062V28.801Z" fill="#424242"/>
<path d="M111.173 25.4628C111.11 25.4002 111.078 25.3219 111.078 25.2437C111.078 25.1654 111.11 25.0715 111.173 25.0246C111.237 24.962 111.332 24.9307 111.411 24.9307C111.507 24.9307 111.586 24.962 111.65 25.0246C111.713 25.0872 111.745 25.1654 111.745 25.2437C111.745 25.3219 111.713 25.4158 111.65 25.4628C111.586 25.5254 111.507 25.5567 111.411 25.5567C111.332 25.5567 111.237 25.5254 111.173 25.4628ZM111.173 29.9806V26.7826C111.173 26.7357 111.205 26.6887 111.237 26.6574C111.285 26.6261 111.348 26.5948 111.411 26.6105C111.475 26.6105 111.538 26.6261 111.602 26.6574C111.65 26.6887 111.681 26.7357 111.681 26.7826V29.9806C111.681 30.0432 111.65 30.0901 111.602 30.1214C111.554 30.1684 111.491 30.184 111.427 30.184C111.364 30.184 111.3 30.1684 111.253 30.1214C111.205 30.0901 111.173 30.0432 111.173 29.9806Z" fill="#424242"/>
<path d="M112.764 29.9805V26.7826C112.764 26.7357 112.796 26.6731 112.828 26.6418C112.876 26.6105 112.939 26.5948 113.003 26.5948C113.066 26.5948 113.114 26.6105 113.161 26.6574C113.209 26.6887 113.225 26.7357 113.225 26.7826V27.1217C113.32 26.9496 113.463 26.8087 113.616 26.7044C113.807 26.5948 114.024 26.5322 114.246 26.5322C114.606 26.5322 114.955 26.6887 115.209 26.9496C115.479 27.2156 115.617 27.5704 115.617 27.9408V29.944C115.617 30.0066 115.585 30.0536 115.537 30.0849C115.49 30.1162 115.426 30.1318 115.363 30.1318C115.299 30.1318 115.236 30.1162 115.188 30.0849C115.14 30.0536 115.109 29.991 115.109 29.944V27.9408C115.109 27.6904 114.998 27.4608 114.823 27.273C114.648 27.0852 114.415 26.9757 114.146 26.9757C113.907 26.9757 113.691 27.0696 113.516 27.2417C113.325 27.4295 113.23 27.6747 113.23 27.9408V29.944C113.23 30.0066 113.198 30.0536 113.151 30.0849C113.103 30.1318 113.04 30.1475 112.976 30.1475C112.913 30.1475 112.849 30.1318 112.802 30.0849C112.77 30.0849 112.754 30.0223 112.754 29.9753L112.764 29.9805Z" fill="#424242"/>
<path d="M116.385 30.9253C116.385 30.5549 116.607 30.2732 117.03 30.1011C116.745 30.0072 116.607 29.835 116.607 29.5898C116.623 29.3551 116.766 29.1412 116.983 29.0473C116.697 28.8125 116.544 28.4578 116.559 28.0978V27.8005C116.544 27.4614 116.686 27.1327 116.919 26.8979C117.454 26.4493 118.226 26.4336 118.777 26.8666C118.84 26.7414 118.935 26.6162 119.046 26.5275C119.126 26.4493 119.221 26.4023 119.332 26.4023C119.396 26.4023 119.459 26.418 119.507 26.4649C119.539 26.4962 119.57 26.5432 119.57 26.6058C119.57 26.6841 119.523 26.7623 119.443 26.778C119.253 26.8093 119.099 26.9345 119.02 27.1014C119.163 27.3049 119.242 27.55 119.242 27.8161V28.1135C119.258 28.4526 119.115 28.7812 118.867 29.016C118.613 29.2507 118.269 29.3864 117.903 29.3707C117.697 29.3707 117.496 29.3238 117.321 29.2455C117.163 29.3394 117.083 29.4333 117.083 29.5429C117.083 29.6524 117.163 29.7463 117.258 29.7933C117.401 29.8559 117.544 29.9028 117.697 29.9185L118.279 29.9967C118.47 30.028 118.671 30.0593 118.861 30.1219C119.036 30.1689 119.189 30.2628 119.3 30.4036C119.427 30.5602 119.491 30.7427 119.475 30.9305C119.491 31.2436 119.332 31.5513 119.068 31.7235C118.74 31.927 118.359 32.0209 117.983 32.0052C117.591 32.0209 117.194 31.927 116.866 31.7235C116.565 31.52 116.395 31.2436 116.395 30.9305L116.385 30.9253ZM116.872 30.8784C116.872 31.0818 116.983 31.2644 117.157 31.374C117.395 31.5148 117.66 31.5774 117.93 31.5618C118.2 31.5774 118.464 31.5148 118.687 31.374C118.861 31.2644 118.957 31.061 118.957 30.8627C118.957 30.7688 118.925 30.6749 118.877 30.5967C118.83 30.5184 118.766 30.4715 118.703 30.4245C118.623 30.3776 118.528 30.3463 118.433 30.315C118.337 30.2837 118.226 30.268 118.131 30.2524L117.814 30.2211L117.544 30.1898C117.089 30.3463 116.866 30.5602 116.866 30.8732L116.872 30.8784ZM117.062 28.0822C117.046 28.3169 117.126 28.5465 117.284 28.7343C117.443 28.9064 117.66 29.0003 117.898 28.9847C118.12 29.0003 118.337 28.9064 118.496 28.7343C118.655 28.5621 118.734 28.3326 118.718 28.0978V27.8005C118.718 27.5657 118.639 27.3518 118.496 27.1796C118.168 26.8562 117.612 26.8562 117.284 27.1796C117.126 27.3518 117.046 27.5657 117.062 27.8005V28.0822Z" fill="#424242"/>
<path d="M120.025 29.6835C120.025 29.6209 120.041 29.5739 120.073 29.527C120.105 29.48 120.152 29.4644 120.2 29.4644C120.264 29.48 120.327 29.5113 120.375 29.5583C120.47 29.6365 120.597 29.6835 120.703 29.7304C120.861 29.7931 121.031 29.8243 121.221 29.8243C121.428 29.84 121.645 29.7774 121.819 29.6678C121.946 29.5739 122.01 29.4331 122.01 29.2818C122.01 29.1096 121.946 28.9584 121.819 28.8488C121.676 28.7393 121.518 28.6453 121.348 28.5984L120.798 28.4262C120.607 28.3793 120.454 28.2697 120.327 28.1289C120.184 27.9724 120.121 27.7741 120.137 27.5707C120.137 27.3046 120.248 27.0438 120.438 26.856C120.645 26.6525 120.941 26.543 121.354 26.543C121.592 26.543 121.825 26.5743 122.047 26.6682C122.269 26.7464 122.375 26.8403 122.375 26.9186C122.375 26.9812 122.343 27.0438 122.311 27.0907C122.28 27.1377 122.232 27.1846 122.169 27.1846C122.073 27.1533 121.978 27.122 121.883 27.0751C121.708 27.0125 121.539 26.9655 121.364 26.9655C121.158 26.9499 120.957 27.0125 120.782 27.1377C120.655 27.2316 120.592 27.3881 120.592 27.5394C120.592 27.6802 120.671 27.8211 120.798 27.8941C120.941 27.988 121.1 28.0663 121.269 28.1132L121.819 28.2854C122.01 28.348 122.179 28.4575 122.29 28.6088C122.417 28.7966 122.497 29.0105 122.481 29.2453C122.497 29.527 122.37 29.7878 122.153 29.96C121.883 30.1478 121.571 30.2417 121.237 30.226C120.936 30.2417 120.655 30.1791 120.385 30.0539C120.147 29.9287 120.025 29.8035 120.025 29.6835Z" fill="#424242"/>
<path d="M55.4941 20.3711V0.682771C55.4941 0.494965 55.5894 0.328027 55.7481 0.218474C55.9386 0.0776193 56.1556 0.0150174 56.3937 0.0306679C56.6318 0.0306679 56.8647 0.0932698 57.0552 0.218474C57.2139 0.328027 57.3251 0.500182 57.3251 0.682771V9.96872C58.0659 8.63321 59.5158 7.80895 61.0557 7.84025C62.4103 7.8246 63.7015 8.3828 64.6011 9.36357C65.5642 10.3391 66.0986 11.6433 66.0669 13.0101V16.0202C66.0669 17.387 65.5324 18.7069 64.5693 19.6824C63.5798 20.7362 62.4103 21.2684 61.1033 21.2684C60.2831 21.2684 59.4788 21.0493 58.775 20.6319C58.1294 20.2772 57.6108 19.745 57.2616 19.1086V20.3345C57.2616 20.538 57.1663 20.7206 57.0076 20.8301C56.8329 20.9867 56.616 21.0649 56.3937 21.0493C56.1556 21.0493 55.9386 20.971 55.764 20.8301C55.5894 20.7362 55.4941 20.5641 55.4941 20.3659V20.3711ZM57.3198 16.8758C57.3198 17.3714 57.6637 17.9452 58.3728 18.613C59.0025 19.2494 59.8703 19.6042 60.7646 19.6042C61.6589 19.6042 62.5109 19.2338 63.2041 18.5034C63.8656 17.8513 64.2413 16.9488 64.2413 16.0359V13.0414C64.2413 12.1233 63.8656 11.2573 63.2041 10.6208C62.5744 9.93742 61.6748 9.53572 60.7329 9.55137C59.8333 9.55137 58.9866 9.89047 58.3569 10.5165C57.6637 11.1529 57.3198 12.0085 57.3198 13.0466V16.881V16.8758Z" fill="#424242"/>
<path d="M69.6176 3.79165C69.3795 3.5882 69.2578 3.28041 69.2578 2.9674C69.2578 2.65439 69.3848 2.36225 69.6176 2.15879C69.8558 1.93968 70.1838 1.8197 70.5172 1.83535C70.8347 1.83535 71.1469 1.9449 71.3692 2.15879C71.5914 2.36225 71.729 2.65439 71.7131 2.9674C71.7131 3.28041 71.5861 3.57255 71.3692 3.79165C71.1469 4.02641 70.8347 4.1464 70.5172 4.13075C70.1891 4.1464 69.8716 4.0212 69.6176 3.79165ZM69.6176 20.3707V8.67982C69.6176 8.49201 69.7129 8.32508 69.8716 8.21552C70.0621 8.07467 70.2791 8.01207 70.5172 8.02772C70.7553 8.02772 70.9882 8.09032 71.1787 8.21552C71.3374 8.32508 71.4486 8.49723 71.4486 8.67982V20.3707C71.4327 20.5742 71.3374 20.7568 71.1628 20.8663C70.9723 21.0072 70.7553 21.1011 70.5172 21.0854C70.2791 21.0854 70.0621 21.0072 69.8875 20.8663C69.7288 20.7568 69.6335 20.569 69.6176 20.3707Z" fill="#424242"/>
<path d="M75.4902 17.0326V2.48807C75.4902 2.30027 75.6014 2.11768 75.776 2.02377C75.9506 1.89857 76.1676 1.82032 76.3898 1.83597C76.6279 1.83597 76.8449 1.89857 77.0354 2.02377C77.21 2.11768 77.3053 2.30548 77.3211 2.48807V8.01269H80.9407C81.1312 8.01269 81.3005 8.09094 81.3957 8.2318C81.6339 8.5448 81.6339 8.99345 81.3957 9.30124C81.2846 9.4421 81.11 9.536 80.9407 9.52035H77.3211V16.97C77.3211 17.8725 77.5117 18.4933 77.8874 18.848C78.2631 19.2028 78.9404 19.3749 79.9194 19.3749H80.7078C80.9301 19.3749 81.147 19.4532 81.3058 19.6253C81.4645 19.7818 81.5439 19.9957 81.5439 20.2148C81.5439 20.4339 81.4645 20.6478 81.3058 20.82C81.147 20.9921 80.9301 21.0861 80.7078 21.0861H79.9194C76.9613 21.0861 75.4955 19.7349 75.4955 17.0326H75.4902Z" fill="#424242"/>
<path d="M84.433 20.3711V0.651521C84.433 0.463715 84.5283 0.296777 84.687 0.187224C84.8775 0.0463693 85.0945 -0.0162326 85.3326 -0.000582117C85.5707 -0.0162326 85.8036 0.0620198 85.9941 0.187224C86.1528 0.296777 86.2639 0.468932 86.2639 0.651521V14.1109L93.1114 8.10115C93.2384 8.00724 93.3812 7.96029 93.5347 7.92899C93.7728 7.92899 93.9898 8.02289 94.1644 8.19505C94.3549 8.3359 94.466 8.56544 94.466 8.8002C94.4819 8.98801 94.4025 9.17059 94.2755 9.2958L90.148 12.8641L95.0005 19.8651C95.064 19.9903 95.1116 20.1155 95.1116 20.2511C95.0957 20.4859 94.9846 20.6998 94.7941 20.8563C94.6195 21.0441 94.3866 21.1536 94.1168 21.1693C93.8786 21.1693 93.6776 21.0441 93.5506 20.8458L88.841 14.017L86.2428 16.2655V20.3815C86.2428 20.585 86.1316 20.7676 85.9729 20.8771C85.7824 21.0337 85.5496 21.1119 85.3114 21.0963C85.0733 21.0963 84.8564 21.018 84.6817 20.8771C84.523 20.7519 84.4277 20.5641 84.4277 20.3659L84.433 20.3711Z" fill="#424242"/>
<path d="M97.6465 16.0831V8.69611C97.6624 8.50831 97.7576 8.34137 97.9164 8.23181C98.1069 8.07531 98.3397 7.99706 98.5778 8.01271C98.8001 8.01271 99.017 8.09096 99.1917 8.23181C99.3504 8.34137 99.4615 8.51352 99.4774 8.69611V16.0571C99.4774 16.9752 99.8531 17.8569 100.515 18.509C101.758 19.8601 103.869 19.954 105.224 18.7281C105.304 18.6655 105.383 18.5872 105.446 18.509C106.108 17.8569 106.484 16.97 106.484 16.0571V8.68046C106.484 8.49266 106.595 8.31007 106.769 8.21616C106.96 8.09096 107.177 8.01271 107.415 8.02836C107.637 8.02836 107.854 8.09096 108.045 8.21616C108.203 8.32572 108.314 8.49787 108.314 8.68046V16.0831C108.314 17.4656 107.78 18.6759 106.722 19.714C104.706 21.7643 101.398 21.8112 99.3187 19.8236C99.2869 19.7923 99.2393 19.761 99.2075 19.714C98.1704 18.6759 97.6465 17.4656 97.6465 16.0831Z" fill="#424242"/>
<path d="M112.264 20.3711V0.682771C112.264 0.494965 112.359 0.328027 112.518 0.218474C112.708 0.0776193 112.925 0.0150174 113.163 0.0306679C113.401 0.0306679 113.634 0.0932698 113.825 0.218474C113.983 0.328027 114.095 0.500182 114.095 0.682771V9.96872C114.835 8.63321 116.285 7.80895 117.825 7.84025C119.18 7.8246 120.471 8.3828 121.371 9.36357C122.334 10.3391 122.868 11.6433 122.836 13.0101V16.0202C122.836 17.387 122.302 18.7069 121.339 19.6824C120.349 20.7362 119.18 21.2684 117.873 21.2684C117.053 21.2684 116.248 21.0493 115.545 20.6319C114.899 20.2772 114.38 19.745 114.031 19.1086V20.3345C114.031 20.538 113.936 20.7206 113.777 20.8301C113.602 20.9867 113.386 21.0649 113.163 21.0493C112.925 21.0493 112.708 20.971 112.534 20.8301C112.359 20.7362 112.264 20.5641 112.264 20.3659V20.3711ZM114.073 16.8758C114.073 17.3714 114.417 17.9452 115.126 18.613C115.756 19.2494 116.64 19.6042 117.534 19.6042C118.428 19.6042 119.28 19.2338 119.974 18.5034C120.635 17.8357 120.995 16.9488 120.995 16.0359V13.0414C120.995 12.1233 120.619 11.2573 119.958 10.6208C119.328 9.93742 118.428 9.55137 117.487 9.55137C116.545 9.55137 115.74 9.89047 115.111 10.5165C114.417 11.1529 114.073 12.0085 114.073 13.0466V16.881V16.8758Z" fill="#424242"/>
<path d="M12.9909 13.0103L13.0227 12.979C14.2345 11.8 16.1712 11.8 17.383 12.9946L17.4147 13.0259C18.6107 14.2206 18.6107 16.1299 17.3989 17.3246L17.3671 17.3559C16.1553 18.5349 14.2186 18.5349 13.0068 17.3403L12.975 17.3089C11.7791 16.1143 11.7791 14.1893 12.9909 13.0103Z" fill="#02D767"/>
<path d="M15.3353 0.03125L12.028 3.26046L12.0438 3.27611L3.27554 11.9256L3.25967 11.91L0 15.1079L0.015875 15.1235L0 15.1392L3.22792 18.3371L15.2453 30.2888C15.2453 30.2888 18.0816 26.5953 15.2929 23.8304C13.5784 22.1401 9.45092 18.0397 6.50346 15.1235L15.3035 6.48968L19.7432 10.8822C23.5373 14.6384 26.2308 10.804 26.2308 10.804L15.3353 0.03125Z" fill="#02D767"/>
<path d="M47.8846 15.186L47.9322 15.139L32.7557 0.125C32.7557 0.125 29.967 3.70896 32.6129 6.33302L41.5875 15.2121L32.8139 23.8302L28.6864 19.7455C25.7443 16.8293 21.8496 19.4638 21.8496 19.4638L32.6658 30.1739L35.9572 26.9447L47.9111 15.2068L47.8793 15.1755L47.8846 15.186Z" fill="#02D767"/>
<path d="M30.5495 13.0415L30.5813 13.0102C31.7931 11.8312 33.7298 11.8312 34.9416 13.0259L34.9733 13.0572C36.1693 14.2518 36.1693 16.1612 34.9575 17.3558L34.9257 17.3872C33.7139 18.5662 31.7772 18.5662 30.5654 17.3715L30.5336 17.3402C29.3377 16.1455 29.3377 14.2205 30.5495 13.0415Z" fill="#02D767"/>
<path d="M125.566 8.44535C125.74 8.4297 125.894 8.47665 126.037 8.57055C126.148 8.66446 126.211 8.80531 126.195 8.94095C126.211 9.06615 126.164 9.20701 126.068 9.28004C125.973 9.35308 125.846 9.40524 125.74 9.40524L126.243 10.1826H125.941L125.455 9.42089H125.153V10.1982H124.867V8.44535H125.56H125.566ZM125.439 9.22266H125.613C125.661 9.22266 125.709 9.20701 125.772 9.19135C125.82 9.1757 125.851 9.1444 125.883 9.09745C125.915 9.0505 125.931 8.9879 125.915 8.9253C125.915 8.87835 125.899 8.83139 125.883 8.78444C125.867 8.75314 125.836 8.72184 125.788 8.70619C125.74 8.69054 125.709 8.67489 125.661 8.67489C125.613 8.67489 125.566 8.65924 125.518 8.65924H125.158V9.21744H125.444L125.439 9.22266Z" fill="#424242"/>
<path d="M125.47 7.82422C124.634 7.82422 123.941 8.49197 123.941 9.33188C123.909 10.1718 124.57 10.8552 125.422 10.8865C126.274 10.9178 126.967 10.2657 126.999 9.42578V9.33188C126.999 8.49197 126.306 7.82422 125.47 7.82422ZM126.761 9.33188C126.761 10.0466 126.179 10.6204 125.454 10.6204C124.729 10.6204 124.147 10.0466 124.147 9.33188C124.147 8.61718 124.729 8.04333 125.454 8.04333C126.179 8.04333 126.761 8.61718 126.761 9.33188Z" fill="#424242"/>
</g>
<defs>
<clipPath id="clip0_36308_16900">
<rect width="127" height="32" rx="4" fill="white"/>
</clipPath>
</defs>
</svg>
