<svg width="134" height="35" viewBox="0 0 134 35" fill="none" xmlns="http://www.w3.org/2000/svg">
<mask id="mask0_36308_17043" style="mask-type:luminance" maskUnits="userSpaceOnUse" x="0" y="0" width="134" height="35">
<path d="M134 0.0546875H0V34.9462H134V0.0546875Z" fill="white"/>
</mask>
<g mask="url(#mask0_36308_17043)">
<path fill-rule="evenodd" clip-rule="evenodd" d="M2.17605 31.7568H3.98773V32.9231H2.17605V31.7568ZM122.572 15.9601C122.101 15.6618 121.415 15.5099 120.514 15.5099C119.962 15.499 119.415 15.6184 118.906 15.8516C118.402 16.0849 117.957 16.4267 117.598 16.8606C116.821 17.7557 116.43 18.9817 116.43 20.5331V27.6286H113.712V13.7035H116.43V16.5731H116.499C116.848 15.6455 117.47 14.8426 118.279 14.2839C119.067 13.7414 119.994 13.4539 120.948 13.4594C121.495 13.4377 122.042 13.5028 122.572 13.6492V13.7035H125.043V10.3076L127.761 9.58614V13.7035H132.033V15.6075H127.761V23.4516C127.761 24.3847 127.954 25.0519 128.34 25.4479C128.726 25.8493 129.369 26.0446 130.264 26.0446C130.886 26.0609 131.502 25.9036 132.043 25.5835L132.038 27.4876C131.395 27.7805 130.553 27.9215 129.503 27.9215C126.528 27.9215 125.038 26.5599 125.043 23.8422V15.6021H122.572V15.9601ZM103.137 21.0431L107.232 20.582L107.243 21.9652C107.253 22.524 107.141 23.0773 106.916 23.5872C106.685 24.0971 106.348 24.5474 105.924 24.9054C105.045 25.6812 103.93 26.0663 102.585 26.0663C101.604 26.0663 100.816 25.8493 100.221 25.4208C99.9478 25.2418 99.7227 24.9922 99.5672 24.7047C99.4118 24.4118 99.3314 24.0863 99.3314 23.7554C99.3368 22.8223 99.6584 22.1714 100.296 21.8025C100.923 21.4445 101.872 21.1895 103.137 21.0431ZM107.227 27.6232H109.95V18.5694C109.95 15.1085 107.95 13.378 103.962 13.378C101.781 13.378 99.8567 13.812 98.1897 14.6799V16.9637C99.8192 15.8245 101.754 15.2278 103.732 15.2495C106.064 15.2495 107.232 16.4321 107.232 18.7972L102.14 19.3831C98.4041 19.8062 96.5335 21.3197 96.5335 23.9236C96.5174 24.4931 96.6407 25.0573 96.8926 25.5672C97.1445 26.0772 97.5144 26.5165 97.97 26.8475C98.9294 27.5798 100.253 27.9487 101.942 27.9487C104.236 27.9487 105.978 27.1187 107.168 25.4479H107.232V27.6232H107.227ZM93.4086 27.6232H90.8626V15.5913C90.8733 14.4249 90.9484 13.2586 91.077 12.1032H91.018C90.8572 12.6999 90.6375 13.2858 90.3641 13.8391L82.8923 27.6232H81.6488L74.1769 13.9422C73.8928 13.3563 73.6731 12.7379 73.5176 12.1032H73.4587C73.5605 13.2695 73.598 14.4466 73.582 15.6184V27.6232H71.0949V9.68921H74.4771L81.1932 22.1931C81.5898 22.882 81.9221 23.5981 82.2008 24.3467H82.292C82.7261 23.3648 83.0799 22.6271 83.3425 22.1443L90.1926 9.68921H93.3979L93.4086 27.6232ZM66.1691 27.9215C67.2196 27.9215 68.0665 27.7805 68.7044 27.4876L68.7097 25.5835C68.1684 25.9036 67.552 26.0609 66.9302 26.0446C66.0351 26.0446 65.3919 25.8439 65.006 25.4479C64.62 25.0465 64.4271 24.3847 64.4271 23.4516V15.6021H68.7044V13.698H64.4271V9.58072L61.7096 10.3022V13.698H58.7884V15.6021H61.7096V23.8422C61.7096 26.5599 63.1943 27.9215 66.1691 27.9215ZM38.9992 18.5423V25.5564H42.778C44.4128 25.5564 45.6832 25.2418 46.5836 24.6071C47.0124 24.325 47.3608 23.9398 47.5967 23.4787C47.8325 23.0231 47.9504 22.5077 47.9344 21.9924C47.9344 19.6923 46.0208 18.5423 42.1938 18.5423H38.9992ZM38.9992 10.1937V16.4863H41.8454C43.373 16.4863 44.5683 16.188 45.442 15.5858C45.86 15.3146 46.2031 14.9349 46.4282 14.4846C46.6587 14.0398 46.7712 13.5353 46.7498 13.0362C46.7498 11.143 45.2276 10.1937 42.1884 10.1937H38.9992ZM36.2174 27.6232V8.1269H42.9817C45.04 8.1269 46.6694 8.53918 47.8754 9.36373C49.0814 10.1883 49.6817 11.2624 49.6817 12.586C49.6978 13.6546 49.3065 14.6853 48.5883 15.4719C47.8593 16.291 46.8516 16.8715 45.5652 17.2132V17.2675C47.1679 17.4194 48.4489 17.9184 49.4137 18.7538C49.88 19.1553 50.2552 19.6543 50.5072 20.2185C50.7591 20.7827 50.877 21.4011 50.8609 22.0195C50.8609 23.6903 50.132 25.041 48.674 26.0717C47.2161 27.1024 45.3776 27.6178 43.1586 27.6232H36.2174ZM56.6819 27.6232H53.959V13.7035H56.6819V27.6232ZM55.358 10.1666C54.9077 10.1774 54.4682 10.0364 54.1144 9.75973C53.9536 9.64039 53.825 9.4885 53.7339 9.30406C53.6428 9.12504 53.5999 8.92433 53.5999 8.72362C53.5999 8.5229 53.6428 8.32219 53.7339 8.14318C53.825 7.96416 53.9536 7.80685 54.1144 7.6875C54.4682 7.40542 54.9077 7.25895 55.358 7.27523C55.8136 7.25895 56.2638 7.40542 56.6283 7.6875C56.7891 7.80142 56.9231 7.95874 57.0142 8.13775C57.1053 8.31677 57.1536 8.51748 57.1536 8.71819C57.1536 8.9189 57.1053 9.11962 57.0142 9.29863C56.9231 9.47765 56.7891 9.62954 56.6283 9.74888C56.2638 10.031 55.8136 10.1829 55.358 10.1666ZM24.8113 23.7337C24.8113 25.2797 24.0716 26.4406 22.9836 27.0265C21.8955 27.6069 20.3625 27.9432 17.7629 27.9432H1.95093V27.1784H17.6879C20.0892 27.1784 21.6972 26.7878 22.4904 26.3484C23.3641 25.8656 23.9537 24.6993 23.9537 23.7228C23.9537 22.1985 22.9407 21.3957 22.1742 20.94C21.7829 20.7067 20.4858 20.1154 17.0768 20.1154H11.0736V19.3506H17.2162C21.0647 19.3506 21.8848 19.7357 22.8174 20.3053C23.809 20.9183 24.8113 22.0032 24.8113 23.7337ZM17.8487 11.7072H12.3815V12.3473H17.8487V11.7072ZM6.69989 9.74346H18.0631V10.3836H6.69989V9.74346ZM10.6502 11.7072H3.78941V12.3473H10.6502V11.7072ZM5.87445 7.30778H8.87069V7.86109H5.87445V7.30778ZM11.2184 29.511H3.98237V30.3138H11.2184V29.511ZM3.98237 24.3955H11.674V25.0627H3.98237V24.3955ZM8.09349 22.0032H5.56357V22.6759H8.09349V22.0032ZM13.0783 24.4443H18.0524V25.0193H13.0783V24.4443ZM18.1006 22.0032H9.55141V22.6759H18.1006V22.0032ZM24.211 11.8103C24.2056 13.2966 23.7661 14.7504 22.9407 15.9818C22.8335 15.9222 22.7263 15.8625 22.6244 15.8028C23.6375 14.7233 24.2056 13.2912 24.211 11.8103ZM24.211 11.6529C24.211 11.7018 24.211 11.756 24.211 11.8048C24.211 11.756 24.211 11.7072 24.211 11.6529ZM24.0341 16.7304L23.9912 16.6979C24.94 15.3146 25.417 13.6329 25.417 11.6529C25.417 8.71277 24.42 6.4127 22.4261 4.74733C20.4322 3.08195 17.6932 2.24655 14.1985 2.25198H5.50461V3.48338H14.0431C17.0125 3.48338 19.6604 4.15062 21.338 5.53933C22.8978 6.8304 23.4713 7.93704 23.9323 9.60241C23.466 8.08893 22.3725 7.11249 21.6918 6.53747C20.5019 5.52306 19.0225 4.81785 14.9918 4.81785H8.28645V6.0167H14.8471C18.2828 6.0167 19.5478 6.44525 20.7056 7.3132C22.1849 8.42526 23.1015 9.74888 23.1015 11.6638C23.1015 13.3888 22.5012 14.311 21.4988 15.2658C21.3809 15.217 21.263 15.1736 21.1451 15.1302L21.2576 15.0705C22.3457 14.4629 23.0961 13.2966 23.0961 11.6584C23.0961 9.86822 22.0831 8.75074 21.0861 8.11605C20.1535 7.52476 19.2691 7.12876 15.4903 7.12876H10.6663V7.92076H15.3509C18.7652 7.92076 20.057 8.53375 20.4483 8.77786C21.2148 9.25523 22.2278 10.0798 22.2278 11.6638C22.2278 12.6728 21.6382 13.8879 20.7699 14.3816C20.4858 14.5389 20.191 14.6691 19.8801 14.7613C18.583 14.4629 17.2591 14.3219 15.9298 14.3327H10.1196V15.5696H15.7744C18.7438 15.5696 21.4292 16.188 23.0693 17.6255C24.3075 18.6942 25.208 20.1046 25.6582 21.6832C25.1972 20.1697 24.2432 19.2475 23.4231 18.6182C22.1796 17.6635 20.7538 16.8932 16.7231 16.8986H7.61109V18.0975H16.5784C20.0141 18.0975 21.2737 18.526 22.4315 19.394C23.9108 20.506 24.8167 21.8296 24.8167 23.7445C24.8167 25.5889 23.9001 26.9342 22.41 28.0463C20.8878 29.1801 18.5616 29.218 17.6182 29.218H12.6334V30.4169H16.3586C19.4781 30.4169 21.5578 30.1457 23.3588 28.7949C25.0472 27.5201 25.9476 25.8764 25.9476 23.75C25.9637 24.8891 25.7225 26.0175 25.2401 27.0482C24.7577 28.0789 24.0502 28.9848 23.1658 29.6954C21.4613 31.1221 18.4168 31.7514 15.367 31.7514H5.56893V32.9773H15.442C19.119 32.9773 21.992 32.1691 24.0502 30.5525C26.1138 28.936 27.1483 26.663 27.1483 23.7391C27.1429 20.7989 26.1406 18.4935 24.1467 16.8281C24.1145 16.7901 24.077 16.7576 24.0341 16.7304Z" fill="#1F2020"/>
</g>
</svg>
