<svg width="127" height="35" viewBox="0 0 127 35" fill="none" xmlns="http://www.w3.org/2000/svg">
<g clip-path="url(#clip0_36308_17100)">
<path d="M20.5064 25.4333C20.5064 24.9667 20.1569 24.7333 19.8073 24.7333C19.1083 24.7333 18.1761 24.85 17.4771 24.85C13.5156 24.85 10.2532 21.5833 10.2532 17.6167V1.63333V0.233333C10.2532 0.116667 10.1367 0 10.0202 0H0.116514L0 0.116667V17.5C0 27.1833 7.80642 35 17.4771 35C18.4092 35 19.3413 34.8833 20.2734 34.7667C20.3899 34.7667 20.5064 34.65 20.5064 34.5333V25.4333Z" fill="#252C36"/>
<path d="M17.4779 0C16.5458 0 15.4972 0.116667 14.5651 0.233333C14.4485 0.233333 14.332 0.35 14.332 0.466667V9.56667C14.332 10.0333 14.6816 10.3833 15.0311 10.2667C15.3807 10.2667 17.3614 10.15 17.3614 10.15C21.3229 10.15 24.5852 13.4167 24.5852 17.3833V33.1333C24.5852 33.25 24.7018 33.25 24.7018 33.25C30.7605 30.5667 34.955 24.5 34.955 17.5C34.955 7.81667 27.1485 0 17.4779 0Z" fill="#252C36"/>
<path d="M73.6375 7.23307V2.56641L68.0449 3.03307V7.34974H73.6375V7.23307ZM83.8907 5.71641L78.5311 6.18307V24.0331C78.5311 27.5331 80.1623 29.6331 84.2403 29.6331C85.988 29.6331 87.2696 29.2831 88.5513 28.8164V24.4997C87.3862 24.9664 86.4541 25.0831 85.4054 25.0831C84.4733 25.0831 84.0073 24.6164 84.0073 23.6831V14.8164H88.5513V10.3831H83.8907V5.71641ZM68.0449 29.2831H73.6375V10.3831H68.0449V29.2831ZM57.4421 25.1997C56.743 25.4331 55.4614 25.4331 54.4128 25.4331C52.6651 25.4331 51.1504 25.4331 50.2183 25.3164V19.8331H54.2962C57.2091 19.8331 58.4907 20.6497 58.4907 22.6331C58.3742 23.6831 58.0247 24.4997 57.4421 25.1997ZM50.1018 10.2664C51.0339 10.2664 52.199 10.1497 53.4807 10.1497C56.51 10.1497 57.7917 11.0831 57.7917 12.9497C57.7917 13.9997 57.3256 14.8164 56.3935 15.5164C55.5779 15.6331 54.6458 15.7497 53.5972 15.7497C52.3155 15.7497 51.0339 15.7497 50.1018 15.6331V10.2664ZM60.355 17.1497C62.1027 16.0997 63.6173 14.4664 63.6173 12.0164C63.6173 7.93307 60.4715 5.71641 53.8302 5.71641H44.3926V29.2831H55.3449C61.1706 29.2831 64.1999 27.0664 64.1999 22.6331C64.1999 19.7164 62.5687 18.0831 60.355 17.1497ZM100.203 18.0831C97.4063 17.6164 96.7073 17.2664 96.7073 16.4497C96.7073 15.9831 96.8238 15.6331 97.0568 15.3997C97.7559 15.1664 98.921 15.0497 99.9697 15.0497C102.183 15.0497 104.164 15.3997 105.795 15.8664V11.3164C104.514 10.6164 102.416 10.0331 99.5036 10.0331C94.61 10.0331 91.4641 12.3664 91.4641 16.3331C91.4641 20.1831 93.6779 21.3497 97.8724 22.0497C100.902 22.6331 101.601 22.9831 101.601 23.9164C101.601 24.3831 101.484 24.6164 101.368 24.8497C100.669 25.0831 99.5036 25.3164 97.9889 25.3164C95.8917 25.3164 93.4449 24.8497 92.0467 24.3831V28.6997C93.5614 29.2831 96.0082 29.6331 98.2219 29.6331C103.465 29.6331 106.844 27.9997 106.844 23.7997C106.844 20.1831 104.63 18.8997 100.203 18.0831ZM120.36 24.7331C119.66 25.1997 118.845 25.4331 117.796 25.4331C115.582 25.4331 114.301 23.5664 114.301 20.2997C114.301 18.4331 114.65 16.7997 115.349 15.9831C116.049 15.3997 116.864 15.1664 117.913 15.1664C120.243 15.1664 121.292 17.0331 121.292 19.8331C121.408 21.8164 121.059 23.5664 120.36 24.7331ZM118.262 10.0331C111.854 10.0331 108.941 14.3497 108.941 20.2997C108.941 26.1331 112.32 29.6331 117.68 29.6331C124.088 29.6331 126.884 25.3164 126.884 19.4831C126.884 13.6497 123.622 10.0331 118.262 10.0331Z" fill="#252C36"/>
</g>
<defs>
<clipPath id="clip0_36308_17100">
<rect width="127" height="35" rx="4" fill="white"/>
</clipPath>
</defs>
</svg>
