<svg width="128" height="30" viewBox="0 0 128 30" fill="none" xmlns="http://www.w3.org/2000/svg">
<g clip-path="url(#clip0_36308_16895)">
<path d="M0.863281 26.2705V29.1085H110.172V26.2705H0.863281ZM117.749 26.2705V29.1085H127.135V26.2705H117.749Z" fill="#159E49"/>
<path d="M24.1397 0.849609C23.4663 0.849609 22.877 1.05832 22.4561 1.47575C21.9931 1.93492 21.782 2.47758 21.782 3.14546C21.782 3.81334 21.9931 4.39774 22.4561 4.81517C22.9191 5.23259 23.4663 5.44131 24.1397 5.44131C24.8132 5.44131 25.4024 5.23259 25.8233 4.81517C26.2863 4.356 26.4966 3.81334 26.4966 3.14546C26.4966 2.43583 26.2442 1.89318 25.8233 1.47575C25.4024 1.05832 24.8552 0.849609 24.1397 0.849609ZM0.863281 1.93476V4.60645C2.50481 4.60645 3.80962 5.94206 3.80962 7.57002C3.80962 9.19799 2.50481 10.5336 0.863281 10.5336V12.955C2.50481 12.955 3.80962 14.2906 3.80962 15.9186V16.3776C3.80962 18.0055 2.50481 19.342 0.863281 19.342V22.0128H12.0173C12.9854 22.0128 13.8269 21.8876 14.6266 21.5954C15.4263 21.345 16.0999 20.9696 16.6892 20.4687C17.2785 19.9678 17.7419 19.3837 18.0366 18.7158C18.3733 18.0479 18.5413 17.2964 18.5413 16.4615C18.5413 15.251 18.247 14.249 17.6157 13.3724C16.9843 12.4958 16.1425 11.8697 15.0902 11.494C15.932 11.1183 16.5631 10.5757 17.0682 9.82429C17.5732 9.07292 17.8261 8.196 17.8261 7.19418C17.8261 6.40106 17.6571 5.6916 17.3625 5.06546C17.0679 4.39758 16.605 3.85492 16.0579 3.39575C15.5107 2.93658 14.8375 2.56106 14.0799 2.3106C13.3223 2.06015 12.4804 1.93476 11.5545 1.93476H0.863281ZM31.2951 3.10388V7.40289H28.6011V10.3249H31.2951V17.7138C31.2951 18.4235 31.3788 19.0494 31.6314 19.6338C31.8839 20.2182 32.2208 20.719 32.6417 21.1364C33.1047 21.5538 33.6095 21.8881 34.1987 22.0968C34.788 22.3055 35.4619 22.4303 36.1774 22.4303C37.2297 22.4303 38.3236 22.2635 39.46 21.9713L38.9552 19.0908C38.2818 19.2578 37.6503 19.342 37.1031 19.342C36.4718 19.342 36.0088 19.1331 35.63 18.7574C35.2512 18.3817 35.0833 17.881 35.0833 17.2548V10.2417H39.0819V7.31973H35.0833H35.0405V3.10388H31.2951ZM56.9276 3.10388V7.40289H54.2345V10.3249H56.9276V17.7138C56.9276 18.4235 57.0121 19.0494 57.2646 19.6338C57.5172 20.2182 57.812 20.719 58.275 21.1364C58.738 21.5538 59.2428 21.8881 59.832 22.0968C60.4213 22.3055 61.0952 22.4303 61.8108 22.4303C62.863 22.4303 63.9569 22.2635 65.0934 21.9713L64.5886 19.0908C63.9151 19.2578 63.2836 19.342 62.7364 19.342C62.1051 19.342 61.6421 19.1331 61.2633 18.7574C60.8844 18.3817 60.7158 17.881 60.7158 17.2548V10.2417H64.7144V7.31973H60.7158H60.6737V3.10388H56.9276ZM6.62939 4.81517H10.965C11.8489 4.81517 12.5642 5.06579 13.1534 5.60844C13.7427 6.10935 13.9952 6.81914 13.9952 7.654C13.9952 8.48885 13.7006 9.15625 13.1534 9.65716C12.5642 10.1581 11.8489 10.4089 10.965 10.4089H6.62939V4.81517ZM46.9944 6.9023C46.1947 6.9023 45.3948 7.02786 44.7214 7.23657C44.0479 7.44528 43.4589 7.7789 42.9539 8.15458C42.4909 8.57201 42.1124 9.03134 41.8177 9.574C41.5231 10.1167 41.3968 10.7423 41.3968 11.3684C41.3968 12.2868 41.5647 13.0386 41.9436 13.5396C42.3224 14.0822 42.7855 14.4995 43.3748 14.8334C43.964 15.1674 44.5535 15.4181 45.2269 15.5851C45.9004 15.7521 46.4898 15.9187 47.0791 16.0857C47.6683 16.2527 48.1307 16.4614 48.5095 16.7118C48.8883 16.9623 49.0989 17.2962 49.0989 17.7554C49.0989 18.2981 48.8885 18.7155 48.4676 19.0077C48.0467 19.2999 47.4575 19.4667 46.742 19.4667C45.353 19.4667 43.7958 19.1328 42.0701 18.4231L41.2702 21.1364C43.2906 21.9295 45.2264 22.3055 47.0363 22.3055C47.8782 22.3055 48.6785 22.18 49.394 21.9713C50.1517 21.7208 50.7403 21.4291 51.2454 21.0117C51.7505 20.5942 52.1296 20.0933 52.4242 19.5507C52.7189 18.9663 52.8451 18.3817 52.8451 17.7138C52.8451 16.7955 52.6346 16.044 52.2557 15.4596C51.8769 14.9169 51.4138 14.4581 50.8245 14.1241C50.2773 13.7902 49.6466 13.5394 48.9731 13.3724C48.2997 13.2472 47.7103 13.0804 47.121 12.9134C46.5317 12.7464 46.0686 12.5376 45.6897 12.3289C45.3109 12.1201 45.1003 11.786 45.1003 11.3269C45.1003 10.826 45.2688 10.4508 45.6897 10.1586C46.1106 9.86636 46.658 9.74113 47.3314 9.74113C47.9628 9.74113 48.6358 9.82446 49.3513 9.99143C50.0669 10.1584 50.783 10.3669 51.4986 10.6591L52.3404 7.90429C51.4144 7.57035 50.4884 7.31957 49.6045 7.1526C48.7206 6.98562 47.8362 6.9023 46.9944 6.9023ZM92.8731 6.9023C91.9051 6.9023 91.021 7.11102 90.1792 7.52844C89.3374 7.94587 88.6639 8.52994 88.0746 9.28131L87.6118 7.27815H84.5816H84.5395V21.9713H88.3696V13.6643C88.3696 12.579 88.6639 11.7445 89.2953 11.0766C89.9266 10.4087 90.7266 10.0746 91.7368 10.0746C92.5786 10.0746 93.2516 10.3669 93.7567 10.8679C94.2618 11.4105 94.5147 12.0786 94.5147 12.9134V21.9713H98.3447V13.6643C98.3447 12.579 98.6398 11.7445 99.2712 11.0766C99.9026 10.4087 100.702 10.0746 101.67 10.0746C102.512 10.0746 103.185 10.3669 103.733 10.8679C104.28 11.4105 104.533 12.0786 104.533 12.9134V21.9713H108.363V12.2873C108.363 11.4942 108.194 10.784 107.942 10.1162C107.689 9.44828 107.31 8.86405 106.805 8.40488C106.342 7.90396 105.753 7.52861 105.079 7.27815C104.406 7.02769 103.691 6.9023 102.891 6.9023C101.796 6.9023 100.828 7.11085 99.9445 7.57002C99.0606 8.02919 98.261 8.6974 97.5876 9.574C97.1667 8.73915 96.5351 8.07077 95.7354 7.6116C94.8936 7.15243 93.9675 6.9023 92.8731 6.9023ZM120.106 6.9023C119.138 6.9023 118.254 7.11118 117.454 7.48686C116.654 7.90429 116.023 8.44695 115.476 9.15657L115.013 7.27815H111.982V29.1515H115.771V20.26C116.276 20.9279 116.907 21.4286 117.665 21.7625C118.38 22.0965 119.222 22.2639 120.106 22.2639C121.074 22.2639 122 22.0551 122.799 21.6794C123.599 21.3037 124.315 20.7607 124.904 20.0928C125.493 19.425 125.956 18.5906 126.293 17.6722C126.63 16.7539 126.798 15.7102 126.798 14.5831C126.798 13.4561 126.63 12.4123 126.293 11.494C125.956 10.5339 125.493 9.74048 124.904 9.0726C124.315 8.40471 123.599 7.86255 122.799 7.48686C121.958 7.11118 121.074 6.9023 120.106 6.9023ZM74.2275 6.98546C72.2071 6.98546 70.1442 7.36131 68.0397 8.19616L69.0081 10.8679C70.7338 10.1582 72.3334 9.82429 73.8066 9.82429C74.7326 9.82429 75.4478 10.0744 75.9949 10.5336C76.5421 10.9928 76.7948 11.6191 76.7948 12.3704V13.1637C76.3318 13.0802 75.8266 12.9967 75.3636 12.955C74.9006 12.9133 74.4373 12.8718 73.9743 12.8718C71.8277 12.8718 70.1866 13.2893 69.0081 14.1241C67.8296 14.959 67.2398 16.1693 67.2398 17.7138C67.2398 18.3817 67.3661 19.0079 67.6607 19.5923C67.9133 20.1766 68.25 20.6358 68.713 21.0532C69.176 21.4707 69.7233 21.8041 70.3547 22.0128C70.986 22.2216 71.7016 22.3471 72.4592 22.3471C73.3852 22.3471 74.2275 22.1805 75.0693 21.8465C75.869 21.5126 76.6263 21.0117 77.2577 20.3855C77.5102 21.0117 77.8894 21.5126 78.4365 21.8465C78.9837 22.2222 79.6149 22.3887 80.3725 22.3887C80.7514 22.3887 81.0881 22.3888 81.4248 22.3471C81.7615 22.3054 82.0557 22.2217 82.3924 22.18L82.14 19.3835C82.098 19.3835 81.972 19.4251 81.8457 19.4251C81.6773 19.4669 81.5512 19.4667 81.3829 19.4667C81.0462 19.4667 80.7933 19.3835 80.6249 19.1748C80.4566 19.0079 80.3725 18.7571 80.3725 18.4231V12.4544C80.3725 11.6613 80.2043 10.9096 79.9097 10.2417C79.6151 9.57384 79.1942 8.9896 78.647 8.53043C78.0998 8.02952 77.4678 7.65335 76.7102 7.40289C75.9526 7.11069 75.1535 6.98546 74.2275 6.98546ZM22.161 7.36131V21.9713H26.0757V7.36131H22.161ZM119.138 9.94985C119.685 9.94985 120.19 10.0328 120.653 10.2833C121.116 10.5338 121.495 10.8263 121.832 11.2437C122.168 11.6194 122.463 12.1203 122.632 12.7047C122.842 13.2891 122.926 13.9152 122.926 14.5831C122.926 15.251 122.842 15.9189 122.632 16.4615C122.421 17.0042 122.168 17.5051 121.832 17.9225C121.495 18.34 121.116 18.6734 120.653 18.8821C120.19 19.0908 119.685 19.2164 119.138 19.2164C118.633 19.2164 118.169 19.1331 117.749 18.9661C117.328 18.7991 116.949 18.5484 116.654 18.2144C116.36 17.8805 116.107 17.5053 115.939 17.0461C115.771 16.6287 115.687 16.1278 115.687 15.5851V13.6227C115.687 12.5374 116.023 11.6613 116.654 10.9934C117.328 10.2838 118.128 9.94985 119.138 9.94985ZM6.62939 12.9966H11.344C12.3121 12.9966 13.1115 13.2888 13.7429 13.8314C14.3321 14.3741 14.6266 15.1259 14.6266 16.0025C14.6687 16.9209 14.3742 17.6718 13.7429 18.2144C13.1536 18.7988 12.3542 19.0493 11.344 19.0493H6.62939V12.9966ZM74.3952 15.0421C75.2791 15.0421 76.0793 15.1253 76.7948 15.334V16.2113C76.7948 17.2131 76.4997 18.0473 75.8684 18.6734C75.237 19.2996 74.4378 19.6338 73.4276 19.6338C72.7121 19.6338 72.1225 19.4251 71.6174 19.0077C71.1544 18.5903 70.9022 18.0895 70.9022 17.5051C70.9022 16.7537 71.2386 16.1273 71.8279 15.7099C72.4592 15.2507 73.3009 15.0421 74.3952 15.0421Z" fill="#333433"/>
</g>
<defs>
<clipPath id="clip0_36308_16895">
<rect width="128" height="30" fill="white"/>
</clipPath>
</defs>
</svg>
