<svg width="93" height="31" viewBox="0 0 93 31" fill="none" xmlns="http://www.w3.org/2000/svg">
<g clip-path="url(#clip0_36308_16839)">
<path d="M66.2812 23.9043V-0.00683594H71.0866V23.9043H66.2812Z" fill="#F6A500"/>
<path d="M10.299 31.0068H0.00195312V7.0957H9.88714C14.6924 7.0957 17.4864 9.71281 17.4864 13.8136C17.4864 16.4651 15.6878 18.1823 14.4453 18.7525C15.9281 19.4256 17.8296 20.9368 17.8296 24.1241C17.8296 28.5889 14.6856 31.0068 10.299 31.0068ZM9.50272 11.2583H4.80039V16.7673H9.50272C11.5415 16.7673 12.6811 15.6614 12.6811 14.0128C12.6811 12.3711 11.5415 11.2583 9.50272 11.2583ZM9.81163 20.9643H4.80039V26.8442H9.81163C11.9877 26.8442 13.0243 25.5047 13.0243 23.8905C13.0243 22.2763 11.9877 20.9712 9.81163 20.9712V20.9643Z" fill="#15182A"/>
<path d="M32.4865 21.1979V31.0068H27.7156V21.1979L20.3223 7.0957H25.5394L30.1319 16.733L34.6627 7.0957H39.8798L32.4865 21.1979Z" fill="#15182A"/>
<path d="M53.4982 31.0068H43.2012V7.0957H53.0864C57.8917 7.0957 60.6856 9.71281 60.6856 13.8136C60.6856 16.4651 58.887 18.1823 57.6445 18.7525C59.1273 19.4256 61.0288 20.9368 61.0288 24.1241C61.0288 28.5889 57.8848 31.0068 53.4982 31.0068ZM52.7019 11.2583H47.9996V16.7673H52.7019C54.7408 16.7673 55.8803 15.6614 55.8803 14.0128C55.8803 12.3711 54.7408 11.2583 52.7019 11.2583ZM53.0108 20.9643H47.9996V26.8442H53.0108C55.187 26.8442 56.2235 25.5047 56.2235 23.8905C56.2235 22.2763 55.187 20.9712 53.0108 20.9712V20.9643Z" fill="#15182A"/>
<path d="M86.5666 11.2583V31.0068H81.7682V11.2583H75.3359V7.0957H92.9988V11.2583H86.5666Z" fill="#15182A"/>
</g>
<defs>
<clipPath id="clip0_36308_16839">
<rect width="93" height="31" rx="4" fill="white"/>
</clipPath>
</defs>
</svg>
