<svg width="140" height="25" viewBox="0 0 140 25" fill="none" xmlns="http://www.w3.org/2000/svg">
<g clip-path="url(#clip0_36308_16849)">
<path d="M28.2557 6.97952C23.1698 6.97952 19.1959 10.839 19.1959 16.0056C19.1959 21.1723 23.0694 24.9987 28.2557 24.9987C33.442 24.9987 37.3828 21.1063 37.3828 15.9726C37.3828 10.872 33.5093 6.97952 28.2557 6.97952ZM28.29 21.2752C25.3938 21.2752 23.2715 19.0266 23.2715 16.0069C23.2715 12.9529 25.3595 10.7056 28.2557 10.7056C31.1862 10.7056 33.3073 12.9872 33.3073 16.0069C33.3073 19.0266 31.1862 21.2752 28.29 21.2752ZM38.4935 10.9063H41.0199V24.6646H45.0612V7.31491H38.4935V10.9063ZM9.02545 10.7043C11.1477 10.7043 12.8316 12.0128 13.4708 13.959H17.7484C16.9732 9.79852 13.5382 6.97952 9.05977 6.97952C3.97389 6.97952 0 10.839 0 16.0069C0 21.1749 3.8735 25 9.05977 25C13.4378 25 16.9402 22.181 17.7154 17.9862H13.4708C12.8646 19.9324 11.1808 21.2752 9.05849 21.2752C6.12795 21.2752 4.07429 19.0266 4.07429 16.0069C4.07556 12.9529 6.09618 10.7043 9.02545 10.7043ZM115.28 14.3287L112.316 13.893C110.902 13.6923 109.891 13.2222 109.891 12.1144C109.891 10.9063 111.205 10.3029 112.99 10.3029C114.943 10.3029 116.19 11.1413 116.459 12.5172H120.366C119.927 9.02739 117.233 6.98079 113.091 6.98079C108.814 6.98079 105.985 9.16205 105.985 12.2491C105.985 15.2015 107.838 16.914 111.575 17.4501L114.539 17.8858C115.988 18.0865 116.796 18.6582 116.796 19.7317C116.796 21.1075 115.381 21.6779 113.428 21.6779C111.036 21.6779 109.689 20.7048 109.487 19.2286H105.513C105.884 22.618 108.544 25 113.394 25C117.806 25 120.735 22.9864 120.735 19.5297C120.735 16.4427 118.614 14.8318 115.28 14.3287ZM43.0406 0.167691C41.5588 0.167691 40.4468 1.24117 40.4468 2.71736C40.4468 4.19356 41.5575 5.26704 43.0406 5.26704C44.5223 5.26704 45.6343 4.19356 45.6343 2.71736C45.6343 1.24117 44.5223 0.167691 43.0406 0.167691ZM102.348 13.2552C102.348 9.49743 100.058 6.98079 95.2082 6.98079C90.6282 6.98079 88.0687 9.29671 87.5629 12.8538H91.5711C91.7732 11.478 92.8508 10.3372 95.1409 10.3372C97.1958 10.3372 98.2061 11.243 98.2061 12.3507C98.2061 13.7939 96.3532 14.1623 94.0632 14.3973C90.9649 14.7327 87.1257 15.8062 87.1257 19.8333C87.1257 22.9547 89.4501 24.967 93.1546 24.967C96.0508 24.967 97.8694 23.7588 98.7793 21.8456C98.914 23.5568 100.194 24.6646 101.979 24.6646H104.337V21.0745H102.349V13.2552H102.348ZM98.3739 17.6178C98.3739 19.9337 96.3533 21.6449 93.8942 21.6449C92.3781 21.6449 91.0984 21.0072 91.0984 19.6656C91.0984 17.9544 93.1533 17.4844 95.0392 17.2837C96.8578 17.116 97.8681 16.7132 98.3739 15.9409V17.6178ZM76.921 6.97952C74.664 6.97952 72.778 7.91961 71.431 9.49616V0H67.3897V24.6646H71.3636V22.383C72.7107 24.0269 74.6309 25 76.921 25C81.7705 25 85.4419 21.1749 85.4419 16.0069C85.4419 10.839 81.7031 6.97952 76.921 6.97952ZM76.3148 21.2752C73.4185 21.2752 71.2962 19.0266 71.2962 16.0069C71.2962 12.9872 73.4516 10.7056 76.3478 10.7056C79.2784 10.7056 81.332 12.9542 81.332 16.0069C81.332 19.0266 79.211 21.2752 76.3148 21.2752ZM57.7238 6.97952C55.0969 6.97952 53.3788 8.053 52.3685 9.56349V7.31491H48.3603V24.6633H52.4015V15.2345C52.4015 12.5832 54.0854 10.7043 56.5775 10.7043C58.9018 10.7043 60.3493 12.3482 60.3493 14.7314V24.6646H64.3905V14.4304C64.3918 10.0666 62.1361 6.97952 57.7238 6.97952ZM140 15.4365C140 10.4706 136.363 6.98079 131.479 6.98079C126.293 6.98079 122.487 10.8733 122.487 16.0069C122.487 21.4099 126.562 25 131.546 25C135.757 25 139.057 22.5164 139.898 18.9936H135.688C135.082 20.5371 133.6 21.4099 131.613 21.4099C129.019 21.4099 127.065 19.799 126.628 16.98H139.999V15.4365H140ZM126.865 14.0937C127.505 11.6774 129.324 10.5036 131.412 10.5036C133.702 10.5036 135.453 11.8121 135.857 14.0937H126.865Z" fill="#0052FF"/>
</g>
<defs>
<clipPath id="clip0_36308_16849">
<rect width="140" height="25" rx="4" fill="white"/>
</clipPath>
</defs>
</svg>
