<svg width="148" height="28" viewBox="0 0 148 28" fill="none" xmlns="http://www.w3.org/2000/svg">
<g clip-path="url(#clip0_36308_17051)">
<path d="M15.1289 0.566474C15.1289 0.323699 15.2111 0.0809249 15.2933 0L28.4489 12.948C28.3667 13.0289 28.2844 13.1098 28.12 13.1098H23.3511C22.6111 13.0289 21.7067 12.6243 21.2133 12.1387L16.1156 7.12139C15.54 6.55491 15.1289 5.50289 15.1289 4.77457V0.566474ZM23.5978 14.9711C22.8578 14.9711 21.7067 15.3757 21.2133 15.9422L16.1156 20.9595C15.54 21.526 15.1289 22.578 15.1289 23.3064V26.4624V27.5145C15.1289 27.7572 15.2111 27.8382 15.2933 28L28.4489 15.052C28.3667 14.9711 28.12 14.9711 27.9556 14.9711H23.5978ZM4.76889 13.1098C5.50889 13.1098 6.66 12.7052 7.15333 12.1387L12.3333 7.12139C12.9089 6.55491 13.32 5.50289 13.32 4.77457V0.566474C13.32 0.323699 13.2378 0.0809249 13.1556 0L0 12.948C0.0822222 13.0289 0.328889 13.1098 0.575556 13.1098H4.76889ZM13.2378 23.3064C13.2378 22.578 12.8267 21.4451 12.2511 20.9595L7.15333 15.9422C6.57778 15.3757 5.50889 14.9711 4.76889 14.9711H0.493333C0.246667 14.9711 0.0822222 14.9711 0 15.052L13.1556 28C13.2378 27.9191 13.2378 27.7572 13.2378 27.5145V23.3064ZM19.8978 13.4335L14.8 8.41618C14.4711 8.09249 13.9778 8.09249 13.6489 8.41618L8.55111 13.4335C8.22222 13.7572 8.22222 14.2428 8.55111 14.5665L13.6489 19.5838C13.9778 19.9075 14.4711 19.9075 14.8 19.5838L19.8978 14.5665C20.2267 14.3237 20.2267 13.7572 19.8978 13.4335Z" fill="url(#paint0_linear_36308_17051)"/>
<path d="M37.0823 14.4047C37.0823 13.5955 37.2467 12.7862 37.4934 11.977C37.8223 11.1677 38.2334 10.4394 38.7267 9.792C39.3023 9.1446 39.9601 8.65906 40.7823 8.25443C41.6045 7.84981 42.5089 7.68796 43.4956 7.68796C44.7289 7.68796 45.7156 7.93073 46.6201 8.49721C47.4423 9.06368 48.1001 9.71108 48.5112 10.6013L47.6889 11.0868C47.4423 10.6013 47.1956 10.1966 46.8667 9.95385C46.5378 9.63015 46.2089 9.38738 45.7978 9.22553C45.3867 9.06368 45.0578 8.90183 44.6467 8.8209C44.2356 8.73998 43.8245 8.65906 43.4134 8.65906C42.5089 8.65906 41.7689 8.82091 41.1112 9.1446C40.4534 9.4683 39.8778 9.95385 39.3845 10.5203C38.8912 11.0868 38.5623 11.7342 38.3156 12.3816C38.0689 13.1099 37.9867 13.7573 37.9867 14.4856C37.9867 15.2949 38.1512 16.0232 38.3978 16.7515C38.6445 17.4799 39.0556 18.1273 39.5489 18.6128C40.0423 19.1793 40.6178 19.5839 41.2756 19.9076C41.9334 20.2313 42.6734 20.3932 43.4134 20.3932C43.8245 20.3932 44.2356 20.3122 44.6467 20.2313C45.0578 20.1504 45.4689 19.9885 45.8801 19.7458C46.2912 19.503 46.6201 19.2602 47.0312 18.9365C47.3601 18.6128 47.6889 18.2082 47.9356 17.7226L48.7578 18.1273C48.5112 18.6128 48.1823 19.0984 47.8534 19.503C47.4423 19.9076 47.0312 20.2313 46.5378 20.4741C46.0445 20.7169 45.5512 20.9596 44.9756 21.0406C44.4001 21.2024 43.9067 21.2024 43.4134 21.2024C42.5089 21.2024 41.6045 21.0406 40.8645 20.6359C40.1245 20.2313 39.3845 19.7458 38.8912 19.0984C38.3156 18.451 37.9045 17.7226 37.5756 16.9134C37.2467 16.1041 37.0823 15.214 37.0823 14.4047ZM57.5556 21.3643C56.8156 21.3643 56.2401 21.2024 55.5823 20.9596C55.0067 20.7169 54.4312 20.3122 54.0201 19.8267C53.6089 19.3411 53.2801 18.8556 53.0334 18.2082C52.7867 17.6417 52.6223 16.9943 52.6223 16.266C52.6223 15.5377 52.7867 14.8903 53.0334 14.3238C53.2801 13.6764 53.6089 13.1908 54.0201 12.7053C54.4312 12.2197 55.0067 11.896 55.5823 11.5724C56.1578 11.3296 56.8156 11.1677 57.4734 11.1677C58.1312 11.1677 58.7889 11.3296 59.3645 11.5724C59.9401 11.8151 60.4334 12.2197 60.9267 12.7053C61.3378 13.1908 61.7489 13.6764 61.9956 14.3238C62.2423 14.9712 62.4067 15.6186 62.4067 16.266C62.4067 16.9134 62.2423 17.5608 61.9956 18.2082C61.7489 18.8556 61.4201 19.3411 61.0089 19.8267C60.5978 20.3122 60.0223 20.6359 59.4467 20.9596C58.8712 21.2833 58.2134 21.3643 57.5556 21.3643ZM53.6089 16.3469C53.6089 16.9134 53.6912 17.4799 53.9378 17.9654C54.1023 18.451 54.4312 18.9365 54.7601 19.2602C55.0889 19.6648 55.5001 19.9076 55.9934 20.1504C56.4867 20.3932 56.9801 20.4741 57.4734 20.4741C58.0489 20.4741 58.5423 20.3932 58.9534 20.1504C59.4467 19.9076 59.8578 19.5839 60.1867 19.2602C60.5156 18.8556 60.8445 18.451 61.0089 17.8845C61.1734 17.3989 61.3378 16.8325 61.3378 16.266C61.3378 15.6995 61.2556 15.133 61.0089 14.6475C60.8445 14.1619 60.5156 13.6764 60.1867 13.2718C59.8578 12.8671 59.4467 12.5434 58.9534 12.3816C58.4601 12.1388 57.9667 12.0579 57.4734 12.0579C56.8978 12.0579 56.4045 12.1388 55.9934 12.3816C55.5001 12.6244 55.0889 12.9481 54.7601 13.2718C54.4312 13.6764 54.1023 14.081 53.9378 14.6475C53.6912 15.214 53.6089 15.7804 53.6089 16.3469ZM67.0934 9.1446V7.36426H68.0801V9.06368H67.0934V9.1446ZM67.0934 21.2024V11.4105H68.0801V21.2024H67.0934ZM81.6467 21.2024H80.6601V15.6995C80.6601 14.4047 80.4956 13.5145 80.0845 12.9481C79.7556 12.3816 79.1801 12.0579 78.3578 12.0579C77.9467 12.0579 77.5356 12.1388 77.1245 12.3007C76.7134 12.4625 76.3023 12.7053 75.9734 12.9481C75.6445 13.1908 75.3156 13.5145 75.0689 13.9192C74.8223 14.3238 74.5756 14.7284 74.4934 15.133V21.2024H73.5067V11.4105H74.4112V13.7573C74.5756 13.3527 74.9045 13.029 75.1512 12.7053C75.4801 12.3816 75.8089 12.1388 76.1378 11.896C76.5489 11.6533 76.8778 11.4914 77.3712 11.4105C77.7823 11.3296 78.1934 11.2487 78.6867 11.2487C79.7556 11.2487 80.5778 11.6533 80.9889 12.3816C81.4001 13.1099 81.6467 14.2429 81.6467 15.6186V21.2024ZM86.2512 16.266C86.2512 15.5377 86.3334 14.8903 86.5801 14.3238C86.8267 13.6764 87.1556 13.1908 87.5667 12.7053C87.9778 12.2197 88.5534 11.896 89.1289 11.6533C89.7045 11.4105 90.3623 11.2487 91.1023 11.2487C92.0067 11.2487 92.8289 11.4105 93.4867 11.8151C94.1445 12.2197 94.7201 12.7862 95.0489 13.5145L94.1445 13.8382C93.8156 13.2718 93.4045 12.8671 92.9112 12.5434C92.3356 12.2197 91.7601 12.0579 91.1023 12.0579C90.5267 12.0579 90.0334 12.1388 89.5401 12.3816C89.0467 12.6244 88.6356 12.8671 88.3067 13.2718C87.9778 13.6764 87.6489 14.081 87.4845 14.5666C87.3201 15.0521 87.1556 15.6186 87.1556 16.1851C87.1556 16.7515 87.2378 17.318 87.4845 17.8845C87.7312 18.37 87.9778 18.8556 88.3067 19.2602C88.6356 19.6648 89.0467 19.9885 89.5401 20.1504C90.0334 20.3932 90.5267 20.4741 91.1023 20.4741C91.4312 20.4741 91.7601 20.3932 92.0889 20.3122C92.4178 20.2313 92.7467 20.0695 92.9934 19.9076C93.3223 19.7458 93.5689 19.5839 93.7334 19.3411C93.9801 19.0984 94.0623 18.8556 94.1445 18.6128L95.0489 18.8556C94.8845 19.1793 94.7201 19.503 94.4734 19.8267C94.2267 20.1504 93.8978 20.3932 93.5689 20.555C93.2401 20.7978 92.8289 20.9596 92.4178 21.0406C92.0067 21.1215 91.5134 21.2024 91.1023 21.2024C90.3623 21.2024 89.7045 21.0406 89.1289 20.7978C88.5534 20.555 87.9778 20.1504 87.5667 19.6648C87.1556 19.1793 86.7445 18.6128 86.4978 18.0463C86.4156 17.6417 86.2512 16.9943 86.2512 16.266ZM107.958 21.2024H106.971V15.6995C106.971 13.2718 106.149 12.0579 104.505 12.0579C104.093 12.0579 103.682 12.1388 103.271 12.3007C102.86 12.4625 102.531 12.7053 102.202 12.9481C101.873 13.1908 101.544 13.5145 101.298 13.9192C101.051 14.3238 100.887 14.7284 100.722 15.133V21.2024H99.7356V7.44518H100.722V13.7573C101.133 13.029 101.709 12.3816 102.449 11.896C103.189 11.4105 103.929 11.2487 104.751 11.2487C105.327 11.2487 105.738 11.3296 106.149 11.5724C106.56 11.7342 106.889 12.0579 107.136 12.4625C107.382 12.8671 107.629 13.2718 107.711 13.8382C107.793 14.4047 107.876 14.9712 107.876 15.6186V21.2024H107.958ZM117.496 21.3643C116.756 21.3643 116.098 21.2024 115.522 20.9596C114.947 20.7169 114.371 20.3122 113.96 19.8267C113.549 19.3411 113.138 18.7747 112.891 18.2082C112.645 17.5608 112.48 16.9134 112.48 16.1851C112.48 15.4567 112.645 14.8093 112.891 14.2429C113.138 13.5955 113.467 13.1099 113.878 12.6244C114.289 12.1388 114.864 11.8151 115.44 11.5724C116.016 11.3296 116.673 11.1677 117.331 11.1677C118.071 11.1677 118.729 11.3296 119.305 11.5724C119.88 11.8151 120.456 12.2197 120.867 12.7053C121.278 13.1908 121.607 13.6764 121.853 14.3238C122.1 14.9712 122.182 15.6186 122.182 16.266C122.182 16.3469 122.182 16.4278 122.182 16.5088C122.182 16.5897 122.182 16.6706 122.182 16.6706H113.467C113.467 17.2371 113.631 17.8036 113.878 18.2082C114.124 18.6937 114.371 19.0984 114.782 19.503C115.111 19.8267 115.522 20.1504 116.016 20.3122C116.509 20.4741 117.002 20.6359 117.496 20.6359C117.824 20.6359 118.153 20.555 118.482 20.4741C118.811 20.3932 119.14 20.2313 119.387 20.0695C119.716 19.9076 119.962 19.7458 120.127 19.503C120.373 19.2602 120.538 19.0174 120.62 18.7747L121.442 19.0174C121.278 19.3411 121.113 19.6648 120.784 19.9885C120.538 20.3122 120.209 20.555 119.798 20.7169C119.469 20.9596 119.058 21.1215 118.564 21.2024C118.4 21.3643 117.989 21.3643 117.496 21.3643ZM121.442 15.9423C121.442 15.3758 121.278 14.8093 121.031 14.3238C120.785 13.8382 120.538 13.4336 120.127 13.1099C119.798 12.7862 119.387 12.4625 118.893 12.3007C118.4 12.1388 117.907 11.977 117.413 11.977C116.92 11.977 116.427 12.0579 115.933 12.3007C115.44 12.4625 115.029 12.7862 114.7 13.1099C114.371 13.4336 114.042 13.8382 113.878 14.3238C113.631 14.8093 113.549 15.2949 113.467 15.8614H121.442V15.9423ZM126.211 16.266C126.211 15.5377 126.293 14.8903 126.54 14.3238C126.787 13.6764 127.116 13.1908 127.527 12.7053C127.938 12.2197 128.513 11.896 129.089 11.6533C129.664 11.4105 130.322 11.2487 131.062 11.2487C131.967 11.2487 132.789 11.4105 133.447 11.8151C134.104 12.2197 134.68 12.7862 135.009 13.5145L134.105 13.8382C133.776 13.2718 133.365 12.8671 132.871 12.5434C132.296 12.2197 131.72 12.0579 131.062 12.0579C130.487 12.0579 129.993 12.1388 129.5 12.3816C129.007 12.6244 128.596 12.8671 128.267 13.2718C127.938 13.6764 127.609 14.081 127.445 14.5666C127.28 15.0521 127.116 15.6186 127.116 16.1851C127.116 16.7515 127.198 17.318 127.445 17.8845C127.691 18.37 127.938 18.8556 128.267 19.2602C128.596 19.6648 129.007 19.9885 129.5 20.1504C129.993 20.3932 130.487 20.4741 131.062 20.4741C131.391 20.4741 131.72 20.3932 132.049 20.3122C132.378 20.2313 132.707 20.0695 132.953 19.9076C133.282 19.7458 133.529 19.5839 133.693 19.3411C133.94 19.0984 134.022 18.8556 134.105 18.6128L135.009 18.8556C134.844 19.1793 134.68 19.503 134.433 19.8267C134.187 20.1504 133.858 20.3932 133.529 20.555C133.2 20.7978 132.789 20.9596 132.378 21.0406C131.967 21.1215 131.473 21.2024 131.062 21.2024C130.322 21.2024 129.664 21.0406 129.089 20.7978C128.513 20.555 127.938 20.1504 127.527 19.6648C127.116 19.1793 126.705 18.6128 126.458 18.0463C126.293 17.6417 126.211 16.9943 126.211 16.266ZM146.931 21.2024L143.067 15.9423L140.682 18.0463V21.2024H139.696V7.44518H140.682V17.0752L146.767 11.4105H147.918L143.725 15.3758L148 21.2024H146.931Z" fill="#003C3C"/>
</g>
<defs>
<linearGradient id="paint0_linear_36308_17051" x1="23.1033" y1="6.64781" x2="5.62058" y2="21.5527" gradientUnits="userSpaceOnUse">
<stop stop-color="#50FEBE"/>
<stop offset="1" stop-color="#0ADCDC"/>
</linearGradient>
<clipPath id="clip0_36308_17051">
<rect width="148" height="28" rx="4" fill="white"/>
</clipPath>
</defs>
</svg>
