<svg width="131" height="30" viewBox="0 0 131 30" fill="none" xmlns="http://www.w3.org/2000/svg">
<g clip-path="url(#clip0_36308_16956)">
<path d="M79.5832 5.19336H76.1255V8.91424H74.0554V12.1789H76.1255V20.7208C76.1029 21.4682 76.2128 22.2156 76.4489 22.9274C76.6463 23.458 76.9697 23.9304 77.3902 24.3057C77.7945 24.6746 78.2829 24.9464 78.8102 25.0985C80.0102 25.3897 81.2587 25.3897 82.4588 25.0985C82.9343 24.9723 83.3936 24.7911 83.827 24.5549V21.9276C83.1801 22.1994 82.4846 22.3482 81.7827 22.3612C81.1941 22.4291 80.6086 22.2285 80.1816 21.8176C79.7838 21.4423 79.5735 20.9505 79.5735 20.1222V12.1789H83.827V8.91424H79.5832V5.19336ZM68.7054 10.0726C64.9436 7.31911 59.6615 8.13447 56.9057 11.8974C54.1498 15.6604 54.9682 20.944 58.73 23.7007C61.6993 25.875 65.7328 25.875 68.7022 23.7007V24.8687H72.1599V8.9013H68.7022V10.0726H68.7054ZM63.7177 21.8597C60.9618 21.8597 58.73 19.6271 58.73 16.8705C58.73 14.1138 60.9618 11.8812 63.7177 11.8812C66.4735 11.8812 68.7054 14.1138 68.7054 16.8705C68.7054 19.6271 66.4735 21.8597 63.7209 21.8597H63.7177ZM44.7696 13.7708V17.6211H49.974C49.3077 20.4393 46.7556 22.4065 43.8607 22.3321C40.1959 22.3256 37.233 19.3489 37.2395 15.683C37.246 12.0171 40.2218 9.05337 43.8865 9.05984C45.7982 9.06308 47.6128 9.89138 48.871 11.3312L51.8501 8.89806C48.1044 4.48154 41.493 3.9412 37.0778 7.68473C32.6626 11.4283 32.1224 18.045 35.8648 22.4615C37.8573 24.8105 40.7781 26.1629 43.8542 26.1629C46.5809 26.2115 49.2139 25.147 51.1385 23.2154C52.7525 21.5458 53.752 19.378 53.9816 17.0678C54.0754 15.9645 54.0916 14.8579 54.0302 13.7546L44.7664 13.7708H44.7696ZM122.554 8.43861C117.89 8.43861 114.109 12.221 114.109 16.8866C114.109 21.5523 117.89 25.3346 122.554 25.3346C127.219 25.3346 131 21.5523 131 16.8866C131.006 12.221 127.232 8.43214 122.567 8.42567C122.564 8.42567 122.558 8.42567 122.554 8.42567V8.43861ZM122.554 21.8726C119.799 21.8726 117.567 19.6401 117.567 16.8834C117.567 14.1267 119.799 11.8942 122.554 11.8942C125.31 11.8942 127.542 14.1267 127.542 16.8834C127.536 19.6368 125.304 21.8629 122.554 21.8597V21.8726ZM108.452 24.8817H112.172V10.5514H108.452V24.8817ZM102.769 24.8817H106.488V21.1478H102.769V24.8817ZM93.3431 8.43861C88.6788 8.43538 84.8944 12.2113 84.8879 16.8769C84.8847 21.5426 88.6594 25.3282 93.3237 25.3346C96.4224 25.3346 99.2753 23.6425 100.753 20.9181L97.6321 19.4007C96.2348 21.7755 93.1781 22.565 90.804 21.1673C89.6751 20.5007 88.8503 19.4168 88.5139 18.1485H101.698C102.403 13.5346 99.2365 9.22162 94.624 8.51627C94.2035 8.45156 93.7765 8.4192 93.3496 8.4192L93.3399 8.43861H93.3431ZM88.6756 15.1265C89.6427 12.5478 92.5183 11.2438 95.0962 12.2145C96.4418 12.7192 97.5027 13.7837 98.0073 15.1265H88.6756ZM108.452 8.92718H112.172V5.2063H108.452V8.92718Z" fill="black"/>
<path d="M14.9955 23.2506C10.4412 23.2506 6.74731 19.5557 6.74731 15C6.74731 10.4443 10.4412 6.74935 14.9955 6.74935V0C6.71496 0 0 6.717 0 15C0 23.283 6.71496 30 14.9955 30C23.276 30 29.9909 23.283 29.9909 15H23.2436C23.2436 19.5557 19.5497 23.2506 14.9955 23.2506Z" fill="#2354E6"/>
<path d="M23.2442 6.75H14.9961V15.0006H23.2442V6.75Z" fill="#17E6A1"/>
</g>
<defs>
<clipPath id="clip0_36308_16956">
<rect width="131" height="30" rx="4" fill="white"/>
</clipPath>
</defs>
</svg>
