<svg width="135" height="23" viewBox="0 0 135 23" fill="none" xmlns="http://www.w3.org/2000/svg">
<g clip-path="url(#clip0_36308_16853)">
<path d="M30.0487 1.34766H33.2779V9.88281L41.8892 1.34766H46.1949L38.4806 8.80469L46.5537 21.3828H42.248L35.9689 11.2305L33.1882 13.9258V21.4727H29.959L30.0487 1.34766Z" fill="#5841D8"/>
<path d="M48.3477 1.34766H51.5769V4.85156C51.846 4.22266 52.4739 3.32422 53.4606 2.42578C54.4473 1.4375 55.6134 0.988281 56.959 0.988281C57.0487 0.988281 57.1384 0.988281 57.3178 0.988281C57.4972 0.988281 57.7663 0.988281 58.1251 1.07813V4.67187C57.9457 4.67187 57.7663 4.58203 57.5869 4.58203C57.4075 4.58203 57.2281 4.58203 57.0486 4.58203C55.3443 4.58203 54.0885 5.12109 53.1915 6.19922C52.2945 7.27734 51.846 8.53516 51.846 9.97266V21.4727H48.4374L48.3477 1.34766Z" fill="#5841D8"/>
<path d="M70.5947 9.25391C71.402 9.16406 71.8505 8.80469 72.1196 8.26562C72.299 7.99609 72.299 7.54688 72.299 7.00781C72.299 5.83984 71.8505 5.03125 71.0432 4.49219C70.2359 3.95312 69.0698 3.68359 67.5449 3.68359C65.7509 3.68359 64.5848 4.13281 63.7774 5.12109C63.3289 5.66016 63.0598 6.46875 62.9701 7.45703H59.8306C59.9203 4.94141 60.7276 3.23438 62.2525 2.33594C63.8672 1.34766 65.5715 0.898438 67.6346 0.898438C69.9668 0.898438 71.8505 1.34766 73.3755 2.24609C74.8107 3.14453 75.5283 4.58203 75.5283 6.46875V17.9688C75.5283 18.3281 75.618 18.5977 75.7077 18.7773C75.8871 18.957 76.1562 19.1367 76.6047 19.1367C76.7841 19.1367 76.9635 19.1367 77.1429 19.1367C77.3223 19.1367 77.5017 19.0469 77.7708 19.0469V21.5625C77.2326 21.7422 76.8738 21.832 76.6047 21.832C76.3356 21.832 75.9768 21.9219 75.5283 21.9219C74.3622 21.9219 73.5549 21.4727 73.0167 20.6641C72.7476 20.2148 72.5682 19.5859 72.4784 18.7773C71.7608 19.6758 70.7741 20.4844 69.5183 21.1133C68.2625 21.7422 66.8273 22.1016 65.3024 22.1016C63.4186 22.1016 61.8937 21.5625 60.7276 20.3945C59.5615 19.2266 58.9336 17.8789 58.9336 16.1719C58.9336 14.2852 59.4718 12.8477 60.6379 11.8594C61.804 10.8711 63.3289 10.2422 65.2127 9.97266L70.5947 9.25391ZM63.5083 18.3281C64.226 18.8672 65.0333 19.1367 66.02 19.1367C67.1861 19.1367 68.3522 18.8672 69.4286 18.3281C71.3123 17.4297 72.2093 15.9023 72.2093 13.8359V11.1406C71.7608 11.4102 71.3123 11.5898 70.5947 11.7695C69.8771 11.9492 69.3389 12.0391 68.711 12.1289L66.7376 12.5781C65.4818 12.7578 64.5848 13.0273 63.9569 13.3867C62.8804 14.0156 62.4319 14.9141 62.4319 16.1719C62.4319 17.0703 62.7907 17.7891 63.5083 18.3281Z" fill="#5841D8"/>
<path d="M80.0135 1.34766H83.2428V9.88281L91.8541 1.34766H96.1597L88.4454 8.80469L96.5185 21.3828H92.2129L85.9338 11.2305L83.1531 13.9258V21.4727H79.9238L80.0135 1.34766Z" fill="#5841D8"/>
<path d="M110.242 1.97645C111.588 2.60536 112.574 3.5038 113.292 4.58192C113.92 5.5702 114.369 6.73817 114.638 8.08583C114.817 8.98427 114.907 10.5116 114.907 12.4882H100.375C100.465 14.5546 100.913 16.1718 101.81 17.4296C102.707 18.6874 104.053 19.3163 105.937 19.3163C107.641 19.3163 109.076 18.7772 110.063 17.6093C110.601 16.8905 111.05 16.1718 111.319 15.2733H114.638C114.548 15.9921 114.279 16.8007 113.741 17.6991C113.292 18.5975 112.664 19.3163 112.126 19.9452C111.139 20.9335 109.883 21.6522 108.359 21.9218C107.551 22.1015 106.654 22.1913 105.668 22.1913C103.156 22.1913 101.093 21.2929 99.3884 19.496C97.6841 17.6991 96.7871 15.1835 96.7871 11.9491C96.7871 8.71474 97.6841 6.10927 99.3884 4.1327C101.093 2.15614 103.425 1.07802 106.206 1.07802C107.551 0.89833 108.897 1.2577 110.242 1.97645ZM111.498 9.79286C111.319 8.35536 111.05 7.18739 110.511 6.28895C109.614 4.67177 108.089 3.86317 105.937 3.86317C104.412 3.86317 103.156 4.40224 102.079 5.5702C101.003 6.64833 100.465 8.08583 100.465 9.79286H111.498Z" fill="#5841D8"/>
<path d="M117.867 1.34766H121.096V4.22266C122.083 3.05469 123.07 2.24609 124.146 1.70703C125.223 1.16797 126.389 0.898438 127.645 0.898438C130.515 0.898438 132.399 1.88672 133.385 3.86328C133.924 4.94141 134.193 6.46875 134.193 8.53516V21.3828H130.784V8.80469C130.784 7.54688 130.605 6.55859 130.246 5.83984C129.618 4.58203 128.542 3.95312 127.017 3.95312C126.209 3.95312 125.581 4.04297 125.043 4.22266C124.146 4.49219 123.339 5.03125 122.621 5.83984C122.083 6.46875 121.724 7.1875 121.545 7.90625C121.366 8.625 121.276 9.61328 121.276 10.9609V21.4727H117.957L117.867 1.34766Z" fill="#5841D8"/>
<path d="M13.634 1.34766C6.63735 1.34766 0.896484 7.00781 0.896484 14.1055V19.5859C0.896484 20.5742 1.70379 21.3828 2.6905 21.3828C3.67722 21.3828 4.48452 20.5742 4.48452 19.5859V14.1055C4.48452 13.1172 5.29183 12.3086 6.27854 12.3086C7.26525 12.3086 8.07256 13.1172 8.07256 14.1055V19.5859C8.07256 20.5742 8.87987 21.3828 9.86658 21.3828C10.8533 21.3828 11.6606 20.5742 11.6606 19.5859V14.1055C11.6606 13.1172 12.4679 12.3086 13.4546 12.3086C14.4413 12.3086 15.2486 13.1172 15.2486 14.1055V19.5859C15.2486 20.5742 16.056 21.3828 17.0427 21.3828C18.0294 21.3828 18.8367 20.5742 18.8367 19.5859V14.1055C18.8367 13.1172 19.644 12.3086 20.6307 12.3086C21.6174 12.3086 22.4247 13.1172 22.4247 14.1055V19.5859C22.4247 20.5742 23.232 21.3828 24.2187 21.3828C25.2055 21.3828 26.0128 20.5742 26.0128 19.5859V14.1055C26.4613 7.00781 20.7204 1.34766 13.634 1.34766Z" fill="#5841D8"/>
</g>
<defs>
<clipPath id="clip0_36308_16853">
<rect width="135" height="23" rx="4" fill="white"/>
</clipPath>
</defs>
</svg>
