<svg width="124" height="27" viewBox="0 0 124 27" fill="none" xmlns="http://www.w3.org/2000/svg">
<g clip-path="url(#clip0_36308_17011)">
<path fill-rule="evenodd" clip-rule="evenodd" d="M2.59217 26.7301C1.68471 26.7301 1.23098 26.7301 0.884347 26.554C0.579983 26.3982 0.331982 26.1507 0.176418 25.8458C0 25.4993 0 25.0454 0 24.1381V0.269531H4.15682C5.06428 0.269531 5.51801 0.269531 5.86464 0.446156C6.16901 0.601406 6.41701 0.849469 6.57257 1.15434C6.74899 1.50084 6.74899 1.95422 6.74899 2.86153V19.2241C6.74899 19.678 6.74899 19.9047 6.83748 20.078C6.9147 20.2304 7.0387 20.3542 7.19145 20.4318C7.36448 20.5201 7.59163 20.5201 8.04479 20.5201H17.7298C18.6372 20.5201 19.091 20.5201 19.4376 20.6967C19.742 20.852 19.99 21.1 20.1455 21.4049C20.3219 21.7514 20.3219 22.2048 20.3219 23.1121V26.7301H2.59217Z" fill="#212631"/>
<path fill-rule="evenodd" clip-rule="evenodd" d="M73.9805 2.86153C73.9805 1.95422 73.9805 1.50084 74.1569 1.15434C74.3119 0.849469 74.5599 0.601406 74.8648 0.446156C75.2115 0.269531 75.6652 0.269531 76.5721 0.269531H78.9579C79.5052 0.269531 79.7786 0.269531 80.0238 0.349406C80.2402 0.419719 80.4392 0.535594 80.6083 0.688594C80.7994 0.861281 80.9352 1.09866 81.2074 1.57341L89.5059 16.0651V2.86153C89.5059 1.95422 89.5059 1.50084 89.6823 1.15434C89.8378 0.849469 90.0853 0.601406 90.3902 0.446156C90.7368 0.269531 91.1906 0.269531 92.098 0.269531H95.986V24.1342C95.986 25.0409 95.986 25.4937 95.8096 25.8402C95.6546 26.1451 95.4071 26.3926 95.1022 26.5484C94.7561 26.725 94.303 26.7256 93.3966 26.7262L91.0102 26.729C90.4623 26.7295 90.1884 26.7295 89.9432 26.6497C89.7262 26.5793 89.5267 26.464 89.3576 26.311C89.1665 26.1378 89.0301 25.9004 88.7579 25.4251L80.4606 10.9351V24.1381C80.4606 25.0454 80.4606 25.4993 80.2836 25.8458C80.1286 26.1507 79.8806 26.3982 79.5757 26.554C79.2291 26.7301 78.7759 26.7301 77.8684 26.7301H73.9805V2.86153Z" fill="#212631"/>
<path fill-rule="evenodd" clip-rule="evenodd" d="M102.98 0.269531H99.092V24.1313C99.092 25.0387 99.092 25.4926 99.2685 25.8391C99.424 26.144 99.672 26.3915 99.9764 26.5473C100.323 26.7233 100.777 26.7233 101.684 26.7233H105.572V15.9301H106.633C107.086 15.9301 107.313 15.9301 107.523 15.9875C107.708 16.0381 107.884 16.1213 108.04 16.2338C108.217 16.3604 108.359 16.5365 108.645 16.8886L115.856 25.7722C116.142 26.1237 116.285 26.2998 116.462 26.4269C116.618 26.5388 116.793 26.6221 116.979 26.6733C117.189 26.7301 117.415 26.7301 117.869 26.7301H124L114.463 15.0014C113.989 14.4181 113.752 14.1262 113.661 13.8022C113.581 13.5164 113.581 13.2138 113.661 12.928C113.752 12.604 113.99 12.3127 114.464 11.7299L114.464 11.7293L123.793 0.269531H117.728C117.277 0.269531 117.051 0.269531 116.842 0.326344C116.657 0.376969 116.483 0.459656 116.326 0.571031C116.15 0.696469 116.007 0.871406 115.722 1.22128L108.67 9.84834C108.384 10.1982 108.241 10.3726 108.065 10.4986C107.909 10.61 107.734 10.6927 107.549 10.7433C107.34 10.8001 107.114 10.8001 106.663 10.8001H105.572V2.86153C105.572 1.95422 105.572 1.50084 105.396 1.15434C105.24 0.849469 104.993 0.601406 104.688 0.446156C104.341 0.269531 103.887 0.269531 102.98 0.269531Z" fill="#212631"/>
<path fill-rule="evenodd" clip-rule="evenodd" d="M23.3952 26.1158C23.2187 25.7693 23.2188 25.3153 23.2188 24.408V2.592C23.2188 1.68469 23.2187 1.23131 23.3952 0.884812C23.5507 0.579937 23.7982 0.331875 24.1031 0.176625C24.4497 0 24.9035 0 25.8109 0H34.2891C36.5488 0 37.6789 0 38.606 0.248625C41.1216 0.9225 43.087 2.88731 43.7611 5.40338C44.0091 6.33038 44.0091 7.46044 44.0091 9.72C44.0091 11.1909 43.3429 11.7304 42.7747 12.1894C42.3525 12.5308 41.9845 12.8284 41.9845 13.4331C41.9845 14.0288 42.4134 14.3263 42.9105 14.6717C43.5971 15.1481 44.4143 15.7151 44.4143 17.2806C44.4143 19.5362 44.4143 20.6646 44.1669 21.5899C43.4933 24.1076 41.5274 26.0741 39.0102 26.748C38.0847 26.9961 36.9568 26.9966 34.7006 26.9972L25.8115 27C24.904 27.0006 24.4503 27.0006 24.1037 26.8239C23.7987 26.6687 23.5507 26.4206 23.3952 26.1158ZM35.3031 8.85375C35.8115 8.055 36.2523 7.36369 36.2523 6.48C36.2523 4.69069 34.7987 3.24 33.0057 3.24C31.2123 3.24 29.7586 4.75875 29.7586 6.48C29.7586 7.36369 30.2112 8.055 30.7337 8.85375C31.449 9.94556 32.295 11.2387 32.295 13.5006C32.295 15.7618 31.449 17.055 30.7337 18.1474C30.2112 18.9456 29.7586 19.6369 29.7586 20.5206C29.7586 22.3099 31.2123 23.7606 33.0057 23.7606C34.7987 23.7606 36.2523 22.3099 36.2523 20.5206C36.2523 19.6369 35.8115 18.9456 35.3031 18.1474C34.607 17.055 33.7836 15.7618 33.7836 13.5006C33.7836 11.2387 34.607 9.94556 35.3031 8.85375Z" fill="#FFD634"/>
<path fill-rule="evenodd" clip-rule="evenodd" d="M54.314 21.4653L53.2087 24.9269C53.0019 25.5749 52.8987 25.899 52.7014 26.1386C52.5278 26.3506 52.303 26.5149 52.0482 26.6161C51.7602 26.7303 51.4197 26.7303 50.7394 26.7303H45.8516L53.6974 1.94489C53.9031 1.29464 54.0057 0.969516 54.203 0.728766C54.3766 0.516141 54.602 0.351328 54.8568 0.250078C55.1459 0.134766 55.4864 0.134766 56.1684 0.134766H61.5522C62.2342 0.134766 62.5752 0.134766 62.8638 0.250078C63.1192 0.351328 63.344 0.516141 63.5176 0.728766C63.7149 0.969516 63.8175 1.29408 64.0232 1.94433L71.8736 26.7303H66.9829C66.3026 26.7303 65.9627 26.7303 65.6741 26.6161C65.4199 26.5149 65.195 26.3506 65.0209 26.1386C64.8242 25.899 64.7204 25.5749 64.5136 24.9269L63.4083 21.4653H54.314ZM55.6927 17.1453H62.0291L58.8603 7.22227L55.6927 17.1453Z" fill="#212631"/>
</g>
<defs>
<clipPath id="clip0_36308_17011">
<rect width="124" height="27" rx="4" fill="white"/>
</clipPath>
</defs>
</svg>
