<svg width="144" height="18" viewBox="0 0 144 18" fill="none" xmlns="http://www.w3.org/2000/svg">
<g clip-path="url(#clip0_36308_16936)">
<mask id="mask0_36308_16936" style="mask-type:luminance" maskUnits="userSpaceOnUse" x="0" y="0" width="144" height="18">
<path d="M144 0H0V18H144V0Z" fill="white"/>
</mask>
<g mask="url(#mask0_36308_16936)">
<path d="M28.0018 12.3251L21.8478 1.65021C20.4986 -0.574707 17.2086 -0.598378 15.9067 1.74488L9.44509 12.8458C8.2379 14.8813 9.72906 17.4376 12.1434 17.4376H25.0904C27.5284 17.4376 29.3509 14.8103 28.0018 12.3251Z" fill="#3156AA"/>
<path d="M19.1249 13.1532L18.7462 12.4904C18.3912 11.875 17.6101 10.5495 17.6101 10.5495L12.4029 1.50788C11.0537 -0.504011 7.85838 -0.669697 6.50923 1.86292L0.449893 12.3484C-0.804578 14.5496 0.686586 17.4136 3.40856 17.4373H16.2846H21.7759H25.0423C21.7049 17.461 20.6398 15.7331 19.1249 13.1532Z" fill="#1972E2"/>
<path d="M19.124 13.1537L18.7453 12.4911C18.3903 11.8756 17.6092 10.5501 17.6092 10.5501L14.2482 4.63281L9.41963 12.8697C8.21257 14.9053 9.70369 17.4615 12.118 17.4615H16.2601H21.7513H25.0414C21.6804 17.4379 20.6389 15.7337 19.124 13.1537Z" fill="url(#paint0_linear_36308_16936)"/>
<path d="M142.125 16.608C141.249 16.608 140.562 16.4187 140.042 16.0873C139.497 15.7323 139.213 15.2115 139.213 14.5014V4.18164H140.586C141.083 4.18164 141.509 4.58402 141.509 5.10474V14.1937C141.509 14.2175 141.509 14.6435 141.864 14.9985C142.077 15.2115 142.337 15.3299 142.692 15.3299H142.953C143.048 15.3299 143.142 15.4246 143.142 15.5192V16.6317L142.125 16.608Z" fill="#326AD5"/>
<path d="M112.538 16.6081C111.118 16.6081 109.958 16.2295 109.082 15.472C108.633 15.0933 108.326 14.6672 108.136 14.1938C107.947 13.7205 107.852 13.034 107.852 12.111C107.852 11.2116 107.947 10.5014 108.136 10.028C108.302 9.57836 108.609 9.17594 109.059 8.79725C109.934 8.03984 111.094 7.66113 112.514 7.66113C113.935 7.66113 115.094 8.03984 115.97 8.79725C116.42 9.17594 116.728 9.60202 116.894 10.028C117.083 10.5251 117.177 11.2116 117.177 12.111C117.177 13.034 117.083 13.7205 116.894 14.1938C116.704 14.6672 116.396 15.0933 115.946 15.472C115.118 16.2295 113.959 16.6081 112.538 16.6081ZM112.538 8.96294C110.976 8.96294 110.195 10.028 110.195 12.1346C110.195 14.2649 110.976 15.33 112.538 15.33C114.1 15.33 114.882 14.2649 114.882 12.1583C114.882 10.028 114.077 8.96294 112.538 8.96294Z" fill="#326AD5"/>
<path d="M122.337 16.608C121.106 16.608 119.97 16.2767 119 15.6376C118.905 15.5429 118.716 15.4246 118.479 15.2825C118.432 15.2589 118.385 15.1878 118.385 15.1169V4.18164H119.781C120.278 4.18164 120.704 4.60768 120.704 5.10474V8.30009L121.13 8.0634C121.627 7.80304 122.29 7.6847 123.142 7.6847C124.633 7.6847 125.769 8.13441 126.527 9.01014C127.189 9.79125 127.521 10.8327 127.521 12.1109C127.521 13.389 127.142 14.4305 126.384 15.1878C125.508 16.1346 124.136 16.608 122.337 16.608ZM122.574 8.96283C122.053 8.96283 121.461 9.15217 120.798 9.5546L120.704 9.60191V14.7382L120.798 14.8091C121.32 15.1405 121.935 15.3062 122.574 15.3062C123.426 15.3062 124.089 14.9512 124.538 14.2411C124.917 13.673 125.13 12.9393 125.13 12.1109C125.13 10.0279 124.254 8.96283 122.574 8.96283Z" fill="#326AD5"/>
<path d="M132.989 16.5855C130.385 16.5855 128.752 14.8813 128.752 12.1119C128.752 9.36634 130.361 7.66211 132.941 7.66211C133.935 7.66211 134.787 7.92248 135.474 8.41953L135.616 8.5142V7.8278H137.438C137.557 7.8278 137.628 7.92248 137.628 8.01715V16.4198H135.592V15.6623L135.45 15.7807C134.882 16.3014 133.982 16.5855 132.989 16.5855ZM133.462 9.17691C131.828 9.17691 130.858 10.4314 130.858 12.1119C130.858 13.7925 131.828 15.0943 133.462 15.0943C133.982 15.0943 134.882 15.047 135.592 14.3368L135.616 14.3132V10.0053L135.592 9.98168C135.095 9.41366 134.361 9.17691 133.462 9.17691Z" fill="#326AD5"/>
<path d="M48.8926 16.4899V4.1582H59.1413V4.93929C59.1413 5.55469 58.6443 6.05174 58.029 6.05174H51.4488V9.36541H58.029V11.259H51.4488V14.5726H58.029C58.6443 14.5726 59.1413 15.0697 59.1413 15.6851V16.4662L48.8926 16.4899Z" fill="#151617"/>
<path d="M73.8629 4.1582H71.4486C70.9989 4.1582 70.5965 4.34755 70.3125 4.70259L67.4012 8.37133L64.4898 4.72627C64.2059 4.37123 63.8034 4.18187 63.3538 4.18187H60.9395L65.839 10.3359L60.9395 16.4899H63.3538C63.8034 16.4899 64.2059 16.3006 64.4898 15.9455L67.4012 12.3004L70.3361 15.9692C70.6202 16.3006 71.0226 16.5136 71.4723 16.5136H73.8866L68.987 10.3595L73.8629 4.1582Z" fill="#151617"/>
<path d="M40.8685 15.1893L44.2295 9.31931V16.4674H46.7859V4.13574H45.2C44.7029 4.13574 44.2295 4.3961 43.9929 4.84582L39.9691 12.1833L35.9453 4.84582C35.7086 4.3961 35.2352 4.13574 34.7381 4.13574H33.1523V16.4674H35.7086V9.31931L39.0696 15.1893H40.8685Z" fill="#151617"/>
<path d="M80.5378 16.6316C76.9875 16.6789 74.0998 13.8859 74.0762 10.3356C74.0762 8.39468 74.6679 6.78516 75.7803 5.67271C76.8928 4.58393 78.5023 3.99219 80.4195 3.99219C82.6681 3.99219 84.4433 4.77328 85.7214 6.28811L84.9167 6.97452C84.4197 7.40057 83.6859 7.42424 83.1415 7.02186C82.4314 6.47746 81.5319 6.2171 80.5142 6.2171C78.0052 6.2171 76.5141 7.73194 76.5141 10.2882C76.5141 12.8682 78.0525 14.454 80.5142 14.454C81.5556 14.454 82.4314 14.17 83.1415 13.6493C83.6622 13.2468 84.3959 13.2706 84.9167 13.6966L85.7214 14.383C84.4433 15.8742 82.7391 16.6316 80.5378 16.6316Z" fill="#151617"/>
<path d="M96.2778 16.6321C92.3016 16.6321 89.8398 14.2179 89.8398 10.336C89.8398 6.4543 92.3016 4.04004 96.2307 4.04004C98.1241 4.04004 99.7098 4.58443 100.941 5.69689L100.349 6.35963C100.089 6.64366 99.7098 6.80935 99.331 6.80935C99.1184 6.80935 98.905 6.76201 98.7156 6.66733C97.9818 6.28862 97.1298 6.09926 96.2307 6.09926C93.6738 6.09926 92.0881 7.73245 92.0881 10.3598C92.0881 13.0107 93.745 14.6439 96.3961 14.6439C97.6741 14.6439 98.6684 14.4072 99.4021 13.8865L99.4493 13.8628V11.3301H96.6327V10.5017C96.6327 9.88637 97.1298 9.38931 97.7453 9.38931H101.224C101.32 9.38931 101.414 9.48394 101.414 9.57866V15.0463C100.207 16.0877 98.479 16.6321 96.2778 16.6321Z" fill="#326AD5"/>
<path d="M105.982 16.608C105.106 16.608 104.419 16.4187 103.899 16.0873C103.355 15.7323 103.07 15.2115 103.07 14.5014V4.18164H104.443C104.941 4.18164 105.367 4.58402 105.367 5.10474V14.1937C105.367 14.2175 105.367 14.6435 105.721 14.9985C105.935 15.2115 106.195 15.3299 106.549 15.3299H106.81C106.905 15.3299 106.999 15.4246 106.999 15.5192V16.6317L105.982 16.608Z" fill="#326AD5"/>
</g>
</g>
<defs>
<linearGradient id="paint0_linear_36308_16936" x1="7.7012" y1="9.12711" x2="22.6597" y2="14.6549" gradientUnits="userSpaceOnUse">
<stop stop-color="#264CA2" stop-opacity="0"/>
<stop offset="1" stop-color="#234588"/>
</linearGradient>
<clipPath id="clip0_36308_16936">
<rect width="144" height="18" rx="4" fill="white"/>
</clipPath>
</defs>
</svg>
