<svg width="108" height="30" viewBox="0 0 108 30" fill="none" xmlns="http://www.w3.org/2000/svg">
<g clip-path="url(#clip0_36308_16864)">
<path d="M31.6743 0H0.719873C0.528949 0 0.345849 0.0702349 0.210845 0.195255C0.0758428 0.320274 0 0.489838 0 0.666643V29.3322C0 29.509 0.0758428 29.6787 0.210845 29.8038C0.345849 29.9286 0.528949 29.9988 0.719873 29.9988H31.6743C31.8654 29.9988 32.0483 29.9286 32.1835 29.8038C32.3184 29.6787 32.3944 29.509 32.3944 29.3322V0.666643C32.3944 0.489838 32.3184 0.320274 32.1835 0.195255C32.0483 0.0702349 31.8654 0 31.6743 0ZM21.5962 19.3327C21.5962 19.5095 21.5203 19.679 21.3853 19.804C21.2503 19.929 21.0672 19.9993 20.8763 19.9993H11.518C11.327 19.9993 11.1439 19.929 11.0089 19.804C10.8739 19.679 10.7981 19.5095 10.7981 19.3327V10.6663C10.7981 10.4895 10.8739 10.3199 11.0089 10.1949C11.1439 10.0699 11.327 9.99964 11.518 9.99964H20.8763C21.0672 9.99964 21.2503 10.0699 21.3853 10.1949C21.5203 10.3199 21.5962 10.4895 21.5962 10.6663V19.3327Z" fill="black"/>
<path d="M96.4768 10.001H87.1183C86.7209 10.001 86.3984 10.2994 86.3984 10.6676V19.334C86.3984 19.7021 86.7209 20.0006 87.1183 20.0006H96.4768C96.8744 20.0006 97.1966 19.7021 97.1966 19.334V10.6676C97.1966 10.2994 96.8744 10.001 96.4768 10.001Z" fill="black"/>
<path d="M85.6796 0H76.3214C75.9238 0 75.6016 0.298467 75.6016 0.666642V9.33301C75.6016 9.70117 75.9238 9.99965 76.3214 9.99965H85.6796C86.0773 9.99965 86.3997 9.70117 86.3997 9.33301V0.666642C86.3997 0.298467 86.0773 0 85.6796 0Z" fill="black"/>
<path d="M107.28 0H97.921C97.5237 0 97.2012 0.298467 97.2012 0.666642V9.33301C97.2012 9.70117 97.5237 9.99965 97.921 9.99965H107.28C107.677 9.99965 107.999 9.70117 107.999 9.33301V0.666642C107.999 0.298467 107.677 0 107.28 0Z" fill="black"/>
<path d="M85.6796 20H76.3214C75.9238 20 75.6016 20.2985 75.6016 20.6666V29.3331C75.6016 29.7012 75.9238 29.9997 76.3214 29.9997H85.6796C86.0773 29.9997 86.3997 29.7012 86.3997 29.3331V20.6666C86.3997 20.2985 86.0773 20 85.6796 20Z" fill="black"/>
<path d="M107.28 20H97.921C97.5237 20 97.2012 20.2985 97.2012 20.6666V29.3331C97.2012 29.7012 97.5237 29.9997 97.921 29.9997H107.28C107.677 29.9997 107.999 29.7012 107.999 29.3331V20.6666C107.999 20.2985 107.677 20 107.28 20Z" fill="black"/>
<path d="M69.4709 0H60.1127C59.7151 0 59.3926 0.298467 59.3926 0.666642V9.33301C59.3926 9.70117 59.7151 9.99965 60.1127 9.99965H69.4709C69.8685 9.99965 70.1908 9.70117 70.1908 9.33301V0.666642C70.1908 0.298467 69.8685 0 69.4709 0Z" fill="black"/>
<path d="M69.4709 20H60.1127C59.7151 20 59.3926 20.2985 59.3926 20.6666V29.3331C59.3926 29.7012 59.7151 29.9997 60.1127 29.9997H69.4709C69.8685 29.9997 70.1908 29.7012 70.1908 29.3331V20.6666C70.1908 20.2985 69.8685 20 69.4709 20Z" fill="black"/>
<path d="M59.3893 10.6588C59.3893 10.482 59.3134 10.3124 59.1784 10.1874C59.0435 10.0624 58.8603 9.99214 58.6695 9.99214H48.5911V0.666643C48.5911 0.489838 48.5152 0.320274 48.3803 0.195255C48.2453 0.0702349 48.0622 0 47.8713 0H38.5131C38.3219 0 38.139 0.0702349 38.0038 0.195255C37.8689 0.320274 37.793 0.489838 37.793 0.666643V29.3173C37.793 29.4941 37.8689 29.6636 38.0038 29.7887C38.139 29.9137 38.3219 29.9839 38.5131 29.9839H47.8713C48.0622 29.9839 48.2453 29.9137 48.3803 29.7887C48.5152 29.6636 48.5911 29.4941 48.5911 29.3173V19.9918H58.6695C58.8603 19.9918 59.0435 19.9215 59.1784 19.7965C59.3134 19.6715 59.3893 19.5019 59.3893 19.3251V10.6588Z" fill="black"/>
</g>
<defs>
<clipPath id="clip0_36308_16864">
<rect width="108" height="30" rx="4" fill="white"/>
</clipPath>
</defs>
</svg>
