<svg width="142" height="40" viewBox="0 0 142 40" fill="none" xmlns="http://www.w3.org/2000/svg">
<g clip-path="url(#clip0_36308_17003)">
<path d="M103.753 18.2348C103.761 17.0135 103.408 15.8179 102.742 14.8022C102.076 13.7865 101.126 12.9974 100.014 12.5365C98.9031 12.0757 97.6816 11.9644 96.5076 12.217C95.3335 12.4695 94.2607 13.0743 93.4277 13.9534C92.4859 12.9656 91.243 12.3321 89.9018 12.1561C88.5606 11.9801 87.2004 12.2722 86.0433 12.9845H83.1184V18.2508V27.8991H86.5548V18.2508C86.5543 17.9058 86.6205 17.5641 86.7498 17.2452C86.879 16.9262 87.0687 16.6363 87.3081 16.392C87.5474 16.1477 87.8316 15.9537 88.1446 15.8212C88.4576 15.6887 88.7932 15.6202 89.1321 15.6197C89.8169 15.6213 90.4731 15.8995 90.9563 16.3933C91.4396 16.887 91.7105 17.5559 91.7095 18.2528H91.7193V27.9011H95.1538V18.2528H95.1637V18.2388C95.1637 17.5433 95.4351 16.8764 95.9183 16.3847C96.4014 15.8929 97.0567 15.6167 97.74 15.6167C98.4233 15.6167 99.0786 15.8929 99.5618 16.3847C100.045 16.8764 100.316 17.5433 100.316 18.2388V18.2549V27.9031H103.751V18.2348M39.3196 24.3895C38.7544 24.3882 38.1951 24.2736 37.6735 24.0523C37.1518 23.831 36.6782 23.5072 36.2795 23.0996C35.8808 22.6919 35.5649 22.2084 35.3498 21.6765C35.1347 21.1446 35.0247 20.5748 35.026 19.9996C35.0239 18.8381 35.475 17.7233 36.28 16.9002C37.0851 16.077 38.1784 15.6128 39.3196 15.6096C40.4611 15.6123 41.5549 16.0762 42.3604 16.8995C43.1659 17.7227 43.6172 18.8378 43.6151 19.9996C43.6177 21.1609 43.1671 22.2757 42.3624 23.0989C41.5576 23.9221 40.4645 24.3863 39.3235 24.3895M39.3235 12.0981C37.7937 12.0963 36.2984 12.5604 35.0299 13.4307V13.4167H31.5935V31.8589H35.0299V26.5684C36.2984 27.4388 37.7937 27.9029 39.3235 27.9011C41.3826 27.9011 43.3573 27.0686 44.8132 25.5868C46.2692 24.105 47.0871 22.0952 47.0871 19.9996C47.0871 17.904 46.2692 15.8942 44.8132 14.4124C43.3573 12.9306 41.3826 12.0981 39.3235 12.0981ZM137.458 27.9031L131.874 19.9996L137.302 12.3192H133.223L129.832 17.1132L126.443 12.3212H122.365L127.794 19.9996L122.209 27.9011H126.299L129.844 22.886L133.387 27.9011L137.458 27.9031ZM56.0732 12.1001C55.0241 12.0987 53.9908 12.3611 53.0653 12.8639V8.15234H49.6289V27.9011H53.0653V18.683C53.0643 17.87 53.3802 17.0898 53.9437 16.5136C54.5073 15.9374 55.2724 15.6123 56.0712 15.6096C56.4667 15.6107 56.8582 15.691 57.2232 15.846C57.5882 16.0011 57.9197 16.2277 58.1986 16.5131C58.4775 16.7985 58.6985 17.137 58.8489 17.5093C58.9993 17.8816 59.0762 18.2805 59.0751 18.683V27.9011H62.5076V18.683C62.5108 16.9405 61.8339 15.268 60.6259 14.0332C59.4178 12.7984 57.7774 12.1023 56.0653 12.0981M72.813 15.6177C73.73 15.6156 74.6236 15.9119 75.3634 16.4634C76.1031 17.0148 76.6503 17.7926 76.9249 18.683H68.7268C69 17.7952 69.5443 17.0192 70.2806 16.4679C71.0169 15.9166 71.9068 15.6188 72.8209 15.6177H72.813ZM80.4304 21.3182C80.5031 20.8845 80.5407 20.4455 80.543 20.0056C80.5403 18.0917 79.8541 16.2441 78.6123 14.807C77.3704 13.3698 75.6576 12.4411 73.7929 12.1938C71.9282 11.9465 70.0388 12.3975 68.4765 13.4628C66.9143 14.5281 65.7858 16.135 65.3013 17.9843C64.8168 19.8335 65.0092 21.799 65.8429 23.5145C66.6765 25.23 68.0944 26.5787 69.8325 27.3092C71.5706 28.0397 73.5103 28.1023 75.2904 27.4853C77.0704 26.8683 78.5694 25.6137 79.5081 23.9554L76.5398 22.2106C76.1241 22.9477 75.5061 23.5453 74.7615 23.9299C74.0169 24.3145 73.1781 24.4695 72.3482 24.3758C71.5183 24.2821 70.7333 23.9438 70.0896 23.4024C69.4459 22.861 68.9716 22.1401 68.7248 21.3282L80.4304 21.3182ZM114.054 15.6177C114.968 15.619 115.859 15.9169 116.595 16.4681C117.332 17.0193 117.876 17.7952 118.15 18.683H109.956C110.23 17.7945 110.774 17.0181 111.512 16.4667C112.249 15.9154 113.139 15.6179 114.054 15.6177ZM121.67 21.3182C121.981 19.3812 121.569 17.3956 120.515 15.752C119.461 14.1084 117.841 12.9258 115.973 12.4368C114.105 11.9478 112.125 12.1878 110.423 13.1096C108.72 14.0314 107.418 15.5682 106.772 17.4178C106.127 19.2674 106.185 21.2959 106.935 23.1043C107.684 24.9126 109.072 26.3699 110.824 27.1896C112.577 28.0092 114.567 28.1318 116.404 27.5333C118.24 26.9348 119.791 25.6584 120.749 23.9554L117.769 22.2106C117.354 22.9484 116.736 23.5465 115.991 23.9316C115.246 24.3166 114.407 24.4718 113.576 24.3781C112.746 24.2844 111.961 23.9458 111.317 23.404C110.673 22.8621 110.199 22.1407 109.952 21.3282L121.67 21.3182Z" fill="#0B5BE0"/>
<path d="M4.54298 27.8975C4.53879 29.988 5.35057 31.9945 6.79981 33.4759C8.24904 34.9573 10.217 35.7922 12.271 35.797V20C12.2752 22.0899 11.4636 24.096 10.0148 25.577C8.56592 27.058 6.59841 27.8927 4.54496 27.8975" fill="#38D102"/>
<path d="M4.54297 12.1025V27.8975C6.60095 27.8975 8.57465 27.0655 10.0299 25.5844C11.4851 24.1033 12.3026 22.0946 12.3026 20C12.3026 17.9055 11.4851 15.8967 10.0299 14.4157C8.57465 12.9346 6.60095 12.1025 4.54297 12.1025ZM16.134 20C16.132 21.035 16.3302 22.0603 16.7175 23.0173C17.1047 23.9744 17.6734 24.8444 18.391 25.5777C19.1086 26.3111 19.9611 26.8934 20.8998 27.2914C21.8386 27.6895 22.8451 27.8954 23.8621 27.8975V12.1025C23.8644 13.1374 23.6664 14.1627 23.2794 15.1197C22.8923 16.0767 22.3239 16.9468 21.6064 17.6801C20.889 18.4135 20.0366 18.9959 19.098 19.3939C18.1593 19.792 17.1529 19.9979 16.136 20" fill="#0B5BE0"/>
<path d="M16.1328 4.20312V20.0001C18.1696 19.967 20.112 19.1203 21.5409 17.6427C22.9698 16.165 23.7706 14.1749 23.7706 12.1016C23.7706 10.0284 22.9698 8.03821 21.5409 6.56055C20.112 5.0829 18.1696 4.2362 16.1328 4.20312Z" fill="#3CEAF3"/>
</g>
<defs>
<clipPath id="clip0_36308_17003">
<rect width="142" height="40" rx="4" fill="white"/>
</clipPath>
</defs>
</svg>
