<svg width="131" height="30" viewBox="0 0 131 30" fill="none" xmlns="http://www.w3.org/2000/svg">
<g clip-path="url(#clip0_36308_16984)">
<path d="M39.4727 21.2658V8.73047H45.0505C47.7155 8.73047 49.2007 10.5349 49.2007 12.6584C49.2007 14.7819 47.6976 16.5863 45.0505 16.5863H41.6996V21.2658H39.4727ZM44.7453 10.6661H41.6996V14.6507H44.7453C46.0023 14.6507 46.9146 13.862 46.9146 12.6584C46.9146 11.4549 46.0005 10.6661 44.7453 10.6661Z" fill="black"/>
<path d="M56.9665 8.52344C60.7738 8.52344 63.4584 11.2674 63.4584 15.0074C63.4584 18.7474 60.7738 21.4931 56.9665 21.4931C53.1594 21.4931 50.4746 18.7492 50.4746 15.0092C50.4746 11.2691 53.1594 8.52344 56.9665 8.52344ZM56.9665 10.4786C54.3967 10.4786 52.7589 12.4142 52.7589 15.0092C52.7589 17.5846 54.3967 19.5397 56.9665 19.5397C59.5184 19.5397 61.1742 17.5846 61.1742 15.0092C61.1742 12.4142 59.5167 10.4786 56.9665 10.4786Z" fill="black"/>
<path d="M65.6074 21.2658V8.73047H67.8342V19.3302H73.4301V21.2658H65.6074Z" fill="black"/>
<path d="M80.7966 8.52344C84.6038 8.52344 87.2885 11.2674 87.2885 15.0074C87.2885 18.7474 84.6038 21.4931 80.7966 21.4931C76.9895 21.4931 74.3047 18.7492 74.3047 15.0092C74.3047 11.2691 76.9913 8.52344 80.7966 8.52344ZM80.7966 10.4786C78.2268 10.4786 76.589 12.4142 76.589 15.0092C76.589 17.5846 78.2268 19.5397 80.7966 19.5397C83.3467 19.5397 85.0042 17.5846 85.0042 15.0092C85.0042 12.4142 83.3467 10.4786 80.7966 10.4786Z" fill="black"/>
<path d="M98.2912 21.2658L91.6682 12.1338V21.2658H89.4414V8.73047H91.7257L98.2176 17.6215V8.73047H100.444V21.2676H98.2912V21.2658Z" fill="black"/>
<path d="M103.145 21.2667V8.73145H105.372V21.2685H103.145V21.2667Z" fill="black"/>
<path d="M108.074 21.2667V8.73145H116.773V10.667H110.301V13.9178H116.642V15.8534H110.301V19.3311H116.773V21.2667H108.074Z" fill="black"/>
<path d="M127.549 21.2658L123.99 16.3595L120.43 21.2658H117.766L122.524 14.8386L118.051 8.73047H120.716L123.99 13.3355L127.245 8.73047H129.93L125.476 14.8209L130.216 21.2676L127.549 21.2658Z" fill="black"/>
<path d="M26.3145 7.49956V14.9991L19.7363 11.2484L13.1582 7.49956L19.7363 3.74889L26.3145 0V7.49956Z" fill="#20392B"/>
<path d="M13.1563 15.0003V22.4999L6.57812 18.7492L0 15.0003L6.57812 11.2497L13.1563 7.49902V15.0003Z" fill="#005C30"/>
<path d="M0 7.49956V0L6.57812 3.75066L13.1563 7.50133L6.57812 11.2502L0 15.0008V7.49956Z" fill="#3AB06A"/>
<path d="M0 22.5006V15.001L6.57812 18.7517L13.1563 22.5024L6.57812 26.253L0 30.0001V22.5006Z" fill="#20392B"/>
<path d="M19.7363 11.2507L13.1582 7.5V14.9996V22.4991L19.7363 26.2498L26.3145 30.0005V22.5009V15.0013L19.7363 11.2507Z" fill="#3AB06A"/>
</g>
<defs>
<clipPath id="clip0_36308_16984">
<rect width="131" height="30" rx="4" fill="white"/>
</clipPath>
</defs>
</svg>
