<svg width="133" height="36" viewBox="0 0 133 36" fill="none" xmlns="http://www.w3.org/2000/svg">
<g clip-path="url(#clip0_36308_17081)">
<path d="M19.561 10.4598L16.635 8.76064C16.103 8.49515 15.4114 8.49515 14.8794 8.76064L11.9534 10.4598C11.315 10.8314 11.315 11.4155 11.9534 11.7872L14.8794 13.5394C15.4114 13.858 16.103 13.858 16.635 13.5394L19.561 11.7872C19.9334 11.681 20.1462 11.2562 19.9866 10.8845C19.9334 10.6721 19.7738 10.5129 19.561 10.4598Z" fill="#4231C8"/>
<path d="M24.6682 12.106L16.5765 16.8317C16.0444 17.0972 15.3528 17.0972 14.8208 16.8317L9.71365 13.8583C9.07525 13.4866 8.54325 13.7521 8.54325 14.4954V23.5751C8.59645 23.9998 8.33045 24.3715 7.90485 24.4246C7.69205 24.4777 7.53245 24.4246 7.37285 24.2653L6.52165 23.7875C5.98965 23.4689 5.67045 22.8848 5.61725 22.3007V12.4777C5.67045 11.8406 5.98965 11.3096 6.52165 10.9379L14.8794 6.10604C15.4114 5.84056 16.103 5.84056 16.635 6.10604L24.7267 10.7255C25.0991 10.8317 25.3119 11.2034 25.2587 11.5751C25.2055 11.8406 24.9927 11.9998 24.7799 12.106H24.6682ZM31.0043 8.33082L16.8478 0.206928C16.3158 -0.0585592 15.6242 -0.0585592 15.0922 0.206928L0.93565 8.33082C0.40365 8.64941 0.08445 9.23348 0.03125 9.87064V26.1237C0.08445 26.7609 0.40365 27.2919 0.93565 27.6636L15.0922 35.7928C15.6242 36.0583 16.3158 36.0583 16.8478 35.7928L31.0043 27.6636C31.5363 27.2919 31.8555 26.7609 31.9087 26.1237V9.87064C31.8555 9.23348 31.5363 8.7025 31.0043 8.33082Z" fill="#4231C8"/>
<path d="M48.6189 29.4746C48.6189 29.3684 48.6721 29.2622 48.8317 29.2091H48.8849H49.3637C49.5233 29.2091 49.6297 29.3153 49.6297 29.4215V31.9702C49.6297 32.0764 49.5765 32.1826 49.4701 32.1826C47.5549 33.6162 44.7885 33.1914 43.3521 31.2799C41.9157 29.3684 42.3413 26.6073 44.2565 25.1737C45.4801 24.2711 47.0229 24.0587 48.4061 24.5897C48.7785 24.7489 49.5765 25.0675 49.5765 25.3861C49.5765 25.4392 49.5765 25.4392 49.5765 25.4923L49.3105 25.9171C49.2573 25.9702 49.2041 26.0233 49.0977 26.0233C49.0445 26.0233 48.9381 25.9702 48.8849 25.9171C48.2997 25.4923 47.6081 25.2799 46.8633 25.2799C45.0013 25.1737 43.4053 26.5543 43.2989 28.4127C43.1925 30.2711 44.5757 31.864 46.4377 31.9702C46.5441 31.9702 46.7037 31.9702 46.8101 31.9702C47.4485 31.9702 48.0869 31.8109 48.5657 31.4392L48.5125 29.3684L48.6189 29.4746Z" fill="#4231C8"/>
<path d="M57.3978 32.0226C57.5042 32.0226 57.6106 32.1288 57.6638 32.2349C57.6638 32.2349 57.6638 32.2349 57.6638 32.288V32.7659C57.6638 32.9252 57.5574 33.0314 57.451 33.0314H52.6098C52.5034 33.0314 52.397 32.9783 52.3438 32.8721V32.819V24.9022C52.3438 24.7429 52.4502 24.6367 52.5566 24.6367C52.5566 24.6367 52.5566 24.6367 52.6098 24.6367H53.0886C53.195 24.6367 53.3014 24.7429 53.3546 24.8491C53.3546 24.8491 53.3546 24.8491 53.3546 24.9022V32.1234H57.451L57.3978 32.0226Z" fill="#4231C8"/>
<path d="M63.4132 32.1292C65.2752 32.1292 66.7648 30.6424 66.7648 28.784C66.7648 26.9256 65.2752 25.4389 63.4132 25.4389C61.5512 25.4389 60.0616 26.9256 60.0616 28.784C60.0616 30.6424 61.5512 32.1292 63.4132 32.1292ZM67.7756 28.784C67.7224 31.1734 65.754 33.0849 63.36 33.0849C60.966 33.0318 59.0508 31.0672 59.0508 28.6778C59.104 26.2885 61.0192 24.377 63.4132 24.377C65.8072 24.377 67.7756 26.2885 67.7756 28.6778C67.7756 28.7309 67.7756 28.7309 67.7756 28.784Z" fill="#4231C8"/>
<path d="M71.341 29.1032V32.0236H74.3734C75.1714 32.0236 75.863 31.3864 75.863 30.5368C75.863 29.7404 75.2246 29.0501 74.3734 29.0501H71.341V29.1032ZM74.001 25.5404H71.341V28.1421H74.001C74.7458 28.1421 75.331 27.505 75.2778 26.8147C75.2778 26.7616 75.2778 26.7616 75.2778 26.7085C75.2778 26.0713 74.7458 25.5404 74.1074 25.5404C74.0542 25.5404 74.001 25.5404 73.9478 25.5404H74.001ZM75.5491 28.466C76.7195 29.1563 77.0919 30.643 76.4003 31.8112C75.9747 32.5545 75.2299 32.9793 74.3787 32.9793H70.6547C70.4951 32.9793 70.3887 32.8731 70.3887 32.7669C70.3887 32.7669 70.3887 32.7669 70.3887 32.7138V24.797C70.3887 24.6377 70.4419 24.5315 70.6015 24.5315H70.6547H74.0063C75.2299 24.4784 76.2407 25.3811 76.3471 26.6023C76.3471 26.6554 76.3471 26.7085 76.3471 26.7616C76.3471 27.4041 76.0279 28.0413 75.5491 28.466Z" fill="#4231C8"/>
<path d="M80.6549 30.1643H84.0065L82.3573 26.0227L80.7081 30.1643H80.6549ZM79.5909 32.766C79.5377 32.9253 79.4313 32.9784 79.2717 32.9784H78.7929C78.6333 32.9784 78.5801 32.9784 78.5801 32.766C78.5801 32.7129 78.5801 32.6598 78.5801 32.6067C81.8785 24.743 81.8785 24.743 81.8785 24.6899C81.9317 24.5837 82.0381 24.4775 82.1445 24.4775H82.4637C82.5701 24.4775 82.7297 24.5837 82.7297 24.6899L86.0813 32.6067C86.0813 32.6598 86.0813 32.7129 86.0813 32.766C86.0813 32.8722 85.9749 32.9784 85.8153 32.9784H85.3365C85.1769 32.9784 85.0705 32.8722 85.0173 32.766L84.3789 31.12H80.2825L79.5909 32.7129V32.766Z" fill="#4231C8"/>
<path d="M93.5892 32.0226C93.6956 32.0226 93.802 32.1288 93.8552 32.2349C93.8552 32.2349 93.8552 32.2349 93.8552 32.288V32.7659C93.8552 32.9252 93.7488 33.0314 93.6424 33.0314H88.8012C88.6948 33.0314 88.5884 32.9783 88.5352 32.8721V32.819V24.9022C88.5352 24.7429 88.6416 24.6367 88.748 24.6367C88.748 24.6367 88.748 24.6367 88.8012 24.6367H89.28C89.3864 24.6367 89.4928 24.7429 89.546 24.8491C89.546 24.8491 89.546 24.8491 89.546 24.9022V32.1234H93.6424L93.5892 32.0226Z" fill="#4231C8"/>
<path d="M46.3317 6.41935V9.92378H48.6725C49.5769 9.92378 50.3217 9.18041 50.3217 8.27776V8.22466C50.3749 7.26891 49.6301 6.52555 48.6725 6.47245H46.3317V6.41935ZM42.2832 3.55209C42.2832 3.33971 42.4428 3.12732 42.6556 3.07422H42.7088H49.4652C52.2316 3.18041 54.3596 5.4636 54.3064 8.17156C54.3596 10.8795 52.2316 13.1096 49.5184 13.2158H46.2732V18.207C46.2732 18.5255 46.1136 18.6848 45.7944 18.6848H42.7088C42.3896 18.6848 42.2832 18.5255 42.2832 18.207V3.55209Z" fill="#4231C8"/>
<path d="M62.1364 6.36589V10.1889H64.4772C65.488 10.1889 66.3392 9.33934 66.3392 8.33049C66.3392 7.32164 65.488 6.47209 64.4772 6.41899H62.1896L62.1364 6.36589ZM58.0879 3.60483C58.0879 3.39244 58.2475 3.18005 58.4603 3.12695H58.5135H65.4827C68.3023 3.23315 70.5367 5.56943 70.4835 8.38359C70.3771 10.1358 69.4195 11.7818 67.9299 12.6845L70.9623 18.2597C71.0687 18.3659 71.0155 18.5783 70.9091 18.6845C70.8559 18.7376 70.8027 18.7376 70.6963 18.7376H66.8659C66.5467 18.7376 66.4403 18.6314 66.2807 18.3128L63.7803 13.5871H62.1311V18.3128C62.1843 18.5252 61.9715 18.7376 61.7587 18.7907C61.7055 18.7907 61.7055 18.7907 61.6523 18.7907H58.5135C58.1943 18.7907 58.0879 18.6314 58.0879 18.3128V3.65793V3.60483Z" fill="#4231C8"/>
<path d="M81.8803 15.079C84.0615 15.079 85.8703 13.2737 85.8703 11.0967C85.8703 11.0436 85.8703 10.9905 85.8703 10.9374C85.8703 8.76044 84.1147 6.95513 81.8803 6.95513C79.6991 6.95513 77.8903 8.70735 77.8903 10.9374C77.7839 13.1144 79.4863 15.0259 81.6675 15.079C81.7207 15.079 81.7739 15.079 81.8271 15.079H81.8803ZM81.8803 2.86133C86.3491 2.86133 89.9188 6.47195 89.972 10.8843C89.972 15.3445 86.3544 18.9073 81.9335 18.9604C77.4647 18.9604 73.895 15.3498 73.8418 10.9374C73.8418 6.47195 77.4647 2.91443 81.8803 2.86133Z" fill="#4231C8"/>
<path d="M100.718 12.1057H98.2705V15.6101H100.718C101.675 15.557 102.367 14.7606 102.367 13.8579C102.367 12.9553 101.622 12.2119 100.718 12.1588V12.1057ZM100.186 6.2066H98.2705V9.28624H100.186C101.037 9.33934 101.728 8.75527 101.782 7.90571C101.782 7.85262 101.782 7.79952 101.782 7.74642C101.782 6.89686 101.143 6.2066 100.292 6.2066H100.239H100.186ZM94.1741 3.60483C94.1741 3.33934 94.3337 3.12695 94.5465 3.12695H94.5997H101.303C103.803 3.12695 105.825 5.14465 105.825 7.64023C105.825 8.59598 105.506 9.55173 104.867 10.3482C105.878 11.3039 106.463 12.6314 106.516 14.0119C106.516 16.5606 104.442 18.6845 101.888 18.7376H94.6529C94.4401 18.7907 94.2273 18.5783 94.1741 18.3659C94.1741 18.3128 94.1741 18.3128 94.1741 18.2597V3.60483Z" fill="#4231C8"/>
<path d="M111.363 3.60527C111.363 3.28668 111.523 3.12739 111.789 3.12739H114.928C115.14 3.0743 115.353 3.28668 115.406 3.49907C115.406 3.55217 115.406 3.55217 115.406 3.60527V18.2654C115.46 18.4778 115.247 18.6902 115.034 18.7433C114.981 18.7433 114.981 18.7433 114.928 18.7433H111.789C111.47 18.7433 111.363 18.584 111.363 18.2654V3.60527Z" fill="#4231C8"/>
<path d="M120.673 3.60524C120.62 3.39285 120.779 3.18046 120.992 3.12736C121.045 3.12736 121.098 3.12736 121.098 3.12736H132.542C132.755 3.07426 132.967 3.23356 133.021 3.49904C133.021 3.55214 133.021 3.55214 133.021 3.60524V6.2601C133.074 6.47249 132.861 6.68488 132.648 6.73798C132.595 6.73798 132.595 6.73798 132.542 6.73798H128.818V18.2654C128.871 18.4778 128.658 18.6902 128.445 18.7433C128.392 18.7433 128.392 18.7433 128.339 18.7433H125.307C125.094 18.7964 124.881 18.584 124.828 18.3716C124.828 18.3185 124.828 18.3185 124.828 18.2654V6.73798H121.104C120.891 6.79108 120.678 6.57869 120.625 6.3663C120.625 6.3132 120.625 6.3132 120.625 6.2601V3.60524H120.673Z" fill="#4231C8"/>
</g>
<defs>
<clipPath id="clip0_36308_17081">
<rect width="133" height="36" rx="4" fill="white"/>
</clipPath>
</defs>
</svg>
