<svg width="122" height="28" viewBox="0 0 122 28" fill="none" xmlns="http://www.w3.org/2000/svg">
<g clip-path="url(#clip0_36308_16965)">
<path d="M81.9168 8.39824H72.4766L75.2013 0H66.8169L57.7402 28H75.1882C77.155 28.0001 79.0713 27.3761 80.6625 26.2176C82.2536 25.0591 83.438 23.4255 84.0458 21.551L86.3281 14.5268C86.5576 13.8266 86.6185 13.082 86.5058 12.3538C86.3932 11.6255 86.1102 10.9343 85.68 10.3366C85.2498 9.73891 84.6845 9.25171 84.0305 8.91483C83.3765 8.57794 82.6522 8.40093 81.9168 8.39824ZM78.0181 14.2854L76.13 20.1066C75.8265 21.0443 75.2345 21.8616 74.4389 22.4413C73.6433 23.0209 72.6849 23.3332 71.7012 23.3333H67.636L70.9653 13.0649H77.1332C77.2801 13.0645 77.4251 13.0991 77.5561 13.1658C77.6871 13.2325 77.8005 13.3294 77.8868 13.4485C77.9732 13.5677 78.0302 13.7056 78.053 13.8511C78.0758 13.9966 78.0638 14.1454 78.0181 14.2854Z" fill="#023F97"/>
<path d="M96.6226 0L94.8047 5.60176H103.189L105.003 0H96.6226Z" fill="#023F97"/>
<path d="M87.543 28.0002H95.9275L102.279 8.39844H93.8992L87.543 28.0002Z" fill="#023F97"/>
<path d="M114.851 13.0649H120.489L122 8.39824H116.362L119.087 0H110.702L103.606 21.889C103.379 22.5899 103.321 23.3345 103.437 24.0622C103.552 24.7898 103.838 25.4798 104.27 26.0757C104.702 26.6716 105.269 27.1566 105.924 27.491C106.579 27.8255 107.304 27.9999 108.039 28H117.343L118.859 23.3333H112.796C112.65 23.333 112.507 23.2981 112.377 23.2313C112.247 23.1646 112.134 23.0679 112.049 22.9493C111.963 22.8306 111.907 22.6934 111.885 22.5488C111.862 22.4041 111.875 22.2563 111.92 22.1173L114.851 13.0649Z" fill="#023F97"/>
<path d="M23.9348 9.77234L33.1035 0H23.2821L15.7168 23.3333H9.42626C9.28038 23.3314 9.13699 23.2952 9.00761 23.2276C8.87822 23.1601 8.76644 23.0631 8.68124 22.9444C8.59605 22.8257 8.5398 22.6887 8.51703 22.5443C8.49426 22.3999 8.5056 22.2521 8.55013 22.1129L15.7124 0H7.32794L0.231352 21.8978C0.00463345 22.5975 -0.0536502 23.341 0.0612648 24.0676C0.17618 24.7942 0.461031 25.4832 0.892536 26.0783C1.32404 26.6735 1.88995 27.1578 2.54401 27.4918C3.19806 27.8258 3.9217 27.9999 4.65577 28H22.5856L28.9375 8.39824L23.9348 9.77234Z" fill="#0062DF"/>
<path d="M54.9512 0H35.6765L38.5502 9.77234L34.4368 8.40263L28.0586 28H36.4431L39.4701 18.6667H48.5336C50.4996 18.6658 52.4149 18.0414 54.0052 16.883C55.5955 15.7246 56.7792 14.0915 57.3868 12.2176L59.3712 6.10223C59.5968 5.40291 59.6544 4.66007 59.5393 3.93422C59.4242 3.20837 59.1396 2.52002 58.7088 1.92525C58.278 1.33047 57.7131 0.846077 57.0601 0.511519C56.4071 0.17696 55.6845 0.00169634 54.9512 0ZM51.0612 5.88272L49.4754 10.7777C49.1711 11.7145 48.5788 12.5309 47.7832 13.1097C46.9877 13.6885 46.0297 14.0002 45.0466 14H40.9814L44.0084 4.66667H50.1807C50.3271 4.66626 50.4715 4.7007 50.602 4.76716C50.7325 4.83363 50.8454 4.93021 50.9314 5.04895C51.0173 5.16769 51.0739 5.3052 51.0965 5.45016C51.1191 5.59512 51.107 5.74337 51.0612 5.88272Z" fill="#0062DF"/>
</g>
<defs>
<clipPath id="clip0_36308_16965">
<rect width="122" height="28" rx="4" fill="white"/>
</clipPath>
</defs>
</svg>
