<svg width="133" height="30" viewBox="0 0 133 30" fill="none" xmlns="http://www.w3.org/2000/svg">
<path fill-rule="evenodd" clip-rule="evenodd" d="M42.3906 9.87109H47.244L49.587 19.4745L52.1813 9.87109H56.1142L58.7083 19.4745L61.0513 9.87109H65.9049L61.0513 25.4035H56.7837L54.064 15.2574L51.4699 25.3618H47.1186L42.3906 9.87109Z" fill="#3067F0"/>
<path fill-rule="evenodd" clip-rule="evenodd" d="M74.7344 21.5203C72.5624 21.5203 70.8015 19.7631 70.8015 17.5955C70.8015 15.4278 72.5624 13.6705 74.7344 13.6705C76.9064 13.6705 78.6673 15.4278 78.6673 17.5955C78.6673 19.7631 76.9064 21.5203 74.7344 21.5203ZM78.6673 9.82916V11.503C77.861 10.0945 76.5248 9.32812 74.3997 9.32812C69.732 9.32812 66.1152 12.9372 66.1152 17.5955C66.1152 22.2536 69.5644 26.0298 74.2323 26.0298C76.4732 26.0298 77.8488 25.2278 78.6673 23.7891V25.3616H83.2699V9.82916H78.6673Z" fill="#3067F0"/>
<path fill-rule="evenodd" clip-rule="evenodd" d="M85.4451 9.8291H96.993V13.5034L90.9679 21.8542H96.993V25.3615H85.4451V22.1883L92.0557 13.3364H85.4451V9.8291Z" fill="#3067F0"/>
<path fill-rule="evenodd" clip-rule="evenodd" d="M99.0859 25.3605H103.772V9.82812H99.0859V25.3605Z" fill="#3067F0"/>
<path fill-rule="evenodd" clip-rule="evenodd" d="M111.47 11.4146V9.82916H107.119V25.3618H111.805V16.635C111.805 13.7542 115.404 14.0047 115.404 14.0047V9.32812C113.13 9.32812 111.977 10.5988 111.47 11.4146Z" fill="#3067F0"/>
<path fill-rule="evenodd" clip-rule="evenodd" d="M115.988 9.82812H121.595L124.105 13.9199L126.616 9.82812H132.222L126.867 17.0934L132.808 25.11V25.3605H127.201L124.105 20.6007L121.009 25.3605H115.402V25.11L121.26 17.0934L115.988 9.82812Z" fill="#3067F0"/>
<path fill-rule="evenodd" clip-rule="evenodd" d="M103.437 6.40454C103.437 5.29762 102.537 4.40039 101.428 4.40039C100.319 4.40039 99.4199 5.29762 99.4199 6.40454C99.4199 7.51147 100.319 8.4087 101.428 8.4087C102.537 8.4087 103.437 7.51147 103.437 6.40454Z" fill="#3067F0"/>
<path fill-rule="evenodd" clip-rule="evenodd" d="M1.39844 29.9803H33.1698V26.2432H1.39844V29.9803Z" fill="#3067F0"/>
<path fill-rule="evenodd" clip-rule="evenodd" d="M7.83694 11.4887L0 6.0625L1.44069 22.2567L7.83694 11.4887Z" fill="#3067F0"/>
<path fill-rule="evenodd" clip-rule="evenodd" d="M11.1835 24.2497H33.2014L34.779 6.47754L11.1835 24.2497Z" fill="#3067F0"/>
<path fill-rule="evenodd" clip-rule="evenodd" d="M24.7807 11.1538L7.54232 24.1252H2.79492L11.5544 9.36019L17.1457 0L24.7807 11.1538Z" fill="#3067F0"/>
</svg>
