<svg width="141" height="27" viewBox="0 0 141 27" fill="none" xmlns="http://www.w3.org/2000/svg">
<g clip-path="url(#clip0_36308_17024)">
<path d="M117.155 9.52975L113.034 9.13269V4.03711H109.512V5.95622C109.512 9.92681 111.107 11.3165 112.968 11.9121H109.512V16.5444C109.512 21.1106 111.771 22.9636 116.158 22.9636C120.544 22.9636 122.804 21.1768 122.804 16.5444V15.9489C122.804 10.5224 119.879 9.79446 117.155 9.52975ZM119.281 12.9709V19.7209H113.034V11.9121C113.699 12.1106 114.43 12.243 115.161 12.3753L119.281 12.9709ZM127.722 4.03711C126.592 4.03711 125.861 4.76505 125.861 5.89005C125.861 7.01505 126.592 7.74299 127.722 7.74299C128.851 7.74299 129.582 7.01505 129.582 5.89005C129.582 4.76505 128.851 4.03711 127.722 4.03711ZM140.88 9.46357H136.295V6.28711H132.772C132.772 10.8533 135.032 12.7062 139.418 12.7062H140.88V9.46357Z" fill="#EABC4B"/>
<path d="M136.293 19.7202V12.2423H132.771V16.5438C132.771 21.1099 135.031 22.9629 139.417 22.9629H140.879V19.7202H136.293ZM125.926 9.46289H129.448V22.9629H125.926V9.46289Z" fill="#EABC4B"/>
<path d="M77.677 4.03711C76.5472 4.03711 75.8162 4.76505 75.8162 5.89005C75.8162 7.01505 76.5472 7.74299 77.677 7.74299C78.8068 7.74299 79.5379 7.01505 79.5379 5.89005C79.5379 4.76505 78.8068 4.03711 77.677 4.03711ZM100.074 9.46357H93.4279V11.118C93.4279 15.6842 95.6875 17.5371 100.074 17.5371H106.72V15.8827C106.72 11.2503 104.394 9.46357 100.074 9.46357ZM96.9502 14.5592V12.3753H103.197V14.5592H96.9502ZM86.2503 9.46357V6.28711H82.7279C82.7279 10.8533 84.9875 12.7062 89.3738 12.7062H90.8359V9.46357H86.2503Z" fill="black"/>
<path d="M86.2503 19.7209V12.243H82.7279V16.5444C82.7279 21.1106 84.9875 22.9636 89.3739 22.9636H90.836V19.7209H86.2503ZM75.8826 9.46357H79.405V22.9636H75.8826V9.46357ZM66.8442 9.52975L62.7237 9.13269V4.03711H59.2014V5.95622C59.2014 9.92681 60.7964 11.3165 62.6573 11.9121H59.2014V22.9636H62.7237V11.9121C63.3883 12.1106 64.1194 12.243 64.8504 12.3753L68.9709 12.9709V22.9636H72.4932V15.9489C72.4932 10.5224 69.5025 9.79446 66.8442 9.52975ZM52.0238 19.7209H47.7704V9.46357H44.248V16.5444C44.248 21.1106 46.5077 22.9636 50.894 22.9636H55.5461V9.46357H52.0238V19.7209Z" fill="black"/>
<path d="M40.1276 19.7202V9.46289H36.6052V16.5438C36.6052 21.1099 38.8648 22.9629 43.2511 22.9629H44.7132V19.7202H40.1276ZM96.9502 19.7202V17.0732H93.4278C93.4278 21.1099 95.6875 22.9629 100.074 22.9629H105.989V19.7202H96.9502Z" fill="black"/>
<path d="M0.916651 9C0.384977 9.86029 0.119141 10.8529 0.119141 11.9779H7.36319L10.3539 9H0.916651Z" fill="#EABC4B"/>
<path d="M13.2774 6.02148H6.03337C3.84022 6.02148 1.9129 7.21266 0.916016 8.99942H10.2868L13.2774 6.02148Z" fill="#24BCFF"/>
<path d="M33.7466 0.0661763H26.5025C23.246 0.0661763 20.5877 2.71323 20.5877 5.95588H13.3436L19.3249 0H12.0809C8.82438 0 6.16602 2.64706 6.16602 5.8897V16.2794C6.16602 22.1691 11.0175 27 16.9324 27H27.8317V6.02205L33.7466 0.0661763ZM20.1225 15.4853C19.6439 15.0134 19.3741 14.3695 19.3741 13.6985C19.3741 13.0275 19.6439 12.3836 20.1225 11.9118L23.7112 15.4853C23.2374 15.9617 22.5907 16.2304 21.9168 16.2304C21.243 16.2304 20.5963 15.9617 20.1225 15.4853Z" fill="black"/>
</g>
<defs>
<clipPath id="clip0_36308_17024">
<rect width="141" height="27" rx="4" fill="white"/>
</clipPath>
</defs>
</svg>
