<svg width="142" height="35" viewBox="0 0 142 35" fill="none" xmlns="http://www.w3.org/2000/svg">
<g clip-path="url(#clip0_36308_17036)">
<path d="M65.7531 12.0957H58.0752L60.7372 8.78466H76.6295V12.0957H70.0077V27.3418H65.7531V12.0957ZM47.1156 17.9686L40.554 8.78444H45.7672L49.692 14.9026L53.9472 8.78444H59.1003L52.3288 17.9686L59.1003 27.3416H54.0967L49.692 20.9712L45.3779 27.3416H40.3142L47.1156 17.9686ZM118.296 9.01544H135.009C136.174 8.97364 137.34 9.09592 138.474 9.37962C139.24 9.60974 139.933 10.0549 140.479 10.6676C141.534 12.0321 142.068 13.7656 141.973 15.5256V26.9358H137.421V16.3027C137.438 15.6988 137.404 15.0943 137.319 14.4967C137.249 14.148 137.084 13.8292 136.844 13.5795C136.253 13.0406 135.482 12.7731 134.704 12.8374H132.291V26.9356H127.74V12.8374H122.847V26.9356H118.296V9.01544ZM106.203 12.5085C103.463 12.5085 102.092 14.3495 102.092 18.0315C102.025 19.2161 102.26 20.3981 102.772 21.4544C103.479 22.7559 104.819 23.5252 106.237 23.4425C108.93 23.4425 110.276 21.6131 110.276 17.9544C110.278 14.3775 108.92 12.5621 106.203 12.5085ZM106.169 8.75642C109.226 8.75642 111.479 9.71313 112.929 11.6265C114.309 13.5048 115.018 15.8369 114.933 18.2134C115.042 20.7247 114.126 23.1646 112.417 24.9126C110.876 26.4316 108.77 27.1922 106.098 27.1946C103.334 27.1946 101.171 26.3357 99.6091 24.6186C98.1594 23.0716 97.4346 20.8129 97.4346 17.8426C97.3618 15.5583 98.1013 13.3281 99.5071 11.5916C101.049 9.72247 103.27 8.77754 106.169 8.75642ZM95.0607 9.01544V12.8374H89.6248C87.7903 12.8374 86.5225 13.2854 85.8205 14.1674C85.1409 15.0005 84.8013 16.2767 84.8013 17.9966C84.8013 19.9098 85.3561 21.3076 86.4653 22.1894C86.9089 22.5278 87.4111 22.7704 87.9434 22.9036C88.6752 23.061 89.4218 23.129 90.1684 23.1065H95.0607V26.9356H88.8434C87.499 26.9861 86.1563 26.7991 84.8702 26.3824C83.8655 25.9962 82.975 25.337 82.2877 24.4715C80.8237 22.6474 80.06 20.3096 80.1475 17.9195C80.1475 14.7272 80.9968 12.3473 82.6957 10.7794C83.399 10.1287 84.2368 9.66132 85.1416 9.41431C86.3551 9.11816 87.5989 8.98409 88.844 9.01544H95.0611H95.0607ZM73.0874 24.0586C73.1116 23.0176 73.9296 22.1939 74.9145 22.2197C75.8994 22.245 76.6782 23.1099 76.6543 24.1511C76.6305 25.174 75.8393 25.9902 74.8714 25.9907C73.8747 25.9764 73.0767 25.112 73.0874 24.0586Z" fill="#FFBE40"/>
<path d="M73.088 24.0584C73.1122 23.0172 73.9301 22.1937 74.9153 22.2194C75.9 22.2448 76.6788 23.1094 76.6548 24.1509C76.6311 25.1738 75.8398 25.99 74.8719 25.9902C73.8752 25.9762 73.0773 25.1118 73.088 24.0584Z" fill="#FFBE40"/>
<path d="M24.6439 9.35166C24.3663 9.35389 24.1036 9.48417 23.9248 9.70851L18.5612 16.6667L16.1269 19.8165L12.9551 23.9188C12.6186 24.3386 12.6678 24.9671 13.0649 25.3231C13.4622 25.6788 14.057 25.6265 14.3933 25.207L17.3441 21.406L20.294 25.207C20.4696 25.4358 20.7349 25.5674 21.0137 25.5638H23.4434C23.9662 25.5603 24.3877 25.1096 24.3846 24.5567C24.3831 24.3232 24.3046 24.0973 24.1625 23.9188L19.7741 18.2557L25.3802 10.9965C25.7098 10.5578 25.6406 9.91995 25.2256 9.57133C25.0595 9.4317 24.8542 9.35455 24.642 9.35144M17.2871 15.0986L20.4589 10.9965C20.7919 10.5652 20.7311 9.9304 20.3231 9.57822C20.158 9.43593 19.9527 9.35611 19.7398 9.35144C19.462 9.353 19.1991 9.48351 19.0207 9.70851L16.0699 13.5164L13.1194 9.70851C12.944 9.47928 12.6789 9.34788 12.4003 9.35144H9.96602C9.44232 9.35633 9.02168 9.80923 9.02652 10.3628C9.02841 10.5947 9.10644 10.8186 9.24693 10.9965L13.6359 16.6667L8.02981 23.9188C7.68551 24.3317 7.72295 24.9615 8.11351 25.3257C8.50408 25.6897 9.09992 25.6501 9.44442 25.2372C9.45263 25.2272 9.46083 25.217 9.46882 25.207L14.853 18.2559L17.2871 15.0986ZM16.6963 2.59648C8.91021 2.53711 2.55263 9.16112 2.49627 17.3922C2.44011 25.623 8.70641 32.3437 16.4925 32.4033C24.2786 32.4627 30.6361 25.8384 30.6925 17.6076C30.6927 17.5718 30.6929 17.5356 30.6929 17.4996C30.7112 9.30253 24.4504 2.63605 16.6963 2.59648ZM16.6963 34.9995C7.55385 35.0724 0.086624 27.2963 0.0180594 17.6316C-0.0509258 7.96696 7.30504 0.073204 16.4475 0.000499725C25.5899 -0.0719795 33.0571 7.70372 33.1259 17.3686C33.1263 17.4122 33.1263 17.4558 33.1263 17.4996C33.1495 27.1235 25.8002 34.9515 16.6963 34.9995Z" fill="#FFBE40"/>
</g>
<defs>
<clipPath id="clip0_36308_17036">
<rect width="142" height="35" rx="4" fill="white"/>
</clipPath>
</defs>
</svg>
