<svg width="64" height="62" viewBox="0 0 64 62" fill="none" xmlns="http://www.w3.org/2000/svg">
<path d="M33.7292 30.1452C33.4792 29.1452 33.3334 28.3327 33.0626 27.541C30.3542 19.541 26.0001 12.416 21.0417 5.6452C20.4584 4.85353 19.7292 4.10353 18.9167 3.60353C18.4792 3.3327 17.6042 3.37437 17.1042 3.6452C16.7292 3.85353 16.4584 4.66603 16.5417 5.12437C16.6876 5.99937 17.0001 6.8952 17.4376 7.68687C20.3126 12.916 23.2084 18.1244 26.1459 23.3119C27.2501 25.2494 28.4167 27.166 29.5626 29.0827C29.9376 29.7285 30.3542 30.3535 30.7917 30.9369C31.2709 31.6035 32.0001 31.9994 32.7292 31.5619C33.2084 31.2702 33.7292 31.0619 33.7292 30.1452Z" fill="#CD4631"/>
<path d="M4.22915 61.1667C5.22915 61 6.39582 60.875 7.52082 60.625C11.9583 59.625 16.3958 58.625 20.8125 57.5834C21.7708 57.3542 22.7083 56.9584 23.5625 56.5C24.7083 55.8959 25.1041 55.0417 24.9166 54.1042C24.7291 53.1667 23.9792 52.5834 22.6667 52.5625C21.7708 52.5417 20.8125 52.5625 19.9583 52.7709C14.3541 54.1875 8.74999 55.6459 3.16665 57.125C2.54165 57.2917 1.89582 57.5834 1.41665 58C0.208319 59.0209 0.583319 60.625 2.12499 61.0209C2.72915 61.1667 3.41665 61.1042 4.22915 61.1667Z" fill="#CD4631"/>
<path d="M62.7708 5.31216C62.6875 4.333 62.4791 3.35383 62.2291 2.3955C62 1.54133 61.4166 0.937166 60.4791 0.853832C59.6875 0.791332 58.8333 1.583 58.7083 2.62467C58.5416 4.0205 58.3958 5.43717 58.4583 6.833C58.6458 11.0413 58.9166 15.2705 59.2083 19.4788C59.3125 20.8747 59.5 22.2705 59.7291 23.6663C59.8125 24.1455 59.9791 24.6455 60.25 25.0205C60.9791 26.083 62.3125 25.9997 62.8333 24.8538C63.125 24.208 63.25 23.4163 63.25 22.708C63.3541 20.3747 63.0416 8.7705 62.7708 5.31216Z" fill="#CD4631"/>
</svg>
