<svg width="89" height="73" viewBox="0 0 89 73" fill="none" xmlns="http://www.w3.org/2000/svg">
<path d="M72.1227 45.2307C69.7312 45.2179 67.7058 45.2579 65.6873 45.1828C62.2635 45.0696 58.8872 44.8055 55.7189 43.2538C52.506 41.6764 50.7606 39.1025 50.8401 35.5997C50.8923 33.4491 51.5278 31.3181 51.9781 29.1991C52.1585 28.3715 52.5752 27.5811 53.0234 26.3927C51.3415 27.2455 50.0309 27.9361 48.6928 28.5711C45.4298 30.1367 42.2279 31.8368 38.8785 33.1741C34.298 35.0299 30.8192 33.398 29.1151 28.7267C28.4482 26.8944 28.2229 24.881 27.8162 22.9413C27.6975 22.3573 27.6639 21.763 27.5755 21.0577C25.2324 23.5708 23.041 25.993 20.7712 28.3105C15.47 33.7152 10.5137 30.5562 8.5059 25.6898C7.96866 24.3883 7.7409 22.9286 7.50227 21.522C7.37445 20.5759 7.75968 19.6683 8.80587 19.5388C9.75197 19.411 10.2299 20.1627 10.4859 21.0242C10.7504 21.8708 10.9595 22.7449 11.3116 23.5429C11.7248 24.4753 12.1529 25.4164 12.7412 26.2517C14.4004 28.5973 16.226 28.9376 18.4871 27.1504C20.0856 25.8925 21.5063 24.3932 22.9247 22.9323C24.2447 21.5731 25.5075 20.1413 26.7703 18.7094C27.4295 17.9798 28.1184 17.2673 29.1885 17.5085C30.4181 17.7823 30.622 18.8714 30.8155 19.8753C31.0697 21.152 31.1299 22.4556 31.4544 23.7135C31.8434 25.306 32.2707 26.9008 32.8965 28.3922C33.7521 30.4127 34.8868 30.9885 37.0061 30.408C39.0317 29.8527 41.0727 29.1675 42.9869 28.2902C47.0777 26.3896 51.0839 24.361 55.0987 22.3174C56.0507 21.8361 56.9098 21.6185 57.7436 22.3377C58.5413 23.0163 58.4031 23.908 58.0499 24.7945C57.4168 26.3718 56.7071 27.9445 56.1569 29.5499C55.68 30.9597 55.2156 32.4163 55.0047 33.8805C54.4314 37.7921 55.8104 39.9363 59.5055 41.2966C62.2821 42.3247 65.1699 42.7827 68.1104 42.8745C70.229 42.9479 72.3482 42.8828 74.4565 42.8709C75.5725 42.8609 76.7267 42.8533 77.2279 44.1141C77.6869 45.3108 76.9716 46.2063 76.2289 47.0463C75.9079 47.3963 75.536 47.697 75.179 48.0063C74.4501 48.6164 73.7486 49.2819 72.9626 49.8194C67.1437 53.8545 66.3371 59.4751 67.9423 65.7943C68.2417 66.9584 68.9077 68.0368 69.4416 69.138C69.7011 69.6843 70.1333 70.1718 70.3225 70.737C70.4676 71.138 70.5052 71.794 70.2677 72.0336C70.0131 72.3029 69.3656 72.3256 68.9675 72.294C68.1033 72.2114 67.2329 71.5899 66.7332 70.9446C65.7487 69.6625 64.8094 68.2677 64.2453 66.7723C62.9823 63.4659 62.7912 59.9853 63.2179 56.4649C63.5827 53.4639 65.1329 51.0878 67.3202 49.1192C68.7654 47.8521 70.2953 46.7132 72.1227 45.2307Z" fill="#81ADC8"/>
</svg>
