<svg width="92" height="29" viewBox="0 0 92 29" fill="none" xmlns="http://www.w3.org/2000/svg">
<path d="M0.156 22.696C0.156 26.402 2.808 28.374 5.902 28.374C8.69 28.374 10.696 26.708 11.58 25.722V26.64C11.58 28.068 11.988 28.374 13.518 28.374C14.878 28.374 16.884 28.068 17.666 27.864V25.96H15.83V15.556C15.83 10.626 14.164 8.688 8.962 8.688C5.12 8.688 1.72 10.592 0.938 11.272L1.992 13.448C3.08 12.938 5.154 11.918 7.738 11.918C10.662 11.918 11.308 13.04 11.308 15.658V16.44C5.154 16.474 0.156 18.378 0.156 22.696ZM8.078 25.552C6.378 25.552 5.222 24.43 5.222 22.22C5.222 20.18 7.024 18.514 11.308 18.514V24.09C10.424 24.872 9.064 25.552 8.078 25.552ZM23.6918 25.654L21.7198 25.96V28H30.5938V25.96L28.5538 25.654V13.278C29.5058 12.564 31.1038 11.612 32.7018 11.612C35.0478 11.612 35.5918 12.938 35.5918 16.304V25.688L33.7558 25.96V28H42.5278V25.96L40.4538 25.688V16.304C40.4538 10.864 39.1278 8.722 35.0138 8.722C32.2258 8.722 29.5058 10.15 28.0778 11.476L28.1118 10.66V9.334L27.2618 8.654H27.1598L21.5158 9.368V11.714L23.6918 12.326V25.654ZM52.6424 28.306C55.0904 28.306 57.8444 27.32 59.0004 26.436L58.3544 24.532C57.6404 24.838 56.2804 25.178 55.0564 25.178C53.4924 25.178 53.3224 24.906 53.3224 21.268V11.714H58.4904V9.096H53.2884L53.1524 4.098H50.4324C50.1604 5.05 49.6844 6.784 49.3104 7.634C49.0384 8.382 48.7324 8.858 48.3244 9.164C47.8144 9.402 46.8964 9.708 46.2504 9.946V11.714H48.4604V24.192C48.4604 27.116 49.8544 28.306 52.6424 28.306ZM66.8553 6.002H66.8893C68.8953 6.002 69.9833 4.778 69.9833 3.01C69.9833 1.65 69.1333 0.459998 67.1953 0.459998C65.3253 0.459998 64.2033 1.752 64.2033 3.452C64.2033 4.88 65.1553 6.002 66.8553 6.002ZM65.0533 25.654L62.6733 25.96V28H72.1593V25.96L69.8813 25.688V9.334L68.9293 8.654H68.8613L62.6393 9.402V11.68L65.0533 12.326V25.654ZM76.1544 18.718C76.1544 24.226 78.8744 28.374 84.8924 28.374C87.9864 28.374 90.5704 26.81 91.5224 25.79L90.7404 24.022C89.6864 24.702 88.0884 25.416 85.9804 25.416C83.1924 25.416 81.2544 22.832 81.2544 17.698C81.2884 12.768 82.9204 10.83 85.3344 10.83C86.2524 10.83 87.1704 11.034 87.3404 11.714L88.1904 15.454H91.1484L91.3524 9.64C90.2984 9.436 88.6324 8.62 85.8104 8.62C79.8264 8.62 76.1204 12.802 76.1544 18.718Z" fill="#534B42"/>
</svg>
