<svg width="22" height="14" viewBox="0 0 22 14" fill="none" xmlns="http://www.w3.org/2000/svg">
<path d="M13.1875 2.5C13.1875 2.35082 13.2468 2.20774 13.3523 2.10225C13.4577 1.99676 13.6008 1.9375 13.75 1.9375H19.75C19.8992 1.9375 20.0423 1.99676 20.1477 2.10225C20.2532 2.20774 20.3125 2.35082 20.3125 2.5C20.3125 2.64918 20.2532 2.79226 20.1477 2.89775C20.0423 3.00324 19.8992 3.0625 19.75 3.0625H13.75C13.6008 3.0625 13.4577 3.00324 13.3523 2.89775C13.2468 2.79226 13.1875 2.64918 13.1875 2.5ZM21.0625 9.25C21.0625 9.39918 21.0032 9.54226 20.8977 9.64775C20.7923 9.75324 20.6492 9.8125 20.5 9.8125H13.6094C13.7432 10.5483 14.1307 11.2139 14.7045 11.6935C15.2783 12.1731 16.0021 12.4364 16.75 12.4375C17.1687 12.4401 17.5837 12.3585 17.9703 12.1974C18.3568 12.0364 18.707 11.7992 19 11.5C19.1067 11.3963 19.2497 11.3384 19.3984 11.3384C19.5472 11.3384 19.6901 11.3963 19.7969 11.5C19.8505 11.5516 19.8931 11.6135 19.9222 11.6819C19.9513 11.7504 19.9663 11.824 19.9663 11.8984C19.9663 11.9728 19.9513 12.0465 19.9222 12.1149C19.8931 12.1834 19.8505 12.2453 19.7969 12.2969C19.0908 13.0018 18.162 13.4401 17.169 13.5371C16.1759 13.634 15.18 13.3836 14.3508 12.8285C13.5217 12.2734 12.9107 11.448 12.622 10.4929C12.3333 9.53776 12.3847 8.5121 12.7674 7.59065C13.1502 6.6692 13.8406 5.90899 14.7211 5.43955C15.6015 4.97012 16.6175 4.82051 17.5959 5.01623C18.5743 5.21195 19.4546 5.74088 20.0867 6.51289C20.7188 7.2849 21.0637 8.25222 21.0625 9.25ZM19.8906 8.6875C19.7623 7.94761 19.3769 7.27677 18.8023 6.79327C18.2278 6.30976 17.5009 6.04464 16.75 6.04464C15.9991 6.04464 15.2722 6.30976 14.6977 6.79327C14.1231 7.27677 13.7377 7.94761 13.6094 8.6875H19.8906ZM10.9375 9.8125C10.9375 10.8071 10.5424 11.7609 9.83915 12.4642C9.13589 13.1674 8.18206 13.5625 7.1875 13.5625H1C0.850816 13.5625 0.707742 13.5032 0.602252 13.3977C0.496763 13.2923 0.4375 13.1492 0.4375 13V1C0.4375 0.850816 0.496763 0.707742 0.602252 0.602252C0.707742 0.496763 0.850816 0.4375 1 0.4375H6.0625C6.73742 0.437406 7.39687 0.639669 7.95568 1.01817C8.51448 1.39666 8.94697 1.93401 9.19728 2.5608C9.44759 3.18759 9.50423 3.87503 9.35988 4.53433C9.21553 5.19364 8.87682 5.79452 8.3875 6.25937C9.13081 6.51044 9.77666 6.98831 10.2341 7.62571C10.6916 8.26311 10.9376 9.02794 10.9375 9.8125ZM1.5625 6.0625H6.0625C6.65924 6.0625 7.23153 5.82545 7.65349 5.40349C8.07545 4.98153 8.3125 4.40924 8.3125 3.8125C8.3125 3.21576 8.07545 2.64347 7.65349 2.22151C7.23153 1.79955 6.65924 1.5625 6.0625 1.5625H1.5625V6.0625ZM9.8125 9.8125C9.81003 9.11707 9.53267 8.45082 9.04093 7.95907C8.54918 7.46733 7.88293 7.18997 7.1875 7.1875H1.5625V12.4375H7.1875C7.88293 12.435 8.54918 12.1577 9.04093 11.6659C9.53267 11.1742 9.81003 10.5079 9.8125 9.8125Z" fill="#DAC5A7"/>
</svg>
