<svg width="20" height="20" viewBox="0 0 20 20" fill="none" xmlns="http://www.w3.org/2000/svg">
<path d="M19.5625 10.0657V10C19.5634 8.57868 19.2465 7.17512 18.6349 5.89205C18.0234 4.60898 17.1327 3.47886 16.0281 2.58441L15.9813 2.53753L15.9344 2.50003C14.2468 1.16051 12.1546 0.433356 10 0.437531C8.56771 0.433838 7.15354 0.757718 5.86563 1.38441L5.75313 1.43128C4.44678 2.08276 3.30602 3.02331 2.41747 4.18151C1.52891 5.33972 0.915912 6.68515 0.625003 8.11566V8.13441C0.499813 8.74838 0.436994 9.37343 0.437503 10C0.437865 11.4855 0.784627 12.9504 1.45024 14.2784C2.11586 15.6063 3.08199 16.7608 4.27188 17.65L4.36563 17.725H4.38438C6.01445 18.9167 7.98078 19.5601 10 19.5625C11.0828 19.5658 12.158 19.3818 13.1781 19.0188L13.2344 19C15.0718 18.3355 16.6624 17.1256 17.7933 15.5322C18.9242 13.9389 19.5415 12.0382 19.5625 10.0844V10.0657ZM18.4188 9.46566C18.1188 9.44691 17.8094 9.43753 17.5 9.43753C16.0669 9.43583 14.6405 9.63463 13.2625 10.0282C12.9154 8.97599 12.4631 7.96149 11.9125 7.00003L11.8656 6.93441C13.2993 6.0897 14.5903 5.02338 15.6906 3.77503C17.3043 5.24582 18.2826 7.28655 18.4188 9.46566ZM14.8094 3.07191C13.7901 4.22917 12.5902 5.21378 11.2563 5.98753C10.1777 4.43392 8.82802 3.0874 7.27188 2.01253C8.52352 1.58695 9.85757 1.4611 11.1667 1.64509C12.4759 1.82909 13.7235 2.3178 14.8094 3.07191ZM6.03438 2.55628C7.69414 3.57951 9.12928 4.92855 10.2531 6.52191C8.30077 7.45527 6.16399 7.939 4 7.93753C3.28459 7.93609 2.57022 7.88283 1.8625 7.77816C2.16659 6.66996 2.69335 5.63537 3.41064 4.73755C4.12792 3.83974 5.02067 3.09754 6.03438 2.55628ZM1.5625 10C1.56384 9.62694 1.58889 9.25432 1.6375 8.88441C2.41975 9 3.20926 9.05952 4 9.06253C6.38277 9.06731 8.73446 8.52189 10.8719 7.46878L10.9375 7.57191C11.4528 8.45994 11.8739 9.39942 12.1938 10.375C11.3454 10.6781 10.5264 11.0578 9.74688 11.5094C7.64661 12.7127 5.85803 14.3921 4.525 16.4125C3.59666 15.6217 2.85102 14.6387 2.33954 13.5316C1.82807 12.4245 1.56296 11.2196 1.5625 10ZM5.425 17.0875C7.12618 14.5092 9.60099 12.5366 12.4938 11.4532C12.7639 12.5641 12.8992 13.7036 12.8969 14.8469C12.901 15.9227 12.7814 16.9953 12.5406 18.0438C11.3574 18.4188 10.1059 18.5275 8.87577 18.3622C7.64561 18.1969 6.46723 17.7616 5.425 17.0875ZM13.7969 17.5375C13.9466 16.6485 14.0219 15.7485 14.0219 14.8469C14.0231 13.5865 13.872 12.3305 13.5719 11.1063C14.8504 10.7473 16.172 10.5644 17.5 10.5625C17.8094 10.5625 18.1094 10.5719 18.4188 10.5907C18.3148 12.0494 17.8344 13.4563 17.0243 14.6738C16.2142 15.8914 15.1022 16.8781 13.7969 17.5375Z" fill="#DAC5A7"/>
</svg>
