<svg width="20" height="20" viewBox="0 0 20 20" fill="none" xmlns="http://www.w3.org/2000/svg">
<path d="M19.5625 10C19.5625 8.10872 19.0017 6.25991 17.9509 4.68736C16.9002 3.11482 15.4067 1.88917 13.6594 1.16541C11.9121 0.441643 9.9894 0.252274 8.13445 0.621245C6.27951 0.990216 4.57564 1.90096 3.2383 3.2383C1.90096 4.57564 0.990216 6.27951 0.621245 8.13445C0.252274 9.9894 0.441643 11.9121 1.16541 13.6594C1.88917 15.4067 3.11482 16.9002 4.68736 17.9509C6.25991 19.0017 8.10872 19.5625 10 19.5625C12.5354 19.56 14.9662 18.5518 16.759 16.759C18.5518 14.9662 19.56 12.5354 19.5625 10ZM10.5625 18.4188V12.0625H13C13.1492 12.0625 13.2923 12.0032 13.3978 11.8978C13.5032 11.7923 13.5625 11.6492 13.5625 11.5C13.5625 11.3508 13.5032 11.2077 13.3978 11.1023C13.2923 10.9968 13.1492 10.9375 13 10.9375H10.5625V8.5C10.565 8.05321 10.7435 7.62542 11.0595 7.30948C11.3754 6.99355 11.8032 6.81497 12.25 6.8125H13.75C13.8992 6.8125 14.0423 6.75324 14.1478 6.64775C14.2532 6.54226 14.3125 6.39919 14.3125 6.25C14.3125 6.10082 14.2532 5.95775 14.1478 5.85226C14.0423 5.74677 13.8992 5.6875 13.75 5.6875H12.25C11.5048 5.68998 10.7909 5.98709 10.264 6.514C9.73709 7.04091 9.43998 7.75484 9.4375 8.5V10.9375H7C6.85082 10.9375 6.70775 10.9968 6.60226 11.1023C6.49677 11.2077 6.4375 11.3508 6.4375 11.5C6.4375 11.6492 6.49677 11.7923 6.60226 11.8978C6.70775 12.0032 6.85082 12.0625 7 12.0625H9.4375V18.4188C7.25334 18.2728 5.21138 17.2837 3.74285 15.6604C2.27432 14.037 1.49419 11.9064 1.5672 9.71862C1.64021 7.5308 2.56064 5.45699 4.13413 3.93514C5.70761 2.41328 7.81097 1.56253 10 1.56253C12.189 1.56253 14.2924 2.41328 15.8659 3.93514C17.4394 5.45699 18.3598 7.5308 18.4328 9.71862C18.5058 11.9064 17.7257 14.037 16.2572 15.6604C14.7886 17.2837 12.7467 18.2728 10.5625 18.4188Z" fill="#DAC5A7"/>
</svg>
