<svg width="18" height="20" viewBox="0 0 18 20" fill="none" xmlns="http://www.w3.org/2000/svg">
<path d="M17.0625 8.50003C17.0625 10.5672 16.3406 12.4553 15.03 13.8185C13.8113 15.086 12.1603 15.8125 10.5 15.8125C8.67938 15.8125 7.54219 15.1497 6.87844 14.5338L5.7975 19.1275C5.76872 19.2512 5.69896 19.3615 5.59956 19.4404C5.50016 19.5194 5.37696 19.5625 5.25 19.5625C5.20675 19.5626 5.16364 19.5575 5.12156 19.5475C4.97638 19.5134 4.85067 19.4231 4.77209 19.2963C4.69351 19.1696 4.66848 19.0168 4.7025 18.8716L7.7025 6.1216C7.718 6.0483 7.74798 5.97885 7.79068 5.9173C7.83339 5.85575 7.88796 5.80335 7.95119 5.76318C8.01442 5.72301 8.08503 5.69587 8.15889 5.68336C8.23275 5.67085 8.30837 5.67322 8.3813 5.69033C8.45423 5.70744 8.52301 5.73894 8.58361 5.78299C8.6442 5.82704 8.69538 5.88275 8.73415 5.94685C8.77292 6.01095 8.79849 6.08215 8.80937 6.15627C8.82025 6.23039 8.81621 6.30593 8.7975 6.37847L7.19531 13.1875C7.45781 13.5935 8.36344 14.6875 10.5 14.6875C13.1728 14.6875 15.9375 12.3728 15.9375 8.50003C15.9372 7.43612 15.6921 6.38653 15.2213 5.43245C14.7505 4.47836 14.0666 3.64534 13.2224 2.9978C12.3783 2.35025 11.3965 1.90554 10.353 1.69804C9.30952 1.49055 8.23229 1.52584 7.20462 1.80117C6.17694 2.07651 5.22636 2.58452 4.42639 3.28592C3.62641 3.98731 2.99847 4.86331 2.59113 5.84616C2.18378 6.82901 2.00795 7.89238 2.07722 8.95404C2.14649 10.0157 2.45902 11.0472 2.99063 11.9688C3.02917 12.0328 3.05457 12.1039 3.06535 12.1778C3.07612 12.2518 3.07205 12.3271 3.05338 12.3995C3.0347 12.4719 3.00179 12.5398 2.95658 12.5993C2.91136 12.6588 2.85474 12.7087 2.79002 12.746C2.72531 12.7834 2.65379 12.8075 2.57966 12.8169C2.50552 12.8264 2.43025 12.8209 2.35824 12.8009C2.28623 12.7809 2.21893 12.7468 2.16027 12.7005C2.1016 12.6542 2.05275 12.5967 2.01656 12.5313C1.3986 11.4603 1.03526 10.2615 0.954653 9.02757C0.874041 7.79369 1.07831 6.5578 1.55167 5.41548C2.02504 4.27316 2.7548 3.25502 3.68453 2.43981C4.61425 1.62459 5.71903 1.03415 6.91342 0.714138C8.1078 0.394127 9.35979 0.353124 10.5726 0.5943C11.7853 0.835476 12.9264 1.35237 13.9074 2.105C14.8885 2.85764 15.6833 3.82584 16.2304 4.93474C16.7775 6.04364 17.0622 7.26352 17.0625 8.50003Z" fill="#DAC5A7"/>
</svg>
