<svg width="22" height="19" viewBox="0 0 22 19" fill="none" xmlns="http://www.w3.org/2000/svg">
<path d="M21.0158 3.53442C20.9734 3.43234 20.9019 3.345 20.8102 3.28331C20.7185 3.22162 20.6107 3.18831 20.5001 3.18754H17.5376C17.1715 2.515 16.6328 1.95209 15.9771 1.55666C15.3213 1.16122 14.5721 0.947532 13.8064 0.937541C12.6559 0.93254 11.5503 1.3835 10.7316 2.19172C9.9128 2.99994 9.44755 4.09961 9.43765 5.25004V6.06567C5.46265 5.11879 2.1814 1.88442 2.1439 1.85629C2.07162 1.78494 1.98138 1.73449 1.88274 1.7103C1.78411 1.6861 1.68076 1.68906 1.58367 1.71886C1.48659 1.74866 1.39938 1.80419 1.3313 1.87955C1.26323 1.95492 1.21682 2.04731 1.19702 2.14692C0.381396 6.60942 1.72202 9.59067 2.98765 11.3063C3.6589 12.2249 4.48347 13.0209 5.42515 13.6594C3.97202 15.4219 1.5814 16.3407 1.55327 16.35C1.4734 16.3795 1.40139 16.4269 1.34285 16.4887C1.28431 16.5505 1.24082 16.6249 1.21577 16.7063C1.18917 16.7857 1.18125 16.8701 1.19263 16.953C1.20402 17.036 1.23439 17.1152 1.2814 17.1844C1.37515 17.325 2.2939 18.5625 5.50015 18.5625C12.0345 18.5625 17.5001 13.5094 18.0251 7.02192L20.8939 4.14379C20.9752 4.0676 21.0307 3.9679 21.0525 3.85864C21.0744 3.74938 21.0615 3.63602 21.0158 3.53442ZM17.0783 6.37504C16.9808 6.47233 16.9238 6.603 16.9189 6.74067C16.5345 12.7407 11.5189 17.4375 5.50015 17.4375C4.19702 17.4375 3.36265 17.2125 2.86577 16.9875C3.92515 16.4532 5.65952 15.4032 6.7189 13.8094C6.7611 13.7433 6.7895 13.6694 6.80239 13.5921C6.81528 13.5147 6.81239 13.4356 6.7939 13.3594C6.77391 13.2815 6.73769 13.2086 6.68761 13.1456C6.63753 13.0826 6.57471 13.0309 6.50327 12.9938C6.48452 12.9938 5.07827 12.2625 3.85952 10.5938C2.4064 8.60629 1.83452 6.17817 2.15327 3.37504C3.52202 4.53754 6.47515 6.73129 9.9064 7.30317C9.98716 7.31851 10.0703 7.31565 10.1498 7.29481C10.2294 7.27397 10.3032 7.23567 10.3661 7.18269C10.4289 7.12971 10.4792 7.06339 10.5132 6.98855C10.5472 6.91371 10.5641 6.83223 10.5626 6.75004V5.25004C10.5701 4.40046 10.9134 3.58835 11.5177 2.9911C12.122 2.39386 12.938 2.06003 13.7876 2.06254C14.4015 2.0714 15 2.25634 15.5118 2.59537C16.0237 2.93439 16.4275 3.41326 16.6751 3.97504C16.7179 4.0761 16.7898 4.16215 16.8816 4.22225C16.9734 4.28235 17.081 4.31378 17.1908 4.31254H19.1408L17.0783 6.37504Z" fill="#DAC5A7"/>
</svg>
