<svg width="18" height="16" viewBox="0 0 18 16" fill="none" xmlns="http://www.w3.org/2000/svg">
<path d="M18 13.3333V14C17.9985 14.5299 17.779 15.0378 17.3899 15.4125C17.0008 15.7872 16.4734 15.9985 15.9231 16H2.07692C1.52664 15.9985 0.999218 15.7872 0.610101 15.4125C0.220984 15.0378 0.00154286 14.5299 0 14V13.3333C0.000463609 13.1567 0.0737131 12.9874 0.203364 12.8625C0.333016 12.7377 0.508878 12.6671 0.692292 12.6667H6.92306V14H11.0769V12.6667H17.3077C17.4911 12.6671 17.667 12.7377 17.7966 12.8625C17.9262 12.9874 17.9995 13.1567 18 13.3333H18ZM6.92308 11.3333H0.692308V2C0.693853 1.4701 0.913288 0.962209 1.30241 0.587505C1.69153 0.2128 2.21895 0.00148571 2.76923 0H15.2308C15.7811 0.00148808 16.3085 0.212796 16.6976 0.587505C17.0867 0.962213 17.3062 1.4701 17.3077 2V11.3333H11.0769C10.7101 11.3344 10.3585 11.4752 10.099 11.725C9.83955 11.9748 9.69338 12.3134 9.69231 12.6667H8.30769C8.30661 12.3134 8.16042 11.9749 7.90097 11.725C7.64152 11.4751 7.28996 11.3344 6.92308 11.3333ZM3.46154 3.33333C3.46216 3.50997 3.53525 3.67931 3.6649 3.80415C3.79455 3.92899 3.97042 3.99939 4.15383 3.99998H13.8461C14.0935 3.99998 14.3221 3.8729 14.4457 3.66665C14.5693 3.4604 14.5693 3.20623 14.4457 2.99998C14.3221 2.79374 14.0935 2.66665 13.8461 2.66665H4.15383C3.9704 2.66725 3.79454 2.73763 3.6649 2.86248C3.53526 2.98733 3.46216 3.15668 3.46154 3.3333V3.33333ZM4.15385 6.66667H13.8462C14.0936 6.66667 14.3221 6.53959 14.4457 6.33333C14.5694 6.12708 14.5694 5.87291 14.4457 5.66667C14.3221 5.46042 14.0936 5.33333 13.8462 5.33333H4.15385C3.90644 5.33333 3.67789 5.46042 3.55427 5.66667C3.43064 5.87292 3.43064 6.12709 3.55427 6.33333C3.67789 6.53958 3.90645 6.66667 4.15385 6.66667Z" fill="#006D77"/>
</svg>
