<svg width="20" height="17" viewBox="0 0 20 17" fill="none" xmlns="http://www.w3.org/2000/svg">
<path d="M8.27727 14.7404H0.905626C0.854912 14.7404 0.805727 14.7204 0.769603 14.6843C0.73348 14.6481 0.713472 14.5989 0.713472 14.5482L0.714167 2.52881H0.000833645L0 15.409H8.13139C8.43734 15.409 8.72938 15.555 8.91238 15.7995C9.02381 15.9479 9.20068 16.0363 9.38673 16.0363H9.7534C9.65878 15.3059 9.03299 14.7401 8.27744 14.7401L8.27727 14.7404Z" fill="#006D77"/>
<path d="M7.62112 14.1287L2.36155 12.8527C2.27541 12.832 2.21469 12.755 2.21469 12.6667L2.21553 1.70044L1.0986 1.70058V2.34249L1.0979 14.3566H8.26751C8.07689 14.2728 7.86235 14.196 7.62101 14.129L7.62112 14.1287Z" fill="#006D77"/>
<path d="M8.13494 1.33369C6.85503 0.96701 3.51419 0.206726 2.59971 0L2.59888 12.5153L7.71759 13.7567C8.83146 14.0665 9.43713 14.5692 9.76543 15.0419L9.76627 3.07617C9.74695 2.14306 8.75533 1.51185 8.13497 1.33358L8.13494 1.33369Z" fill="#006D77"/>
<path d="M19.2054 2.52905L19.2046 14.5485C19.2046 14.6546 19.1184 14.7406 19.0124 14.7406H11.6408C10.8851 14.7406 10.2594 15.3064 10.1648 16.0367H10.5315C10.7167 16.0367 10.8936 15.9483 11.005 15.7999C11.1886 15.5555 11.4808 15.4094 11.786 15.4094H19.9181L19.9189 2.5292L19.2054 2.52905Z" fill="#006D77"/>
<path d="M11.6475 14.3562H18.8203L18.821 1.70044H17.704L17.7033 12.6667C17.7033 12.755 17.6426 12.8319 17.5565 12.8527L12.2909 14.1303C12.0504 14.1971 11.8374 14.2732 11.6476 14.3562L11.6475 14.3562Z" fill="#006D77"/>
<path d="M12.1938 13.7585L17.319 12.5155L17.3197 0.000244141C16.4049 0.206988 13.0642 0.96729 11.7844 1.33393C11.1641 1.51233 10.1725 2.14341 10.1533 3.08044L10.1526 15.0405C10.4801 14.5685 11.0842 14.0665 12.1942 13.7583L12.1938 13.7585Z" fill="#006D77"/>
</svg>
