<svg width="16" height="16" viewBox="0 0 16 16" fill="none" xmlns="http://www.w3.org/2000/svg">
<path d="M12.0695 1.78353C11.662 1.78353 11.279 1.942 10.9904 2.23006C10.4841 2.73743 10.4114 3.51505 10.7693 4.10152L7.4147 7.51821C7.2423 7.69384 7.24479 7.97594 7.42055 8.14859C7.52018 8.24636 7.65377 8.2879 7.78237 8.27347C7.88076 8.2624 7.97604 8.21887 8.05079 8.14274L11.4369 4.6939C11.6331 4.78358 11.8476 4.83222 12.0699 4.83222C12.4771 4.83222 12.8602 4.67375 13.1482 4.38591C13.7421 3.79161 13.7421 2.82402 13.1478 2.22923C12.86 1.94178 12.4771 1.78344 12.0695 1.78344L12.0695 1.78353ZM12.6435 3.88178C12.4905 4.03477 12.2865 4.1191 12.0697 4.1191C11.8527 4.1191 11.649 4.03477 11.4959 3.88153C11.1796 3.56535 11.1794 3.05038 11.495 2.73409C11.6484 2.5811 11.8524 2.49652 12.0696 2.49652C12.2867 2.49652 12.4904 2.58085 12.6434 2.73347C12.9597 3.05053 12.9598 3.56548 12.6435 3.88177L12.6435 3.88178ZM15.5436 0.530375L15.5324 0.356736C15.521 0.177871 15.3787 0.0354466 15.1999 0.0236331L15.0268 0.0124386C14.9959 0.010324 14.8275 0 14.5579 0C13.2781 0 10.0754 0.225756 7.98596 2.31602C7.72948 2.5725 7.48517 2.83757 7.25731 3.10724C6.97346 2.96992 6.6446 2.89628 6.30267 2.89628C5.68637 2.89628 5.10461 3.12465 4.70671 3.52307L2.53248 5.69717C2.28645 5.94233 2.36095 6.23849 2.40101 6.39783C2.4081 6.42656 2.41581 6.45579 2.42153 6.48552C2.45536 6.66612 2.54206 6.83043 2.67191 6.96016C2.75003 7.03827 2.84245 7.10133 2.94954 7.14947L4.88584 7.99864L2.97594 9.90845C2.91288 9.97151 2.87556 10.056 2.87183 10.1453C2.87146 10.1551 2.86972 10.2284 2.88464 10.3448C2.09205 10.5463 0.994131 11.1322 0.82508 12.3858C0.80779 12.5141 0.861648 12.6413 0.965011 12.7188C1.06825 12.7964 1.20607 12.8115 1.32435 12.759C1.55745 12.6552 1.90124 12.5656 2.13496 12.5755C1.91032 12.8334 1.43332 13.1784 0.515493 13.1376C0.363869 13.1321 0.22431 13.2208 0.168347 13.3618C0.112127 13.5029 0.151183 13.664 0.266113 13.7633C0.301563 13.7942 0.937286 14.3342 1.77913 14.3836C1.40811 14.8104 0.891273 15.2406 0.356545 15.2406C0.172331 15.2406 0.0184754 15.3808 0.00156708 15.5643C-0.0155979 15.7476 0.110028 15.9138 0.291007 15.9476C0.318123 15.9526 0.582689 16 0.978961 16C1.60934 16 2.57283 15.8802 3.44349 15.2802C4.28407 14.7012 4.84917 13.8035 5.13302 12.615C5.23091 12.6291 5.30193 12.6316 5.33614 12.6316C5.34808 12.6316 5.35579 12.6312 5.3584 12.6311C5.44758 12.6273 5.53204 12.5903 5.59498 12.527L7.53822 10.5837L8.43888 12.637C8.48329 12.741 8.54697 12.8349 8.62882 12.9175C8.75917 13.0479 8.9236 13.1346 9.10333 13.1673C9.15856 13.1779 9.2149 13.183 9.271 13.183C9.5128 13.183 9.74055 13.0889 9.91281 12.9174L12.1097 10.7202C12.7618 10.0683 12.8907 9.07382 12.4638 8.28598C12.7316 8.05823 12.9916 7.81828 13.2394 7.57004C15.8143 4.99654 15.5556 0.710243 15.5435 0.530334L15.5436 0.530375ZM11.7678 7.93722C11.7571 7.9458 11.7489 7.95575 11.7394 7.96521C10.8527 8.58464 8.75869 9.89925 7.25825 9.66368C6.88846 9.59514 6.58284 9.44377 6.34813 9.20919C6.11777 8.97846 5.96765 8.67956 5.8975 8.31923C5.89538 8.30194 5.89377 8.28639 5.89103 8.26786C5.61291 6.39289 7.77696 3.61665 7.95231 3.39534C8.12384 3.20031 8.30309 3.00789 8.49051 2.82069C10.3915 0.918744 13.3668 0.713361 14.5577 0.713361C14.6734 0.713361 14.7682 0.715475 14.8384 0.717838C14.8651 1.46725 14.8658 4.93599 12.7349 7.06624C12.429 7.3726 12.1035 7.66577 11.7675 7.9372L11.7678 7.93722Z" fill="#098591"/>
</svg>
