<svg width="1920" height="694" viewBox="0 0 1920 694" fill="none" xmlns="http://www.w3.org/2000/svg">
<g opacity="0.3">
<path d="M0.778809 692.503H383.46C419.546 517.947 543.079 209.62 748.518 372.763C953.958 535.906 1200.02 355.139 1297.36 244.363L1483.67 692.503H1924.26" stroke="white"/>
<path d="M0.778809 682.363H383.46C419.546 507.807 543.079 199.48 748.518 362.623C953.958 525.766 1200.02 344.999 1297.36 234.223L1483.67 682.363H1924.26" stroke="white"/>
<path d="M0.778809 672.223H383.46C419.546 497.667 543.079 189.34 748.518 352.483C953.958 515.626 1200.02 334.859 1297.36 224.083L1483.67 672.223H1924.26" stroke="white"/>
<path d="M0.778809 662.083H383.46C419.546 487.526 543.079 179.199 748.518 342.343C953.958 505.486 1200.02 324.719 1297.36 213.943L1483.67 662.083H1924.26" stroke="white"/>
<path d="M0.778809 651.943H383.46C419.546 477.386 543.079 169.059 748.518 332.202C953.958 495.346 1200.02 314.579 1297.36 203.803L1483.67 651.943H1924.26" stroke="white"/>
<path d="M0.778809 641.803H383.46C419.546 467.246 543.079 158.919 748.518 322.062C953.958 485.205 1200.02 304.439 1297.36 193.663L1483.67 641.803H1924.26" stroke="white"/>
<path d="M0.778809 631.662H383.46C419.546 457.106 543.079 148.779 748.518 311.922C953.958 475.065 1200.02 294.299 1297.36 183.522L1483.67 631.662H1924.26" stroke="white"/>
<path d="M0.778809 621.522H383.46C419.546 446.966 543.079 138.639 748.518 301.782C953.958 464.925 1200.02 284.159 1297.36 173.382L1483.67 621.522H1924.26" stroke="white"/>
<path d="M0.778809 611.382H383.46C419.546 436.826 543.079 128.499 748.518 291.642C953.958 454.785 1200.02 274.018 1297.36 163.242L1483.67 611.382H1924.26" stroke="white"/>
<path d="M0.778809 601.242H383.46C419.546 426.686 543.079 118.359 748.518 281.502C953.958 444.645 1200.02 263.878 1297.36 153.102L1483.67 601.242H1924.26" stroke="white"/>
<path d="M0.778809 591.102H383.46C419.546 416.545 543.079 108.218 748.518 271.362C953.958 434.505 1200.02 253.738 1297.36 142.962L1483.67 591.102H1924.26" stroke="white"/>
<path d="M0.778809 580.962H383.46C419.546 406.405 543.079 98.0783 748.518 261.221C953.958 424.365 1200.02 243.598 1297.36 132.822L1483.67 580.962H1924.26" stroke="white"/>
<path d="M0.778809 570.822H383.46C419.546 396.265 543.079 87.9382 748.518 251.081C953.958 414.224 1200.02 233.458 1297.36 122.682L1483.67 570.822H1924.26" stroke="white"/>
<path d="M0.778809 560.681H383.46C419.546 386.125 543.079 77.798 748.518 240.941C953.958 404.084 1200.02 223.318 1297.36 112.542L1483.67 560.681H1924.26" stroke="white"/>
<path d="M0.778809 550.541H383.46C419.546 375.985 543.079 67.6579 748.518 230.801C953.958 393.944 1200.02 213.178 1297.36 102.401L1483.67 550.541H1924.26" stroke="white"/>
<path d="M0.778809 540.401H383.46C419.546 365.845 543.079 57.5177 748.518 220.661C953.958 383.804 1200.02 203.037 1297.36 92.2612L1483.67 540.401H1924.26" stroke="white"/>
<path d="M0.778809 530.261H383.46C419.546 355.705 543.079 47.3776 748.518 210.521C953.958 373.664 1200.02 192.897 1297.36 82.1211L1483.67 530.261H1924.26" stroke="white"/>
<path d="M0.778809 520.121H383.46C419.546 345.564 543.079 37.2375 748.518 200.381C953.958 363.524 1200.02 182.757 1297.36 71.981L1483.67 520.121H1924.26" stroke="white"/>
<path d="M0.778809 509.981H383.46C419.546 335.424 543.079 27.0973 748.518 190.24C953.958 353.384 1200.02 172.617 1297.36 61.8408L1483.67 509.981H1924.26" stroke="white"/>
<path d="M0.778809 499.841H383.46C419.546 325.284 543.079 16.9572 748.518 180.1C953.958 343.243 1200.02 162.477 1297.36 51.7007L1483.67 499.841H1924.26" stroke="white"/>
<path d="M0.778809 489.701H383.46C419.546 315.144 543.079 6.81706 748.518 169.96C953.958 333.103 1200.02 152.337 1297.36 41.5605L1483.67 489.701H1924.26" stroke="white"/>
<path d="M0.778809 479.56H383.46C419.546 305.004 543.079 -3.32307 748.518 159.82C953.958 322.963 1200.02 142.197 1297.36 31.4204L1483.67 479.56H1924.26" stroke="white"/>
<path d="M0.778809 469.42H383.46C419.546 294.864 543.079 -13.4632 748.518 149.68C953.958 312.823 1200.02 132.056 1297.36 21.2803L1483.67 469.42H1924.26" stroke="white"/>
<path d="M0.778809 459.28H383.46C419.546 284.724 543.079 -23.6033 748.518 139.54C953.958 302.683 1200.02 121.916 1297.36 11.1401L1483.67 459.28H1924.26" stroke="white"/>
<path d="M0.778809 449.14H383.46C419.546 274.584 543.079 -33.7435 748.518 129.4C953.958 292.543 1200.02 111.776 1297.36 1L1483.67 449.14H1924.26" stroke="white"/>
</g>
</svg>
