<svg width="37" height="33" viewBox="0 0 37 33" fill="none" xmlns="http://www.w3.org/2000/svg">
<path d="M9.71799 18.8002C11.1687 19.2268 12.278 20.0375 13.046 21.2322C13.8993 22.3415 14.326 23.7068 14.326 25.3282C14.326 27.3762 13.686 29.0402 12.406 30.3202C11.126 31.6002 9.54732 32.2402 7.66999 32.2402C5.62199 32.2402 3.95799 31.6002 2.67799 30.3202C1.48332 28.9548 0.885986 27.2908 0.885986 25.3282C0.885986 24.3042 0.97132 23.3228 1.14199 22.3842C1.39799 21.3602 1.86732 19.9095 2.54999 18.0322L7.92599 0.368164H14.07L9.71799 18.8002ZM31.478 18.8002C32.9287 19.2268 34.038 20.0375 34.806 21.2322C35.6593 22.3415 36.086 23.7068 36.086 25.3282C36.086 27.3762 35.446 29.0402 34.166 30.3202C32.886 31.6002 31.3073 32.2402 29.43 32.2402C27.382 32.2402 25.718 31.6002 24.438 30.3202C23.2433 28.9548 22.646 27.2908 22.646 25.3282C22.646 24.3042 22.7313 23.3228 22.902 22.3842C23.158 21.3602 23.6273 19.9095 24.31 18.0322L29.686 0.368164H35.83L31.478 18.8002Z" fill="white"/>
</svg>
