<svg width="50" height="50" viewBox="0 0 50 50" fill="none" xmlns="http://www.w3.org/2000/svg">
<path d="M38.6528 32.0737H43.5873V33.7186H38.6528V32.0737Z" fill="#101828"/>
<path d="M35.3635 37.0085H43.5877V38.6534H35.3635V37.0085Z" fill="#101828"/>
<path d="M35.3635 41.9426H43.5877V43.5875H35.3635V41.9426Z" fill="#101828"/>
<path d="M16.4057 8.63526C16.3073 8.34228 16.0532 8.12933 15.7478 8.08344L13.3408 7.71592L12.258 5.40733C12.1225 5.11875 11.8325 4.93481 11.5138 4.93481C11.1951 4.93481 10.905 5.11875 10.7696 5.40733L9.68464 7.71742L7.27764 8.08494C6.97291 8.13157 6.71958 8.34452 6.62155 8.63677C6.52388 8.92939 6.59768 9.25175 6.81284 9.4724L8.57957 11.2817L8.16102 13.8477C8.10999 14.1587 8.24143 14.4712 8.49917 14.6525C8.75654 14.8339 9.09505 14.8523 9.37078 14.6999L11.5138 13.5162L13.6569 14.7006C13.9326 14.853 14.2712 14.8347 14.5285 14.6533C14.7863 14.4719 14.9177 14.1595 14.8667 13.8485L14.4481 11.2825L16.2149 9.47315V9.47352C16.4307 9.25212 16.5045 8.9283 16.4058 8.63531L16.4057 8.63526ZM12.9813 10.4299H12.9809C12.7988 10.6164 12.7162 10.8786 12.758 11.1363L12.9702 12.4408L11.911 11.8552C11.6635 11.7186 11.3639 11.7186 11.1165 11.8552L10.0572 12.4408L10.2694 11.1363C10.3113 10.8786 10.2286 10.6164 10.0465 10.4299L9.1081 9.46839L10.3671 9.276C10.6384 9.23452 10.8708 9.06048 10.9872 8.81229L11.5137 7.69287L12.0402 8.8138C12.1566 9.06199 12.389 9.23602 12.6603 9.27751L13.9193 9.4699L12.9813 10.4299Z" fill="#101828"/>
<path d="M32.9384 8.63526C32.8404 8.92752 32.9142 9.25024 33.1293 9.47089L34.8961 11.2802L34.4775 13.8462C34.4265 14.1568 34.5579 14.4696 34.8157 14.651C35.0731 14.8324 35.4116 14.8507 35.6873 14.698L37.8304 13.5162L39.9734 14.7006C40.2492 14.853 40.5877 14.8347 40.845 14.6533C41.1028 14.4719 41.2342 14.1595 41.1832 13.8485L40.7646 11.2825L42.5314 9.47316V9.47353C42.7465 9.25286 42.8203 8.93015 42.7227 8.6379C42.6246 8.34528 42.3713 8.13233 42.0666 8.08607L39.6596 7.71855L38.5746 5.40733C38.4392 5.11875 38.1491 4.93481 37.8304 4.93481C37.5117 4.93481 37.2217 5.11875 37.0862 5.40733L36.0013 7.71742L33.5943 8.08494C33.2899 8.13157 33.037 8.34378 32.9386 8.6353L32.9384 8.63526ZM36.6838 9.27594C36.9551 9.23445 37.1875 9.06042 37.3039 8.81223L37.8304 7.69281L38.3569 8.81373C38.4733 9.06192 38.7057 9.23596 38.977 9.27744L40.236 9.46983L39.2975 10.4314C39.1154 10.6182 39.0328 10.8804 39.0747 11.1377L39.2869 12.4422L38.2276 11.8566C37.9802 11.7204 37.6806 11.7204 37.4331 11.8566L36.3738 12.4422L36.5861 11.1377C36.6279 10.8804 36.5453 10.6182 36.3632 10.4314L35.4248 9.46983L36.6838 9.27594Z" fill="#101828"/>
<path d="M30.3867 4.33052C30.2883 4.03754 30.0342 3.82423 29.7288 3.7787L26.7534 3.3238L25.4166 0.472517C25.2811 0.183939 24.9911 0 24.6724 0C24.3537 0 24.0636 0.183939 23.9282 0.472517L22.5892 3.3238L19.6138 3.78274C19.3091 3.82937 19.0558 4.04231 18.9577 4.33456C18.8601 4.62682 18.9339 4.94954 19.149 5.17019L21.327 7.40133L20.8115 10.5629H20.8111C20.7608 10.8735 20.8919 11.1856 21.1493 11.3669C21.4063 11.5479 21.7444 11.5667 22.0201 11.4147L24.6724 9.94494L27.3248 11.4106C27.6005 11.5626 27.9386 11.5439 28.1956 11.3629C28.453 11.1815 28.5841 10.8691 28.5338 10.5585L28.0179 7.40134L30.1959 5.1702C30.4125 4.94844 30.4863 4.62388 30.3868 4.33053L30.3867 4.33052ZM26.5508 6.54587C26.3687 6.73275 26.2861 6.99489 26.3279 7.25263L26.6378 9.15151L25.0693 8.28541H25.0696C24.8222 8.1492 24.5226 8.1492 24.2751 8.28541L22.7066 9.15151L23.0165 7.25263H23.0169C23.0587 6.99489 22.9761 6.73275 22.794 6.54587L21.4444 5.16281L23.2743 4.88377C23.5453 4.84228 23.778 4.66825 23.8944 4.42006L24.6724 2.75728L25.453 4.42006C25.5694 4.66825 25.8018 4.84228 26.0731 4.88377L27.9003 5.16243L26.5508 6.54587Z" fill="#101828"/>
<path d="M4.11172 49.3447H25.4945C25.5991 49.3451 25.7027 49.3252 25.7996 49.2863L25.8143 49.2797L33.4627 46.2221C34.8512 48.178 37.1004 49.3415 39.4994 49.3447H45.9143C46.7763 49.3642 47.613 49.0521 48.2511 48.4724C48.8896 47.893 49.281 47.0901 49.3445 46.2303C49.4051 45.112 48.8915 44.0398 47.9817 43.3863C47.3197 42.9523 46.9081 42.2251 46.8773 41.4339V33.7428C46.8751 31.7742 46.092 29.8867 44.7001 28.4944C43.3079 27.1025 41.4203 26.3194 39.4517 26.3172H35.3635V24.6724H36.1859C36.5299 24.672 36.8372 24.4576 36.9565 24.1349C37.0755 23.8125 36.9815 23.4498 36.7205 23.2258L25.2067 13.3569C24.899 13.0936 24.4452 13.0936 24.1375 13.3569L20.5601 16.4229V15.6258C20.5601 15.4077 20.4734 15.1985 20.3192 15.0443C20.165 14.8901 19.9558 14.8034 19.7377 14.8034H16.448C15.9939 14.8034 15.6256 15.1717 15.6256 15.6258V20.5603C15.6256 20.5882 15.6388 20.6113 15.6414 20.6385L12.6238 23.2258C12.3628 23.4497 12.2688 23.8125 12.3878 24.1348C12.5071 24.4576 12.8144 24.672 13.1584 24.6724H13.9808V37.0086C13.9808 37.2267 14.0675 37.4359 14.2217 37.5901C14.3759 37.7443 14.5851 37.831 14.8032 37.831H21.3825C21.6006 37.831 21.8099 37.7443 21.9641 37.5901C22.1183 37.4359 22.205 37.2267 22.205 37.0086V32.8965H27.1394V37.0086C27.1394 37.2267 27.2261 37.4359 27.3803 37.5901C27.5345 37.7443 27.7438 37.831 27.9619 37.831H32.0739V41.9192C32.0758 42.5499 32.1587 43.1782 32.3206 43.7876L25.8155 41.1856L25.8008 41.179H25.8004C25.7134 41.1459 25.6209 41.1283 25.5277 41.1272C25.5163 41.1272 25.5071 41.1206 25.4957 41.1206H4.112C2.64303 41.1206 1.28534 41.9045 0.550999 43.1766C-0.183666 44.4488 -0.183666 46.0166 0.550999 47.2887C1.2853 48.5609 2.64303 49.3447 4.112 49.3447L4.11172 49.3447ZM17.2703 16.4481H18.9152V17.8323L17.2703 19.2443V16.4481ZM24.6721 15.0639L33.9654 23.0274H15.3788L24.6721 15.0639ZM32.0738 36.1863H28.7841V32.0743C28.7841 31.8562 28.6975 31.6469 28.5433 31.4927C28.3891 31.3385 28.1798 31.2519 27.9617 31.2519H21.3824C20.9283 31.2519 20.56 31.6201 20.56 32.0743V36.1863H15.6255V24.6726H33.7186V26.3174H33.0361C32.1748 26.299 31.3395 26.6118 30.7021 27.1912C30.0648 27.7709 29.6741 28.5728 29.6106 29.4319C29.55 30.5502 30.0637 31.6224 30.9735 32.2759C31.634 32.7109 32.0438 33.4379 32.0738 34.2283L32.0738 36.1863ZM31.9357 30.9427C31.4794 30.6156 31.2213 30.0781 31.2514 29.5175C31.2984 29.0809 31.508 28.6785 31.8388 28.39C32.17 28.1017 32.5974 27.949 33.0361 27.9622H39.4509C40.9838 27.9637 42.453 28.5732 43.5369 29.657C44.6211 30.7408 45.2306 32.2101 45.2324 33.743V41.434C45.2585 42.7539 45.923 43.9787 47.0153 44.7196C47.4717 45.0468 47.7298 45.5843 47.6997 46.1449C47.6527 46.5814 47.443 46.9838 47.1122 47.2724C46.7811 47.5606 46.3537 47.7134 45.915 47.7001H39.5002C37.9673 47.6987 36.498 47.0892 35.4141 46.0054C34.33 44.9216 33.7204 43.4523 33.7186 41.9194V34.2283C33.6926 32.9084 33.028 31.6837 31.9357 30.9427ZM26.3169 43.1577L31.5047 45.2328L26.3169 47.3079V43.1577ZM8.22381 42.7656H24.6721V44.4104H8.22381V42.7656ZM8.22381 46.0552H24.6721V47.7001H8.22381V46.0552ZM4.11174 42.7656H6.57898V47.7001H4.11174C3.23022 47.7001 2.41587 47.2297 1.97497 46.4664C1.53439 45.7031 1.53439 44.7625 1.97497 43.9992C2.41591 43.2359 3.23021 42.7656 4.11174 42.7656Z" fill="#101828"/>
</svg>
