<svg width="62" height="50" viewBox="0 0 62 50" fill="none" xmlns="http://www.w3.org/2000/svg">
<path d="M36.3186 23.4016C36.9581 22.6982 36.8939 21.6751 36.2548 21.036C35.5514 20.3964 34.5283 20.4606 33.8892 21.0998L29.9889 25.2555L28.2625 23.4015C27.6229 22.6982 26.6002 22.6982 25.8968 23.3378C25.1935 23.9773 25.1935 25.0001 25.8331 25.7034L28.7745 28.9003C29.0943 29.2201 29.5416 29.4119 29.9894 29.4119C30.4372 29.4119 30.8845 29.2201 31.2044 28.9003L36.3186 23.4016Z" fill="#101828"/>
<path d="M60.9351 23.018C60.2955 22.3784 59.2086 22.3784 58.5695 23.018L56.0122 25.5753L56.0117 25C56.0117 11.2532 44.8225 0 31.0118 0C23.0833 0 15.5386 3.83654 10.8072 10.2941C10.2318 11.0612 10.4236 12.0844 11.1907 12.6597C11.9579 13.2351 12.981 13.0433 13.5564 12.2762C17.6489 6.71361 24.1707 3.3887 31.0767 3.3887C43.0332 3.3887 52.6879 13.1075 52.6879 24.9999V25.5115L50.1306 22.9542C49.491 22.3146 48.4041 22.3146 47.765 22.9542C47.1254 23.5937 47.1254 24.6806 47.765 25.3198L53.1357 30.6905C53.4555 31.0103 53.9028 31.2021 54.3506 31.2021C54.7984 31.2021 55.182 31.0103 55.5656 30.6905L60.9363 25.3198C61.6392 24.6802 61.6392 23.6572 60.9358 23.018H60.9351Z" fill="#101828"/>
<path d="M48.5308 37.724C44.503 43.2865 37.9811 46.6114 31.0756 46.6114C19.1191 46.6114 9.46433 36.8927 9.46433 25.0002V24.4886L12.0216 27.0459C12.3414 27.3657 12.7888 27.5575 13.2366 27.5575C13.6844 27.5575 14.0679 27.3657 14.4515 27.0459C15.0911 26.4064 15.0911 25.3195 14.4515 24.6803L8.95283 19.2458C8.31326 18.6062 7.22637 18.6062 6.58721 19.2458L1.21649 24.6165C0.576924 25.2561 0.576924 26.343 1.21649 26.9821C1.85606 27.6217 2.94295 27.6217 3.5821 26.9821L6.13942 24.4248L6.13986 25.0002C6.13986 38.7469 17.3291 50.0001 31.1398 50.0001C39.0683 50.0001 46.6129 46.1636 51.3444 39.706C51.9197 38.9389 51.728 37.9157 50.9608 37.3404C50.129 36.8288 49.1064 36.9564 48.5306 37.724H48.5308Z" fill="#101828"/>
<path d="M43.9274 25.0003C43.9274 17.9031 38.1732 12.1487 31.0758 12.1487C23.9784 12.1487 18.2241 17.9029 18.2241 25.0003C18.2241 32.0977 23.9784 37.852 31.0758 37.852C38.1732 37.852 43.9274 32.0977 43.9274 25.0003ZM21.5489 25.0003C21.5489 19.7571 25.8328 15.4734 31.0759 15.4734C36.319 15.4734 40.6028 19.7573 40.6028 25.0003C40.6028 30.2434 36.319 34.5273 31.0759 34.5273C25.8328 34.5273 21.5489 30.2434 21.5489 25.0003Z" fill="#101828"/>
</svg>
