<svg width="56" height="50" viewBox="0 0 56 50" fill="none" xmlns="http://www.w3.org/2000/svg">
<path d="M27.7286 0.000122075C21.599 0.00727888 15.7228 2.44541 11.3884 6.77951C7.05477 11.1136 4.6162 16.9899 4.60899 23.1197V26.6285C3.35459 27.1438 2.28157 28.0206 1.52685 29.1472C0.771575 30.2736 0.368408 31.599 0.368408 32.9556V41.7928C0.368408 43.6069 1.08885 45.3464 2.37179 46.6294C3.65428 47.9119 5.39432 48.6328 7.20837 48.6328H9.57488V48.5779C10.428 49.4563 11.596 49.9577 12.8202 49.9715C14.0441 49.9854 15.2235 49.5102 16.0956 48.6513C16.9682 47.793 17.4625 46.6217 17.4682 45.3973V29.3503C17.4696 28.1183 16.9768 26.937 16.0998 26.072C15.2229 25.2065 14.0349 24.7299 12.8035 24.7479C11.5715 24.7666 10.3984 25.2785 9.54764 26.1693V26.1144L7.3453 26.1149V23.1191C7.3453 17.7129 9.4928 12.5286 13.315 8.70636C17.1377 4.88367 22.3225 2.73617 27.7278 2.73617C33.1331 2.73617 38.3184 4.88367 42.1406 8.70636C45.9628 12.529 48.1103 17.7134 48.1103 23.1191V26.1149H45.894V26.1698V26.1693C45.0423 25.2852 43.8719 24.778 42.6439 24.7622C41.4158 24.746 40.2326 25.2222 39.3576 26.0838C38.483 26.946 37.9897 28.1221 37.9872 29.3501V45.3972C37.9858 46.6291 38.4787 47.8105 39.3556 48.6755C40.2325 49.541 41.4205 50.0176 42.652 49.9995C43.8839 49.9809 45.0571 49.4689 45.9078 48.5776V48.6325H48.2471C50.0611 48.6325 51.8012 47.9116 53.0837 46.6291C54.3666 45.3462 55.087 43.6066 55.087 41.7926V32.9553C55.0861 31.5975 54.681 30.2706 53.9233 29.1441C53.1657 28.0172 52.0897 27.1416 50.8325 26.6282V23.1194C50.8254 16.9923 48.3892 11.118 44.0579 6.78415C39.7266 2.4503 33.8543 0.0109928 27.7275 0L27.7286 0.000122075ZM11.0122 29.3509C11.0122 28.6834 11.3681 28.0669 11.9459 27.7335C12.5237 27.4 13.2351 27.4 13.8128 27.7335C14.3906 28.067 14.7466 28.6834 14.7466 29.3509V45.3979C14.7466 46.065 14.3906 46.6814 13.8128 47.0149C13.235 47.3484 12.5236 47.3484 11.9459 47.0149C11.3682 46.6814 11.0122 46.0649 11.0122 45.3979V29.3509ZM8.27643 45.8902H7.20912C6.12081 45.8902 5.07688 45.4579 4.30726 44.6883C3.53767 43.9187 3.10492 42.8748 3.10492 41.7865V32.956C3.10492 31.8672 3.53767 30.8237 4.30726 30.0541C5.07686 29.284 6.12083 28.8518 7.20912 28.8518H8.30362C8.29456 29.0183 8.29456 29.1848 8.30362 29.3513V45.3983C8.29456 45.5649 8.29456 45.7314 8.30362 45.8974L8.27643 45.8902ZM44.4122 45.3906V45.3911C44.4122 46.0581 44.0563 46.6746 43.4785 47.008C42.9007 47.3415 42.1888 47.3415 41.6111 47.008C41.0333 46.6745 40.6773 46.0581 40.6773 45.3911V29.3514C40.6773 28.6839 41.0333 28.0674 41.6111 27.734C42.1889 27.4005 42.9008 27.4005 43.4785 27.734C44.0563 28.0675 44.4122 28.6839 44.4122 29.3514V45.3906ZM52.3534 32.9566V41.7938C52.3534 42.8821 51.9207 43.926 51.1511 44.6957C50.3815 45.4652 49.3375 45.8975 48.2492 45.8975H47.1547C47.1638 45.7315 47.1638 45.565 47.1547 45.3984V29.3514C47.1638 29.1849 47.1638 29.0184 47.1547 28.8519H48.2492C49.3375 28.8519 50.3815 29.2841 51.1511 30.0542C51.9207 30.8238 52.3534 31.8673 52.3534 32.9561V32.9566Z" fill="#101828"/>
</svg>
