<svg width="51" height="51" viewBox="0 0 51 51" fill="none" xmlns="http://www.w3.org/2000/svg">
<path d="M16.8002 36.8368C16.577 36.8368 16.3549 36.7657 16.1695 36.6246C12.5207 33.8557 10.4275 29.6299 10.4275 25.0308C10.4275 16.9791 16.9777 10.429 25.0294 10.429C33.0811 10.429 39.6312 16.9791 39.6312 25.0308C39.6312 29.63 37.538 33.8565 33.8888 36.6255C33.5487 36.8843 33.0852 36.9081 32.7206 36.6883C32.3548 36.4678 32.1603 36.0478 32.2292 35.6264C32.2965 35.2144 32.3305 34.8081 32.3305 34.418C32.3305 30.3924 29.0555 27.1173 25.0298 27.1173C21.0042 27.1173 17.7291 30.3923 17.7291 34.418C17.7291 34.8069 17.7631 35.214 17.8305 35.6275C17.8986 36.0485 17.7037 36.4688 17.3379 36.6882C17.1714 36.7877 16.9857 36.8373 16.8003 36.8373L16.8002 36.8368ZM25.0293 12.5142C18.1281 12.5142 12.5136 18.1288 12.5136 25.03C12.5136 28.1726 13.6535 31.1118 15.7001 33.376C16.2191 28.6876 20.2051 25.03 25.0293 25.03C29.8533 25.03 33.8392 28.688 34.3586 33.376C36.4053 31.1118 37.5451 28.1726 37.5451 25.03C37.5451 18.1288 31.9305 12.5142 25.0293 12.5142Z" fill="#101828"/>
<path d="M25.0293 39.632C21.7974 39.632 18.7326 38.5909 16.165 36.6214C15.9543 36.4595 15.8132 36.223 15.7704 35.9608C15.6861 35.4373 15.6426 34.9178 15.6426 34.4173C15.6426 29.2416 19.8536 25.0305 25.0293 25.0305C30.2051 25.0305 34.4161 29.2415 34.4161 34.4173C34.4161 34.9193 34.373 35.4395 34.2871 35.9619C34.2443 36.2241 34.1032 36.4602 33.8929 36.6213C31.3256 38.5908 28.261 39.632 25.0293 39.632L25.0293 39.632ZM17.774 35.2171C19.9024 36.7424 22.4015 37.546 25.0297 37.546C27.6571 37.546 30.1567 36.7425 32.2854 35.2171C32.3153 34.9451 32.3308 34.6772 32.3308 34.417C32.3308 30.3913 29.0557 27.1162 25.03 27.1162C21.0044 27.1162 17.7293 30.3912 17.7293 34.417C17.7285 34.6765 17.7437 34.9451 17.7739 35.2171H17.774ZM33.2581 35.7936H33.2683H33.2581Z" fill="#101828"/>
<path d="M25.0322 27.1172C22.157 27.1172 19.8171 24.7777 19.8171 21.9021C19.8171 19.0269 22.1566 16.687 25.0322 16.687C27.9075 16.687 30.2473 19.0265 30.2473 21.9021C30.2473 24.7777 27.9079 27.1172 25.0322 27.1172ZM25.0322 18.7735C23.3068 18.7735 21.9032 20.177 21.9032 21.9026C21.9032 23.6282 23.3067 25.0317 25.0322 25.0317C26.7578 25.0317 28.1613 23.6282 28.1613 21.9026C28.1613 20.177 26.7578 18.7735 25.0322 18.7735Z" fill="#101828"/>
<path d="M5.21511 10.4302C2.33986 10.4302 0 8.09073 0 5.2151C0 2.33986 2.33948 0 5.21511 0C8.09035 0 10.4302 2.33948 10.4302 5.2151C10.4302 8.09064 8.09073 10.4302 5.21511 10.4302ZM5.21511 2.08651C3.49004 2.08651 2.08641 3.49004 2.08641 5.2152C2.08641 6.94066 3.48994 8.34428 5.21549 8.34428C6.94095 8.34428 8.34457 6.94075 8.34457 5.2152C8.34419 3.49013 6.94066 2.08651 5.2152 2.08651H5.21511Z" fill="#101828"/>
<path d="M44.8494 10.4302C41.9741 10.4302 39.6343 8.09073 39.6343 5.2151C39.6343 2.33986 41.9738 0 44.8494 0C47.7246 0 50.0645 2.33948 50.0645 5.2151C50.0641 8.09064 47.7246 10.4302 44.8494 10.4302ZM44.8494 2.08651C43.1239 2.08651 41.7203 3.49004 41.7203 5.21559C41.7203 6.94104 43.1238 8.34467 44.8494 8.34467C46.5748 8.34467 47.9785 6.94114 47.9785 5.21559C47.9781 3.49013 46.5745 2.08651 44.8494 2.08651Z" fill="#101828"/>
<path d="M5.21511 50.0635C2.33986 50.0635 0 47.724 0 44.8484C0 41.9732 2.33948 39.6333 5.21511 39.6333C8.09035 39.6333 10.4302 41.9728 10.4302 44.8484C10.4302 47.7239 8.09073 50.0635 5.21511 50.0635ZM5.21511 41.7198C3.48965 41.7198 2.08602 43.1233 2.08602 44.8489C2.08602 46.5743 3.48955 47.978 5.21511 47.978C6.94056 47.978 8.34419 46.5744 8.34419 44.8489C8.34419 43.1234 6.94066 41.7198 5.21511 41.7198Z" fill="#101828"/>
<path d="M44.8494 50.0635C41.9741 50.0635 39.6343 47.724 39.6343 44.8484C39.6343 41.9732 41.9738 39.6333 44.8494 39.6333C47.7246 39.6333 50.0645 41.9728 50.0645 44.8484C50.0641 47.7239 47.7246 50.0635 44.8494 50.0635ZM44.8494 41.7198C43.1239 41.7198 41.7203 43.1233 41.7203 44.8489C41.7203 46.5743 43.1238 47.978 44.8494 47.978C46.5748 47.978 47.9785 46.5744 47.9785 44.8489C47.9781 43.1234 46.5745 41.7198 44.8494 41.7198Z" fill="#101828"/>
<path d="M34.6203 16.488C34.3536 16.488 34.0865 16.3863 33.883 16.1824C33.4755 15.7749 33.4755 15.1148 33.883 14.7076L40.9831 7.6071C41.3906 7.19965 42.0507 7.19965 42.4579 7.6071C42.8653 8.01454 42.8653 8.67466 42.4579 9.08181L35.3577 16.1824C35.1538 16.3859 34.8871 16.488 34.6204 16.488H34.6203Z" fill="#101828"/>
<path d="M15.4422 16.4853C15.1755 16.4853 14.9084 16.3835 14.7049 16.1796L7.60734 9.08205C7.1999 8.67461 7.1999 8.01449 7.60734 7.60734C8.01478 7.1999 8.6749 7.1999 9.08205 7.60734L16.1796 14.7049C16.587 15.1123 16.587 15.7725 16.1796 16.1796C15.9757 16.3831 15.709 16.4853 15.4423 16.4853H15.4422Z" fill="#101828"/>
<path d="M41.7201 42.7634C41.4435 42.7634 41.1681 42.6544 40.9627 42.4373L34.0475 35.1365C33.6514 34.7185 33.6692 34.0583 34.0876 33.6622C34.5064 33.2669 35.1658 33.2839 35.5619 33.7023L42.4771 41.003C42.8732 41.4211 42.8554 42.0812 42.437 42.4774C42.2354 42.6684 41.9777 42.7634 41.7201 42.7634L41.7201 42.7634Z" fill="#101828"/>
<path d="M8.34443 42.763C8.07772 42.763 7.81063 42.6612 7.6071 42.4573C7.19965 42.0499 7.19965 41.3897 7.6071 40.9826L14.7046 33.8854C15.1121 33.478 15.7722 33.478 16.1794 33.8854C16.5868 34.2929 16.5868 34.953 16.1794 35.3601L9.08181 42.4573C8.87827 42.6608 8.61156 42.763 8.34447 42.763H8.34443Z" fill="#101828"/>
</svg>
