<svg width="34" height="34" viewBox="0 0 34 34" fill="none" xmlns="http://www.w3.org/2000/svg">
<path d="M2.00039 13.7211C5.83319 22.0689 12.6532 28.7059 21.1323 32.3039L22.4915 32.9095C25.6011 34.2949 29.2566 33.2423 31.1533 30.4153L32.9295 27.7679C33.5069 26.9072 33.3311 25.7479 32.5244 25.097L26.5007 20.2375C25.6159 19.5237 24.3149 19.6899 23.6381 20.6033L21.7746 23.1178C16.993 20.7591 13.1109 16.877 10.7522 12.0954L13.2667 10.2319C14.18 9.55507 14.3463 8.25405 13.6325 7.36928L8.77276 1.3454C8.12206 0.538833 6.96306 0.362899 6.10233 0.940036L3.43664 2.72743C0.591954 4.63485 -0.454807 8.32055 0.962656 11.4384L1.99883 13.7177L2.00039 13.7211Z" fill="#203239"/>
</svg>
