<svg width="48" height="48" viewBox="0 0 48 48" fill="none" xmlns="http://www.w3.org/2000/svg">
<g clip-path="url(#clip0_1071_40)">
<path opacity="0.15" d="M43.6503 13.7495H4.35031C4.33231 13.7495 4.32031 13.7614 4.32031 13.7791V19.1844C4.32031 22.7286 7.26031 25.6032 10.8783 25.6032C13.3203 25.6032 15.4503 24.2993 16.5843 22.3612C16.7583 22.0589 17.0883 21.8693 17.4423 21.8693C17.7963 21.8693 18.1203 22.0589 18.3003 22.3612C19.4283 24.2993 21.5583 25.6032 24.0003 25.6032C26.4483 25.6032 28.5843 24.2933 29.7063 22.3493C29.8803 22.053 30.1983 21.8693 30.5403 21.8693H30.5763C30.9243 21.8693 31.2363 22.053 31.4103 22.3493C32.5383 24.2933 34.6743 25.6032 37.1223 25.6032C40.7403 25.6032 43.6803 22.7286 43.6803 19.1844V13.7791C43.6803 13.7614 43.6683 13.7495 43.6503 13.7495Z" fill="white"/>
<path d="M46.2 9.48836V1.8961C46.2 0.847049 45.342 -0.000488281 44.28 -0.000488281H3.72003C2.65804 -0.000488281 1.80004 0.847049 1.80004 1.8961V9.48836C0.798037 9.54763 3.71756e-05 10.3715 3.71756e-05 11.379V19.1846C-0.00380525 20.6192 0.290253 22.0393 0.864037 23.3571C1.12204 23.9617 1.44004 24.5306 1.80004 25.07V45.5175C1.80004 46.5607 2.65804 47.4141 3.72003 47.4141H44.28C45.342 47.4141 46.2 46.5666 46.2 45.5175V25.07C46.5657 24.5293 46.879 23.9558 47.136 23.3571C47.706 22.0355 48 20.6308 48 19.1846V11.379C48 10.3715 47.202 9.54763 46.2 9.48836ZM6.12003 4.26683H41.88V9.48244H6.12003V4.26683ZM27.84 43.1527H20.16V36.9829H27.84V43.1527ZM41.904 43.1527H31.68V35.0863C31.68 34.0373 30.822 33.1897 29.76 33.1897H18.24C17.178 33.1897 16.32 34.0373 16.32 35.0863V43.1527H6.12003V28.798C6.29403 28.8809 6.47403 28.9639 6.66003 29.035C7.99803 29.5922 9.42003 29.8707 10.884 29.8707C12.348 29.8707 13.764 29.5922 15.108 29.035C15.936 28.6913 16.716 28.2527 17.43 27.7252C17.442 27.7193 17.454 27.7193 17.466 27.7252C18.1822 28.2549 18.9622 28.6949 19.788 29.035C21.126 29.5922 22.548 29.8707 24.012 29.8707C25.476 29.8707 26.892 29.5922 28.236 29.035C29.064 28.6913 29.844 28.2527 30.558 27.7252C30.57 27.7193 30.582 27.7193 30.594 27.7252C31.3102 28.2549 32.0902 28.6949 32.916 29.035C34.254 29.5922 35.676 29.8707 37.14 29.8707C38.604 29.8707 40.02 29.5922 41.364 29.035C41.544 28.958 41.724 28.8809 41.904 28.798V43.1527ZM43.68 19.1846C43.68 22.7289 40.74 25.6034 37.122 25.6034C34.674 25.6034 32.538 24.2936 31.41 22.3496C31.236 22.0532 30.924 21.8695 30.576 21.8695H30.54C30.198 21.8695 29.88 22.0532 29.706 22.3496C29.1304 23.3412 28.2992 24.1647 27.297 24.7362C26.2948 25.3077 25.1572 25.6069 24 25.6034C21.558 25.6034 19.428 24.2995 18.3 22.3614C18.12 22.0592 17.796 21.8695 17.442 21.8695C17.088 21.8695 16.758 22.0592 16.584 22.3614C16.005 23.3493 15.1728 24.169 14.1711 24.7382C13.1694 25.3073 12.0336 25.6057 10.878 25.6034C7.26003 25.6034 4.32003 22.7289 4.32003 19.1846V13.7794C4.32003 13.7616 4.33203 13.7497 4.35003 13.7497H43.65C43.668 13.7497 43.68 13.7616 43.68 13.7794V19.1846Z" fill="white"/>
</g>
<defs>
<clipPath id="clip0_1071_40">
<rect width="48" height="47.415" fill="white"/>
</clipPath>
</defs>
</svg>
