<svg width="48" height="38" viewBox="0 0 48 38" fill="none" xmlns="http://www.w3.org/2000/svg">
<g clip-path="url(#clip0_1054_31)">
<path d="M29.1377 8.61279H41.1357L41.1347 12.0578H29.1377V8.61279Z" fill="#0D5C63"/>
<path d="M29.1377 17.2261H41.1356V20.6714H29.1377V17.2261Z" fill="#0D5C63"/>
<path d="M29.1377 25.8394H41.1356V29.2847H29.1377V25.8394Z" fill="#0D5C63"/>
<path d="M44.563 0H3.428C2.519 0.001 1.648 0.364 1.005 1.01C0.362 1.656 0.001 2.532 0 3.446V34.453C0.001 35.367 0.362 36.243 1.005 36.889C1.648 37.535 2.519 37.898 3.428 37.899H44.563C45.472 37.897 46.343 37.534 46.986 36.888C47.628 36.242 47.99 35.367 47.991 34.453V3.446C47.99 2.532 47.629 1.656 46.986 1.01C46.344 0.364 45.472 0.001 44.563 0ZM3.428 3.446H22.282V34.453H14.622H3.428V3.446ZM25.71 34.453V3.446H44.563L44.567 34.453H25.71Z" fill="#0D5C63"/>
</g>
<defs>
<clipPath id="clip0_1054_31">
<rect width="47.991" height="37.899" fill="white"/>
</clipPath>
</defs>
</svg>
