<svg width="48" height="41" viewBox="0 0 48 41" fill="none" xmlns="http://www.w3.org/2000/svg">
<g clip-path="url(#clip0_1071_38)">
<path d="M42.2468 8.44888H37.1772V3.37926C37.1772 2.48289 36.8211 1.62324 36.1873 0.98942C35.5535 0.355591 34.6938 -0.000488281 33.7975 -0.000488281H13.519C12.6226 -0.000488281 11.763 0.355591 11.1291 0.98942C10.4953 1.62324 10.1392 2.48289 10.1392 3.37926V8.44888H5.06962C3.72507 8.44888 2.43559 8.983 1.48485 9.93374C0.534119 10.8844 0 12.1739 0 13.5185V37.1767C0 38.073 0.356079 38.9327 0.989903 39.5665C1.62373 40.2004 2.48338 40.5564 3.37974 40.5564H43.9367C44.8331 40.5564 45.6927 40.2004 46.3265 39.5665C46.9604 38.9327 47.3164 38.073 47.3164 37.1767V13.5185C47.3164 12.1739 46.7823 10.8844 45.8316 9.93374C44.8809 8.983 43.5914 8.44888 42.2468 8.44888ZM13.519 3.37926H33.7975V8.44888H13.519V3.37926ZM43.9367 37.1767H3.37974V21.9678H16.8987V30.4172H30.4177V21.9678H43.9367V37.1767ZM20.2785 21.9678H27.038V27.0374H20.2785V21.9678ZM3.37974 18.5881V13.5185C3.37974 13.0703 3.55778 12.6405 3.8747 12.3235C4.19161 12.0066 4.62143 11.8286 5.06962 11.8286H42.2468C42.695 11.8286 43.1248 12.0066 43.4418 12.3235C43.7587 12.6405 43.9367 13.0703 43.9367 13.5185V18.5881H3.37974Z" fill="white"/>
</g>
<defs>
<clipPath id="clip0_1071_38">
<rect width="47.316" height="40.557" fill="white"/>
</clipPath>
</defs>
</svg>
