<svg width="56" height="54" viewBox="0 0 56 54" fill="none" xmlns="http://www.w3.org/2000/svg">
<path d="M24.3745 17.183V25.3659V28.6366V36.8194H31.3387V28.6366V25.3659V17.183H24.3745Z" fill="#FAB908"/>
<path d="M3.48252 28.5336C5.4056 28.5336 6.96455 27.0226 6.96455 25.1586C6.96455 23.2946 5.4056 21.7836 3.48252 21.7836C1.55945 21.7836 0.000488281 23.2946 0.000488281 25.1586C0.000488281 27.0226 1.55945 28.5336 3.48252 28.5336Z" fill="#0066D9"/>
<path d="M3.48252 32.2166C5.4056 32.2166 6.96455 30.7055 6.96455 28.8416C6.96455 26.9776 5.4056 25.4666 3.48252 25.4666C1.55945 25.4666 0.000488281 26.9776 0.000488281 28.8416C0.000488281 30.7055 1.55945 32.2166 3.48252 32.2166Z" fill="#0066D9"/>
<path d="M6.96455 25.1604H0.000488281V28.8422H6.96455V25.1604Z" fill="#0066D9"/>
<path d="M52.2304 32.2166C54.1536 32.2166 55.7124 30.7055 55.7124 28.8416C55.7124 26.9776 54.1536 25.4666 52.2304 25.4666C50.3074 25.4666 48.7484 26.9776 48.7484 28.8416C48.7484 30.7055 50.3074 32.2166 52.2304 32.2166Z" fill="#4285F4"/>
<path d="M52.2304 28.5336C54.1536 28.5336 55.7124 27.0226 55.7124 25.1586C55.7124 23.2946 54.1536 21.7836 52.2304 21.7836C50.3074 21.7836 48.7484 23.2946 48.7484 25.1586C48.7484 27.0226 50.3074 28.5336 52.2304 28.5336Z" fill="#4285F4"/>
<path d="M48.7484 28.8422H55.7124V25.1604H48.7484V28.8422Z" fill="#4285F4"/>
<path d="M15.5109 39.5801C17.434 39.5801 18.9929 38.0691 18.9929 36.2051C18.9929 34.3411 17.434 32.8301 15.5109 32.8301C13.5879 32.8301 12.0289 34.3411 12.0289 36.2051C12.0289 38.0691 13.5879 39.5801 15.5109 39.5801Z" fill="#EA4335"/>
<path d="M15.5109 43.2617C17.434 43.2617 18.9929 41.7506 18.9929 39.8866C18.9929 38.0227 17.434 36.5115 15.5109 36.5115C13.5879 36.5115 12.0289 38.0227 12.0289 39.8866C12.0289 41.7506 13.5879 43.2617 15.5109 43.2617Z" fill="#EA4335"/>
<path d="M18.9929 36.2051H12.0289V39.8869H18.9929V36.2051Z" fill="#EA4335"/>
<path d="M15.5109 17.4886C17.434 17.4886 18.9929 15.9776 18.9929 14.1137C18.9929 12.2497 17.434 10.7386 15.5109 10.7386C13.5879 10.7386 12.0289 12.2497 12.0289 14.1137C12.0289 15.9776 13.5879 17.4886 15.5109 17.4886Z" fill="#EA4335"/>
<path d="M15.5109 29.4535C17.434 29.4535 18.9929 27.9425 18.9929 26.0785C18.9929 24.2145 17.434 22.7035 15.5109 22.7035C13.5879 22.7035 12.0289 24.2145 12.0289 26.0785C12.0289 27.9425 13.5879 29.4535 15.5109 29.4535Z" fill="#EA4335"/>
<path d="M18.9929 14.1136H12.0289V26.1564H18.9929V14.1136Z" fill="#EA4335"/>
<path d="M40.202 21.1717C42.125 21.1717 43.684 19.6606 43.684 17.7967C43.684 15.9327 42.125 14.4216 40.202 14.4216C38.279 14.4216 36.72 15.9327 36.72 17.7967C36.72 19.6606 38.279 21.1717 40.202 21.1717Z" fill="#34A853"/>
<path d="M40.202 17.4886C42.125 17.4886 43.684 15.9776 43.684 14.1137C43.684 12.2497 42.125 10.7386 40.202 10.7386C38.279 10.7386 36.72 12.2497 36.72 14.1137C36.72 15.9776 38.279 17.4886 40.202 17.4886Z" fill="#34A853"/>
<path d="M36.7195 17.7955H43.6836V14.1136H36.7195V17.7955Z" fill="#34A853"/>
<path d="M27.8565 10.433C29.7797 10.433 31.3387 8.92198 31.3387 7.058C31.3387 5.19403 29.7797 3.68298 27.8565 3.68298C25.9335 3.68298 24.3745 5.19403 24.3745 7.058C24.3745 8.92198 25.9335 10.433 27.8565 10.433Z" fill="#FAB908"/>
<path d="M27.8565 6.75015C29.7797 6.75015 31.3387 5.2391 31.3387 3.37514C31.3387 1.51117 29.7797 0.00012207 27.8565 0.00012207C25.9335 0.00012207 24.3745 1.51117 24.3745 3.37514C24.3745 5.2391 25.9335 6.75015 27.8565 6.75015Z" fill="#FAB908"/>
<path d="M24.3745 7.05697H31.3387V3.37512H24.3745V7.05697Z" fill="#FAB908"/>
<path d="M27.8565 54.0002C29.7797 54.0002 31.3387 52.4891 31.3387 50.6251C31.3387 48.7612 29.7797 47.2501 27.8565 47.2501C25.9335 47.2501 24.3745 48.7612 24.3745 50.6251C24.3745 52.4891 25.9335 54.0002 27.8565 54.0002Z" fill="#FAB908"/>
<path d="M27.8565 50.319C29.7797 50.319 31.3387 48.808 31.3387 46.944C31.3387 45.08 29.7797 43.569 27.8565 43.569C25.9335 43.569 24.3745 45.08 24.3745 46.944C24.3745 48.808 25.9335 50.319 27.8565 50.319Z" fill="#FAB908"/>
<path d="M24.3745 50.6258H31.3387V46.944H24.3745V50.6258Z" fill="#FAB908"/>
<path d="M40.202 43.2617C42.125 43.2617 43.684 41.7506 43.684 39.8866C43.684 38.0227 42.125 36.5115 40.202 36.5115C38.279 36.5115 36.72 38.0227 36.72 39.8866C36.72 41.7506 38.279 43.2617 40.202 43.2617Z" fill="#34A853"/>
<path d="M40.202 31.2967C42.125 31.2967 43.684 29.7856 43.684 27.9216C43.684 26.0577 42.125 24.5466 40.202 24.5466C38.279 24.5466 36.72 26.0577 36.72 27.9216C36.72 29.7856 38.279 31.2967 40.202 31.2967Z" fill="#34A853"/>
<path d="M36.7195 39.8877H43.6836V27.9216H36.7195V39.8877Z" fill="#34A853"/>
<path d="M27.8565 20.5576C29.7797 20.5576 31.3387 19.0464 31.3387 17.1826C31.3387 15.3186 29.7797 13.8075 27.8565 13.8075C25.9335 13.8075 24.3745 15.3186 24.3745 17.1826C24.3745 19.0464 25.9335 20.5576 27.8565 20.5576Z" fill="#FAB908"/>
<path d="M27.8565 40.194C29.7797 40.194 31.3387 38.683 31.3387 36.819C31.3387 34.955 29.7797 33.444 27.8565 33.444C25.9335 33.444 24.3745 34.955 24.3745 36.819C24.3745 38.683 25.9335 40.194 27.8565 40.194Z" fill="#FAB908"/>
</svg>
