<svg width="53" height="54" viewBox="0 0 53 54" fill="none" xmlns="http://www.w3.org/2000/svg">
<path d="M26.437 0.0509033C21.2769 0.0509033 16.2328 1.62894 11.9424 4.58543C7.65219 7.54208 4.30828 11.7444 2.33353 16.6609C0.358934 21.5775 -0.15771 26.9876 0.849017 32.2069C1.85559 37.4264 4.34031 42.2207 7.98899 45.9837C11.6377 49.7466 16.2864 52.3093 21.3472 53.3474C26.408 54.3856 31.6537 53.8529 36.4208 51.8163C41.188 49.7797 45.2626 46.3311 48.1293 41.9063C50.9961 37.4815 52.5261 32.2794 52.5261 26.9577C52.5261 19.8215 49.7775 12.9777 44.8848 7.93177C39.992 2.88565 33.3563 0.0509033 26.437 0.0509033ZM38.4092 38.8543C38.2982 39.0444 38.1516 39.2098 37.9781 39.3411C37.8045 39.4723 37.6074 39.5665 37.3981 39.6185C37.1889 39.6704 36.9717 39.679 36.7592 39.6436C36.5467 39.6082 36.3432 39.5298 36.1605 39.4126C30.0391 35.5472 22.3351 34.6883 13.257 36.8142C13.0504 36.8651 12.8362 36.8731 12.6266 36.8377C12.4172 36.8025 12.2164 36.7247 12.0364 36.609C11.8562 36.4931 11.7002 36.3415 11.5773 36.1629C11.4543 35.9843 11.3672 35.7823 11.3206 35.5687C11.271 35.3544 11.2631 35.1321 11.2969 34.9145C11.3309 34.697 11.4061 34.4885 11.5182 34.3009C11.6304 34.1135 11.7775 33.9507 11.9506 33.8219C12.124 33.693 12.3202 33.6007 12.5281 33.5501C22.46 31.2095 30.9968 32.2187 37.868 36.5565C38.2345 36.7877 38.4974 37.1594 38.5987 37.59C38.7003 38.0207 38.6321 38.4753 38.4092 38.8543ZM41.5949 31.5316C41.304 31.9933 40.8522 32.3218 40.3329 32.4497C39.8137 32.5776 39.2667 32.4949 38.8049 32.2187C30.8881 27.6642 21.5421 26.5366 12.8197 29.0835C12.5483 29.2397 12.2464 29.3311 11.9364 29.3512C11.6261 29.3712 11.3156 29.3194 11.0274 29.1996C10.7392 29.0797 10.4807 28.895 10.2708 28.6586C10.0609 28.4224 9.90485 28.1405 9.81424 27.8341C9.72363 27.5274 9.70071 27.2039 9.74715 26.887C9.79359 26.5701 9.90818 26.268 10.0826 26.0028C10.257 25.7375 10.4868 25.516 10.7549 25.3541C11.0233 25.1924 11.3232 25.0945 11.6328 25.068C16.5013 23.6226 21.6008 23.1952 26.6317 23.8111C31.6626 24.4269 36.5235 26.0735 40.9286 28.6542C41.3762 28.9542 41.6948 29.4202 41.8188 29.9556C41.9428 30.4912 41.8627 31.0553 41.5949 31.5316ZM41.8656 23.9084C33.537 18.7546 19.6076 18.2822 11.5704 20.7946C10.952 20.9884 10.2841 20.9206 9.71407 20.6064C9.144 20.2924 8.71827 19.7576 8.53052 19.1197C8.34278 18.4819 8.40834 17.7932 8.71296 17.2051C9.01742 16.6173 9.53603 16.1782 10.1545 15.9846C19.3785 13.107 34.6822 13.6654 44.3642 19.5706C44.8619 19.938 45.2073 20.4852 45.3318 21.1033C45.4561 21.7213 45.3503 22.3651 45.0354 22.9065C44.7205 23.4478 44.2194 23.847 43.6322 24.0246C43.0449 24.2024 42.4141 24.1456 41.8656 23.8654V23.9084Z" fill="#1ED760"/>
</svg>
