<svg width="14" height="18" viewBox="0 0 14 18" fill="none" xmlns="http://www.w3.org/2000/svg">
<path d="M13.4965 7.5C13.4965 12.5556 7.24824 16.8889 7.24824 16.8889C7.24824 16.8889 1 12.5556 1 7.5C1 5.77609 1.65829 4.12279 2.83007 2.90381C4.00184 1.68482 5.5911 1 7.24824 1C8.90538 1 10.4946 1.68482 11.6664 2.90381C12.8382 4.12279 13.4965 5.77609 13.4965 7.5Z" stroke="white" stroke-linecap="round" stroke-linejoin="round"/>
<path d="M7.24824 9.66671C8.39851 9.66671 9.33099 8.69666 9.33099 7.50004C9.33099 6.30342 8.39851 5.33337 7.24824 5.33337C6.09797 5.33337 5.1655 6.30342 5.1655 7.50004C5.1655 8.69666 6.09797 9.66671 7.24824 9.66671Z" stroke="white" stroke-linecap="round" stroke-linejoin="round"/>
</svg>
