<svg width="16" height="15" viewBox="0 0 16 15" fill="none" xmlns="http://www.w3.org/2000/svg">
<path fill-rule="evenodd" clip-rule="evenodd" d="M4.97596 0.230279C5.75795 0.194279 6.00729 0.186279 7.99929 0.186279C9.99129 0.186279 10.2406 0.194946 11.022 0.230279C11.8033 0.265613 12.3366 0.390279 12.8033 0.570946C13.292 0.755613 13.7353 1.04428 14.102 1.41761C14.4753 1.78361 14.7633 2.22628 14.9473 2.71561C15.1286 3.18228 15.2526 3.71561 15.2886 4.49561C15.3246 5.27895 15.3326 5.52828 15.3326 7.51961C15.3326 9.51161 15.324 9.76095 15.2886 10.5429C15.2533 11.3229 15.1286 11.8563 14.9473 12.3229C14.7633 12.8123 14.4748 13.2557 14.102 13.6223C13.7353 13.9956 13.292 14.2836 12.8033 14.4676C12.3366 14.6489 11.8033 14.7729 11.0233 14.8089C10.2406 14.8449 9.99129 14.8529 7.99929 14.8529C6.00729 14.8529 5.75795 14.8443 4.97596 14.8089C4.19595 14.7736 3.66262 14.6489 3.19595 14.4676C2.70657 14.2836 2.26317 13.9951 1.89662 13.6223C1.52354 13.2561 1.23483 12.8129 1.05062 12.3236C0.869955 11.8569 0.745955 11.3236 0.709955 10.5436C0.673955 9.76028 0.665955 9.51095 0.665955 7.51961C0.665955 5.52761 0.674621 5.27828 0.709955 4.49695C0.745288 3.71561 0.869955 3.18228 1.05062 2.71561C1.2351 2.22633 1.52403 1.78315 1.89729 1.41695C2.26331 1.04395 2.70627 0.755242 3.19529 0.570946C3.66195 0.390279 4.19529 0.266279 4.97529 0.230279H4.97596ZM10.9626 1.55028C10.1893 1.51495 9.95729 1.50761 7.99929 1.50761C6.04129 1.50761 5.80929 1.51495 5.03595 1.55028C4.32062 1.58295 3.93262 1.70228 3.67395 1.80295C3.33195 1.93628 3.08729 2.09428 2.83062 2.35095C2.58732 2.58765 2.40007 2.8758 2.28262 3.19428C2.18195 3.45295 2.06262 3.84095 2.02995 4.55628C1.99462 5.32961 1.98729 5.56161 1.98729 7.51961C1.98729 9.47761 1.99462 9.70961 2.02995 10.4829C2.06262 11.1983 2.18195 11.5863 2.28262 11.8449C2.39995 12.1629 2.58729 12.4516 2.83062 12.6883C3.06729 12.9316 3.35595 13.1189 3.67395 13.2363C3.93262 13.3369 4.32062 13.4563 5.03595 13.4889C5.80929 13.5243 6.04062 13.5316 7.99929 13.5316C9.95795 13.5316 10.1893 13.5243 10.9626 13.4889C11.678 13.4563 12.066 13.3369 12.3246 13.2363C12.6666 13.1029 12.9113 12.9449 13.168 12.6883C13.4113 12.4516 13.5986 12.1629 13.716 11.8449C13.8166 11.5863 13.936 11.1983 13.9686 10.4829C14.004 9.70961 14.0113 9.47761 14.0113 7.51961C14.0113 5.56161 14.004 5.32961 13.9686 4.55628C13.936 3.84095 13.8166 3.45295 13.716 3.19428C13.5826 2.85228 13.4246 2.60761 13.168 2.35095C12.9312 2.10766 12.6431 1.92042 12.3246 1.80295C12.066 1.70228 11.678 1.58295 10.9626 1.55028ZM7.06262 9.78028C7.58573 9.99803 8.16821 10.0274 8.71057 9.86343C9.25294 9.69943 9.72155 9.35222 10.0364 8.88111C10.3512 8.40999 10.4927 7.84419 10.4367 7.28035C10.3806 6.71651 10.1306 6.18959 9.72929 5.78961C9.47345 5.53393 9.1641 5.33815 8.82351 5.21638C8.48292 5.0946 8.11957 5.04985 7.75962 5.08536C7.39966 5.12086 7.05206 5.23573 6.74182 5.4217C6.43159 5.60767 6.16645 5.86011 5.96549 6.16085C5.76453 6.46159 5.63275 6.80314 5.57963 7.16092C5.52652 7.5187 5.55339 7.88381 5.65831 8.22996C5.76324 8.57611 5.94361 8.89469 6.18644 9.16276C6.42926 9.43084 6.7285 9.64174 7.06262 9.78028ZM5.33395 4.85428C5.68397 4.50426 6.0995 4.22661 6.55682 4.03719C7.01414 3.84776 7.50429 3.75026 7.99929 3.75026C8.49429 3.75026 8.98444 3.84776 9.44176 4.03719C9.89907 4.22661 10.3146 4.50426 10.6646 4.85428C11.0146 5.2043 11.2923 5.61983 11.4817 6.07714C11.6711 6.53446 11.7686 7.02461 11.7686 7.51961C11.7686 8.01461 11.6711 8.50476 11.4817 8.96208C11.2923 9.4194 11.0146 9.83493 10.6646 10.1849C9.95773 10.8918 8.99898 11.289 7.99929 11.289C6.99959 11.289 6.04084 10.8918 5.33395 10.1849C4.62706 9.47806 4.22994 8.51931 4.22994 7.51961C4.22994 6.51992 4.62706 5.56117 5.33395 4.85428ZM12.6046 4.31161C12.6914 4.22979 12.7608 4.1314 12.8088 4.02226C12.8569 3.91312 12.8825 3.79546 12.8842 3.67623C12.886 3.55701 12.8638 3.43864 12.8189 3.32815C12.7741 3.21766 12.7076 3.11729 12.6233 3.03297C12.5389 2.94866 12.4386 2.88212 12.3281 2.83729C12.2176 2.79246 12.0992 2.77026 11.98 2.772C11.8608 2.77374 11.7431 2.79938 11.634 2.84741C11.5248 2.89544 11.4264 2.96488 11.3446 3.05161C11.1855 3.2203 11.0984 3.44436 11.1018 3.67623C11.1051 3.90811 11.1987 4.12953 11.3627 4.29351C11.5267 4.45748 11.7481 4.5511 11.98 4.55448C12.2119 4.55786 12.4359 4.47074 12.6046 4.31161Z" fill="white"/>
</svg>
