<svg width="138" height="25" viewBox="0 0 138 25" fill="none" xmlns="http://www.w3.org/2000/svg">
<path d="M26.6223 0.536264C29.3696 0.536264 31.5153 1.33095 33.0592 2.92033C34.6032 4.50971 35.3752 6.81431 35.3752 9.83413V24.6494H32.0034V9.93631C32.0034 7.84741 31.4585 6.26938 30.3686 5.20223C29.2788 4.11237 27.837 3.56744 26.0433 3.56744C24.0679 3.56744 22.5012 4.13507 21.3432 5.27034C20.208 6.38291 19.6403 8.09717 19.6403 10.4131V24.6494H16.2686V9.93631C16.2686 7.8247 15.7464 6.23532 14.7019 5.16817C13.6802 4.10101 12.2724 3.56744 10.4787 3.56744C8.48062 3.56744 6.89125 4.13507 5.71056 5.27034C4.55259 6.40561 3.9736 8.11987 3.9736 10.4131V24.6494H0.567787V0.808728H3.83737V4.28266C4.54123 3.10197 5.52892 2.18241 6.80042 1.52395C8.09463 0.865493 9.59319 0.536264 11.2961 0.536264C13.0671 0.536264 14.5884 0.888198 15.8599 1.59206C17.1541 2.29593 18.1077 3.27227 18.7208 4.52106C19.47 3.24956 20.5258 2.27323 21.8882 1.59206C23.2732 0.888198 24.8512 0.536264 26.6223 0.536264ZM52.3553 0.536264C55.534 0.536264 58.043 1.46719 59.8821 3.32903C61.7213 5.16817 62.6408 7.81335 62.6408 11.2646V24.6494H59.235V18.0762H45.4755V24.6494H42.1379V11.2646C42.1379 7.81335 43.0574 5.16817 44.8966 3.32903C46.7357 1.46719 49.2219 0.536264 52.3553 0.536264ZM59.235 15.1131V10.958C59.235 8.52857 58.622 6.68943 57.3959 5.44063C56.1925 4.19184 54.5123 3.56744 52.3553 3.56744C50.1983 3.56744 48.5067 4.19184 47.2806 5.44063C46.0772 6.68943 45.4755 8.52857 45.4755 10.958V15.1131H59.235ZM85.5212 24.6494L80.3785 17.3269C79.7427 17.3723 79.2432 17.395 78.8799 17.395H72.9879V24.6494H69.582V0.808728H78.8799C81.9678 0.808728 84.3973 1.54665 86.1684 3.02251C87.9394 4.49836 88.8249 6.53049 88.8249 9.11891C88.8249 10.958 88.3708 12.5247 87.4626 13.8189C86.5543 15.1131 85.2601 16.0554 83.5799 16.6458L89.2336 24.6494H85.5212ZM78.7777 14.5001C80.9348 14.5001 82.5809 14.0346 83.7162 13.1037C84.8514 12.1728 85.4191 10.8445 85.4191 9.11891C85.4191 7.3933 84.8514 6.07639 83.7162 5.16817C82.5809 4.23725 80.9348 3.77178 78.7777 3.77178H72.9879V14.5001H78.7777ZM94.3274 0.808728H97.7332V21.6864H110.641V24.6494H94.3274V0.808728ZM124.879 24.9219C122.473 24.9219 120.304 24.3997 118.374 23.3552C116.444 22.2881 114.923 20.8236 113.811 18.9617C112.721 17.0999 112.176 15.0223 112.176 12.7291C112.176 10.4358 112.721 8.35828 113.811 6.49643C114.923 4.63459 116.444 3.18144 118.374 2.137C120.304 1.06984 122.473 0.536264 124.879 0.536264C127.263 0.536264 129.42 1.06984 131.35 2.137C133.28 3.18144 134.79 4.63459 135.88 6.49643C136.97 8.33557 137.515 10.4131 137.515 12.7291C137.515 15.045 136.97 17.1339 135.88 18.9958C134.79 20.8349 133.28 22.2881 131.35 23.3552C129.42 24.3997 127.263 24.9219 124.879 24.9219ZM124.879 21.8907C126.628 21.8907 128.194 21.4934 129.579 20.6987C130.987 19.904 132.088 18.8141 132.883 17.4291C133.7 16.0214 134.109 14.4547 134.109 12.7291C134.109 11.0035 133.7 9.44814 132.883 8.06311C132.088 6.65537 130.987 5.55416 129.579 4.75947C128.194 3.96478 126.628 3.56744 124.879 3.56744C123.131 3.56744 121.542 3.96478 120.111 4.75947C118.704 5.55416 117.591 6.65537 116.774 8.06311C115.979 9.44814 115.582 11.0035 115.582 12.7291C115.582 14.4547 115.979 16.0214 116.774 17.4291C117.591 18.8141 118.704 19.904 120.111 20.6987C121.542 21.4934 123.131 21.8907 124.879 21.8907Z" fill="white"/>
</svg>
