<svg width="88" height="88" viewBox="0 0 88 88" fill="none" xmlns="http://www.w3.org/2000/svg">
<g clip-path="url(#clip0_301_2521)">
<path d="M49.9223 66.4679C49.2375 64.015 47.7467 60.0773 47.8845 58.2272C47.9431 57.462 48.3958 57.2905 48.74 57.22C49.065 57.1607 49.6607 57.5481 49.8359 57.896C50.246 58.6728 50.5213 59.5275 50.7414 60.3754C51.2377 62.2572 51.7091 64.1404 52.1021 66.0433C52.3119 67.0512 51.8228 67.6929 51.1257 67.441C50.7185 67.2912 50.3223 67.1607 49.9223 66.4679Z" fill="#CD4631"/>
<path d="M15.6111 41.3722C16.1767 41.174 16.5572 41.2109 17.1128 41.2622C19.261 41.4717 21.408 41.7461 23.544 42.0012C23.6695 42.0185 23.8101 42.04 23.9275 42.0877C24.4769 42.2837 25.1118 42.4945 25.0446 43.2004C24.9679 43.9119 24.329 44.0498 23.7404 44.0303C21.2773 43.9641 18.8127 43.8731 16.3467 43.7573C15.9676 43.7452 15.5548 43.5858 15.2383 43.3709C14.4545 42.8355 14.5674 41.8978 15.6111 41.3722Z" fill="#CD4631"/>
<path d="M29.8309 65.2245C29.3978 65.4745 28.8955 65.3155 28.7029 65.0931C28.4411 64.7952 28.3322 64.4732 28.3816 63.8032C28.393 63.5785 28.5972 63.3323 28.7438 63.1194C29.8586 61.5391 30.9582 59.9549 32.0937 58.3883C32.369 57.9985 32.702 57.5752 33.1132 57.3763C33.4859 57.1997 34.1237 57.1265 34.4154 57.343C34.7016 57.5498 34.9568 57.9029 34.7793 58.5955C34.7198 58.848 34.5489 59.1519 34.3694 59.3967C33.1625 61.0173 31.9555 62.6379 30.7278 64.2448C30.4921 64.5476 30.1998 64.8191 29.8309 65.2245Z" fill="#CD4631"/>
<path d="M25.4576 27.0272C25.3271 26.5123 25.3721 26.1014 25.6219 25.8674C25.9376 25.5697 26.5339 25.4692 27.0025 25.4809C27.3568 25.4945 27.737 25.7753 28.0262 26.0317C29.4721 27.3139 30.9139 28.6112 32.3325 29.9349C32.5746 30.1543 32.8035 30.484 32.8669 30.7938C32.967 31.3006 32.7358 31.6778 32.1316 31.5648C31.7896 31.5056 31.4212 31.4232 31.1461 31.2356C29.5289 30.1678 27.935 29.0738 26.3451 27.9645C26.0589 27.7577 25.5728 27.538 25.4576 27.0272Z" fill="#CD4631"/>
<path d="M60.7925 50.0948C60.7569 49.8331 60.9977 49.4503 61.2231 49.3073C61.5351 49.1144 61.9755 48.9884 62.3465 49.0308C64.0948 49.2146 65.8517 49.4576 67.5934 49.6966C67.854 49.7257 68.1039 49.8252 68.3538 49.9247C68.9102 50.1551 69.5004 50.5329 69.2304 51.1763C69.0735 51.5491 68.4004 52.0276 68.0431 51.9644C65.8309 51.5994 63.6305 51.0993 61.4356 50.6088C61.2494 50.5751 60.9251 50.4801 60.7925 50.0948Z" fill="#CD4631"/>
<path d="M45.0691 18.0394C45.2167 18.6727 45.3593 19.142 45.4428 19.6199C45.6901 21.0039 45.9278 22.3934 46.1504 23.7788C46.2086 24.1686 46.278 24.5776 46.2259 24.9541C46.1871 25.2202 45.9381 25.6334 45.7645 25.6438C45.4765 25.6562 45.0975 25.6441 44.8986 25.2329C44.8138 25.0637 44.7012 24.8465 44.6437 24.6359C44.2457 23.1465 43.8284 21.6682 43.4744 20.1661C43.3495 19.6609 43.2712 19.1031 43.3503 18.5956C43.4079 18.2287 43.7268 17.7367 44.0351 17.6485C44.3187 17.5618 44.7969 17.5679 45.0691 18.0394Z" fill="#CD4631"/>
<path d="M59.2195 33.3488C59.0985 33.4058 58.9775 33.4629 58.8494 33.4855C58.2835 33.5941 57.6931 33.7939 57.3579 33.1021C57.0005 32.3719 57.5612 32.0097 58.0382 31.7471C59.1903 31.1204 60.3869 30.5707 61.582 29.9962C62.018 29.7958 62.4691 29.5995 62.9303 29.4872C63.4011 29.3693 63.9093 29.294 64.1642 29.891C64.3969 30.4495 64.1504 30.8227 63.6941 31.099C63.1937 31.3879 60.2181 32.9006 59.2195 33.3488Z" fill="#CD4631"/>
</g>
<defs>
<clipPath id="clip0_301_2521">
<rect width="64" height="64" fill="white" transform="translate(55.4255) rotate(60)"/>
</clipPath>
</defs>
</svg>
