<svg width="64" height="62" viewBox="0 0 64 62" fill="none" xmlns="http://www.w3.org/2000/svg">
<path d="M30.2709 30.1456C30.5209 29.1456 30.6668 28.3331 30.9376 27.5414C33.6459 19.5414 38.0001 12.4164 42.9584 5.64556C43.5418 4.8539 44.2709 4.1039 45.0834 3.6039C45.5209 3.33307 46.3959 3.37473 46.8959 3.64557C47.2709 3.8539 47.5418 4.6664 47.4584 5.12473C47.3126 5.99973 47.0001 6.89557 46.5626 7.68723C43.6876 12.9164 40.7918 18.1247 37.8543 23.3122C36.7501 25.2497 35.5834 27.1664 34.4376 29.0831C34.0626 29.7289 33.6459 30.3539 33.2084 30.9372C32.7293 31.6039 32.0001 31.9997 31.2709 31.5622C30.7918 31.2706 30.2709 31.0622 30.2709 30.1456Z" fill="#CD4631"/>
<path d="M59.7709 61.1672C58.7709 61.0005 57.6042 60.8755 56.4792 60.6255C52.0417 59.6255 47.6042 58.6255 43.1876 57.5838C42.2292 57.3547 41.2917 56.9588 40.4376 56.5005C39.2917 55.8963 38.8959 55.0422 39.0834 54.1047C39.2709 53.1672 40.0209 52.5838 41.3334 52.563C42.2292 52.5422 43.1876 52.563 44.0417 52.7713C49.6459 54.188 55.2501 55.6463 60.8334 57.1255C61.4584 57.2922 62.1042 57.5838 62.5834 58.0005C63.7917 59.0213 63.4167 60.6255 61.8751 61.0213C61.2709 61.1672 60.5834 61.1047 59.7709 61.1672Z" fill="#CD4631"/>
<path d="M1.22919 5.31238C1.31252 4.33321 1.52086 3.35405 1.77086 2.39571C2.00002 1.54155 2.58336 0.937379 3.52086 0.854046C4.31252 0.791546 5.16669 1.58321 5.29169 2.62488C5.45835 4.02071 5.60419 5.43738 5.54169 6.83321C5.35419 11.0415 5.08336 15.2707 4.79169 19.479C4.68752 20.8749 4.50002 22.2707 4.27086 23.6665C4.18752 24.1457 4.02086 24.6457 3.75002 25.0207C3.02086 26.0832 1.68753 25.9999 1.16669 24.854C0.875026 24.2082 0.750026 23.4165 0.750026 22.7082C0.64586 20.3749 0.958358 8.77071 1.22919 5.31238Z" fill="#CD4631"/>
</svg>
