<svg width="36" height="36" viewBox="0 0 36 36" fill="none" xmlns="http://www.w3.org/2000/svg">
<g clip-path="url(#clip0_301_2530)">
<path d="M11.2053 24.2861C11.9241 23.5687 12.9946 22.279 13.6762 21.9686C13.9584 21.8408 14.1153 21.9671 14.2134 22.0747C14.3035 22.1778 14.2939 22.463 14.2086 22.5922C14.022 22.8875 13.7794 23.1504 13.5274 23.3926C12.9698 23.9326 12.4063 24.4643 11.8192 24.9721C11.5086 25.2416 11.1783 25.1937 11.1186 24.8991C11.0846 24.7265 11.0463 24.5615 11.2053 24.2861Z" fill="#CD4631"/>
<path d="M12.7436 7.32141C12.9339 7.48231 13.0019 7.62361 13.1022 7.82942C13.4859 8.62732 13.8465 9.43741 14.2115 10.2398C14.2321 10.2874 14.2545 10.3412 14.2627 10.3918C14.3106 10.6235 14.3715 10.8882 14.1083 11.0015C13.8412 11.1126 13.6565 10.9141 13.538 10.7029C13.0367 9.82176 12.5439 8.93531 12.0595 8.04353C11.983 7.90756 11.9513 7.73112 11.9596 7.57782C11.9814 7.19763 12.336 7.05549 12.7436 7.32141Z" fill="#CD4631"/>
<path d="M7.36432 16.9626C7.18397 16.8585 7.13302 16.6506 7.17041 16.5395C7.21966 16.3894 7.30997 16.2885 7.55667 16.1759C7.63831 16.1364 7.76861 16.1606 7.87486 16.1709C8.66934 16.2572 9.46202 16.3374 10.2561 16.4337C10.4522 16.4551 10.6723 16.4904 10.83 16.5967C10.9716 16.6938 11.1332 16.9044 11.1191 17.0493C11.1071 17.1903 11.037 17.3488 10.7551 17.4206C10.6534 17.4486 10.5098 17.4474 10.3853 17.4316C9.55701 17.3206 8.72866 17.2096 7.90073 17.0887C7.74377 17.0644 7.58582 17.014 7.36432 16.9626Z" fill="#CD4631"/>
<path d="M19.8978 8.00877C20.0515 7.86287 20.2059 7.79901 20.3416 7.84165C20.5138 7.89515 20.6762 8.08585 20.7719 8.25331C20.8426 8.38083 20.8246 8.56936 20.7958 8.72106C20.6518 9.47956 20.5015 10.2396 20.3371 10.9965C20.3113 11.1244 20.2438 11.2691 20.1481 11.3515C19.9908 11.4852 19.8086 11.4769 19.7197 11.2419C19.6677 11.1099 19.6183 10.9641 19.6259 10.8307C19.6578 10.0534 19.704 9.27923 19.7564 8.50355C19.7683 8.36252 19.7423 8.14853 19.8978 8.00877Z" fill="#CD4631"/>
<path d="M19.2919 24.941C19.3766 24.8776 19.5628 24.8882 19.6612 24.9399C19.7957 25.0125 19.9339 25.1433 19.998 25.2823C20.3056 25.9343 20.5941 26.6007 20.8808 27.2611C20.9261 27.3586 20.9442 27.466 20.9624 27.5734C20.9996 27.8142 20.9922 28.0956 20.7079 28.1252C20.543 28.1423 20.231 27.9979 20.1772 27.8597C19.8347 27.009 19.5423 26.1363 19.2477 25.2674C19.2199 25.1952 19.1843 25.0625 19.2919 24.941Z" fill="#CD4631"/>
<path d="M27.2427 13.1777C27.0509 13.3526 26.9158 13.494 26.7652 13.6161C26.33 13.9719 25.8908 14.3253 25.4498 14.6726C25.3248 14.7688 25.1954 14.8726 25.0516 14.9273C24.9495 14.9652 24.7509 14.9577 24.7102 14.8985C24.6445 14.7994 24.5681 14.6634 24.6706 14.5135C24.7122 14.4508 24.7648 14.3689 24.8268 14.3078C25.2671 13.8785 25.6993 13.4445 26.1534 13.0282C26.3049 12.8862 26.4848 12.7503 26.6806 12.6797C26.8222 12.6288 27.0635 12.6458 27.1603 12.7373C27.2512 12.8205 27.3509 12.9902 27.2427 13.1777Z" fill="#CD4631"/>
<path d="M24.8601 21.1369C24.8143 21.1053 24.7684 21.0737 24.7331 21.0329C24.5743 20.8545 24.3781 20.6851 24.5506 20.4327C24.7319 20.165 24.979 20.2924 25.1731 20.4096C25.6394 20.6941 26.0881 21.0093 26.5451 21.3191C26.7086 21.4339 26.8739 21.5548 27.0118 21.6956C27.1536 21.8387 27.2884 22.0032 27.1322 22.2089C26.9849 22.3993 26.8008 22.3848 26.6063 22.2776C26.3978 22.1573 25.2308 21.4019 24.8601 21.1369Z" fill="#CD4631"/>
</g>
<defs>
<clipPath id="clip0_301_2530">
<rect width="25.4446" height="26.6566" fill="white" transform="translate(35.8076 13.3281) rotate(120)"/>
</clipPath>
</defs>
</svg>
